<svg preserveAspectRatio="none" width="100%" height="100%" overflow="visible" style="display: block;" viewBox="0 0 159.526 44.8417" fill="none" xmlns="http://www.w3.org/2000/svg">
<g id="Vector">
<path d="M114.302 34.7364C114.302 37.8943 113.397 40.3785 111.587 42.189C109.818 43.9574 107.355 44.8416 104.197 44.8416H89.6709C86.5131 44.8416 84.0289 43.9574 82.2184 42.189C80.45 40.3785 79.5658 37.8943 79.5658 34.7364V20.2102C79.5658 17.0523 80.45 14.5892 82.2184 12.8208C84.0289 11.0103 86.5131 10.105 89.6709 10.105H104.197C107.355 10.105 109.818 11.0103 111.587 12.8208C113.397 14.5892 114.302 17.0523 114.302 20.2102V34.7364ZM103.25 21.1576C103.25 19.4734 102.408 18.6313 100.723 18.6313H93.1446C91.4604 18.6313 90.6183 19.4734 90.6183 21.1576V33.789C90.6183 35.4732 91.4604 36.3153 93.1446 36.3153H100.723C102.408 36.3153 103.25 35.4732 103.25 33.789V21.1576Z" fill="var(--fill-0, #3A343B)"/>
<path d="M56.5383 17.9997C54.8541 17.9997 54.012 18.8418 54.012 20.526V23.9997H64.7488V20.526C64.7488 18.8418 63.9067 17.9997 62.2225 17.9997H56.5383ZM74.5382 43.5784C66.4119 44.4205 59.0436 44.8416 52.4331 44.8416C49.57 44.8416 47.2753 43.9784 45.549 42.2521C43.8227 40.5258 42.9595 38.2311 42.9595 35.368V20.2102C42.9595 17.0523 43.8437 14.5892 45.6121 12.8208C47.4226 11.0103 49.9068 10.105 53.0647 10.105H65.6962C68.854 10.105 71.3172 11.0103 73.0856 12.8208C74.8961 14.5892 75.8013 17.0523 75.8013 20.2102V31.8943H54.012V34.4206C54.012 35.0522 54.2226 35.5785 54.6436 35.9996C55.0647 36.4206 55.591 36.6311 56.2225 36.6311C60.3909 36.6311 66.4961 36.3153 74.5382 35.6838V43.5784Z" fill="var(--fill-0, #3A343B)"/>
<path d="M39.1575 43.2628C29.305 44.3154 20.2524 44.8417 11.9999 44.8417C7.87361 44.8417 4.84206 43.8733 2.90524 41.9365C0.968412 39.9997 0 36.9681 0 32.8418V12.6315C0 8.21046 0.989465 5.01049 2.96839 3.03156C4.98943 1.01052 8.21045 0 12.6315 0H35.3681V8.84203H15.1578C12.6315 8.84203 11.3683 10.1052 11.3683 12.6315V32.8418C11.3683 33.8102 11.642 34.5892 12.1894 35.1787C12.7788 35.726 13.5578 35.9997 14.5262 35.9997C19.3682 35.9997 23.7893 35.8944 27.7892 35.6839V26.5261H19.5788V18.9472H39.1575V43.2628Z" fill="var(--fill-0, #3A343B)"/>
<path d="M117.59 0.758248H131.926L159.526 44.2105H145.126L117.59 0.758248ZM140.705 9.60028L145.505 0.758248H159.337L147.337 20.0844L140.705 9.60028ZM129.463 24.5054L136.031 34.9264L131.168 44.2105H117.337L129.463 24.5054Z" fill="var(--fill-0, #3A343B)"/>
</g>
</svg>
