<svg preserveAspectRatio="none" width="100%" height="100%" overflow="visible" style="display: block;" viewBox="0 0 395.812 54.0004" fill="none" xmlns="http://www.w3.org/2000/svg">
<g id="Group 33520">
<g id="Vector">
<path d="M372.832 44.5085V21.0739H378.554L379.144 23.5264L380.689 22.6635C381.779 22.0579 382.884 21.5735 384.004 21.2102C385.124 20.8469 386.244 20.6652 387.365 20.6652C389.302 20.6652 390.877 21.0285 392.088 21.7552C393.329 22.4516 394.253 23.4204 394.858 24.6618C395.494 25.8729 395.812 27.2505 395.812 28.7946V44.5085H388.046V30.7929C388.046 29.7635 387.789 28.9763 387.274 28.4313C386.759 27.8863 385.836 27.6138 384.504 27.6138C384.019 27.6138 383.55 27.6744 383.096 27.7955C382.672 27.8863 382.233 28.0377 381.779 28.2496L380.552 28.7038V44.5085H372.832Z" fill="var(--fill-0, #8759F2)"/>
<path d="M356.479 44.9173C353.875 44.9173 351.649 44.4177 349.802 43.4186C347.956 42.3891 346.517 40.9661 345.488 39.1495C344.489 37.3328 343.989 35.2134 343.989 32.7912C343.989 30.3388 344.519 28.2042 345.579 26.3876C346.639 24.571 348.107 23.1631 349.984 22.1639C351.861 21.1648 354.072 20.6652 356.615 20.6652C359.188 20.6652 361.399 21.1799 363.246 22.2093C365.123 23.2085 366.561 24.6164 367.56 26.433C368.559 28.2496 369.059 30.3691 369.059 32.7912C369.059 35.2134 368.529 37.3328 367.469 39.1495C366.41 40.9661 364.941 42.3891 363.064 43.4186C361.187 44.4177 358.992 44.9173 356.479 44.9173ZM356.524 38.5136C357.493 38.5136 358.326 38.3168 359.022 37.9232C359.718 37.4994 360.248 36.8635 360.611 36.0158C360.975 35.168 361.156 34.0932 361.156 32.7912C361.156 31.459 360.975 30.3842 360.611 29.5667C360.278 28.7189 359.764 28.0983 359.067 27.7047C358.371 27.2808 357.523 27.0688 356.524 27.0688C355.585 27.0688 354.753 27.2808 354.026 27.7047C353.33 28.0983 352.785 28.7189 352.391 29.5667C351.998 30.3842 351.801 31.459 351.801 32.7912C351.801 34.0932 351.998 35.168 352.391 36.0158C352.785 36.8635 353.33 37.4994 354.026 37.9232C354.723 38.3168 355.555 38.5136 356.524 38.5136Z" fill="var(--fill-0, #8759F2)"/>
<path d="M332.493 44.5085V21.0739H340.214V44.5085H332.493ZM336.353 17.8039C335.506 17.8039 334.703 17.592 333.946 17.1681C333.22 16.7442 332.645 16.1841 332.221 15.4877C331.797 14.7913 331.585 14.0344 331.585 13.2169C331.585 12.3691 331.797 11.6122 332.221 10.9461C332.645 10.2497 333.22 9.6896 333.946 9.26572C334.703 8.84184 335.506 8.6299 336.353 8.6299C337.232 8.6299 338.034 8.84184 338.761 9.26572C339.487 9.6896 340.062 10.2497 340.486 10.9461C340.91 11.6122 341.122 12.3691 341.122 13.2169C341.122 14.0344 340.91 14.7913 340.486 15.4877C340.062 16.1841 339.487 16.7442 338.761 17.1681C338.034 17.592 337.232 17.8039 336.353 17.8039Z" fill="var(--fill-0, #8759F2)"/>
<path d="M318.78 44.8719C317.418 44.8719 316.025 44.7508 314.602 44.5085C313.179 44.2663 311.756 43.9333 310.333 43.5094L309.016 43.1006L310.151 37.9686L311.332 38.1957C312.483 38.3774 313.588 38.5288 314.647 38.6499C315.707 38.7407 316.737 38.7861 317.736 38.7861C318.644 38.7861 319.325 38.6953 319.779 38.5136C320.264 38.3017 320.506 37.9687 320.506 37.5145C320.506 37.242 320.415 36.9998 320.234 36.7878C320.052 36.5759 319.689 36.3488 319.144 36.1066C318.629 35.8644 317.842 35.5919 316.782 35.2891C314.844 34.7441 313.315 34.1537 312.195 33.5179C311.105 32.8821 310.333 32.11 309.879 31.2017C309.425 30.2934 309.197 29.1428 309.197 27.7501C309.228 26.1757 309.667 24.8737 310.515 23.8443C311.393 22.7846 312.589 21.9974 314.102 21.4827C315.616 20.9377 317.403 20.6652 319.461 20.6652C320.733 20.6652 322.02 20.7712 323.322 20.9831C324.654 21.1648 326.001 21.4675 327.364 21.8914L328.136 22.1639L327.182 27.0688L326.228 26.978C325.108 26.8266 324.094 26.7358 323.186 26.7055C322.308 26.645 321.551 26.6147 320.915 26.6147C319.734 26.6147 318.811 26.7055 318.144 26.8872C317.478 27.0688 317.145 27.3413 317.145 27.7047C317.145 28.0074 317.236 28.2496 317.418 28.4313C317.63 28.5827 318.069 28.7644 318.735 28.9763C319.431 29.1882 320.476 29.491 321.869 29.8846C323.594 30.3085 324.957 30.8384 325.956 31.4742C326.955 32.0797 327.667 32.8215 328.09 33.6996C328.545 34.5473 328.772 35.5919 328.772 36.8333C328.772 38.6196 328.333 40.1183 327.455 41.3294C326.607 42.5102 325.441 43.4034 323.958 44.009C322.474 44.5842 320.748 44.8719 318.78 44.8719Z" fill="var(--fill-0, #8759F2)"/>
<path d="M297.565 44.5085V21.0739H305.286V44.5085H297.565ZM301.426 17.8039C300.578 17.8039 299.775 17.592 299.018 17.1681C298.292 16.7442 297.717 16.1841 297.293 15.4877C296.869 14.7913 296.657 14.0344 296.657 13.2169C296.657 12.3691 296.869 11.6122 297.293 10.9461C297.717 10.2497 298.292 9.6896 299.018 9.26572C299.775 8.84184 300.578 8.6299 301.426 8.6299C302.304 8.6299 303.106 8.84184 303.833 9.26572C304.559 9.6896 305.134 10.2497 305.558 10.9461C305.982 11.6122 306.194 12.3691 306.194 13.2169C306.194 14.0344 305.982 14.7913 305.558 15.4877C305.134 16.1841 304.559 16.7442 303.833 17.1681C303.106 17.592 302.304 17.8039 301.426 17.8039Z" fill="var(--fill-0, #8759F2)"/>
<path d="M273.167 44.6445L260.587 12.7171H269.352L277.664 35.2434H277.845L285.838 12.7171H294.558L281.842 44.6445H273.167Z" fill="var(--fill-0, #8759F2)"/>
<path d="M243.019 54.0004C242.383 54.0004 241.642 53.9399 240.794 53.8187C239.946 53.6976 238.992 53.5008 237.933 53.2283L236.116 52.6833L237.115 47.0518L238.841 47.188C239.356 47.2183 239.84 47.2486 240.294 47.2789C240.748 47.3091 241.157 47.3243 241.52 47.3243C242.338 47.3243 242.989 47.1729 243.473 46.8701C243.958 46.5976 244.321 46.1586 244.563 45.553L245.108 44.1906L235.753 21.0739H244.245L249.15 35.7886H249.423L254.419 21.0739H262.548L250.922 48.9592C250.165 50.7759 249.12 52.0627 247.788 52.8196C246.486 53.6068 244.896 54.0004 243.019 54.0004Z" fill="var(--fill-0, #8759F2)"/>
<path d="M227.813 44.8718C225.361 44.8718 223.453 44.3268 222.091 43.2368C220.728 42.1468 220.047 40.3756 220.047 37.9231V27.3412H215.188V22.3455L220.047 21.0738V15.8056L227.813 13.9435V21.0738H234.671V27.3412H227.813V35.4707C227.813 36.4698 227.98 37.2268 228.313 37.7415C228.676 38.2259 229.524 38.4681 230.856 38.4681C231.219 38.4681 231.583 38.453 231.946 38.4227C232.309 38.3924 232.703 38.347 233.127 38.2865L234.398 38.1048L235.125 43.6001L234.081 43.8726C233.021 44.1754 231.946 44.4176 230.856 44.5993C229.796 44.7809 228.782 44.8718 227.813 44.8718Z" fill="var(--fill-0, #8759F2)"/>
<path d="M204.736 44.5085V21.0739H212.456V44.5085H204.736ZM208.596 17.8039C207.748 17.8039 206.946 17.592 206.189 17.1681C205.462 16.7442 204.887 16.1841 204.463 15.4877C204.039 14.7913 203.827 14.0344 203.827 13.2169C203.827 12.3691 204.039 11.6122 204.463 10.9461C204.887 10.2497 205.462 9.6896 206.189 9.26572C206.946 8.84184 207.748 8.6299 208.596 8.6299C209.474 8.6299 210.276 8.84184 211.003 9.26572C211.73 9.6896 212.305 10.2497 212.729 10.9461C213.153 11.6122 213.365 12.3691 213.365 13.2169C213.365 14.0344 213.153 14.7913 212.729 15.4877C212.305 16.1841 211.73 16.7442 211.003 17.1681C210.276 17.592 209.474 17.8039 208.596 17.8039Z" fill="var(--fill-0, #8759F2)"/>
<path d="M190.611 44.8716C187.432 44.8716 184.601 44.2812 182.118 43.1004C179.666 41.8893 177.743 40.0726 176.35 37.6504C174.957 35.2283 174.261 32.2005 174.261 28.5673C174.261 25.9331 174.685 23.6018 175.533 21.5732C176.38 19.5446 177.561 17.8491 179.075 16.4866C180.619 15.0939 182.406 14.0493 184.434 13.3529C186.463 12.6263 188.643 12.263 190.974 12.263C192.609 12.263 194.214 12.4295 195.788 12.7625C197.363 13.0956 198.861 13.5195 200.284 14.0342L200.875 14.3067L199.467 20.4832L198.286 20.3016C197.045 20.1199 195.864 19.9534 194.744 19.802C193.654 19.6506 192.533 19.5749 191.383 19.5749C189.536 19.5749 187.946 19.8928 186.614 20.5287C185.282 21.1645 184.253 22.1334 183.526 23.4353C182.799 24.7372 182.436 26.4327 182.436 28.5219C182.436 30.6715 182.769 32.4125 183.435 33.7447C184.131 35.0466 185.115 36.0155 186.387 36.6513C187.689 37.2568 189.263 37.5596 191.11 37.5596C192.14 37.5596 193.245 37.4839 194.426 37.3325C195.607 37.1812 196.863 36.9843 198.195 36.7421L200.194 36.3334L201.511 42.51L200.511 42.9187C198.967 43.5545 197.332 44.0389 195.607 44.372C193.911 44.705 192.246 44.8716 190.611 44.8716Z" fill="var(--fill-0, #8759F2)"/>
</g>
<g id="Vector_2">
<path d="M115.071 34.9703C115.071 38.1494 114.16 40.6503 112.337 42.473C110.557 44.2533 108.077 45.1435 104.898 45.1435H90.2743C87.0952 45.1435 84.5943 44.2533 82.7716 42.473C80.9913 40.6503 80.1011 38.1494 80.1011 34.9703V20.3464C80.1011 17.1673 80.9913 14.6876 82.7716 12.9073C84.5943 11.0846 87.0952 10.1733 90.2743 10.1733H104.898C108.077 10.1733 110.557 11.0846 112.337 12.9073C114.16 14.6876 115.071 17.1673 115.071 20.3464V34.9703ZM103.944 21.3001C103.944 19.6046 103.097 18.7569 101.401 18.7569H93.7713C92.0758 18.7569 91.228 19.6046 91.228 21.3001V34.0166C91.228 35.7121 92.0758 36.5599 93.7713 36.5599H101.401C103.097 36.5599 103.944 35.7121 103.944 34.0166V21.3001Z" fill="var(--fill-0, #3A343B)"/>
<path d="M56.9186 18.121C55.223 18.121 54.3753 18.9688 54.3753 20.6643V24.1613H65.1843V20.6643C65.1843 18.9688 64.3365 18.121 62.641 18.121H56.9186ZM75.0395 43.8718C66.8586 44.7196 59.4407 45.1435 52.7857 45.1435C49.9033 45.1435 47.5932 44.2745 45.8552 42.5366C44.1173 40.7987 43.2484 38.4886 43.2484 35.6062V20.3464C43.2484 17.1673 44.1385 14.6876 45.9188 12.9073C47.7415 11.0846 50.2424 10.1733 53.4215 10.1733H66.138C69.3171 10.1733 71.7968 11.0846 73.5771 12.9073C75.3998 14.6876 76.3112 17.1673 76.3112 20.3464V32.1091H54.3753V34.6524C54.3753 35.2882 54.5872 35.8181 55.0111 36.242C55.435 36.6659 55.9648 36.8778 56.6006 36.8778C60.7971 36.8778 66.9434 36.5599 75.0395 35.9241V43.8718Z" fill="var(--fill-0, #3A343B)"/>
<path d="M39.4212 43.554C29.5023 44.6137 20.3889 45.1435 12.0808 45.1435C7.92672 45.1435 4.87477 44.1686 2.92491 42.2187C0.975055 40.2689 0.000127077 37.2169 0.000127077 33.0629V12.7166C0.000127077 8.26581 0.996249 5.04431 2.98849 3.05206C5.02313 1.01743 8.26583 0.00011158 12.7166 0.00011158H35.6062V8.90163H15.2599C12.7166 8.90163 11.4449 10.1733 11.4449 12.7166V33.0629C11.4449 34.0378 11.7205 34.822 12.2715 35.4154C12.8649 35.9665 13.6491 36.242 14.6241 36.242C19.4987 36.242 23.9495 36.136 27.9763 35.9241V26.7047H19.7106V19.0748H39.4212V43.554Z" fill="var(--fill-0, #3A343B)"/>
<path d="M118.381 0.763797H132.814L160.6 44.5084H146.103L118.381 0.763797ZM141.652 9.66531L146.484 0.763797H160.409L148.328 20.22L141.652 9.66531ZM130.334 24.6707L136.947 35.1618L132.051 44.5084H118.127L130.334 24.6707Z" fill="var(--fill-0, #3A343B)"/>
</g>
</g>
</svg>
