<svg preserveAspectRatio="none" width="100%" height="100%" overflow="visible" style="display: block;" viewBox="0 0 23.75 23.75" fill="none" xmlns="http://www.w3.org/2000/svg">
<path id="Vector" d="M4.375 13.125C3.6875 13.125 3.125 13.6875 3.125 14.375C3.125 15.0625 3.6875 15.625 4.375 15.625C5.0625 15.625 5.625 15.0625 5.625 14.375C5.625 13.6875 5.0625 13.125 4.375 13.125ZM4.375 18.125C3.6875 18.125 3.125 18.6875 3.125 19.375C3.125 20.0625 3.6875 20.625 4.375 20.625C5.0625 20.625 5.625 20.0625 5.625 19.375C5.625 18.6875 5.0625 18.125 4.375 18.125ZM4.375 8.125C3.6875 8.125 3.125 8.6875 3.125 9.375C3.125 10.0625 3.6875 10.625 4.375 10.625C5.0625 10.625 5.625 10.0625 5.625 9.375C5.625 8.6875 5.0625 8.125 4.375 8.125ZM0.625 8.75C0.275 8.75 0 9.025 0 9.375C0 9.725 0.275 10 0.625 10C0.975 10 1.25 9.725 1.25 9.375C1.25 9.025 0.975 8.75 0.625 8.75ZM4.375 3.125C3.6875 3.125 3.125 3.6875 3.125 4.375C3.125 5.0625 3.6875 5.625 4.375 5.625C5.0625 5.625 5.625 5.0625 5.625 4.375C5.625 3.6875 5.0625 3.125 4.375 3.125ZM23.125 10C23.475 10 23.75 9.725 23.75 9.375C23.75 9.025 23.475 8.75 23.125 8.75C22.775 8.75 22.5 9.025 22.5 9.375C22.5 9.725 22.775 10 23.125 10ZM14.375 5.625C15.0625 5.625 15.625 5.0625 15.625 4.375C15.625 3.6875 15.0625 3.125 14.375 3.125C13.6875 3.125 13.125 3.6875 13.125 4.375C13.125 5.0625 13.6875 5.625 14.375 5.625ZM14.375 1.25C14.725 1.25 15 0.975 15 0.625C15 0.275 14.725 0 14.375 0C14.025 0 13.75 0.275 13.75 0.625C13.75 0.975 14.025 1.25 14.375 1.25ZM0.625 13.75C0.275 13.75 0 14.025 0 14.375C0 14.725 0.275 15 0.625 15C0.975 15 1.25 14.725 1.25 14.375C1.25 14.025 0.975 13.75 0.625 13.75ZM9.375 22.5C9.025 22.5 8.75 22.775 8.75 23.125C8.75 23.475 9.025 23.75 9.375 23.75C9.725 23.75 10 23.475 10 23.125C10 22.775 9.725 22.5 9.375 22.5ZM9.375 1.25C9.725 1.25 10 0.975 10 0.625C10 0.275 9.725 0 9.375 0C9.025 0 8.75 0.275 8.75 0.625C8.75 0.975 9.025 1.25 9.375 1.25ZM9.375 5.625C10.0625 5.625 10.625 5.0625 10.625 4.375C10.625 3.6875 10.0625 3.125 9.375 3.125C8.6875 3.125 8.125 3.6875 8.125 4.375C8.125 5.0625 8.6875 5.625 9.375 5.625ZM9.375 12.5C8.3375 12.5 7.5 13.3375 7.5 14.375C7.5 15.4125 8.3375 16.25 9.375 16.25C10.4125 16.25 11.25 15.4125 11.25 14.375C11.25 13.3375 10.4125 12.5 9.375 12.5ZM19.375 13.125C18.6875 13.125 18.125 13.6875 18.125 14.375C18.125 15.0625 18.6875 15.625 19.375 15.625C20.0625 15.625 20.625 15.0625 20.625 14.375C20.625 13.6875 20.0625 13.125 19.375 13.125ZM19.375 18.125C18.6875 18.125 18.125 18.6875 18.125 19.375C18.125 20.0625 18.6875 20.625 19.375 20.625C20.0625 20.625 20.625 20.0625 20.625 19.375C20.625 18.6875 20.0625 18.125 19.375 18.125ZM19.375 8.125C18.6875 8.125 18.125 8.6875 18.125 9.375C18.125 10.0625 18.6875 10.625 19.375 10.625C20.0625 10.625 20.625 10.0625 20.625 9.375C20.625 8.6875 20.0625 8.125 19.375 8.125ZM19.375 3.125C18.6875 3.125 18.125 3.6875 18.125 4.375C18.125 5.0625 18.6875 5.625 19.375 5.625C20.0625 5.625 20.625 5.0625 20.625 4.375C20.625 3.6875 20.0625 3.125 19.375 3.125ZM23.125 13.75C22.775 13.75 22.5 14.025 22.5 14.375C22.5 14.725 22.775 15 23.125 15C23.475 15 23.75 14.725 23.75 14.375C23.75 14.025 23.475 13.75 23.125 13.75ZM14.375 18.125C13.6875 18.125 13.125 18.6875 13.125 19.375C13.125 20.0625 13.6875 20.625 14.375 20.625C15.0625 20.625 15.625 20.0625 15.625 19.375C15.625 18.6875 15.0625 18.125 14.375 18.125ZM14.375 22.5C14.025 22.5 13.75 22.775 13.75 23.125C13.75 23.475 14.025 23.75 14.375 23.75C14.725 23.75 15 23.475 15 23.125C15 22.775 14.725 22.5 14.375 22.5ZM9.375 7.5C8.3375 7.5 7.5 8.3375 7.5 9.375C7.5 10.4125 8.3375 11.25 9.375 11.25C10.4125 11.25 11.25 10.4125 11.25 9.375C11.25 8.3375 10.4125 7.5 9.375 7.5ZM9.375 18.125C8.6875 18.125 8.125 18.6875 8.125 19.375C8.125 20.0625 8.6875 20.625 9.375 20.625C10.0625 20.625 10.625 20.0625 10.625 19.375C10.625 18.6875 10.0625 18.125 9.375 18.125ZM14.375 12.5C13.3375 12.5 12.5 13.3375 12.5 14.375C12.5 15.4125 13.3375 16.25 14.375 16.25C15.4125 16.25 16.25 15.4125 16.25 14.375C16.25 13.3375 15.4125 12.5 14.375 12.5ZM14.375 7.5C13.3375 7.5 12.5 8.3375 12.5 9.375C12.5 10.4125 13.3375 11.25 14.375 11.25C15.4125 11.25 16.25 10.4125 16.25 9.375C16.25 8.3375 15.4125 7.5 14.375 7.5Z" fill="var(--fill-0, #161C2D)"/>
</svg>
