<svg preserveAspectRatio="none" width="100%" height="100%" overflow="visible" style="display: block;" viewBox="0 0 89.0626 82.0316" fill="none" xmlns="http://www.w3.org/2000/svg">
<g id="Group">
<path id="Vector" d="M36.4704 27.2926C37.1157 27.7113 37.5001 28.4316 37.5001 29.2207V35.1566C37.5001 37.0676 38.8813 38.6551 40.697 38.991C40.986 40.5519 42.1985 41.7926 43.7501 42.1082V44.5316H45.3126V42.1082C46.8642 41.7926 48.0767 40.5519 48.3657 38.991C50.1813 38.6551 51.5626 37.0676 51.5626 35.1566V29.2207C51.5626 28.4332 51.961 27.7035 52.6298 27.2676C56.8532 24.5129 59.3751 19.8691 59.3751 14.8441C59.3751 10.7941 57.7751 7.0113 54.8673 4.18943C51.9626 1.37068 48.161 -0.112133 44.0735 0.00661726C36.1126 0.247242 29.6595 6.92693 29.6876 14.8972C29.7048 19.9191 32.2407 24.5519 36.4704 27.2926ZM44.5313 40.6254C43.5126 40.6254 42.6438 39.9722 42.3204 39.0629H46.7407C46.4188 39.9722 45.5501 40.6254 44.5313 40.6254ZM50.0001 35.1566C50.0001 36.4488 48.9485 37.5004 47.6563 37.5004H41.4063C40.1142 37.5004 39.0626 36.4488 39.0626 35.1566V32.8129H50.0001V35.1566ZM44.1204 1.56912C47.761 1.44568 51.1798 2.78787 53.7782 5.3113C56.3798 7.83474 57.8126 11.2207 57.8126 14.8441C57.8126 19.3379 55.5563 23.4941 51.7767 25.9597C50.6642 26.6847 50.0001 27.9051 50.0001 29.2207V31.2504H39.0626V29.2207C39.0626 27.8988 38.411 26.6879 37.3204 25.9816C33.536 23.5285 31.2657 19.3832 31.2501 14.8926C31.2251 7.75974 36.9985 1.78474 44.1204 1.56912Z" fill="var(--fill-0, #5871ED)"/>
<path id="Vector_2" d="M84.5548 16.6894C81.6501 13.8707 77.8376 12.3972 73.761 12.5066C65.8001 12.7472 59.347 19.4269 59.3751 27.3972C59.3923 32.4176 61.9282 37.0504 66.1579 39.791C66.8032 40.2097 67.1876 40.9301 67.1876 41.7191V47.6566C67.1876 49.5676 68.5688 51.1551 70.3845 51.491C70.6735 53.0519 71.886 54.2926 73.4376 54.6082V58.2707L69.2079 62.5004H63.2813V64.0629H69.5313C69.7392 64.0629 69.9376 63.9801 70.0845 63.8347L74.772 59.1472C74.9173 59.0004 75.0001 58.8019 75.0001 58.5941V54.6082C76.5517 54.2926 77.7642 53.0519 78.0532 51.491C79.8688 51.1551 81.2501 49.5676 81.2501 47.6566V41.7207C81.2501 40.9332 81.6485 40.2035 82.3173 39.7676C86.5407 37.0129 89.0626 32.3691 89.0626 27.3441C89.0626 23.2941 87.4626 19.5113 84.5548 16.6894ZM74.2188 53.1254C73.2001 53.1254 72.3313 52.4722 72.0079 51.5629H76.4282C76.1063 52.4722 75.2376 53.1254 74.2188 53.1254ZM79.6876 47.6566C79.6876 48.9488 78.636 50.0004 77.3438 50.0004H71.0938C69.8017 50.0004 68.7501 48.9488 68.7501 47.6566V45.3129H79.6876V47.6566ZM81.4642 38.4597C80.3517 39.1847 79.6876 40.4051 79.6876 41.7207V43.7504H68.7501V41.7207C68.7501 40.3988 68.0985 39.1879 67.0079 38.4816C63.2235 36.0285 60.9532 31.8832 60.9376 27.3926C60.9126 20.2613 66.686 14.2847 73.8079 14.0707C77.4563 13.9472 80.8673 15.2894 83.4657 17.8129C86.0673 20.3347 87.5001 23.7207 87.5001 27.3441C87.5001 31.8379 85.2438 35.9941 81.4642 38.4597Z" fill="var(--fill-0, #5871ED)"/>
<path id="Vector_3" d="M60.9376 56.2504H63.2813V54.6879H60.9376V50.7816C60.9376 48.6285 59.1845 46.8754 57.0313 46.8754H53.1251V44.5316H51.5626V46.8754H37.5001V44.5316H35.9376V46.8754H32.0313C29.8782 46.8754 28.1251 48.6285 28.1251 50.7816V54.6879H25.7813V56.2504H28.1251V70.3129H25.7813V71.8754H28.1251V75.7816C28.1251 77.9347 29.8782 79.6879 32.0313 79.6879H35.9376V82.0316H37.5001V79.6879H43.7501V82.0316H45.3126V79.6879H51.5626V82.0316H53.1251V79.6879H57.0313C59.1845 79.6879 60.9376 77.9347 60.9376 75.7816V71.8754H63.2813V70.3129H60.9376V56.2504ZM59.3751 75.7816C59.3751 77.0738 58.3235 78.1254 57.0313 78.1254H32.0313C30.7392 78.1254 29.6876 77.0738 29.6876 75.7816V50.7816C29.6876 49.4894 30.7392 48.4379 32.0313 48.4379H57.0313C58.3235 48.4379 59.3751 49.4894 59.3751 50.7816V75.7816Z" fill="var(--fill-0, #5871ED)"/>
<path id="Vector_4" d="M57.0313 50.0004H32.0313C31.6001 50.0004 31.2501 50.3504 31.2501 50.7816V75.7816C31.2501 76.2129 31.6001 76.5629 32.0313 76.5629H57.0313C57.4626 76.5629 57.8126 76.2129 57.8126 75.7816V50.7816C57.8126 50.3504 57.4626 50.0004 57.0313 50.0004ZM56.2501 75.0004H32.8126V51.5629H56.2501V75.0004Z" fill="var(--fill-0, #5871ED)"/>
<path id="Vector_5" d="M39.8438 62.5004H42.9688C43.4001 62.5004 43.7501 62.1504 43.7501 61.7191V60.1566C43.7501 58.8644 42.6985 57.8129 41.4063 57.8129C40.1142 57.8129 39.0626 58.8644 39.0626 60.1566V61.7191C39.0626 62.1504 39.4126 62.5004 39.8438 62.5004ZM40.6251 60.1566C40.6251 59.7254 40.9751 59.3754 41.4063 59.3754C41.8376 59.3754 42.1876 59.7254 42.1876 60.1566V60.9379H40.6251V60.1566Z" fill="var(--fill-0, #5871ED)"/>
<path id="Vector_6" d="M38.2813 71.8754C39.5735 71.8754 40.6251 70.8238 40.6251 69.5316V65.6254H42.1876V69.5316C42.1876 70.8238 43.2392 71.8754 44.5313 71.8754C45.8235 71.8754 46.8751 70.8238 46.8751 69.5316V60.1566C46.8751 57.141 44.422 54.6879 41.4063 54.6879C38.3907 54.6879 35.9376 57.141 35.9376 60.1566V69.5316C35.9376 70.8238 36.9892 71.8754 38.2813 71.8754ZM37.5001 60.1566C37.5001 58.0035 39.2532 56.2504 41.4063 56.2504C43.5595 56.2504 45.3126 58.0035 45.3126 60.1566V69.5316C45.3126 69.9629 44.9626 70.3129 44.5313 70.3129C44.1001 70.3129 43.7501 69.9629 43.7501 69.5316V64.8441C43.7501 64.4129 43.4001 64.0629 42.9688 64.0629H39.8438C39.4126 64.0629 39.0626 64.4129 39.0626 64.8441V69.5316C39.0626 69.9629 38.7126 70.3129 38.2813 70.3129C37.8501 70.3129 37.5001 69.9629 37.5001 69.5316V60.1566Z" fill="var(--fill-0, #5871ED)"/>
<path id="Vector_7" d="M50.7813 71.8754C52.0735 71.8754 53.1251 70.8238 53.1251 69.5316V57.0316C53.1251 55.7394 52.0735 54.6879 50.7813 54.6879C49.4892 54.6879 48.4376 55.7394 48.4376 57.0316V69.5316C48.4376 70.8238 49.4892 71.8754 50.7813 71.8754ZM50.0001 57.0316C50.0001 56.6004 50.3501 56.2504 50.7813 56.2504C51.2126 56.2504 51.5626 56.6004 51.5626 57.0316V69.5316C51.5626 69.9629 51.2126 70.3129 50.7813 70.3129C50.3501 70.3129 50.0001 69.9629 50.0001 69.5316V57.0316Z" fill="var(--fill-0, #5871ED)"/>
<path id="Vector_8" d="M25.7813 62.5004H19.8548L15.6251 58.2707V54.6082C17.1767 54.2926 18.3892 53.0519 18.6782 51.491C20.4938 51.1551 21.8751 49.5676 21.8751 47.6566V41.7207C21.8751 40.9332 22.2735 40.2035 22.9423 39.7676C27.1657 37.0129 29.6876 32.3691 29.6876 27.3441C29.6876 23.2941 28.0876 19.5113 25.1798 16.6894C22.2751 13.8707 18.4642 12.3972 14.386 12.5066C6.42509 12.7472 -0.0280334 19.4269 9.15859e-05 27.3972C0.0172791 32.4176 2.55322 37.0504 6.7829 39.791C7.42665 40.2097 7.81259 40.9301 7.81259 41.7207V47.6566C7.81259 49.5676 9.19384 51.1551 11.0095 51.491C11.2985 53.0519 12.511 54.2926 14.0626 54.6082V58.5941C14.0626 58.8019 14.1454 59.0004 14.2907 59.1472L18.9782 63.8347C19.1251 63.9801 19.3235 64.0629 19.5313 64.0629H25.7813V62.5004ZM7.6329 38.4816C3.84853 36.0285 1.57822 31.8832 1.56259 27.3926C1.53759 20.2613 7.31103 14.2847 14.4329 14.0707C18.0829 13.9472 21.4923 15.2894 24.0907 17.8129C26.6923 20.3347 28.1251 23.7207 28.1251 27.3441C28.1251 31.8379 25.8688 35.9941 22.0892 38.4597C20.9767 39.1847 20.3126 40.4051 20.3126 41.7207V43.7504H9.37509V41.7207C9.37509 40.3988 8.72353 39.1879 7.6329 38.4816ZM9.37509 47.6566V45.3129H20.3126V47.6566C20.3126 48.9488 19.261 50.0004 17.9688 50.0004H11.7188C10.4267 50.0004 9.37509 48.9488 9.37509 47.6566ZM12.6329 51.5629H17.0532C16.7298 52.4722 15.861 53.1254 14.8423 53.1254C13.8235 53.1254 12.9563 52.4722 12.6329 51.5629Z" fill="var(--fill-0, #5871ED)"/>
<path id="Vector_9" d="M13.3767 37.9191C13.8188 38.3629 14.0626 38.9504 14.0626 39.5769V41.4066H15.6251V39.5769C15.6251 38.9504 15.8688 38.3629 16.311 37.9191L20.7298 33.5004C21.4673 32.7629 21.8735 31.7816 21.8735 30.7379V25.7816C21.8735 25.466 21.6829 25.1801 21.3907 25.0597C21.0985 24.9379 20.7626 25.0051 20.5392 25.2285L17.9688 27.8019L15.397 25.2301C15.0923 24.9254 14.597 24.9254 14.2923 25.2301L11.7188 27.8019L9.14697 25.2301C8.92353 25.0051 8.58915 24.9394 8.2954 25.0613C8.00322 25.1801 7.81259 25.466 7.81259 25.7816V30.7363C7.81259 31.7801 8.21884 32.7613 8.95634 33.4988L13.3767 37.9191ZM9.37509 27.6676L11.1657 29.4582C11.4704 29.7629 11.9657 29.7629 12.2704 29.4582L14.8438 26.8863L17.4157 29.4582C17.7204 29.7629 18.2157 29.7629 18.5204 29.4582L20.311 27.6676V30.7363C20.311 31.3629 20.0673 31.9504 19.6251 32.3941L15.2063 36.8129C15.0751 36.9441 14.9532 37.0832 14.8438 37.2301C14.7345 37.0832 14.6126 36.9441 14.4813 36.8129L10.0626 32.3941C9.61884 31.9519 9.37509 31.3629 9.37509 30.7363V27.6676Z" fill="var(--fill-0, #5871ED)"/>
<path id="Vector_10" d="M43.0642 25.4191C43.5063 25.8629 43.7501 26.4504 43.7501 27.0769V28.9066H45.3126V27.0769C45.3126 26.4504 45.5563 25.8629 45.9985 25.4191L50.4173 21.0004C51.1548 20.2629 51.561 19.2816 51.561 18.2379V13.2816C51.561 12.966 51.3704 12.6801 51.0782 12.5597C50.786 12.4379 50.4501 12.5051 50.2267 12.7285L47.6563 15.3019L45.0845 12.7301C44.7798 12.4254 44.2845 12.4254 43.9798 12.7301L41.4063 15.3019L38.8345 12.7301C38.611 12.5066 38.2767 12.4394 37.9829 12.5613C37.6907 12.6801 37.5001 12.966 37.5001 13.2816V18.2363C37.5001 19.2801 37.9063 20.2613 38.6438 20.9988L43.0642 25.4191ZM39.0626 15.1676L40.8532 16.9582C41.1579 17.2629 41.6532 17.2629 41.9579 16.9582L44.5313 14.3863L47.1032 16.9582C47.4079 17.2629 47.9032 17.2629 48.2079 16.9582L49.9985 15.1676V18.2363C49.9985 18.8629 49.7548 19.4504 49.3126 19.8941L44.8938 24.3129C44.7626 24.4441 44.6407 24.5832 44.5313 24.7301C44.422 24.5832 44.3001 24.4441 44.1688 24.3129L39.7501 19.8941C39.3079 19.4504 39.0642 18.8629 39.0642 18.2363L39.0626 15.1676Z" fill="var(--fill-0, #5871ED)"/>
<path id="Vector_11" d="M80.7673 25.0597C80.4751 24.9379 80.1407 25.0051 79.9157 25.2285L77.3438 27.8019L74.772 25.2301C74.4673 24.9254 73.972 24.9254 73.6673 25.2301L71.0938 27.8019L68.522 25.2301C68.2985 25.0051 67.9642 24.9394 67.6704 25.0613C67.3782 25.1801 67.1876 25.466 67.1876 25.7816V30.7363C67.1876 31.7801 67.5938 32.7613 68.3313 33.4988L72.7501 37.9176C73.1923 38.3613 73.436 38.9488 73.436 39.5754V41.4066H74.9985V39.5769C74.9985 38.9504 75.2423 38.3629 75.6845 37.9191L80.1032 33.5004C80.8407 32.7629 81.247 31.7816 81.247 30.7379V25.7816C81.2501 25.466 81.0595 25.1801 80.7673 25.0597ZM79.6876 30.7363C79.6876 31.3629 79.4438 31.9504 79.0017 32.3941L74.5829 36.8129C74.4517 36.9441 74.3298 37.0832 74.2204 37.2301C74.111 37.0832 73.9892 36.9441 73.8579 36.8129L69.4392 32.3941C68.997 31.9504 68.7532 31.3629 68.7532 30.7363V27.6676L70.5438 29.4582C70.8485 29.7629 71.3438 29.7629 71.6485 29.4582L74.2188 26.8863L76.7907 29.4582C77.0954 29.7629 77.5907 29.7629 77.8954 29.4582L79.686 27.6676L79.6876 30.7363Z" fill="var(--fill-0, #5871ED)"/>
</g>
</svg>
