<svg preserveAspectRatio="none" width="100%" height="100%" overflow="visible" style="display: block;" viewBox="0 0 23.75 23.75" fill="none" xmlns="http://www.w3.org/2000/svg">
<path id="Vector" d="M3.75 0H20C20.9946 0 21.9484 0.395088 22.6517 1.09835C23.3549 1.80161 23.75 2.75544 23.75 3.75V20C23.75 20.9946 23.3549 21.9484 22.6517 22.6517C21.9484 23.3549 20.9946 23.75 20 23.75H3.75C2.75544 23.75 1.80161 23.3549 1.09835 22.6517C0.395088 21.9484 0 20.9946 0 20V3.75C0 2.75544 0.395088 1.80161 1.09835 1.09835C1.80161 0.395088 2.75544 0 3.75 0ZM3.75 1.25C3.08696 1.25 2.45107 1.51339 1.98223 1.98223C1.51339 2.45107 1.25 3.08696 1.25 3.75V18.2375L6.6125 12.8625L9.7375 15.9875L15.9875 9.7375L22.5 16.25V3.75C22.5 3.08696 22.2366 2.45107 21.7678 1.98223C21.2989 1.51339 20.663 1.25 20 1.25H3.75ZM9.7375 17.7625L6.6125 14.6375L1.25 20C1.25 20.663 1.51339 21.2989 1.98223 21.7678C2.45107 22.2366 3.08696 22.5 3.75 22.5H20C20.663 22.5 21.2989 22.2366 21.7678 21.7678C22.2366 21.2989 22.5 20.663 22.5 20V18.0125L15.9875 11.5125L9.7375 17.7625ZM6.875 3.75C7.7038 3.75 8.49866 4.07924 9.08471 4.66529C9.67076 5.25134 10 6.0462 10 6.875C10 7.7038 9.67076 8.49866 9.08471 9.08471C8.49866 9.67076 7.7038 10 6.875 10C6.0462 10 5.25134 9.67076 4.66529 9.08471C4.07924 8.49866 3.75 7.7038 3.75 6.875C3.75 6.0462 4.07924 5.25134 4.66529 4.66529C5.25134 4.07924 6.0462 3.75 6.875 3.75ZM6.875 5C6.37772 5 5.90081 5.19754 5.54917 5.54917C5.19754 5.90081 5 6.37772 5 6.875C5 7.37228 5.19754 7.84919 5.54917 8.20083C5.90081 8.55246 6.37772 8.75 6.875 8.75C7.37228 8.75 7.84919 8.55246 8.20083 8.20083C8.55246 7.84919 8.75 7.37228 8.75 6.875C8.75 6.37772 8.55246 5.90081 8.20083 5.54917C7.84919 5.19754 7.37228 5 6.875 5Z" fill="var(--fill-0, black)"/>
</svg>
