<svg preserveAspectRatio="none" width="100%" height="100%" overflow="visible" style="display: block;" viewBox="0 0 76.5625 89.0605" fill="none" xmlns="http://www.w3.org/2000/svg">
<g id="Group">
<path id="Vector" d="M52.3438 14.0605C52.7734 14.0605 53.125 14.4105 53.125 14.8418C53.125 16.134 54.1766 17.1855 55.4688 17.1855C56.7609 17.1855 57.8125 16.134 57.8125 14.8418C57.8125 14.4105 58.1641 14.0605 58.5938 14.0605C59.8859 14.0605 60.9375 13.009 60.9375 11.7168C60.9375 10.4246 59.8859 9.37305 58.5938 9.37305C58.1641 9.37305 57.8125 9.02305 57.8125 8.5918C57.8125 7.29961 56.7609 6.24805 55.4688 6.24805C54.1766 6.24805 53.125 7.29961 53.125 8.5918C53.125 9.02305 52.7734 9.37305 52.3438 9.37305C51.0516 9.37305 50 10.4246 50 11.7168C50 13.009 51.0516 14.0605 52.3438 14.0605ZM52.3438 10.9355C53.6359 10.9355 54.6875 9.88398 54.6875 8.5918C54.6875 8.16055 55.0391 7.81055 55.4688 7.81055C55.8984 7.81055 56.25 8.16055 56.25 8.5918C56.25 9.88398 57.3016 10.9355 58.5938 10.9355C59.0234 10.9355 59.375 11.2855 59.375 11.7168C59.375 12.148 59.0234 12.498 58.5938 12.498C57.3016 12.498 56.25 13.5496 56.25 14.8418C56.25 15.273 55.8984 15.623 55.4688 15.623C55.0391 15.623 54.6875 15.273 54.6875 14.8418C54.6875 13.5496 53.6359 12.498 52.3438 12.498C51.9141 12.498 51.5625 12.148 51.5625 11.7168C51.5625 11.2855 51.9141 10.9355 52.3438 10.9355Z" fill="var(--fill-0, #5871ED)"/>
<path id="Vector_2" d="M24.2188 74.998C23.7891 74.998 23.4375 74.648 23.4375 74.2168C23.4375 72.9246 22.3859 71.873 21.0938 71.873C19.8016 71.873 18.75 72.9246 18.75 74.2168C18.75 74.648 18.3984 74.998 17.9688 74.998C16.6766 74.998 15.625 76.0496 15.625 77.3418C15.625 78.634 16.6766 79.6855 17.9688 79.6855C18.3984 79.6855 18.75 80.0355 18.75 80.4668C18.75 81.759 19.8016 82.8105 21.0938 82.8105C22.3859 82.8105 23.4375 81.759 23.4375 80.4668C23.4375 80.0355 23.7891 79.6855 24.2188 79.6855C25.5109 79.6855 26.5625 78.634 26.5625 77.3418C26.5625 76.0496 25.5109 74.998 24.2188 74.998ZM24.2188 78.123C22.9266 78.123 21.875 79.1746 21.875 80.4668C21.875 80.898 21.5234 81.248 21.0938 81.248C20.6641 81.248 20.3125 80.898 20.3125 80.4668C20.3125 79.1746 19.2609 78.123 17.9688 78.123C17.5391 78.123 17.1875 77.773 17.1875 77.3418C17.1875 76.9105 17.5391 76.5605 17.9688 76.5605C19.2609 76.5605 20.3125 75.509 20.3125 74.2168C20.3125 73.7855 20.6641 73.4355 21.0938 73.4355C21.5234 73.4355 21.875 73.7855 21.875 74.2168C21.875 75.509 22.9266 76.5605 24.2188 76.5605C24.6484 76.5605 25 76.9105 25 77.3418C25 77.773 24.6484 78.123 24.2188 78.123Z" fill="var(--fill-0, #5871ED)"/>
<path id="Vector_3" d="M21.875 44.5293C21.875 53.5762 29.2344 60.9355 38.2812 60.9355C47.3281 60.9355 54.6875 53.5762 54.6875 44.5293C54.6875 35.4824 47.3281 28.123 38.2812 28.123C29.2344 28.123 21.875 35.4824 21.875 44.5293ZM53.125 44.5293C53.125 52.7137 46.4656 59.373 38.2812 59.373C30.0969 59.373 23.4375 52.7137 23.4375 44.5293C23.4375 36.3449 30.0969 29.6855 38.2812 29.6855C46.4656 29.6855 53.125 36.3449 53.125 44.5293Z" fill="var(--fill-0, #5871ED)"/>
<path id="Vector_4" d="M31.25 36.7168V44.5293C31.25 46.7027 32.5344 48.5684 34.375 49.4496V51.5605H30.4687C29.7844 51.5605 29.1266 51.684 28.5094 51.9277L29.0828 53.3809C29.5172 53.2105 29.9828 53.123 30.4687 53.123H34.4547C34.8172 54.9043 36.3953 56.248 38.2812 56.248C40.1672 56.248 41.7453 54.9043 42.1078 53.123H46.0937C46.5797 53.123 47.0453 53.2105 47.4797 53.3809L48.0531 51.9277C47.4359 51.684 46.7766 51.5605 46.0937 51.5605H42.1875V49.4496C44.0281 48.5684 45.3125 46.7027 45.3125 44.5293V36.7168C45.3125 34.5637 43.5609 32.8105 41.4062 32.8105H35.1562C33.0016 32.8105 31.25 34.5637 31.25 36.7168ZM40.625 52.3418C40.625 53.634 39.5734 54.6855 38.2812 54.6855C36.9891 54.6855 35.9375 53.634 35.9375 52.3418V49.9184C36.1953 49.9559 36.4516 49.998 36.7187 49.998H39.8437C40.1109 49.998 40.3672 49.9559 40.625 49.9184V52.3418ZM43.75 44.5293C43.75 46.6824 41.9984 48.4355 39.8437 48.4355H36.7187C34.5641 48.4355 32.8125 46.6824 32.8125 44.5293V39.8418C32.8125 38.5496 33.8641 37.498 35.1562 37.498H41.4062C42.6984 37.498 43.75 38.5496 43.75 39.8418V44.5293ZM43.75 36.7168C43.0969 36.2277 42.2844 35.9355 41.4062 35.9355H35.1562C34.2766 35.9355 33.4656 36.2277 32.8125 36.7184C32.8125 35.4262 33.8641 34.373 35.1562 34.373H41.4062C42.6984 34.373 43.75 35.4246 43.75 36.7168Z" fill="var(--fill-0, #5871ED)"/>
<path id="Vector_5" d="M36.6234 13.3746C37.0672 13.8168 37.6563 14.0605 38.2813 14.0605C38.9063 14.0605 39.4953 13.8168 39.9391 13.3746L44.6266 8.68711C45.5406 7.77305 45.5406 6.28711 44.6266 5.37305L39.9391 0.685547C39.0266 -0.228516 37.5375 -0.228516 36.625 0.685547L31.9375 5.37305C31.0234 6.28711 31.0234 7.77305 31.9375 8.68711L36.6234 13.3746ZM33.0406 6.47617L37.7281 1.78867C37.8813 1.63711 38.0813 1.56055 38.2813 1.56055C38.4813 1.56055 38.6813 1.63555 38.8344 1.78867L43.5219 6.47617C43.8266 6.78086 43.8266 7.27617 43.5219 7.58086L38.8344 12.2684C38.5391 12.5621 38.025 12.5621 37.7297 12.2684L33.0422 7.58086C32.7359 7.27773 32.7359 6.78086 33.0406 6.47617Z" fill="var(--fill-0, #5871ED)"/>
<path id="Vector_6" d="M37.7281 10.059C37.8813 10.2121 38.0813 10.2871 38.2813 10.2871C38.4813 10.2871 38.6813 10.2105 38.8344 10.059L41.3125 7.58086C41.6172 7.27617 41.6172 6.78086 41.3125 6.47617L38.8344 3.99805C38.5297 3.69336 38.0344 3.69336 37.7297 3.99805L35.2516 6.47617C34.9469 6.78086 34.9469 7.27617 35.2516 7.58086L37.7281 10.059ZM38.2813 5.65586L39.6547 7.0293L38.2813 8.40273L36.9078 7.0293L38.2813 5.65586Z" fill="var(--fill-0, #5871ED)"/>
<path id="Vector_7" d="M38.8344 78.9996C38.5297 78.6949 38.0344 78.6949 37.7297 78.9996L35.2516 81.4777C34.9469 81.7824 34.9469 82.2777 35.2516 82.5824L37.7297 85.0605C37.8828 85.2137 38.0828 85.2887 38.2828 85.2887C38.4828 85.2887 38.6828 85.2121 38.8359 85.0605L41.3141 82.5824C41.6188 82.2777 41.6188 81.7824 41.3141 81.4777L38.8344 78.9996ZM38.2813 83.4027L36.9078 82.0293L38.2813 80.6558L39.6547 82.0293L38.2813 83.4027Z" fill="var(--fill-0, #5871ED)"/>
<path id="Vector_8" d="M39.9391 75.684C39.0266 74.7699 37.5375 74.7699 36.625 75.684L31.9375 80.3715C31.0234 81.2855 31.0234 82.7715 31.9375 83.6855L36.625 88.373C37.0672 88.8168 37.6563 89.0605 38.2813 89.0605C38.9063 89.0605 39.4953 88.8168 39.9391 88.3746L44.6266 83.6871C45.5406 82.773 45.5406 81.2871 44.6266 80.373L39.9391 75.684ZM43.5219 82.5824L38.8344 87.2699C38.5391 87.5637 38.025 87.5637 37.7297 87.2699L33.0422 82.5824C32.7375 82.2777 32.7375 81.7824 33.0422 81.4777L37.7297 76.7902C37.8812 76.6371 38.0813 76.5605 38.2813 76.5605C38.4813 76.5605 38.6813 76.6355 38.8344 76.7887L43.5219 81.4762C43.8266 81.7809 43.8266 82.2777 43.5219 82.5824Z" fill="var(--fill-0, #5871ED)"/>
<path id="Vector_9" d="M19.6266 46.1871C20.5406 45.2731 20.5406 43.7871 19.6266 42.8731L14.9391 38.1856C14.0266 37.2715 12.5375 37.2715 11.625 38.1856L6.9375 42.8731C6.02344 43.7871 6.02344 45.2731 6.9375 46.1871L11.625 50.8746C12.0672 51.3168 12.6562 51.5606 13.2812 51.5606C13.9062 51.5606 14.4953 51.3168 14.9391 50.8746L19.6266 46.1871ZM12.7281 49.7699L8.04062 45.0824C7.73594 44.7777 7.73594 44.2824 8.04062 43.9777L12.7281 39.2902C12.8812 39.1371 13.0812 39.0605 13.2812 39.0605C13.4812 39.0605 13.6812 39.1355 13.8344 39.2887L18.5219 43.9762C18.8266 44.2809 18.8266 44.7762 18.5219 45.0809L13.8344 49.7684C13.5375 50.0637 13.025 50.0637 12.7281 49.7699Z" fill="var(--fill-0, #5871ED)"/>
<path id="Vector_10" d="M13.8344 41.4996C13.5297 41.1949 13.0344 41.1949 12.7297 41.4996L10.2516 43.9777C9.94688 44.2824 9.94688 44.7777 10.2516 45.0824L12.7297 47.5605C12.8828 47.7137 13.0828 47.7887 13.2828 47.7887C13.4828 47.7887 13.6828 47.7121 13.8359 47.5605L16.3141 45.0824C16.6188 44.7777 16.6188 44.2824 16.3141 43.9777L13.8344 41.4996ZM13.2813 45.9027L11.9078 44.5293L13.2813 43.1559L14.6547 44.5293L13.2813 45.9027Z" fill="var(--fill-0, #5871ED)"/>
<path id="Vector_11" d="M56.9359 42.8715C56.0219 43.7855 56.0219 45.2715 56.9359 46.1856L61.6234 50.8731C62.0672 51.3168 62.6562 51.5606 63.2812 51.5606C63.9062 51.5606 64.4953 51.3168 64.9391 50.8746L69.6266 46.1871C70.5406 45.2731 70.5406 43.7871 69.6266 42.8731L64.9391 38.1856C64.0266 37.2715 62.5375 37.2715 61.625 38.1856L56.9359 42.8715ZM63.2812 39.0605C63.4812 39.0605 63.6812 39.1355 63.8344 39.2887L68.5219 43.9762C68.8266 44.2809 68.8266 44.7762 68.5219 45.0809L63.8344 49.7684C63.5391 50.0621 63.025 50.0621 62.7297 49.7684L58.0422 45.0809C57.7375 44.7762 57.7375 44.2809 58.0422 43.9762L62.7297 39.2887C62.8812 39.1371 63.0812 39.0605 63.2812 39.0605Z" fill="var(--fill-0, #5871ED)"/>
<path id="Vector_12" d="M62.7281 47.559C62.8812 47.7121 63.0812 47.7871 63.2812 47.7871C63.4812 47.7871 63.6812 47.7105 63.8344 47.559L66.3125 45.0809C66.6172 44.7762 66.6172 44.2809 66.3125 43.9762L63.8344 41.498C63.5297 41.1934 63.0344 41.1934 62.7297 41.498L60.2516 43.9762C59.9469 44.2809 59.9469 44.7762 60.2516 45.0809L62.7281 47.559ZM63.2812 43.1559L64.6547 44.5293L63.2812 45.9027L61.9078 44.5293L63.2812 43.1559Z" fill="var(--fill-0, #5871ED)"/>
<path id="Vector_13" d="M65.3484 17.4605L64.2438 18.5652C71.1813 25.5027 75 34.723 75 44.5293C75 61.359 63.6125 75.9918 47.3078 80.1152L47.6922 81.6309C64.6906 77.3309 76.5625 62.0746 76.5625 44.5293C76.5625 34.3059 72.5797 24.6934 65.3484 17.4605Z" fill="var(--fill-0, #5871ED)"/>
<path id="Vector_14" d="M29.2547 8.94336L28.8703 7.42773C11.8719 11.7277 0 26.984 0 44.5293C0 54.7527 3.98281 64.3652 11.2141 71.598L12.3187 70.4934C5.38125 63.5559 1.5625 54.3355 1.5625 44.5293C1.5625 27.6996 12.95 13.0668 29.2547 8.94336Z" fill="var(--fill-0, #5871ED)"/>
<path id="Vector_15" d="M38.2813 70.3105C45.1766 70.3105 51.65 67.6262 56.5063 62.7527L55.3984 61.6496C50.8375 66.2277 44.7594 68.748 38.2813 68.748C31.8031 68.748 25.725 66.2277 21.1609 61.648C18.7547 59.2574 16.9219 56.4465 15.7141 53.2965L14.2547 53.8559C15.5422 57.2137 17.4953 60.2074 20.0563 62.7527C24.9125 67.6262 31.3859 70.3105 38.2813 70.3105Z" fill="var(--fill-0, #5871ED)"/>
<path id="Vector_16" d="M38.2813 18.748C31.3859 18.748 24.9125 21.4324 20.0563 26.3059L21.1641 27.409C25.725 22.8309 31.8031 20.3105 38.2813 20.3105C44.7594 20.3105 50.8375 22.8309 55.4016 27.4105C57.8078 29.8012 59.6406 32.6121 60.8484 35.7621L62.3078 35.2027C61.0203 31.8449 59.0672 28.8512 56.5063 26.3059C51.65 21.4324 45.1766 18.748 38.2813 18.748Z" fill="var(--fill-0, #5871ED)"/>
</g>
</svg>
