<svg width="16" height="16" viewBox="0 0 16 16" fill="none" xmlns="http://www.w3.org/2000/svg">
<path d="M5.31792 5.57971H3.17036V15.9977H5.31792V5.57971Z" fill="#45469A"/>
<path d="M14 16H11.8524V1.23157L14 3.44487V16Z" fill="#45469A"/>
<path d="M14 1.23157V3.44487H7.51028L9.65784 1.23157H14Z" fill="#6EBEC5"/>
<path d="M5.83074 0.679976C4.95738 -0.224732 3.53762 -0.22704 2.65978 0.67536C1.78194 1.57545 1.7797 3.03868 2.6553 3.94339C2.65754 3.94569 2.65978 3.948 2.66202 3.95031L4.23854 5.57971L5.81954 3.95493C5.81954 3.95493 5.82402 3.95031 5.82626 3.948C6.7041 3.04791 6.70634 1.58468 5.83074 0.679976ZM4.85661 2.94636C4.51623 3.29486 3.96534 3.29486 3.62719 2.94636C3.28905 2.59556 3.28905 2.02781 3.62719 1.67931C3.96758 1.33081 4.51847 1.33081 4.85661 1.67931C5.19476 2.03011 5.19476 2.59786 4.85661 2.94636Z" fill="#6EBEC5"/>
<path d="M9.65784 16H7.51028V3.44487L9.65784 1.23157V16Z" fill="#45469A"/>
</svg>
