<svg width="543" height="94" viewBox="0 0 543 94" fill="none" xmlns="http://www.w3.org/2000/svg">
<path d="M0 54.1495H8.22135V71.1555H8.34351L22.2697 54.1495H30.9308L15.441 71.7745L32.5678 93.2474H22.5385L8.35573 74.3357H8.23357V93.2474H0V54.1495Z" fill="#002E6D"/>
<path d="M80.1124 66.47C80.0513 66.7735 75.6413 86.2921 75.6413 86.2921C75.6413 86.2921 68.9714 66.7371 68.8737 66.47H65.1844C65.0989 66.7492 59.0276 86.6198 59.0276 86.6198C59.0276 86.6198 54.019 66.7614 53.9457 66.47H47.3491C47.4957 66.9556 54.8131 92.9682 54.8864 93.2474H61.1043C61.1898 92.9925 66.8092 76.1444 66.8092 76.1444C66.8092 76.1444 73.0515 93.0046 73.1492 93.2474H79.416C79.4893 92.9561 85.9027 66.9434 86.0249 66.47H80.1124Z" fill="#002E6D"/>
<path d="M107.159 89.0718V93.2474H114.415V75.064C114.415 70.2815 113.059 65.851 103.237 65.851C95.4434 65.851 91.2778 68.7278 91.18 74.1779H98.9372C98.9372 74.0687 98.9494 73.9473 98.9494 73.9473C99.0593 72.0659 99.2792 68.1209 103.176 68.1209C105.961 68.1209 107.159 69.7717 107.159 73.6439V78.4021H106.975C102.797 78.5721 90.0928 79.0697 90.0928 87.2996C90.0928 91.0504 93.6232 93.8908 98.3019 93.8908C104.361 93.8908 107.159 89.0718 107.159 89.0718ZM101.27 90.3463C98.9983 90.3463 97.5934 88.7926 97.5934 86.3164C97.5934 83.124 100.721 81.2304 106.939 80.6963L107.159 80.672V82.9055C107.159 86.6077 105.131 90.3585 101.27 90.3585V90.3463Z" fill="#002E6D"/>
<path d="M133.96 93.8907C135.646 93.8907 137.332 93.7329 139.103 93.563H139.115V90.0065C138.053 90.2978 136.856 90.3585 135.915 90.3585C132.836 90.3585 131.798 89.181 131.798 85.6973V69.3954H140.264V66.4822H131.798V56.0553C131.248 56.3345 124.737 59.891 124.542 60.0003V66.4822H118.922V69.3954H124.542V86.5591C124.542 92.6769 128.146 93.9029 133.948 93.9029L133.96 93.8907Z" fill="#002E6D"/>
<path d="M157.354 93.8908C161.654 93.8908 163.523 93.3567 166.882 92.0578V89.618C165.282 90.1521 163.242 90.7348 161.202 90.7348C152.358 90.7348 149.499 81.4124 149.499 76.8969V76.7027H167.457V75.8773C167.457 69.4197 163.193 65.851 155.448 65.851C146.689 65.851 142.243 70.1359 142.243 78.6085C142.243 92.4099 152.797 93.8908 157.342 93.8908H157.354ZM149.499 74.008C149.768 72.2479 150.855 68.133 155.204 68.133C160.31 68.133 160.457 73.4496 160.457 74.0444V74.2386H149.462L149.499 74.008Z" fill="#002E6D"/>
<path d="M190.911 72.5878V65.8631C185.609 66.2758 182.995 69.6382 180.87 73.2554L180.601 73.6803V66.4579H173.357V93.2353H180.601V81.2789C180.601 75.064 183.496 72.6121 190.911 72.5757V72.5878Z" fill="#002E6D"/>
<path d="M47.3613 53.8946C68.1651 41.0765 92.707 33.672 118.935 33.672C145.162 33.672 170.046 41.1857 190.96 54.1617V36.3182C169.753 24.9202 145.517 18.4019 119.79 18.2441C92.426 23.5121 67.591 35.9419 47.3613 53.4819V53.8946Z" fill="url(#paint0_linear_484_1054)"/>
<path d="M47.3613 36.0876V53.4819C67.591 35.9419 92.426 23.5121 119.79 18.2441C119.509 18.2441 119.216 18.2441 118.935 18.2441C93.0735 18.2441 68.7026 24.7017 47.3613 36.0876Z" fill="#002E6D"/>
<path d="M149.426 0C112.143 0 76.6919 11.7864 47.3613 33.5628V36.0876C68.7026 24.7017 93.0613 18.2441 118.935 18.2441C119.216 18.2441 119.509 18.2441 119.79 18.2441C129.404 16.399 139.287 15.4279 149.438 15.4279C170.535 15.4279 190.655 19.6278 209.015 27.2386V10.6454C190.447 3.76291 170.364 0 149.426 0Z" fill="url(#paint1_linear_484_1054)"/>
<path d="M246.176 61.202C246.176 59.0292 245.407 56.8564 244.038 55.0356H249.206V50.945H238.615V45.4706H231.847V50.945H221.268V55.0356H226.435C225.067 56.8564 224.297 59.0292 224.297 61.202C224.297 66.9313 229.306 71.7624 235.243 71.7624C241.18 71.7624 246.189 66.9313 246.189 61.202H246.176ZM230.515 61.3719C230.515 57.8518 232.58 55.0599 235.219 55.0599C237.857 55.0599 239.91 57.7911 239.91 61.3719C239.91 64.9527 237.894 67.6839 235.219 67.6839C232.543 67.6839 230.515 64.9285 230.515 61.3719Z" fill="#595757"/>
<path d="M259.113 46.6723H252.565V79.7374H259.113V63.1805H265.258V59.0899H259.113V46.6723Z" fill="#595757"/>
<path d="M237.002 77.7224H230.467V91.1839C230.467 92.1428 231.309 92.9925 232.238 92.9925H259.577V88.9019H236.99V77.7102L237.002 77.7224Z" fill="#595757"/>
<path d="M273.723 48.1774V52.2559H297.96V64.5158H268.055V68.5943H285.817V76.8363H273.723V80.9269H297.496V93.2596H304.031V76.8363H292.414V68.5943H310.176V64.5158H304.508V48.1774H273.723Z" fill="#595757"/>
<path d="M319.155 68.3636C325.641 67.4897 331.554 64.5522 335.414 60.3037C339.274 64.54 345.187 67.4775 351.686 68.3636H351.796C351.881 68.3636 354.373 65.2319 354.373 65.2319L354.459 65.1227L354.031 65.062C346.653 63.8846 338.871 58.7743 338.871 51.649V47.6433H332.042V51.7097C332.042 58.6893 324.224 63.7996 316.821 65.0741L316.394 65.1348L318.971 68.3758C319.057 68.3879 319.155 68.3758 319.155 68.3758V68.3636Z" fill="#595757"/>
<path d="M314.366 72.8427V76.9455H332.128V93.2596H338.712V76.9455H356.474V72.8427H314.354H314.366Z" fill="#595757"/>
<path d="M397.899 46.6723H391.351V93.2474H397.899V65.1834H404.043V61.0927H397.899V46.6723Z" fill="#595757"/>
<path d="M421.989 65.2076C427.62 65.2076 432.201 60.9349 432.201 55.6911C432.201 50.4473 427.62 46.1624 421.989 46.1624C416.357 46.1624 411.739 50.4352 411.739 55.6911C411.739 60.9471 416.333 65.2076 421.989 65.2076ZM421.989 49.804C424.481 49.804 425.971 52.001 425.971 55.6911C425.971 59.3812 424.481 61.5661 421.989 61.5661C419.497 61.5661 417.982 59.3691 417.982 55.6911C417.982 52.0132 419.472 49.804 421.989 49.804Z" fill="#595757"/>
<path d="M417.75 77.7588H424.334V70.7428H435.866V66.6885H407.757V70.7428H417.75V77.7588Z" fill="#595757"/>
<path d="M423.992 80.2107H417.444V91.196C417.444 92.155 418.287 93.0046 419.216 93.0046H446.567V88.914H423.98V80.1986L423.992 80.2107Z" fill="#595757"/>
<path d="M430.454 77.5039H439.555V81.2182H446.103V46.6601H439.555V73.4496H430.454V77.5039Z" fill="#595757"/>
<path d="M458.807 48.1774V52.2559H483.044V66.8949H475.531V57.439H468.886V66.8949H453.139V70.9855H495.26V66.8949H489.592V48.1774H458.807Z" fill="#595757"/>
<path d="M515.441 58.398V47.9832H508.771V58.398C508.771 65.6568 504.007 72.9641 497.85 75.0398L497.483 75.1612L500.488 78.22C500.574 78.2322 500.684 78.1958 500.684 78.1958C504.837 76.8241 509.516 72.867 512.106 68.5214C514.696 72.867 519.374 76.8241 523.528 78.1958L523.638 78.2322C523.735 78.22 526.643 75.2583 526.643 75.2583L526.728 75.1612L526.362 75.0398C520.205 72.952 515.441 65.6446 515.441 58.398Z" fill="#595757"/>
<path d="M536.843 61.0927V46.6723H530.308V93.2474H536.843V65.3169H543V61.0927H536.843Z" fill="#595757"/>
<path d="M474.2 73.7288C465.624 73.7288 459.626 77.9166 459.626 83.9372C459.626 89.9579 465.624 94 474.2 94C482.775 94 488.761 89.8608 488.761 83.9372C488.761 78.0137 482.763 73.7288 474.2 73.7288ZM474.2 90.0307C469.399 90.0307 466.039 87.4938 466.039 83.8644C466.039 80.235 469.545 77.6981 474.2 77.6981C478.854 77.6981 482.372 80.3443 482.372 83.8644C482.372 87.3845 479.013 90.0307 474.2 90.0307Z" fill="#595757"/>
<path d="M379.416 66.6764C378.414 64.4915 377.816 62.0881 377.693 59.6968C377.681 59.4419 377.669 59.1748 377.669 58.9199V52.8386H385.939V48.7479H362.729V52.8386H370.987V58.9199C370.987 59.1991 370.975 59.454 370.962 59.7211C370.84 62.3915 370.095 65.0377 368.898 67.4168C366.003 72.782 361.006 75.2947 359.809 75.6952L362.802 78.7299C362.9 78.7541 363.01 78.7056 363.01 78.7056C367.188 77.3339 371.744 73.3889 374.322 69.0919C376.802 73.2311 381.126 77.0426 385.157 78.5478C385.365 78.6327 385.524 78.6813 385.622 78.7056C385.683 78.7299 385.732 78.742 385.732 78.742C385.817 78.7177 388.724 75.7802 388.724 75.7802L388.822 75.6831C387.002 75.0276 382.042 72.1872 379.379 66.6885L379.416 66.6764Z" fill="#595757"/>
<defs>
<linearGradient id="paint0_linear_484_1054" x1="25.6" y1="16.0711" x2="172.96" y2="16.0711" gradientUnits="userSpaceOnUse">
<stop offset="0.4" stop-color="#00B9EF"/>
<stop offset="1" stop-color="#4694D1"/>
</linearGradient>
<linearGradient id="paint1_linear_484_1054" x1="25.6022" y1="-2.5663" x2="191.485" y2="-2.5663" gradientUnits="userSpaceOnUse">
<stop stop-color="#ED6C00"/>
<stop offset="1" stop-color="#FDD000"/>
</linearGradient>
</defs>
</svg>
