<svg width="428" height="111" viewBox="0 0 428 111" fill="none" xmlns="http://www.w3.org/2000/svg">
<path d="M285.3 56.6255C285.3 56.6255 278.494 55.1659 278.494 58.5495V108.773C278.494 108.773 285.3 110.166 285.3 106.849V56.6255Z" fill="#231F20"/>
<path d="M269.264 58.5826V72.117H265.28C265.28 72.117 262.325 72.1834 262.325 76.9602H269.264V108.806C269.264 108.806 276.004 110.199 276.004 106.882V56.6586C276.004 56.6586 269.264 55.199 269.264 58.5826Z" fill="#231F20"/>
<path d="M266.243 86.8788C260.266 82.9976 258.374 80.4433 258.374 72.6809V63.9566H263.985C263.985 63.9566 266.907 63.9566 266.907 59.2129H245.99C245.99 59.2129 242.968 59.2129 242.968 63.9566H251.302V72.6809C251.302 80.6092 248.679 85.4192 241.607 89.5326C241.607 89.5326 242.072 91.921 245.292 91.921C249.343 91.921 254.29 86.2485 254.888 83.3625C255.485 86.2485 261.694 91.5893 267.869 91.9542C267.869 91.9542 269.496 88.9686 266.243 86.8788Z" fill="#231F20"/>
<path d="M19.9541 103.73C17.6964 103.73 17.132 102.337 17.132 100.479V92.2527C17.132 92.2527 9.56202 90.76 9.56202 94.1435V101.939C9.56202 103.929 9.89403 108.54 16.2355 108.54V108.474L16.3019 108.54H39.9746C39.9746 108.54 42.9627 108.54 42.9627 103.73H19.9541Z" fill="#231F20"/>
<path d="M311.064 103.73C308.641 103.73 308.209 102.337 308.209 100.479V92.2527C308.209 92.2527 300.606 90.76 300.606 94.1435V101.939C300.606 103.929 300.905 108.54 307.313 108.54H331.052C331.052 108.54 334.007 108.54 334.007 103.73H311.064Z" fill="#231F20"/>
<path d="M41.7674 71.0555V56.725C41.7674 56.725 34.1311 55.3649 34.1311 58.7485V94.3094C34.1311 94.3094 41.7674 95.7027 41.7674 92.3854V75.8987H45.2868C45.2868 75.8987 48.2417 75.8655 48.2417 71.0555H41.7674Z" fill="#231F20"/>
<path d="M52.4583 77.7895C52.4583 77.7895 49.4702 77.8227 49.437 82.5663H67.7974V91.2575C67.7974 91.2575 75.4337 92.7171 75.4337 89.3335V82.5663H93.0969C93.0969 82.5663 96.085 82.5332 96.085 77.7895H52.4251H52.4583Z" fill="#231F20"/>
<path d="M125.734 80.0121V70.956C125.734 70.956 118.098 69.5627 118.098 72.88V80.0121H101.065C101.065 80.0121 98.1103 80.0452 98.1103 84.7889H141.837C141.837 84.7889 144.758 84.7889 144.792 80.0121H125.734Z" fill="#231F20"/>
<path d="M229.356 58.7485V62.9282H224.807C224.807 62.9282 221.852 62.9282 221.852 67.6719H229.356V73.8752H224.807C224.807 73.8752 221.852 73.9747 221.852 78.7183H229.356V85.2201C229.356 85.2201 236.992 86.5802 236.992 83.2961V56.8245C236.992 56.8245 229.356 55.4312 229.356 58.8148V58.7485Z" fill="#231F20"/>
<path d="M174.042 84.9879V78.0881C174.042 78.0881 166.439 76.6948 166.439 80.0121V84.9879H149.672C149.672 84.9879 146.75 85.0211 146.684 89.7316H190.444C190.444 89.7316 193.398 89.7316 193.398 84.9879H174.009H174.042Z" fill="#231F20"/>
<path d="M174.606 61.0374V54.6019C174.606 54.6019 166.97 53.2087 166.97 56.5259V61.0374H154.287C154.287 61.0374 151.332 61.0706 151.299 65.7147H187.024C187.024 65.7147 189.946 65.7147 189.946 61.0374H174.573H174.606Z" fill="#231F20"/>
<path d="M159.865 103.73V92.9493C159.865 92.9493 152.262 91.5893 152.262 94.9729V101.939C152.262 103.929 152.594 108.54 158.969 108.54V108.474L159.035 108.54H186.127C186.127 108.54 189.016 108.54 189.049 103.73H159.865Z" fill="#231F20"/>
<path d="M18.4932 62.298V55.962C18.4932 55.962 10.8237 54.5024 10.8237 57.886V62.298H2.95493C2.95493 62.298 0.0332015 62.3311 0 67.0748H5.97626C4.21659 69.1978 3.18734 72.0175 3.18734 75.003C3.18734 81.8365 8.56598 87.3432 15.1731 87.3432C21.7802 87.3432 27.1256 81.8365 27.1256 75.003C27.1256 72.0175 26.0631 69.1978 24.3367 67.0748H27.2916C27.2916 67.0748 30.2465 67.0748 30.2465 62.298H18.4932ZM15.1731 82.1351C12.849 82.1351 11.0229 78.9837 11.0229 75.0362C11.0229 71.0887 12.849 67.8709 15.1731 67.8709C17.4972 67.8709 19.29 71.0555 19.29 75.0362C19.29 79.0169 17.4308 82.1351 15.1731 82.1351Z" fill="#231F20"/>
<path d="M412.329 66.9421C412.329 72.88 406.983 77.5905 400.376 77.5905C393.769 77.5905 388.457 72.88 388.457 66.9421C388.457 61.0042 393.836 56.3601 400.376 56.3601C406.917 56.3601 412.329 61.1037 412.329 66.9421ZM400.343 60.8052C398.052 60.8052 396.259 63.5253 396.259 66.9421C396.259 70.3589 398.052 73.079 400.343 73.079C402.634 73.079 404.46 70.3589 404.46 66.9421C404.46 63.5253 402.634 60.8052 400.343 60.8052Z" fill="#231F20"/>
<path d="M135.495 98.1574C135.495 104.792 129.386 110.066 121.916 110.066C114.445 110.066 108.37 104.792 108.37 98.1574C108.37 91.5229 114.412 86.3148 121.916 86.3148C129.419 86.3148 135.495 91.6556 135.495 98.1574ZM121.916 91.5893C118.762 91.5893 116.139 94.5416 116.139 98.1574C116.139 101.773 118.762 104.858 121.916 104.858C125.07 104.858 127.66 101.84 127.66 98.1574C127.66 94.4753 125.037 91.5893 121.916 91.5893Z" fill="#231F20"/>
<path d="M235.797 98.1574C235.797 104.792 229.754 110.066 222.251 110.066C214.747 110.066 208.671 104.792 208.671 98.1574C208.671 91.5229 214.78 86.3148 222.251 86.3148C229.721 86.3148 235.797 91.6556 235.797 98.1574ZM222.251 91.2907C219.329 91.2907 216.972 94.3758 216.972 98.1574C216.972 101.939 219.329 105.09 222.251 105.09C225.172 105.09 227.53 102.005 227.53 98.1574C227.53 94.3094 225.172 91.2907 222.251 91.2907Z" fill="#231F20"/>
<path d="M426.938 56.725C426.938 56.725 419.368 55.3649 419.368 58.7485V85.3528H413.657C413.657 85.3528 410.768 85.3528 410.768 90.0965H419.368V94.3094C419.368 94.3094 426.938 95.7027 426.938 92.3854V56.725Z" fill="#231F20"/>
<path d="M405.821 103.73C403.497 103.73 403.032 102.337 403.032 100.479V93.6128C403.032 93.6128 395.429 92.1532 395.429 95.5368V101.939C395.429 103.929 395.761 108.54 402.07 108.54L402.136 108.474V108.54H425.012C425.012 108.54 428 108.54 428 103.73H405.821Z" fill="#231F20"/>
<path d="M325.208 58.7485V62.9282H321.091C321.091 62.9282 318.136 62.9282 318.136 67.6719H325.208V73.8752H321.091C321.091 73.8752 318.136 73.9747 318.136 78.7183H325.208V94.3426C325.208 94.3426 332.811 95.7358 332.811 92.4186V56.7581C332.811 56.7581 325.208 55.3981 325.208 58.7817V58.7485Z" fill="#231F20"/>
<path d="M317.804 72.2165C317.804 79.9457 311.762 86.2485 304.192 86.2485C296.622 86.2485 290.646 79.9457 290.646 72.2165C290.646 64.4873 296.755 58.1846 304.192 58.1846C311.629 58.1846 317.804 64.4542 317.804 72.2165ZM304.192 63.3263C301.104 63.3263 298.481 67.2738 298.481 72.2165C298.481 77.1592 301.104 81.1068 304.192 81.1068C307.279 81.1068 310.002 77.1261 310.002 72.2165C310.002 67.307 307.379 63.3263 304.192 63.3263Z" fill="#231F20"/>
<path d="M91.4368 64.7195C91.4368 62.6297 91.1048 58.085 84.7633 58.085V58.1846L84.6969 58.085H56.1105C56.1105 58.085 53.1555 58.085 53.1223 62.8619H80.9784C83.3025 62.8619 83.8005 64.2551 83.8005 66.1128V81.5048C83.8005 81.5048 91.4368 82.8649 91.4368 79.5808V64.7195Z" fill="#231F20"/>
<path d="M103.323 67.6719C103.323 69.6954 103.655 74.2401 109.963 74.2401H137.454C137.454 74.2401 140.475 74.2401 140.475 69.4964H113.715C111.391 69.4964 110.926 68.0368 110.893 66.3118V57.886C110.893 57.886 103.29 56.5259 103.29 59.81V67.6387L103.323 67.6719Z" fill="#231F20"/>
<path d="M84.4977 89.5326L84.4313 89.5989V89.5326H55.6124C55.6124 89.5326 52.6575 89.5326 52.6575 94.2431H80.7127C83.0368 94.2431 83.5017 95.7026 83.5349 97.3944V108.972C83.5349 108.972 91.1712 110.365 91.1712 106.981V96.1339C91.1712 94.1104 90.8392 89.5657 84.4977 89.5657V89.5326Z" fill="#231F20"/>
<path d="M339.518 81.9029C339.518 81.9029 336.563 81.9029 336.563 86.6466H354.924V109.005C354.924 109.005 362.593 110.464 362.593 107.081V86.6797H380.323C380.323 86.6797 383.211 86.6797 383.311 81.9361H339.518V81.9029Z" fill="#231F20"/>
<path d="M388.357 79.5808C388.357 79.5808 385.369 79.614 385.369 84.3245H396.591V90.9922C396.591 90.9922 404.195 92.3854 404.195 89.035V84.2913H412.528C412.528 84.2913 415.516 84.2913 415.516 79.5476H388.357V79.5808Z" fill="#231F20"/>
<path d="M377.999 64.7195C377.999 62.6297 377.667 58.085 371.325 58.085V58.1846L371.225 58.085H342.672C342.672 58.085 339.751 58.085 339.751 62.8619H367.607C369.931 62.8619 370.429 64.2551 370.429 66.1128V85.6182C370.429 85.6182 378.032 87.0115 378.032 83.6279V64.7195H377.999Z" fill="#231F20"/>
<path d="M201.035 58.9475C201.035 58.9475 198.113 58.9475 198.08 63.6912H213.817C213.784 73.9415 208.007 80.6092 195.723 83.1303C195.723 83.1303 195.889 86.8124 199.906 86.5139C205.915 86.2153 214.847 82.7322 218.798 75.202C221.221 70.4584 221.454 64.222 221.454 58.9475H201.035Z" fill="#231F20"/>
<path d="M174.739 64.9518C174.739 68.3353 180.583 72.6809 187.123 74.2401C189.946 74.9367 191.473 76.0977 191.174 79.3818C184.965 80.2111 174.507 77.0597 170.755 71.6526C167.037 77.0597 157.84 79.3818 152.428 79.3818C148.278 79.3818 148.112 75.5669 148.112 75.5669C160.761 74.2732 166.871 67.8709 166.871 64.9849" fill="#231F20"/>
<path d="M37.7501 2.05669L20.3857 17.1502L37.7501 32.9403C37.7501 32.9403 39.5097 34.3999 36.7872 34.6321H29.4165C26.86 34.6321 26.1959 33.9023 25.6979 33.4379L8.59918 17.5483V16.8516L26.362 1.39324C26.362 1.39324 27.524 0.232207 29.5493 0.431242H36.754C36.754 0.431242 39.9414 0.232208 37.7169 2.08987L37.7501 2.05669Z" fill="#00696C"/>
<path d="M126.73 35.0965H113.449C107.606 35.0965 103.124 34.7648 98.5087 32.0446C93.5617 29.225 91.138 24.3818 91.138 18.1454C91.138 6.07057 98.2431 0 113.715 0H130.382C130.382 6.00422 127.062 5.93788 127.062 5.93788H113.947C106.577 5.93788 102.958 8.9234 102.559 14.2973H130.382C130.382 20.2021 126.73 20.202 126.73 20.202H102.526C102.593 26.4053 105.913 29.0923 113.981 29.0923H130.415C130.415 35.3287 126.763 35.0302 126.763 35.0302L126.73 35.0965Z" fill="#00696C"/>
<path d="M74.6037 19.9698C80.7791 18.9415 84.2321 15.6242 84.2321 10.2835C84.2321 3.11821 78.7871 0.0331725 67.5318 0.0331725H55.5792C43.4939 0.0331725 42.7303 8.5585 42.7303 11.2455V34.6984C42.7303 34.6984 52.7239 36.5561 52.7239 32.1441V21.728L52.6575 18.2449C52.4583 14.6291 53.1223 8.75754 59.4638 6.50181C66.6685 3.88118 68.9926 4.61098 74.2717 2.52111C74.2717 2.52111 73.8732 11.0133 66.1041 14.994C62.8504 16.6858 57.3721 17.88 54.384 20.2021C55.8117 20.003 57.9365 19.9035 60.6923 20.965C65.4733 22.7895 68.7602 27.5332 70.2543 29.8221C71.7484 32.1773 75.2677 34.4994 79.4511 34.4994L86.689 34.5657L74.5041 19.9035L74.6037 19.9698Z" fill="#00696C"/>
<path d="M147.979 0.431242C147.979 0.431242 138.018 -1.39325 138.018 2.98552V34.6321C138.018 34.6321 147.979 36.4566 147.979 32.0778V0.431242Z" fill="#00696C"/>
<path d="M9.99364 0.431242C9.99364 0.431242 0 -1.42642 0 2.98552V34.6321C0 34.6321 10.0268 36.4566 10.0268 32.0778V0.431242H9.99364Z" fill="#00696C"/>
</svg>
