<svg width="252" height="105" viewBox="0 0 252 105" fill="none" xmlns="http://www.w3.org/2000/svg">
<path d="M103.99 53.0896C103.99 25.787 81.1389 3.65823 52.949 3.65823C24.759 3.65823 1.91408 25.787 1.91408 53.0896C1.91408 80.3922 24.7655 102.521 52.949 102.521C81.1324 102.521 103.99 80.3856 103.99 53.0896Z" fill="white"/>
<path d="M155.357 58.498H150.572V33.6324H155.357V42.5595H160.924V47.3098H155.357V58.498ZM130.247 58.713V67.4251H156.353V71.6931H125.423V58.713H130.253H130.247ZM134.902 33.4174L146.868 52.5357L143.04 54.9727L134.902 41.6473L126.9 55.3181L122.981 52.8354L134.902 33.4109V33.4174Z" fill="white"/>
<path d="M139.277 32.1628L146.197 43.2175V29.2575H159.732V38.1843H165.299V51.6843H159.732V62.8728H146.197V58.1492L141.629 61.0574L134.981 50.1716L130.254 58.2497L130.253 58.713L134.622 58.7126V63.0505H160.728V76.0681H121.048V56.7888L116.997 54.2234L139.277 17.9177V32.1628Z" fill="#FFFEFE"/>
<path d="M197.922 33.6324H202.753V54.8424H197.922V33.6324ZM197.968 61.0653H177.043V67.6857H197.968V61.0653ZM172.252 57.1882H202.753V71.6931H172.252V57.1882ZM193.098 53.0961H170.168V41.8623H186.959V38.5521H170.168V34.4144H191.789V45.8241H174.954V49.219H193.098V53.0961Z" fill="white"/>
<path d="M207.127 29.2574V76.068H167.876V57.4713H165.793V30.0396H193.547V29.2574H207.127Z" fill="#FFFEFE"/>
<path d="M241.841 54.3211V46.9188H235.057V42.7811H241.841V33.6389H246.672V54.3211H241.841ZM238.625 64.1605C238.625 62.7074 238.091 61.4628 237.037 60.4137C235.982 59.3711 234.712 58.8433 233.228 58.8433C231.744 58.8433 230.533 59.3646 229.491 60.4137C228.443 61.4563 227.922 62.7074 227.922 64.1605C227.922 65.6136 228.443 66.8973 229.491 67.9268C230.533 68.9564 231.783 69.4711 233.228 69.4711C234.673 69.4711 235.982 68.9564 237.037 67.9268C238.091 66.8973 238.625 65.6396 238.625 64.1605ZM243.365 64.1996C243.365 65.5028 243.098 66.7278 242.557 67.8812C242.024 69.028 241.301 70.038 240.402 70.9047C239.504 71.7778 238.436 72.4685 237.206 72.9768C235.975 73.4785 234.66 73.7327 233.267 73.7327C231.874 73.7327 230.598 73.4785 229.354 72.9768C228.104 72.462 227.037 71.7778 226.132 70.9047C225.233 70.038 224.517 69.028 223.983 67.8812C223.443 66.7278 223.176 65.5028 223.176 64.1996C223.176 62.8964 223.443 61.6713 223.983 60.518C224.517 59.3711 225.233 58.3611 226.132 57.4945C227.037 56.6213 228.104 55.9306 229.354 55.4289C230.604 54.9141 231.906 54.6665 233.267 54.6665C234.628 54.6665 235.975 54.9206 237.206 55.4289C238.443 55.9306 239.504 56.6213 240.402 57.4945C241.301 58.3676 242.017 59.3776 242.557 60.518C243.098 61.6648 243.365 62.8898 243.365 64.1996ZM212.388 40.9044V36.8579H221.483V33.1567H226.613V36.8579H235.272V40.9044H225.832L235.624 50.8285L232.492 53.7933L224.048 44.9966L215.696 54.4905L212.479 51.4866L222.31 40.9044H212.388Z" fill="white"/>
<path d="M230.989 28.7817V32.4829H237.466V29.2642H251.046V58.6958H246.535C247.348 60.4383 247.74 62.2888 247.74 64.1997C247.74 66.1191 247.341 67.9759 246.523 69.7261L246.524 69.7271C245.765 71.3573 244.73 72.8045 243.451 74.0415C242.127 75.3278 240.583 76.315 238.877 77.02L238.867 77.0239L238.858 77.0278C237.083 77.7516 235.205 78.1079 233.267 78.1079C231.31 78.1079 229.478 77.7443 227.717 77.0337L227.688 77.022C226.081 76.3599 224.622 75.4619 223.346 74.2905L223.094 74.0532C221.803 72.8075 220.777 71.3565 220.022 69.7368L220.021 69.7378C219.2 67.9846 218.801 66.1231 218.801 64.1997C218.801 62.2763 219.2 60.4149 220.021 58.6616C220.729 57.1435 221.676 55.7741 222.855 54.5825L223.094 54.3452C223.77 53.693 224.505 53.1149 225.294 52.6118L224.188 51.4595L216.003 60.7642L206.304 51.7056L212.274 45.2798H208.013V32.4829H217.108V28.7817H230.989ZM233.228 63.2183C233.013 63.2183 232.925 63.2531 232.897 63.2651C232.866 63.2784 232.766 63.3243 232.595 63.4966L232.577 63.5151C232.345 63.7456 232.297 63.8846 232.297 64.1606C232.297 64.3929 232.336 64.5355 232.436 64.6704L232.557 64.8052L232.567 64.8149C232.798 65.0431 232.946 65.0962 233.228 65.0962C233.557 65.0962 233.761 65.0099 233.98 64.7964C234.196 64.5858 234.251 64.4549 234.251 64.1606C234.251 63.9249 234.217 63.783 233.961 63.5249C233.716 63.2832 233.548 63.2183 233.228 63.2183Z" fill="#FFFEFE"/>
<path d="M77.1155 49.3689C68.932 43.8041 58.4502 46.0717 52.9555 54.4449C48.3591 61.4367 41.4256 62.3099 38.7368 62.3099C29.9868 62.3099 23.9908 56.1456 22.22 49.7664C22.2004 49.7012 22.1874 49.6491 22.1744 49.5904C22.1614 49.5187 22.1353 49.4471 22.1158 49.3754C21.4192 46.7168 21.2499 45.4462 21.2499 42.6182C21.2499 27.3639 36.8813 10.3829 59.4008 10.3829C81.9202 10.3829 95.6441 27.9504 99.049 37.718C98.9904 37.5486 98.9318 37.3727 98.8732 37.1967C92.3172 18.1045 74.2249 4.375 52.9229 4.375C26.1132 4.375 4.375 26.1258 4.375 52.9658C4.375 76.9516 21.6666 97.4905 45.6443 97.4905C64.7718 97.4905 77.6233 86.7519 83.5152 71.9668C86.7509 63.8738 84.4592 54.3667 77.1155 49.3754" fill="white"/>
<path d="M16.875 42.6182C16.875 30.6801 24.7536 18.5012 37.208 11.6338C20.5738 17.974 8.75 34.0824 8.75 52.9658C8.75002 74.9801 24.505 93.1152 45.6445 93.1152C62.8087 93.1152 74.1562 83.6346 79.4512 70.3477L79.4531 70.3428C82.0178 63.9279 80.1051 56.6978 74.6562 52.9941L74.3301 52.7725C68.304 48.9121 60.7494 50.5428 56.6133 56.8457L56.6113 56.8486C50.8678 65.5853 42.1523 66.6846 38.7363 66.6846C27.7127 66.6843 20.2131 58.895 18.0039 50.9365L18.0049 50.9355C17.9744 50.8287 17.9492 50.7314 17.9277 50.6406C17.9186 50.6096 17.9066 50.5697 17.8945 50.5254L17.8887 50.5049L17.8838 50.4844C17.0925 47.4644 16.875 45.821 16.875 42.6182ZM25.625 42.6182C25.625 45.0511 25.7439 45.9544 26.333 48.21C26.336 48.2199 26.34 48.2315 26.3438 48.2441C26.3588 48.2951 26.3894 48.4061 26.4238 48.5527L26.4355 48.5957H26.4336C26.4329 48.593 26.4324 48.5897 26.4316 48.5869C26.4286 48.5749 26.4268 48.5634 26.4238 48.5527C26.4305 48.5813 26.4356 48.6114 26.4424 48.6426H26.4453C26.4443 48.638 26.4398 48.6205 26.4336 48.5957H26.4355C27.7679 53.3955 32.2606 57.9344 38.7363 57.9346C40.6978 57.9346 45.8507 57.2885 49.2998 52.042C56.0789 41.7147 69.2861 38.7547 79.5752 45.751L81.4902 47.0527V47.2158C89.1657 53.7429 91.1969 64.5273 87.5781 73.585L87.5791 73.5859C81.0903 89.8689 66.735 101.865 45.6445 101.865C18.8286 101.865 2.39811e-05 78.9232 0 52.9658C0 23.7129 23.6936 3.71373e-05 52.9229 0C76.154 0 95.8677 14.9742 103.011 35.7754L103.024 35.8145C103.084 35.9948 103.135 36.1466 103.184 36.2881L94.918 39.1582C93.49 35.0618 89.6835 28.8735 83.5762 23.7354C77.5438 18.6603 69.4498 14.7578 59.4004 14.7578C38.924 14.758 25.625 30.1375 25.625 42.6182Z" fill="#FFFEFE"/>
<path d="M99.3354 38.6629C96.5034 29.1428 83.2092 10.3829 59.3877 10.3829C36.8683 10.3829 21.2369 27.3639 21.2369 42.6116C21.2369 45.4396 21.4062 46.7103 22.1028 49.3689C21.8098 48.209 21.6601 47.0426 21.6601 45.9023C21.6601 30.0225 37.5519 19.0167 53.8799 19.0167C75.9957 19.0167 93.9123 36.9556 93.9123 59.0779C93.9123 76.4238 83.9449 91.437 69.4463 98.6503V98.6634C88.1311 91.8931 101.471 73.9868 101.471 52.9593C101.471 47.9809 100.807 43.5956 99.3354 38.6564" fill="white"/>
<path d="M59.3873 6.00787C72.5342 6.00787 82.8113 11.2082 90.1295 17.6739C91.9048 19.2424 93.5153 20.8944 94.9605 22.5762V8.64557L103.528 37.4073C105.113 42.7293 105.846 47.535 105.846 52.959C105.846 58.146 105.099 63.1579 103.711 67.8946V68.7139L103.589 68.3067C98.7561 84.3128 86.5588 97.1159 70.9371 102.776L65.0709 104.902V95.9405L67.4976 94.7335C80.5604 88.2344 89.5376 74.7078 89.5377 59.0782C89.5377 39.3685 73.5754 23.3917 53.8795 23.3917C46.6506 23.3918 39.5602 25.8414 34.3541 29.9415C29.1868 34.011 26.0347 39.5459 26.0347 45.9024C26.0348 46.6612 26.1348 47.4682 26.3443 48.2979L17.8707 50.4776C17.0794 47.4577 16.8619 45.8142 16.8619 42.6114C16.8621 24.5898 34.826 6.0081 59.3873 6.00787ZM59.3873 14.7579C58.7863 14.7579 58.1916 14.7719 57.6031 14.7979C76.4958 16.3666 92.0187 29.7639 96.7779 47.5626C96.4803 45.1207 95.9656 42.7084 95.2008 40.1075L95.1422 39.9102C93.975 35.9868 90.4184 29.6058 84.3355 24.2315C78.3433 18.9373 70.0617 14.7579 59.3873 14.7579Z" fill="#FFFEFE"/>
<path d="M155.514 58.498H150.728V33.6324H155.514V42.5595H161.08V47.3098H155.514V58.498ZM130.41 58.713V67.4251H156.516V71.6931H125.585V58.713H130.416H130.41ZM135.064 33.4174L147.031 52.5357L143.202 54.9727L135.064 41.6473L127.063 55.3181L123.144 52.8354L135.064 33.4109V33.4174Z" fill="#595757"/>
<path d="M198.085 33.6324H202.916V54.8424H198.085V33.6324ZM198.124 61.0653H177.2V67.6857H198.124V61.0653ZM172.414 57.1882H202.916V71.6931H172.414V57.1882ZM193.254 53.0961H170.325V41.8623H187.115V38.5521H170.325V34.4144H191.946V45.8241H175.11V49.219H193.254V53.0961Z" fill="#595757"/>
<path d="M242.004 54.3211V46.9188H235.22V42.7811H242.004V33.6389H246.835V54.3211H242.004ZM238.788 64.1605C238.788 62.7074 238.254 61.4628 237.199 60.4137C236.145 59.3711 234.875 58.8433 233.391 58.8433C231.906 58.8433 230.695 59.3646 229.654 60.4137C228.606 61.4563 228.085 62.7074 228.085 64.1605C228.085 65.6136 228.606 66.8973 229.654 67.9268C230.695 68.9564 231.945 69.4711 233.391 69.4711C234.836 69.4711 236.145 68.9564 237.199 67.9268C238.254 66.8973 238.788 65.6396 238.788 64.1605ZM243.527 64.1996C243.527 65.5028 243.26 66.7278 242.72 67.8812C242.186 69.028 241.464 70.038 240.565 70.9047C239.667 71.7778 238.599 72.4685 237.369 72.9768C236.138 73.4785 234.823 73.7327 233.43 73.7327C232.037 73.7327 230.761 73.4785 229.517 72.9768C228.267 72.462 227.199 71.7778 226.294 70.9047C225.396 70.038 224.68 69.028 224.146 67.8812C223.606 66.7278 223.339 65.5028 223.339 64.1996C223.339 62.8964 223.606 61.6713 224.146 60.518C224.68 59.3711 225.396 58.3611 226.294 57.4945C227.199 56.6213 228.267 55.9306 229.517 55.4289C230.767 54.9141 232.069 54.6665 233.43 54.6665C234.79 54.6665 236.138 54.9206 237.369 55.4289C238.606 55.9306 239.667 56.6213 240.565 57.4945C241.464 58.3676 242.18 59.3776 242.72 60.518C243.26 61.6648 243.527 62.8898 243.527 64.1996ZM212.544 40.9044V36.8579H221.639V33.1567H226.77V36.8579H235.428V40.9044H225.988L235.78 50.8285L232.649 53.7933L224.205 44.9966L215.852 54.4906L212.636 51.4866L222.466 40.9044H212.544Z" fill="#595757"/>
<path d="M77.1155 49.3689C68.932 43.8041 58.4502 46.0717 52.9555 54.4449C48.3591 61.4367 41.4256 62.3099 38.7368 62.3099C29.9868 62.3099 23.9908 56.1456 22.22 49.7664C22.2004 49.7012 22.1874 49.6491 22.1744 49.5904C22.1614 49.5187 22.1353 49.4471 22.1158 49.3754C21.4192 46.7168 21.2499 45.4462 21.2499 42.6182C21.2499 27.3639 36.8813 10.3829 59.4008 10.3829C81.9202 10.3829 95.6441 27.9504 99.049 37.718C98.9904 37.5486 98.9318 37.3727 98.8732 37.1967C92.3172 18.1045 74.2249 4.375 52.9229 4.375C26.1132 4.375 4.375 26.1258 4.375 52.9658C4.375 76.9516 21.6666 97.4905 45.6443 97.4905C64.7718 97.4905 77.6233 86.7519 83.5152 71.9668C86.7509 63.8738 84.4592 54.3667 77.1155 49.3754" fill="#003668"/>
<path d="M99.3354 38.6629C96.5034 29.1428 83.2092 10.3829 59.3877 10.3829C36.8683 10.3829 21.2369 27.3639 21.2369 42.6116C21.2369 45.4396 21.4062 46.7103 22.1028 49.3689C21.8098 48.209 21.6601 47.0426 21.6601 45.9023C21.6601 30.0225 37.5519 19.0167 53.8799 19.0167C75.9957 19.0167 93.9123 36.9556 93.9123 59.0779C93.9123 76.4238 83.9449 91.437 69.4463 98.6503V98.6634C88.1311 91.8931 101.471 73.9868 101.471 52.9593C101.471 47.9809 100.807 43.5956 99.3354 38.6564" fill="#E6002D"/>
</svg>
