<svg width="356" height="101" viewBox="0 0 356 101" fill="none" xmlns="http://www.w3.org/2000/svg">
<path d="M100.985 50.5C100.985 78.3858 78.3744 101 50.4926 101C22.6109 101 0 78.3858 0 50.5C0 22.6142 22.6109 0 50.4926 0C78.3744 0 100.985 22.6142 100.985 50.5Z" fill="white"/>
<path d="M74.1779 46.9744C66.1541 41.5181 55.881 43.7342 50.4759 51.9438C45.9772 58.7936 39.1788 59.6498 36.5602 59.6498C27.9657 59.6498 22.1073 53.6059 20.3616 47.3605C20.3616 47.3605 20.328 47.243 20.3112 47.1759C20.2944 47.1087 20.2776 47.0416 20.2608 46.9744C19.5726 44.3554 19.4048 43.1298 19.4048 40.3597C19.4048 25.4347 34.7305 8.79721 56.7874 8.79721C78.8444 8.79721 92.3236 26.0055 95.6641 35.575C95.5969 35.3903 95.5466 35.2392 95.4962 35.0713C89.0671 16.3521 71.341 2.90442 50.4423 2.90442C24.1888 2.90442 2.87043 24.2091 2.87043 50.5C2.87043 74.004 19.8076 94.0999 43.325 94.0999C62.0583 94.0999 74.6646 83.5903 80.4391 69.1017C83.6116 61.1775 81.3623 51.8599 74.1779 46.9744Z" fill="#003763"/>
<path d="M95.9494 36.4815C93.163 27.1471 80.1369 8.78042 56.7874 8.78042C34.7305 8.78042 19.4048 25.4179 19.4048 40.3429C19.4048 43.113 19.5726 44.3554 20.2608 46.9576C19.9755 45.816 19.8244 44.6744 19.8244 43.5663C19.8244 28.0033 35.3851 17.2419 51.3991 17.2419C73.07 17.2419 90.645 34.8027 90.645 56.4767C90.645 73.4668 80.8755 88.1735 66.6745 95.2415C84.9881 88.6268 98.0477 71.0828 98.0477 50.4832C98.0477 45.6145 97.3931 41.3167 95.9662 36.4815" fill="#E4022D"/>
<path d="M133.55 30.3369V26.5427H139.526V30.3369H147.835V35.0042H124.335V30.3369H133.567H133.55ZM146.828 45.6481C146.828 46.9576 146.543 48.1832 146.006 49.3416C145.452 50.4832 144.713 51.4905 143.773 52.3467C142.833 53.2197 141.759 53.8913 140.533 54.3949C139.308 54.8986 137.982 55.1504 136.572 55.1504C135.162 55.1504 133.836 54.8986 132.61 54.3949C131.385 53.8913 130.294 53.203 129.371 52.3467C128.431 51.4905 127.692 50.4832 127.138 49.3416C126.584 48.2 126.316 46.9744 126.316 45.6481C126.316 44.3218 126.584 43.0962 127.138 41.9378C127.692 40.7794 128.431 39.7721 129.371 38.8991C130.311 38.0261 131.385 37.3546 132.61 36.8509C133.836 36.3472 135.162 36.0954 136.572 36.0954C137.982 36.0954 139.308 36.3472 140.533 36.8509C141.759 37.3546 142.833 38.0429 143.773 38.8991C144.713 39.7553 145.452 40.7794 146.006 41.9378C146.56 43.0962 146.828 44.3386 146.828 45.6481ZM141.591 45.581C141.591 44.2379 141.104 43.0627 140.114 42.0721C139.123 41.0816 137.948 40.5947 136.555 40.5947C135.162 40.5947 133.987 41.0816 133.03 42.0721C132.056 43.0627 131.57 44.2211 131.57 45.581C131.57 46.9408 132.056 48.0824 133.03 49.0562C134.004 50.0299 135.179 50.5168 136.555 50.5168C137.932 50.5168 139.123 50.0299 140.114 49.0562C141.104 48.0824 141.591 46.924 141.591 45.581ZM161.415 63.9141C161.415 65.2907 161.113 66.6002 160.526 67.8258C159.938 69.0514 159.166 70.1426 158.192 71.066C157.185 72.0062 156.027 72.7448 154.718 73.2989C153.408 73.8529 151.998 74.1383 150.521 74.1383C149.044 74.1383 147.617 73.8529 146.291 73.2989C144.965 72.7448 143.79 72.0062 142.783 71.066C141.809 70.1258 141.037 69.0514 140.449 67.8258C139.862 66.6002 139.56 65.2907 139.56 63.9141C139.56 62.5374 139.845 61.2111 140.449 59.9688C141.037 58.7264 141.809 57.6351 142.783 56.695C143.79 55.7548 144.948 55.0161 146.291 54.4621C147.617 53.9081 149.027 53.6227 150.521 53.6227C152.015 53.6227 153.408 53.8913 154.718 54.4621C156.027 55.0161 157.185 55.7548 158.192 56.695C159.166 57.6351 159.938 58.7264 160.526 59.9688C161.113 61.2111 161.415 62.5374 161.415 63.9141ZM155.909 63.8637C155.909 62.4031 155.372 61.1439 154.298 60.0695C153.224 58.995 151.948 58.4578 150.454 58.4578C148.96 58.4578 147.701 58.995 146.644 60.0695C145.586 61.1439 145.066 62.4031 145.066 63.8637C145.066 65.3243 145.586 66.5666 146.644 67.6243C147.701 68.682 148.977 69.2025 150.454 69.2025C151.931 69.2025 153.224 68.682 154.298 67.6243C155.372 66.5666 155.909 65.3075 155.909 63.8637ZM155.809 52.2292H150.622V27.5332H155.809V37.3378H160.425V27.4829H165.813V52.8672H160.425V42.4415H155.809V52.246V52.2292Z" fill="#575756"/>
<path d="M172.36 33.5939V28.7588H198.311V33.5939H187.266L198.781 47.6627L194.836 50.8861L185.604 39.3692L176.422 51.6752L172.326 48.3511L183.791 33.6107H172.377L172.36 33.5939ZM208.265 63.0746C208.265 64.6024 207.946 66.0294 207.325 67.3557C206.704 68.682 205.865 69.8572 204.841 70.8645C203.767 71.8718 202.508 72.6609 201.081 73.2485C199.654 73.8361 198.127 74.1383 196.549 74.1383C194.971 74.1383 193.443 73.8361 191.983 73.2485C190.522 72.6609 189.263 71.8551 188.189 70.8645C187.148 69.8572 186.326 68.6988 185.705 67.3557C185.084 66.0294 184.765 64.6024 184.765 63.0746C184.765 61.5469 185.084 60.1198 185.705 58.76C186.326 57.4169 187.165 56.2417 188.189 55.2344C189.263 54.2271 190.522 53.438 191.983 52.8504C193.443 52.2628 194.954 51.9606 196.549 51.9606C198.143 51.9606 199.654 52.246 201.081 52.8504C202.508 53.4548 203.767 54.2271 204.841 55.2344C205.882 56.2417 206.704 57.4169 207.325 58.76C207.946 60.1031 208.265 61.5469 208.265 63.0746ZM202.76 63.0243C202.76 61.3286 202.138 59.868 200.896 58.6425C199.654 57.4169 198.177 56.7957 196.482 56.7957C194.786 56.7957 193.326 57.4169 192.1 58.6425C190.875 59.868 190.254 61.3286 190.254 63.0243C190.254 64.7199 190.875 66.1805 192.1 67.3893C193.326 68.5981 194.786 69.2025 196.482 69.2025C198.177 69.2025 199.654 68.5981 200.896 67.3893C202.138 66.1805 202.76 64.7199 202.76 63.0243ZM206.503 51.4569V41.6524H198.093V36.8173H206.503V27.4829H212.109V51.4569H206.503Z" fill="#575756"/>
<path d="M244.389 40.1415C244.389 41.8371 244.053 43.432 243.382 44.9094C242.71 46.4036 241.787 47.7131 240.612 48.8547C239.437 49.9628 238.078 50.8526 236.533 51.5073C234.989 52.1621 233.344 52.4978 231.581 52.4978C229.819 52.4978 228.157 52.1621 226.629 51.5073C225.085 50.8526 223.725 49.9628 222.55 48.8547C221.375 47.7131 220.452 46.4036 219.781 44.9094C219.109 43.4152 218.773 41.8203 218.773 40.1415C218.773 38.4626 219.109 36.8509 219.781 35.3735C220.452 33.8793 221.375 32.5698 222.55 31.4282C223.725 30.3201 225.085 29.4304 226.629 28.7756C228.174 28.1208 229.819 27.7851 231.581 27.7851C233.344 27.7851 234.989 28.1208 236.533 28.7756C238.078 29.4304 239.437 30.3201 240.612 31.4282C241.787 32.5698 242.71 33.8793 243.382 35.3735C244.053 36.8677 244.389 38.4458 244.389 40.1415ZM227.2 56.695V66.8185H257.6V71.8047H221.594V56.695H227.2ZM238.984 40.1918C238.984 39.1845 238.783 38.2276 238.38 37.3378C237.977 36.4312 237.456 35.6421 236.802 34.9538C236.114 34.299 235.325 33.7786 234.435 33.3757C233.545 32.9727 232.605 32.7713 231.615 32.7713C230.624 32.7713 229.668 32.9727 228.761 33.3757C227.855 33.7786 227.066 34.299 226.378 34.9538C225.723 35.6421 225.186 36.448 224.8 37.3378C224.397 38.2443 224.195 39.1845 224.195 40.1918C224.195 41.1991 224.397 42.1393 224.8 43.0123C225.203 43.9021 225.723 44.6912 226.378 45.3795C227.066 46.0342 227.872 46.5715 228.761 46.9576C229.668 47.3605 230.608 47.562 231.615 47.562C232.622 47.562 233.562 47.3605 234.435 46.9576C235.308 46.5547 236.097 46.0342 236.802 45.3795C237.456 44.6912 237.994 43.9021 238.38 43.0123C238.783 42.1225 238.984 41.1823 238.984 40.1918ZM256.475 56.4431H250.869V27.4829H256.475V37.3378H262.955V42.8948H256.475V56.4431Z" fill="#575756"/>
<path d="M267 33.5939V28.7588H292.951V33.5939H281.956L293.421 50.5168L289.158 53.3708L280.227 39.7721L271.297 53.7402L266.933 50.8358L278.347 33.6107H266.983L267 33.5939ZM270.122 71.7879V56.6782H275.729V66.8017H307.169V71.7879H270.122ZM301.143 56.4431V43.0962H292.733V38.11H301.143V27.4661H306.75V56.4264H301.143V56.4431Z" fill="#575756"/>
<path d="M314.488 56.0738H356V61.06H338.039V72.6777H332.382V61.06H314.488V56.0738ZM323.351 33.9633H347.12V28.2552H352.676V49.9963H317.812V28.2552H323.368V33.9633H323.351ZM347.12 38.8487H323.351V45.0773H347.12V38.8487Z" fill="#575756"/>
</svg>
