<svg width="492" height="68" viewBox="0 0 492 68" fill="none" xmlns="http://www.w3.org/2000/svg">
<path d="M488.663 48.5226V10.1927H456.693V16.8789H481.418V48.5226H476.525V32.3312H469.488V48.5226H465.995V32.3312H458.975V48.5226H454.48V55.0369H492V48.5226H488.663Z" fill="#084D9B"/>
<path d="M342.783 29.7014H320.928V25.9371H337.233V10.1927H313.926V16.2773H330.23V19.8181H313.926V35.8204H342.801V42.0942H325.666V38.4159H318.646V56.8073H349.821V10.1927H342.801V29.6842L342.783 29.7014ZM342.783 50.8086H325.648V47.9725H342.783V50.8086Z" fill="#084D9B"/>
<path d="M248.913 18.8212C248.913 14.2663 245.542 10.3989 240.908 9.07542V6.34248H234.372V8.9551C229.496 10.1411 225.883 14.1116 225.883 18.804C225.883 21.5713 227.127 24.0808 229.15 25.92H217.41V31.7468H233.802V35.2876H221.128V40.3409H247.167V43.452H221.128V56.773H253.668V51.7024H227.612V48.5054H253.668V35.2876H241.029V31.7468H257.403V25.92H245.663C247.669 24.0808 248.913 21.5713 248.913 18.804V18.8212ZM237.433 14.1975C240.234 14.1975 242.533 16.2601 242.533 18.8212C242.533 21.3822 240.251 23.4448 237.433 23.4448C234.614 23.4448 232.315 21.3651 232.315 18.8212C232.315 16.2773 234.614 14.1975 237.433 14.1975Z" fill="#084D9B"/>
<path d="M201.053 20.8838H194.362V27.4497H201.053V56.8073H208.367V10.1927H201.053V20.8838Z" fill="#084D9B"/>
<path d="M186.512 17.343V10.1927H179.181V17.343L178.974 18.3227L168.496 43.4864H176.086L182.847 26.4012L189.607 43.4864H197.163L186.685 18.3227L186.512 17.343Z" fill="#084D9B"/>
<path d="M302.376 10.1927H295.044V56.8073H302.376V10.1927Z" fill="#084D9B"/>
<path d="M280.382 17.3086V10.1927H273.034V17.3086L272.861 18.3227L262.4 43.4864H269.973L276.716 26.4012L283.477 43.4864H291.016L280.555 18.3227L280.382 17.3086Z" fill="#084D9B"/>
<path d="M442.376 10.1927H435.356V38.5362L412.153 38.5018V45.0505H435.356V56.8073H442.376V26.0747H447.996V19.5087H442.376V10.1927Z" fill="#084D9B"/>
<path d="M431.034 24.0464C431.034 20.7978 429.46 17.9102 426.988 15.9336H431.846V10.1927H423.028V6.35967H415.663V10.1927H406.81V15.9336H411.686C409.213 17.9102 407.657 20.815 407.657 24.0464C407.657 30.0108 412.879 34.8407 419.345 34.8407C425.812 34.8407 431.051 30.0108 431.051 24.0464H431.034ZM414.245 24.0464C414.245 21.4338 416.544 19.2853 419.328 19.2853C422.112 19.2853 424.412 21.4338 424.412 24.0464C424.412 26.6591 422.147 28.8248 419.328 28.8248C416.51 28.8248 414.245 26.7106 414.245 24.0464Z" fill="#084D9B"/>
<path d="M390.643 20.5572H387.168V10.1927H380.425V37.0408H368.287V16.5695H376.984V10.1927H360.99V43.4864H380.425V56.8073H387.168V27.6216H390.643V56.8073H397.352V10.1927H390.643V20.5572Z" fill="#084D9B"/>
<path d="M105.835 0H98.4865V40.0659L93.2301 38.9659V0H83.6339V36.9205L78.6197 35.872V0H66.4645V33.3109L62.5223 32.4687V0H47.5142V29.2889L44.3327 28.6185V0H27.3708V25.0434L28.9615 25.3699V67H36.31V26.9341L41.549 28.0341V67H51.1452V30.0623L56.1594 31.128V67H68.3146V33.7063L72.2568 34.5313V67H87.2822V37.6939L90.4637 38.3815V67H107.408V41.9566L105.835 41.6129V0Z" fill="#084D9B"/>
<path d="M0 10.4849V67H2.55899V16.9992C3.9941 18.4946 5.94792 19.6462 8.19568 20.5228V67H12.0342V21.7432C12.6739 21.9151 13.3309 22.0698 14.0053 22.2073L17.8438 23.0495V67.0172H23.3075V24.1668L24.6735 24.4418V0H16.8755C4.84133 0 0 4.52052 0 10.4849Z" fill="#084D9B"/>
<path d="M132.237 0V50.018C130.802 48.5226 128.866 47.371 126.618 46.4772V0H122.78V45.2568C122.14 45.0849 121.483 44.9302 120.826 44.7927L116.97 43.9849V0H111.523V42.8161L110.158 42.5239V66.9828H117.938C129.955 66.9828 134.796 62.4451 134.796 56.4979V0H132.237Z" fill="#084D9B"/>
</svg>
