<svg width="456" height="101" viewBox="0 0 456 101" fill="none" xmlns="http://www.w3.org/2000/svg">
<path d="M100.924 50.5C100.924 78.3844 78.3253 101 50.4619 101C22.5985 101 0 78.4047 0 50.5C0 22.5953 22.5985 0 50.4619 0C78.3253 0 100.924 22.6156 100.924 50.5Z" fill="white"/>
<path d="M74.1944 46.9739C66.1553 41.5024 55.8888 43.7315 50.4822 51.9388C45.9868 58.8086 39.1829 59.6597 36.5505 59.6597C27.9444 59.6597 22.0923 53.6005 20.3306 47.359C20.3306 47.359 20.2901 47.2374 20.2901 47.1766C20.2901 47.0955 20.2496 47.0347 20.2293 46.9739C19.5408 44.3598 19.3788 43.1236 19.3788 40.3473C19.3788 25.3919 34.728 8.73415 56.8 8.73415C78.8721 8.73415 92.3583 25.9593 95.6994 35.5445C95.6387 35.3622 95.578 35.2 95.5172 35.0379C89.0981 16.3132 71.3595 2.83708 50.4417 2.83708C24.1577 2.83708 2.83494 24.176 2.83494 50.5C2.83494 74.0275 19.7838 94.1707 43.3138 94.1707C62.0649 94.1707 74.6804 83.6533 80.4515 69.1437C83.6307 61.1998 81.383 51.878 74.1742 46.9942" fill="#003964"/>
<path d="M95.9829 36.4767C93.1885 27.1346 80.168 8.73415 56.7798 8.73415C34.7078 8.73415 19.3586 25.3919 19.3586 40.3473C19.3586 43.1236 19.5408 44.3598 20.2091 46.9739C19.9256 45.8391 19.7838 44.684 19.7838 43.5694C19.7838 27.9858 35.376 17.2049 51.3934 17.2049C73.0807 17.2049 90.6573 34.7947 90.6573 56.4984C90.6573 73.5006 80.8768 88.2331 66.6616 95.3056C84.9874 88.679 98.0686 71.1094 98.0686 50.5C98.0686 45.6162 97.4207 41.32 95.9829 36.4767Z" fill="#ED193A"/>
<path d="M139.641 57.7953V50.8648H120.849V45.677H164.447V50.8648H145.594V57.7953H160.964V74.372H155.071V62.9629H123.786V57.7751H139.641V57.7953ZM160.842 27.7426V41.8672H154.95V32.9304H124.211V27.7426H160.842Z" fill="#58595B"/>
<path d="M173.255 56.924V29.1003H209.826V34.2881H179.148V40.3878H209.603V45.4541H179.148V51.7362H209.988V56.924H194.517V65.5365H213.37V70.7648H169.772V65.5365H188.564V56.924H173.255Z" fill="#58595B"/>
<path d="M218.108 34.8758V29.688H246.66V34.8758H234.733L247.814 65.9621L242.63 68.1912L232.668 43.9139L222.745 68.5762L217.359 66.2863L230.501 34.8758H218.108ZM254.395 26.7496H260.288V74.2504H254.395V26.7496Z" fill="#58595B"/>
<path d="M294.672 67.7251H269.38V46.0215H288.232V34.8961H269.38V29.7083H294.125V51.1485H275.212V62.5576H294.672V67.7454V67.7251ZM303.339 26.7496H309.231V74.2504H303.339V26.7496Z" fill="#58595B"/>
<path d="M316.42 33.1938V28.1276H343.676V33.1938H332.073L344.182 47.9669L340.051 51.3511L330.351 39.253L320.713 52.182L316.399 48.6964L328.448 33.2141H316.46L316.42 33.1938ZM354.145 64.1788C354.145 65.7797 353.821 67.2793 353.152 68.6776C352.504 70.0758 351.634 71.312 350.54 72.3658C349.406 73.4195 348.09 74.2504 346.592 74.8786C345.093 75.5068 343.493 75.8108 341.833 75.8108C340.172 75.8108 338.553 75.5068 337.034 74.8786C335.515 74.2504 334.179 73.4195 333.065 72.3658C331.971 71.312 331.101 70.0758 330.453 68.6776C329.805 67.2793 329.481 65.7797 329.481 64.1788C329.481 62.5778 329.805 61.0782 330.453 59.6597C331.101 58.2412 331.971 57.005 333.065 55.9512C334.199 54.8975 335.515 54.0666 337.034 53.4384C338.553 52.8102 340.152 52.5062 341.833 52.5062C343.514 52.5062 345.093 52.8102 346.592 53.4384C348.09 54.0666 349.406 54.8975 350.54 55.9512C351.634 57.005 352.504 58.2412 353.152 59.6597C353.8 61.0782 354.145 62.5778 354.145 64.1788ZM348.353 64.118C348.353 62.3347 347.705 60.7945 346.389 59.5179C345.073 58.2209 343.534 57.5724 341.752 57.5724C339.97 57.5724 338.431 58.2209 337.135 59.5179C335.839 60.8148 335.191 62.3549 335.191 64.118C335.191 65.881 335.839 67.4212 337.135 68.6978C338.431 69.9745 339.97 70.6027 341.752 70.6027C343.534 70.6027 345.073 69.9745 346.389 68.6978C347.705 67.4212 348.353 65.9013 348.353 64.118ZM352.282 51.9591V41.6443H343.453V36.578H352.282V26.7699H358.174V51.9591H352.282Z" fill="#58595B"/>
<path d="M399.807 36.0917V28.7761H405.639V55.931H390.27V65.5365H409.122V70.7648H365.525V65.5365H384.317V55.931H369.008V28.7761H374.84V36.0917H399.807ZM399.807 50.7634V41.2187H374.84V50.7634H399.807Z" fill="#58595B"/>
<path d="M445.794 55.2825H433.199V62.4765H427.306V55.2825H414.225V50.0947H445.774V55.2825H445.794ZM417.465 73.4398V59.8624H423.358V68.3128H456V73.4398H417.465ZM441.603 37.186C441.603 38.7059 441.279 40.1447 440.651 41.4619C440.023 42.7994 439.173 43.9545 438.12 44.988C437.026 45.9607 435.771 46.751 434.333 47.3387C432.895 47.9264 431.356 48.2101 429.736 48.2101C428.116 48.2101 426.557 47.9264 425.14 47.3387C423.722 46.751 422.447 45.9809 421.353 44.988C420.3 43.9747 419.45 42.7994 418.822 41.4619C418.194 40.1447 417.87 38.7059 417.87 37.186C417.87 35.6661 418.194 34.2273 418.822 32.9101C419.45 31.5929 420.3 30.4175 421.353 29.384C422.447 28.4113 423.702 27.621 425.14 27.0333C426.577 26.4456 428.116 26.1619 429.736 26.1619C431.356 26.1619 432.916 26.4456 434.333 27.0333C435.75 27.621 437.026 28.3911 438.12 29.384C439.173 30.3973 440.023 31.5726 440.651 32.9101C441.279 34.2476 441.603 35.6661 441.603 37.186ZM435.892 37.186C435.892 35.5243 435.285 34.0855 434.07 32.9304C432.855 31.7753 431.397 31.1876 429.736 31.1876C428.076 31.1876 426.618 31.7753 425.403 32.9304C424.188 34.0855 423.58 35.504 423.58 37.186C423.58 38.868 424.188 40.2865 425.403 41.4416C426.618 42.5967 428.056 43.1844 429.736 43.1844C431.417 43.1844 432.855 42.5967 434.07 41.4416C435.285 40.2865 435.892 38.868 435.892 37.186ZM449.561 26.7496H455.453V63.0237H449.561V45.5148H442.959V40.3878H449.561V26.7496Z" fill="#58595B"/>
</svg>
