<svg width="374" height="73" viewBox="0 0 374 73" fill="none" xmlns="http://www.w3.org/2000/svg">
<path d="M171.956 21.0842C167.469 21.0842 163.675 22.6615 160.576 25.8038C157.477 28.9462 155.927 32.7539 155.927 37.2147C155.927 41.6756 157.477 45.4833 160.576 48.6256C163.675 51.7679 167.469 53.3452 171.956 53.3452C176.444 53.3452 180.25 51.7679 183.374 48.6256C186.486 45.4833 188.048 41.6756 188.048 37.2147C188.048 32.7539 186.486 28.9462 183.374 25.8038C180.25 22.6615 176.457 21.0842 171.956 21.0842ZM177.671 43.7951C176.097 45.6065 174.188 46.5061 171.944 46.5061C169.7 46.5061 167.791 45.6065 166.229 43.7951C164.655 41.9959 163.874 39.7902 163.874 37.2024C163.874 34.6146 164.655 32.4212 166.229 30.6097C167.804 28.7983 169.713 27.8987 171.944 27.8987C174.176 27.8987 176.097 28.7983 177.671 30.6097C179.246 32.4212 180.027 34.6146 180.027 37.2024C180.027 39.7902 179.246 41.9836 177.671 43.7951Z" fill="#005EAE"/>
<path d="M199.639 19.2481C196.254 19.2481 196.081 22.7848 196.081 22.7848V55.1813H203.816V25.6067H212.37V19.2481H199.639Z" fill="#005EAE"/>
<path d="M254.743 53.1604H246.871V68.9705C246.871 72.3346 250.428 72.5071 250.428 72.5071H290.371V66.0253H254.743V53.1604Z" fill="#005EAE"/>
<path d="M285.573 19.2481C282.189 19.2481 282.016 22.7848 282.016 22.7848V55.1813H289.826V25.8038H298.367V19.2481H285.573Z" fill="#005EAE"/>
<path d="M255.548 21.6757C254.693 20.8255 253.813 20.579 253.032 20.6283C252.251 20.5913 251.371 20.8255 250.515 21.6757L233.16 49.747H242.742L253.032 33.4316L263.321 49.0692H272.904L255.548 21.6757Z" fill="#005EAE"/>
<path d="M366.116 19.051H374V54.9841H366.116V19.051Z" fill="#005EAE"/>
<path d="M341.743 21.4786C340.888 20.6283 340.008 20.3942 339.227 20.4311C338.446 20.3942 337.566 20.6283 336.71 21.4786L319.342 49.5498H328.938L339.215 33.2345L349.504 48.872H359.087L341.731 21.4786H341.743Z" fill="#005EAE"/>
<path fill-rule="evenodd" clip-rule="evenodd" d="M68.3314 12.3474C68.3314 19.1742 62.7776 24.6948 55.9097 24.7071C49.0543 24.7071 43.4881 19.1865 43.4757 12.3597C43.4757 5.53292 49.0419 0.0123228 55.8973 0C62.7528 0 68.319 5.52059 68.319 12.3474H68.3314Z" fill="#005EAE"/>
<path d="M34.5872 42.3533C29.2318 36.6602 24.3226 42.3903 24.3226 42.3903L27.7441 38.3238C29.3433 36.6109 32.7401 31.5339 39.8682 31.5339C46.9964 31.5339 50.827 36.6479 52.2899 38.2868C52.2899 38.2868 79.2034 67.4301 79.5877 67.8737C77.5298 69.9932 74.1331 72.7289 68.8644 72.7289C61.7363 72.7289 57.9056 67.5287 56.4428 65.8774L34.5748 42.3533H34.5872Z" fill="#F29100"/>
<path d="M85.6993 50.7697C80.3563 45.0766 75.1248 50.4494 75.1248 50.4494L78.5588 46.6539C80.1455 44.9411 83.8398 39.938 90.9804 39.938C98.121 39.938 101.741 45.0027 103.216 46.6539C103.216 46.6539 122.803 67.6519 123.187 68.0955C121.129 70.215 117.733 72.9507 112.464 72.9507C105.336 72.9507 101.704 67.8861 100.228 66.2348L85.6993 50.7697Z" fill="#F29100"/>
<path fill-rule="evenodd" clip-rule="evenodd" d="M117.77 24.2019C117.77 29.858 113.146 34.4298 107.456 34.4298C101.766 34.4298 97.1664 29.8334 97.1664 24.1772C97.1664 18.5211 101.79 13.9494 107.481 13.9494C113.171 13.9494 117.77 18.5457 117.77 24.2019Z" fill="#008236"/>
<path d="M95.9515 50.4863C101.307 44.7932 106.65 50.2029 106.65 50.2029L103.216 46.4075C101.629 44.6946 97.935 39.6916 90.7944 39.6916C83.6539 39.6916 80.0092 44.5344 78.5464 46.1857L63.8561 62.1683C58.5007 67.8614 53.2816 62.4887 53.2816 62.4887L56.7279 66.2841C58.3147 67.997 62.009 73 69.1496 73C76.2901 73 79.91 67.9353 81.3852 66.2841L95.9763 50.4863H95.9515Z" fill="#008236"/>
<path d="M45.1865 42.2547C50.5419 36.5616 55.761 41.9343 55.761 41.9343L52.327 38.1389C50.7278 36.4261 47.046 31.423 39.9054 31.423C32.7648 31.423 29.021 36.5246 27.5582 38.1759C27.5582 38.1759 0.384302 67.6642 0 68.0955C2.05787 70.2151 5.45461 72.9507 10.7233 72.9507C17.8514 72.9507 21.4837 67.8861 22.9465 66.2348L45.1865 42.2424V42.2547Z" fill="#005EAE"/>
</svg>
