<svg width="489" height="74" viewBox="0 0 489 74" fill="none" xmlns="http://www.w3.org/2000/svg">
<path d="M204.162 17.1915C204.016 17.3497 203.846 17.4348 203.64 17.4348H177.477C177.282 17.4348 177.1 17.3375 176.942 17.155C176.772 16.9725 176.699 16.7535 176.699 16.498V13.2617C176.699 13.0792 176.784 12.8967 176.966 12.7142C177.149 12.5317 177.331 12.4343 177.538 12.4343H203.64C203.834 12.4343 204.004 12.5195 204.162 12.6777C204.308 12.8358 204.381 13.0305 204.381 13.2495V16.5467C204.381 16.8022 204.308 17.009 204.162 17.1793V17.1915ZM190.953 19.3572C192.436 19.3572 193.833 19.6127 195.146 20.1237C196.458 20.6347 197.6 21.3282 198.572 22.2163C199.544 23.0923 200.31 24.1265 200.869 25.3188C201.428 26.5112 201.707 27.7765 201.707 29.127C201.707 30.4775 201.428 31.8158 200.869 32.996C200.31 34.1883 199.544 35.2225 198.572 36.0985C197.6 36.9745 196.458 37.668 195.146 38.179C193.821 38.69 192.411 38.9455 190.905 38.9455C189.398 38.9455 188.037 38.69 186.761 38.179C185.485 37.668 184.355 36.9745 183.383 36.0985C182.41 35.2225 181.645 34.1883 181.086 32.996C180.527 31.8037 180.247 30.514 180.247 29.127C180.247 27.74 180.527 26.499 181.086 25.3188C181.645 24.1265 182.41 23.0923 183.383 22.2163C184.355 21.3403 185.485 20.6468 186.785 20.1237C188.085 19.6127 189.471 19.3572 190.953 19.3572ZM197.795 9.80633C197.649 9.98883 197.442 10.074 197.175 10.074H184.294C184.16 10.074 184.002 10.001 183.832 9.855C183.65 9.709 183.565 9.50217 183.565 9.24667V6.01033C183.565 5.71833 183.65 5.49933 183.832 5.35333C184.014 5.20733 184.172 5.13433 184.294 5.13433H197.175C197.406 5.13433 197.6 5.23167 197.77 5.41417C197.94 5.59667 198.025 5.81567 198.025 6.07117V9.198C198.025 9.417 197.953 9.62383 197.795 9.80633ZM214.941 55.0542C214.771 55.1637 214.613 55.2123 214.443 55.2123H188.377C186.894 55.2123 185.898 54.9203 185.363 54.3363C184.841 53.7523 184.573 52.7425 184.573 51.319V42.8145C184.573 42.632 184.659 42.4495 184.816 42.267C184.987 42.0845 185.145 41.9872 185.315 41.9872H189.507C189.738 41.9872 189.932 42.0845 190.078 42.267C190.224 42.4495 190.297 42.632 190.297 42.8145V49.0682C190.297 49.4332 190.358 49.6765 190.491 49.786C190.625 49.8955 190.856 49.9563 191.184 49.9563H214.43C214.588 49.9563 214.758 50.0293 214.929 50.1753C215.099 50.3213 215.172 50.4917 215.172 50.662V54.5675C215.172 54.7865 215.087 54.9568 214.929 55.0663L214.941 55.0542ZM190.953 24.2482C189.41 24.2482 188.122 24.7227 187.101 25.6717C186.08 26.6207 185.57 27.7765 185.57 29.127C185.57 30.4775 186.08 31.7063 187.101 32.6918C188.122 33.6773 189.398 34.1762 190.953 34.1762C192.509 34.1762 193.821 33.6773 194.83 32.6918C195.838 31.7063 196.336 30.514 196.336 29.127C196.336 27.74 195.838 26.6207 194.83 25.6717C193.821 24.7227 192.533 24.2482 190.953 24.2482ZM220.446 27.3993C220.3 27.5332 220.13 27.594 219.923 27.594H213.264V43.4107C213.264 43.8852 213.045 44.1285 212.62 44.1285H208.233C207.808 44.1285 207.589 43.8973 207.589 43.4107V4.64767C207.589 4.17317 207.796 3.92983 208.233 3.92983H212.62C213.045 3.92983 213.264 4.17317 213.264 4.64767V22.3258H219.923C220.117 22.3258 220.288 22.3988 220.446 22.5448C220.591 22.6908 220.664 22.8612 220.664 23.0437V26.937C220.664 27.1195 220.591 27.2777 220.446 27.4115V27.3993Z" fill="#4C4C4E"/>
<path d="M262.867 8.8695C262.867 9.709 262.843 10.6945 262.794 11.8017C262.746 12.921 262.661 14.1133 262.551 15.3787C262.43 16.644 262.296 17.9337 262.126 19.2477C261.968 20.5617 261.762 21.8513 261.531 23.0923H268.785C268.955 23.0923 269.113 23.1897 269.284 23.3965C269.442 23.5912 269.539 23.7858 269.539 23.9683V27.5453C269.539 27.7278 269.454 27.9103 269.284 28.0928C269.126 28.2753 268.955 28.3727 268.785 28.3727H249.731V36.5487H259.356C260.704 36.5487 261.579 36.8042 261.992 37.3152C262.406 37.8262 262.612 38.8847 262.612 40.5028V55.2732C262.612 55.4557 262.539 55.626 262.393 55.7963C262.248 55.9545 262.09 56.0397 261.92 56.0397H257.63C257.436 56.0397 257.265 55.9545 257.107 55.7963C256.962 55.626 256.889 55.4557 256.889 55.2732V42.6442C256.889 42.2792 256.828 42.0358 256.694 41.9263C256.561 41.8168 256.318 41.7682 255.953 41.7682H231.674C231.504 41.7682 231.346 41.6952 231.176 41.5735C231.018 41.4518 230.933 41.2937 230.933 41.1112V37.2057C230.933 36.9867 231.018 36.8163 231.176 36.7068C231.346 36.5973 231.504 36.5487 231.674 36.5487H244.056V28.3727H225.792C225.598 28.3727 225.428 28.2753 225.294 28.0928C225.16 27.9103 225.1 27.7278 225.1 27.5453V23.9683C225.1 23.3843 225.331 23.0923 225.792 23.0923H256.293C256.585 21.3038 256.84 19.4423 257.035 17.52C257.229 15.5977 257.326 13.5415 257.326 11.3393C257.326 10.8283 257.205 10.4998 256.986 10.3782C256.755 10.2443 256.415 10.1835 255.953 10.1835H232.95C232.78 10.1835 232.622 10.1105 232.451 9.9645C232.281 9.8185 232.208 9.66033 232.208 9.47783V5.694C232.208 5.475 232.294 5.30467 232.451 5.19517C232.609 5.08567 232.78 5.037 232.95 5.037H259.599C260.656 5.037 261.458 5.34117 262.017 5.9495C262.576 6.55783 262.855 7.53117 262.855 8.88167L262.867 8.8695Z" fill="#4C4C4E"/>
<path d="M296.273 18.4812C296.273 20.3183 295.981 21.9973 295.41 23.5547C294.839 25.112 294.012 26.4503 292.943 27.5818C291.874 28.7133 290.61 29.5893 289.14 30.222C287.681 30.8425 286.053 31.1588 284.279 31.1588C282.505 31.1588 280.937 30.8547 279.491 30.222C278.045 29.6015 276.806 28.7255 275.76 27.5818C274.728 26.4503 273.926 25.0998 273.367 23.5547C272.808 21.9973 272.528 20.3062 272.528 18.4812C272.528 16.6562 272.808 15.0745 273.367 13.5415C273.926 12.0085 274.728 10.658 275.76 9.50217C276.793 8.34633 278.045 7.446 279.491 6.789C280.937 6.132 282.529 5.8035 284.279 5.8035C286.029 5.8035 287.681 6.132 289.14 6.789C290.61 7.446 291.874 8.34633 292.943 9.50217C294.012 10.658 294.839 11.9963 295.41 13.5415C295.981 15.0867 296.273 16.7292 296.273 18.4812ZM290.646 18.5907C290.646 16.425 290.075 14.6973 288.921 13.4077C287.766 12.1058 286.223 11.461 284.279 11.461C282.335 11.461 280.889 12.1058 279.734 13.4077C278.58 14.7095 278.009 16.4372 278.009 18.5907C278.009 20.7442 278.58 22.5448 279.734 23.8588C280.889 25.1728 282.395 25.8298 284.279 25.8298C286.162 25.8298 287.766 25.1728 288.921 23.8588C290.075 22.5448 290.646 20.7807 290.646 18.5907ZM308.194 54.3363C307.647 54.9203 306.748 55.2123 305.508 55.2123H284.534C283.015 55.2123 281.921 54.9203 281.253 54.3363C280.573 53.7523 280.244 52.7425 280.244 51.319V40.0162C280.244 38.6292 280.512 37.6193 281.059 36.9988C281.605 36.3783 282.505 36.062 283.744 36.062H305.265C306.748 36.062 307.744 36.3662 308.254 36.9745C308.765 37.5828 309.02 38.6048 309.02 40.077V51.3798C309.02 52.779 308.74 53.7645 308.206 54.3485L308.194 54.3363ZM303.381 41.8168C303.381 41.5248 303.333 41.3302 303.26 41.2328C303.175 41.1477 303.005 41.099 302.75 41.099H286.503C286.235 41.099 286.065 41.1355 285.992 41.2085C285.907 41.2815 285.871 41.464 285.871 41.756V49.4453C285.871 49.7738 285.907 49.9685 285.992 50.0537C286.077 50.1267 286.247 50.1632 286.503 50.1632H302.75C303.005 50.1632 303.187 50.1267 303.26 50.0537C303.345 49.9807 303.381 49.7738 303.381 49.4453V41.8168ZM309.008 32.5945C309.008 33.069 308.789 33.3123 308.364 33.3123H303.977C303.552 33.3123 303.333 33.0568 303.333 32.5458V4.64767C303.333 4.17317 303.552 3.92983 303.977 3.92983H308.364C308.789 3.92983 309.008 4.17317 309.008 4.64767V32.5945Z" fill="#4C4C4E"/>
<path d="M349.072 31.6577C348.647 31.6577 348.428 31.4022 348.428 30.8912V20.6833H340.675C340.384 21.9973 339.898 23.2383 339.241 24.382C338.585 25.5378 337.759 26.5355 336.775 27.375C335.79 28.2267 334.648 28.8837 333.372 29.3825C332.084 29.8813 330.687 30.1247 329.18 30.1247C327.406 30.1247 325.789 29.784 324.343 29.1027C322.897 28.4213 321.67 27.521 320.649 26.3895C319.628 25.258 318.839 23.944 318.28 22.4597C317.721 20.9753 317.441 19.4302 317.441 17.812C317.441 16.1938 317.721 14.5878 318.28 13.0913C318.839 11.5948 319.628 10.2687 320.649 9.13717C321.67 8.00567 322.897 7.09317 324.343 6.41183C325.789 5.7305 327.406 5.402 329.18 5.402C330.759 5.402 332.206 5.66967 333.494 6.19283C334.794 6.72817 335.948 7.43383 336.957 8.33417C337.953 9.2345 338.78 10.293 339.424 11.5218C340.068 12.7507 340.517 14.0403 340.785 15.3908H348.44V4.64767C348.44 4.17317 348.659 3.92983 349.084 3.92983H353.483C353.909 3.92983 354.127 4.17317 354.127 4.64767V30.8912C354.127 31.4022 353.909 31.6577 353.483 31.6577H349.072ZM335.559 17.8242C335.559 16.8752 335.414 15.9627 335.122 15.0867C334.83 14.2107 334.405 13.432 333.834 12.775C333.275 12.118 332.594 11.5827 331.804 11.1812C331.015 10.7797 330.14 10.5728 329.192 10.5728C328.244 10.5728 327.369 10.7797 326.604 11.1812C325.838 11.5827 325.17 12.118 324.611 12.775C324.052 13.432 323.626 14.1985 323.323 15.0867C323.019 15.9627 322.873 16.8752 322.873 17.8242C322.873 18.7732 323.019 19.6857 323.323 20.5373C323.614 21.4012 324.04 22.1555 324.611 22.8125C325.17 23.4695 325.838 23.9927 326.604 24.382C327.381 24.7713 328.244 24.9538 329.192 24.9538C330.14 24.9538 331.015 24.7592 331.804 24.382C332.594 24.0048 333.275 23.4817 333.834 22.8125C334.393 22.1555 334.818 21.389 335.122 20.5373C335.426 19.6857 335.559 18.7732 335.559 17.8242ZM353.325 54.312C352.803 54.9203 351.831 55.2123 350.409 55.2123H328.596C327.15 55.2123 326.166 54.9447 325.631 54.385C325.109 53.8375 324.842 52.8277 324.842 51.3677V35.1252C324.842 34.9427 324.902 34.7845 325.036 34.6507C325.17 34.529 325.315 34.456 325.486 34.456H329.824C329.982 34.456 330.14 34.529 330.298 34.6507C330.443 34.7845 330.516 34.9305 330.516 35.1252V40.1743H348.428V34.9062C348.428 34.7237 348.489 34.5655 348.623 34.4073C348.756 34.2613 348.902 34.1883 349.06 34.1883H353.459C353.617 34.1883 353.775 34.2613 353.909 34.4073C354.042 34.5533 354.103 34.7237 354.103 34.9062V51.538C354.103 52.779 353.836 53.7037 353.313 54.312H353.325ZM348.44 45.2722H330.529V49.1168C330.529 49.7373 330.832 50.0537 331.416 50.0537H347.553C348.149 50.0537 348.44 49.7373 348.44 49.1168V45.2722Z" fill="#4C4C4E"/>
<path d="M363.946 36.0012C363.715 36.1107 363.448 36.1715 363.132 36.1715C362.816 36.1715 362.561 35.9768 362.366 35.5753L360.884 32.8865C360.726 32.5945 360.677 32.2903 360.762 31.9862C360.847 31.6698 361.054 31.4265 361.382 31.244C363.193 30.2585 364.93 29.0905 366.583 27.7278C368.248 26.3773 369.767 24.9295 371.128 23.3965C372.489 21.8635 373.68 20.2818 374.688 18.6758C375.685 17.0698 376.438 15.5125 376.936 14.016C377.07 13.651 377.131 13.3468 377.106 13.1157C377.094 12.8723 376.803 12.7507 376.244 12.7507H364.104C363.873 12.7507 363.703 12.6655 363.581 12.5073C363.472 12.3492 363.411 12.1545 363.411 11.9355V8.26117C363.411 7.75017 363.654 7.49467 364.153 7.49467H379.792C381.238 7.49467 382.307 7.79883 383 8.40717C383.693 9.0155 383.948 9.90367 383.79 11.0717C383.729 11.4732 383.644 11.8747 383.547 12.2762C383.45 12.6777 383.352 13.0427 383.255 13.3712C382.891 14.7582 382.368 16.1817 381.675 17.6295C380.983 19.0773 380.181 20.513 379.257 21.9365C379.853 22.6665 380.521 23.3965 381.274 24.1265C382.028 24.8565 382.818 25.5622 383.62 26.2435C384.422 26.9248 385.224 27.5453 386.014 28.1293C386.803 28.7133 387.533 29.2122 388.189 29.6137C388.845 29.9787 388.979 30.5262 388.59 31.2683L386.961 34.0667C386.633 34.6872 386.123 34.7967 385.43 34.3952C384.835 34.0667 384.142 33.6043 383.328 32.996C382.526 32.3877 381.688 31.7185 380.813 30.9642C379.938 30.2098 379.087 29.419 378.249 28.5795C377.41 27.74 376.657 26.937 376.001 26.1583C374.324 28.1293 372.464 29.9665 370.423 31.6455C368.381 33.3245 366.231 34.7967 363.958 36.0377L363.946 36.0012ZM399.551 55.0542C399.405 55.1637 399.235 55.2123 399.028 55.2123H373.218C371.735 55.2123 370.739 54.9203 370.228 54.3363C369.718 53.7523 369.463 52.7425 369.463 51.319V39.6877C369.463 39.5052 369.536 39.3227 369.682 39.1402C369.827 38.9577 369.985 38.8603 370.156 38.8603H374.445C374.64 38.8603 374.81 38.9455 374.968 39.1037C375.113 39.2618 375.186 39.4565 375.186 39.6877V49.0682C375.186 49.4332 375.247 49.6765 375.381 49.786C375.514 49.8955 375.745 49.9563 376.073 49.9563H399.016C399.174 49.9563 399.344 50.0293 399.514 50.1753C399.672 50.3213 399.757 50.4917 399.757 50.662V54.5675C399.757 54.7865 399.684 54.9568 399.539 55.0663L399.551 55.0542ZM398.238 40.6123C398.238 41.0868 398.02 41.318 397.594 41.318H393.195C392.77 41.318 392.551 41.0625 392.551 40.5515V4.64767C392.551 4.17317 392.77 3.92983 393.195 3.92983H397.594C398.02 3.92983 398.238 4.17317 398.238 4.64767V40.6123Z" fill="#4C4C4E"/>
<path d="M447.696 38.3615C447.526 38.544 447.368 38.6292 447.198 38.6292H404.266C404.059 38.6292 403.901 38.5318 403.767 38.3615C403.634 38.179 403.573 37.9965 403.573 37.814V34.5777C403.573 33.9937 403.804 33.6895 404.266 33.6895H447.003C447.161 33.6895 447.368 33.7868 447.587 33.9693C447.818 34.1518 447.939 34.3587 447.939 34.5777V37.814C447.939 37.9965 447.854 38.179 447.696 38.3615ZM443.321 14.8312C443.176 14.9893 443.006 15.0745 442.799 15.0745H408.689C408.531 15.0745 408.361 14.9772 408.203 14.7703C408.033 14.5757 407.948 14.3567 407.948 14.1377V11.2298C407.948 11.0473 408.045 10.8648 408.215 10.6823C408.397 10.4998 408.567 10.4025 408.737 10.4025H442.787C442.981 10.4025 443.151 10.4877 443.309 10.6458C443.455 10.8162 443.528 10.9987 443.528 11.2298V14.1985C443.528 14.454 443.455 14.6608 443.309 14.8312H443.321ZM441.426 48.6302C441.426 50.9297 440.101 52.8033 437.428 54.2512C434.767 55.699 430.866 56.4168 425.726 56.4168C420.585 56.4168 416.697 55.699 414.036 54.2512C411.374 52.8033 410.038 50.9297 410.038 48.6302C410.038 46.3307 411.374 44.457 414.036 43.0213C416.697 41.5978 420.598 40.88 425.726 40.88C430.854 40.88 434.754 41.5978 437.428 43.0213C440.089 44.457 441.426 46.3185 441.426 48.6302ZM425.726 31.2197C423.49 31.2197 421.545 31.025 419.905 30.6113C418.252 30.2098 416.891 29.6745 415.81 29.0175C414.728 28.3605 413.914 27.594 413.367 26.7302C412.82 25.8663 412.553 24.966 412.553 24.017C412.553 23.068 412.82 22.0947 413.367 21.2187C413.914 20.3427 414.728 19.5762 415.81 18.9192C416.891 18.2622 418.264 17.7268 419.905 17.3253C421.545 16.9238 423.49 16.717 425.726 16.717C427.962 16.717 429.918 16.9238 431.583 17.3253C433.235 17.7268 434.621 18.2622 435.702 18.9192C436.784 19.5762 437.598 20.3427 438.145 21.2187C438.692 22.0947 438.959 23.0315 438.959 24.017C438.959 25.0025 438.692 25.8785 438.145 26.7302C437.598 27.594 436.784 28.3483 435.702 29.0175C434.621 29.6745 433.235 30.2098 431.583 30.6113C429.918 31.0128 427.974 31.2197 425.726 31.2197ZM425.726 45.3817C422.433 45.3817 419.954 45.7223 418.277 46.3915C416.6 47.0728 415.761 47.8272 415.761 48.6667C415.761 49.5062 416.6 50.2605 418.277 50.9175C419.954 51.5745 422.433 51.903 425.726 51.903C429.019 51.903 431.498 51.5745 433.175 50.9175C434.852 50.2605 435.69 49.5062 435.69 48.6667C435.69 47.8272 434.852 47.0607 433.175 46.3915C431.498 45.7102 429.019 45.3817 425.726 45.3817ZM433.503 8.15167C433.357 8.33417 433.163 8.4315 432.932 8.4315H418.568C418.435 8.4315 418.277 8.3585 418.106 8.2125C417.924 8.0665 417.839 7.85967 417.839 7.61633V4.4895C417.839 4.234 417.924 4.02717 418.106 3.88117C418.289 3.73517 418.447 3.66217 418.568 3.66217H432.932C433.126 3.66217 433.308 3.74733 433.478 3.942C433.636 4.1245 433.722 4.33133 433.722 4.55033V7.56767C433.722 7.78667 433.649 7.9935 433.503 8.16383V8.15167ZM425.726 20.951C423.222 20.951 421.315 21.243 419.978 21.827C418.641 22.411 417.985 23.141 417.985 24.017C417.985 24.893 418.653 25.5743 419.978 26.1583C421.315 26.7423 423.222 27.0343 425.726 27.0343C428.229 27.0343 430.197 26.7423 431.522 26.1583C432.859 25.5743 433.527 24.8565 433.527 24.017C433.527 23.1775 432.859 22.411 431.522 21.827C430.185 21.243 428.253 20.951 425.726 20.951Z" fill="#4C4C4E"/>
<path d="M480.384 30.587C480.239 30.7573 480.081 30.8668 479.923 30.9398C478.999 31.1223 477.978 31.2805 476.86 31.4022C475.742 31.5238 474.588 31.6455 473.409 31.755C472.218 31.8645 471.04 31.9618 469.885 32.0592C468.719 32.1443 467.625 32.2173 466.604 32.2538V40.1622C466.604 40.3812 466.531 40.5758 466.385 40.734C466.24 40.9043 466.07 40.9773 465.863 40.9773H461.768C461.573 40.9773 461.391 40.8922 461.245 40.734C461.1 40.5758 461.027 40.3812 461.027 40.1622V32.6918C460.042 32.7283 459.034 32.7527 457.989 32.777C456.956 32.8013 455.935 32.8257 454.951 32.8622C453.966 32.8987 453.031 32.9108 452.132 32.9108C451.232 32.9108 450.467 32.8987 449.81 32.8622C449.616 32.8622 449.446 32.777 449.312 32.5823C449.179 32.3998 449.106 32.193 449.106 31.9862V28.5795C449.106 28.3605 449.166 28.1658 449.312 28.0077C449.446 27.8373 449.604 27.7643 449.81 27.7643C452.083 27.7643 454.55 27.74 457.235 27.6792C459.921 27.6183 462.594 27.5332 465.255 27.3993C467.917 27.2655 470.493 27.1073 472.96 26.9005C475.426 26.6937 477.565 26.4503 479.376 26.1583C479.534 26.1218 479.716 26.1583 479.898 26.2678C480.081 26.3773 480.19 26.5355 480.214 26.7667L480.555 29.8935C480.591 30.1855 480.53 30.4167 480.384 30.5748V30.587ZM464.077 4.69633C465.754 4.69633 467.297 4.964 468.694 5.48717C470.092 6.0225 471.295 6.72817 472.291 7.6285C473.288 8.52883 474.078 9.57517 474.637 10.7797C475.196 11.9842 475.475 13.2617 475.475 14.6243C475.475 16.0478 475.196 17.3862 474.637 18.6272C474.078 19.8803 473.3 20.9388 472.291 21.8392C471.283 22.7395 470.08 23.4452 468.694 23.9805C467.297 24.5158 465.754 24.7713 464.077 24.7713C462.4 24.7713 460.869 24.5037 459.483 23.9805C458.098 23.4452 456.907 22.7395 455.911 21.8392C454.902 20.9388 454.137 19.8682 453.59 18.6272C453.043 17.3862 452.776 16.0478 452.776 14.6243C452.776 13.2008 453.055 11.9842 453.59 10.7797C454.124 9.57517 454.902 8.51667 455.911 7.6285C456.919 6.74033 458.11 6.0225 459.483 5.48717C460.869 4.95183 462.4 4.69633 464.077 4.69633ZM488.781 54.9447C488.635 55.0542 488.477 55.115 488.307 55.115H460.322C458.803 55.115 457.794 54.823 457.284 54.239C456.773 53.655 456.518 52.6452 456.518 51.2217V43.3742C456.518 43.1917 456.591 43.0213 456.737 42.851C456.883 42.6807 457.041 42.6077 457.211 42.6077H461.452C461.646 42.6077 461.816 42.6928 461.974 42.851C462.12 43.0213 462.193 43.1917 462.193 43.3742V48.9708C462.193 49.3358 462.254 49.5792 462.388 49.6887C462.521 49.7982 462.764 49.8468 463.129 49.8468H488.295C488.465 49.8468 488.611 49.9198 488.769 50.0658C488.915 50.2118 488.988 50.37 488.988 50.5525V54.4458C488.988 54.6648 488.915 54.8352 488.769 54.9447H488.781ZM464.077 9.5265C463.287 9.5265 462.533 9.6725 461.804 9.94017C461.087 10.22 460.455 10.585 459.933 11.0352C459.41 11.4975 458.985 12.045 458.669 12.6898C458.353 13.3225 458.195 14.016 458.195 14.746C458.195 15.476 458.353 16.2182 458.669 16.863C458.985 17.5078 459.41 18.0553 459.933 18.5055C460.455 18.9678 461.087 19.3328 461.804 19.6005C462.521 19.8803 463.287 20.0142 464.077 20.0142C464.903 20.0142 465.669 19.8803 466.373 19.6005C467.078 19.3328 467.698 18.9678 468.245 18.5055C468.792 18.0553 469.217 17.4957 469.533 16.863C469.849 16.2182 470.007 15.5247 470.007 14.746C470.007 13.9673 469.849 13.3225 469.533 12.6898C469.217 12.045 468.792 11.4975 468.245 11.0352C467.698 10.585 467.078 10.2078 466.373 9.94017C465.669 9.6725 464.903 9.5265 464.077 9.5265ZM487.274 44.9437H482.888C482.462 44.9437 482.244 44.6882 482.244 44.1772V39.1767H473.81C473.652 39.1767 473.482 39.1037 473.336 38.9577C473.191 38.8117 473.118 38.6535 473.118 38.471V35.0157C473.118 34.8332 473.191 34.675 473.336 34.5412C473.482 34.4195 473.64 34.3465 473.81 34.3465H482.244V4.64767C482.244 4.17317 482.462 3.92983 482.888 3.92983H487.274C487.7 3.92983 487.918 4.17317 487.918 4.64767V44.1772C487.918 44.6882 487.7 44.9437 487.274 44.9437Z" fill="#4C4C4E"/>
<path d="M14.5943 6.0955H0V55.2245H14.5943V6.0955Z" fill="url(#paint0_linear_484_1053)"/>
<path d="M44.2811 6.0955H29.2858L15.0196 28.0928L27.8154 55.2245H44.2082L29.6625 28.3727L44.2811 6.0955Z" fill="url(#paint1_linear_484_1053)"/>
<path d="M122.247 21.8513H95.9748V20.6225C95.9748 18.5298 96.4366 16.9238 97.3601 15.8045C98.2836 14.673 100.264 14.1133 101.966 14.1133C102.111 14.1133 104.518 14.1255 104.833 14.1498V0.0365L101.212 0C97.9312 0 94.1034 0.973333 91.0655 2.93217C88.0275 4.891 85.7795 7.42167 84.2848 10.512C83.1061 12.9453 82.5228 15.8653 82.5228 19.2963V21.8513H68.9857C65.9356 19.6857 62.4602 18.6028 58.5595 18.6028C53.1398 18.6028 48.595 20.3913 44.9008 23.9805C41.2067 27.5697 39.3718 31.9862 39.3718 37.2422C39.3718 42.4982 41.2189 46.8052 44.9008 50.4673C48.595 54.1295 53.0425 55.9667 58.2435 55.9667C63.4445 55.9667 67.8799 54.1417 71.5619 50.4917C75.2439 46.8538 77.0788 42.4373 77.0788 37.2543C77.0788 36.8285 77.0423 36.4148 77.018 36.0012H82.5228V55.2853H95.9626V36.0012H104.372C103.959 37.7897 103.752 39.7242 103.752 41.8168V73.0243H117.192V42.3157C117.192 37.5463 118.917 35.1495 122.368 35.1495C123.802 35.1495 125.042 35.6483 126.075 36.646C127.108 37.6437 127.618 38.8482 127.618 40.2595C127.618 41.6708 127.12 42.8997 126.123 43.9338C125.127 44.968 123.936 45.479 122.551 45.479C121.445 45.479 120.351 45.0288 119.245 44.1407V58.9718C120.825 59.1422 122.028 59.2273 122.842 59.2273C127.825 59.2273 132.139 57.378 135.784 53.6915C139.43 49.9928 141.252 45.6128 141.252 40.515C141.252 35.4172 139.417 30.8668 135.748 27.2655C132.078 23.6642 127.582 21.8635 122.235 21.8635L122.247 21.8513ZM68.3416 42.121C67.4424 42.121 66.6282 41.7195 66.0814 41.0868V45.8683C66.0814 46.7322 65.887 47.377 65.486 47.8028C65.0971 48.2287 64.5746 48.4477 63.9427 48.4477C63.3108 48.4477 62.8369 48.2287 62.4359 47.8028C62.0349 47.377 61.8404 46.72 61.8404 45.8683V41.5127C61.3301 41.8898 60.7103 42.121 60.0298 42.121C58.5838 42.121 57.3686 41.099 57.0769 39.7242H53.9296V45.8562C53.9296 46.72 53.7352 47.3648 53.3342 47.7907C52.9453 48.2165 52.4228 48.4355 51.7909 48.4355C51.159 48.4355 50.6851 48.2165 50.2841 47.7907C49.8952 47.3648 49.6887 46.7078 49.6887 45.8562V39.7242H45.0588L49.6887 32.4972V32.1443H46.833L51.8031 25.8785L56.7731 32.1443H53.9175V32.4972L57.3078 37.7897C57.563 37.2665 57.964 36.8163 58.4744 36.5122C58.122 36.0133 57.9033 35.4172 57.9033 34.7602C57.9033 33.3732 58.8389 32.2173 60.1027 31.8645C60.0541 31.6333 60.0177 31.39 60.0177 31.1467C60.0177 29.7475 60.8926 28.5552 62.1442 27.9468C62.4359 26.8032 62.9706 25.8663 63.9427 25.8663C64.9148 25.8663 65.4495 26.8032 65.7412 27.9468C66.9928 28.5552 67.8677 29.7475 67.8677 31.1467C67.8677 31.39 67.8434 31.6333 67.7948 31.8645C69.0586 32.2295 69.9943 33.3853 69.9943 34.7602C69.9943 35.332 69.8242 35.8673 69.5447 36.3297C70.614 36.8042 71.3553 37.8627 71.3553 39.1037C71.3553 40.7705 70.0064 42.121 68.3295 42.121H68.3416Z" fill="url(#paint2_linear_484_1053)"/>
<path d="M150.962 16.2182C152.93 16.2182 154.534 15.622 155.798 14.4175C157.062 13.213 157.682 11.68 157.682 9.80633C157.682 8.05433 157.013 6.5335 155.689 5.256C154.364 3.9785 152.784 3.33367 150.962 3.33367C149.139 3.33367 147.571 3.9785 146.235 5.256C144.898 6.5335 144.242 8.05433 144.242 9.80633C144.242 11.6678 144.874 13.213 146.125 14.4175C147.389 15.622 148.993 16.2182 150.962 16.2182Z" fill="url(#paint3_linear_484_1053)"/>
<path d="M157.645 19.345H144.205V55.2245H157.645V19.345Z" fill="url(#paint4_linear_484_1053)"/>
<defs>
<linearGradient id="paint0_linear_484_1053" x1="27.1349" y1="30.6602" x2="174.366" y2="30.6602" gradientUnits="userSpaceOnUse">
<stop stop-color="#00582C"/>
<stop offset="1" stop-color="#6FBF59"/>
</linearGradient>
<linearGradient id="paint1_linear_484_1053" x1="27.1349" y1="0.000202071" x2="174.354" y2="0.000202071" gradientUnits="userSpaceOnUse">
<stop stop-color="#00582C"/>
<stop offset="1" stop-color="#6FBF59"/>
</linearGradient>
<linearGradient id="paint2_linear_484_1053" x1="27.1349" y1="36.5" x2="174.354" y2="36.5" gradientUnits="userSpaceOnUse">
<stop stop-color="#00582C"/>
<stop offset="1" stop-color="#6FBF59"/>
</linearGradient>
<linearGradient id="paint3_linear_484_1053" x1="27.1471" y1="9.76966" x2="174.354" y2="9.76966" gradientUnits="userSpaceOnUse">
<stop stop-color="#00582C"/>
<stop offset="1" stop-color="#6FBF59"/>
</linearGradient>
<linearGradient id="paint4_linear_484_1053" x1="27.1349" y1="37.2911" x2="174.354" y2="37.2911" gradientUnits="userSpaceOnUse">
<stop stop-color="#00582C"/>
<stop offset="1" stop-color="#6FBF59"/>
</linearGradient>
</defs>
</svg>
