<svg width="478" height="65" viewBox="0 0 478 65" fill="none" xmlns="http://www.w3.org/2000/svg">
<path d="M26.0235 50.913C27.9436 51.4752 28.5681 52.2432 28.5802 53.32C28.5889 54.2516 27.8935 55.0931 26.1671 55.1087L0.199006 55.3621L0.292418 64.8675L25.0609 64.6279C33.6019 64.5449 38.3598 60.2272 38.2923 53.3443C38.2283 46.7969 34.5144 44.0767 27.7724 42.0702L13.2661 37.7646C11.1514 37.1436 10.187 36.3505 10.2804 35.182C10.3946 33.7592 11.5207 33.274 13.5835 33.2532L37.7742 33.0189L37.6817 23.5074L13.7842 23.741C5.1636 23.8257 0.263015 27.6175 0.0078666 34.5385C-0.191063 39.9606 3.38707 44.2774 10.2666 46.297L26.0235 50.913ZM51.7547 0L52.1828 44.1537C52.2433 50.3819 56.5021 55.2964 63.5642 55.2289C70.6287 55.1597 74.8201 50.164 74.7604 43.9349C74.6999 37.7075 70.4921 32.6997 63.3471 32.7689L56.9242 32.8312L56.8317 23.3206L63.2537 23.2583C75.7023 23.1372 84.2477 32.3632 84.3601 43.8441C84.4708 55.3275 76.0249 64.7187 63.6576 64.8381C51.1285 64.9592 42.6662 55.7332 42.5537 44.2506L42.1239 0.094283L51.7547 0ZM108.482 22.3087C96.3045 22.4272 87.7133 31.8772 87.8249 43.4298C87.9374 54.9815 96.8754 64.2603 108.888 64.1444C111.154 64.1211 113.297 63.7725 115.282 63.1515L115.186 53.3702C113.677 53.9514 111.436 54.4808 108.795 54.5067C101.91 54.5724 97.4643 49.4003 97.4047 43.3355C97.3441 37.1064 101.689 32.0121 108.576 31.9464C115.656 31.8772 119.904 36.8867 119.965 43.1176L120.164 63.7033L129.743 63.6099L129.544 43.0233C129.432 31.4707 121.641 22.1807 108.482 22.3087Z" fill="#00A4E0"/>
<path d="M327.619 63.7094H333.501V13.9112H327.62L327.619 63.7094ZM168.654 32.8926C167.148 29.388 166.475 26.8053 166.475 20.7639V14.5591H159.884V20.7639C159.884 26.8053 159.213 29.3897 157.708 32.8917C156.133 36.5382 153.179 40.2045 149.604 42.9541L149.132 43.3148L150.573 44.7998C151.369 45.6241 152.346 46.6352 152.514 46.803L152.816 47.11L153.175 46.8765C155.002 45.6967 157.229 43.6953 159.137 41.5287C160.431 40.061 162.211 37.5043 163.182 35.4812C164.148 37.5008 165.928 40.061 167.224 41.5287C169.13 43.6936 171.359 45.6933 173.186 46.8765L173.548 47.1117L173.85 46.8012C174.115 46.5296 176.486 44.0785 176.814 43.7386L177.226 43.313L176.757 42.9541C173.176 40.2011 170.224 36.5356 168.654 32.8926ZM308.628 33.4928C307.27 30.0911 306.665 27.5846 306.665 21.7093V20.2398H313.957V15.3764H293.052V20.2398H300.344V21.7101C300.344 27.5846 299.739 30.0929 298.384 33.4928C296.851 37.3192 294.367 40.784 291.392 43.2516L290.82 43.7247L292.755 45.8792C293.337 46.5262 293.893 47.1489 294.011 47.2761L294.387 47.6869L294.839 47.3729C296.563 46.1707 298.327 44.1347 299.977 42.1143C301.05 40.7996 302.566 38.5076 303.506 36.5122C304.446 38.5128 305.963 40.8039 307.035 42.1134C308.678 44.1286 310.439 46.1603 312.174 47.3721L312.627 47.6886L313.005 47.2726C313.244 47.0045 315.394 44.6113 315.69 44.2783L316.188 43.723L315.619 43.2516C312.639 40.7814 310.155 37.314 308.628 33.4928Z" fill="#54565B"/>
<path d="M182.818 25.8928H173.166V30.8332H182.818V63.7085H188.988V13.9104H182.818V25.8928ZM318.347 25.8928H311.548V30.7554H318.347V63.7085H324.25V13.9104H318.347V25.8928ZM195.72 40.394H216.058V43.5215H202.244V48.3304H228.025C228.823 48.3304 229.055 48.4575 229.055 49.2956V51.2123H202.182V59.4964C202.182 62.2529 203.734 63.7085 206.676 63.7085H236.109V58.8546H209.541C208.677 58.8546 208.459 58.7629 208.459 57.9326V55.5628H235.323V47.4603C235.323 44.8759 233.025 43.5215 230.754 43.5215H222.224V40.394H242.639V35.5297H195.72V40.394ZM213.311 19.3031C214.597 18.4036 216.622 17.9296 219.17 17.9296C221.726 17.9296 223.754 18.4027 225.035 19.3031C226.265 20.1654 226.971 21.6124 226.971 23.273C226.971 24.9337 226.265 26.3781 225.035 27.2395C223.752 28.1407 221.726 28.6182 219.171 28.6182C216.624 28.6182 214.598 28.1408 213.311 27.2378C212.082 26.3789 211.378 24.9337 211.378 23.2739C211.378 21.6124 212.082 20.1645 213.311 19.3031ZM208.349 30.681C210.86 32.6374 214.5 33.6295 219.17 33.6295C223.844 33.6295 227.485 32.6374 230.002 30.6767C232.302 28.837 233.467 26.3478 233.467 23.273C233.467 20.2035 232.301 17.7116 229.996 15.8651C227.485 13.9104 223.844 12.9183 219.17 12.9183C214.5 12.9183 210.86 13.9104 208.343 15.8685C206.049 17.709 204.883 20.2017 204.883 23.2739C204.883 26.3495 206.049 28.8387 208.349 30.681ZM354.126 58.1099V45.5826H347.901V59.6054C347.901 61.6492 349.242 63.7094 352.238 63.7094H379.815V58.7846H354.836C354.27 58.7846 354.126 58.7188 354.126 58.1099ZM451.815 58.7854C451.246 58.7854 451.101 58.718 451.101 58.1108V48.4757H444.882V59.6045C444.882 61.6474 446.223 63.7085 449.217 63.7085H477.999V58.7854H451.815ZM354.124 31.3946C355.051 33.3925 356.704 35.6023 358.506 37.2154C360.789 39.2557 363.186 40.586 364.792 41.3428L365.18 41.5227L366.419 39.9062C367.063 39.0698 367.807 38.1019 367.977 37.8788L368.371 37.3564L367.778 37.0822C360.933 33.9045 357.46 28.536 357.46 21.1272V19.5245H366.02V14.6611H342.227V19.5245H350.791V21.1272C350.791 28.536 347.32 33.9028 340.473 37.0822L339.876 37.3599L343.072 41.5227L343.456 41.3428C345.065 40.5842 347.464 39.2557 349.744 37.2145C351.55 35.5954 353.204 33.383 354.124 31.3946ZM378.903 13.9104H372.686V47.2121H378.903V13.9104ZM448.534 47.2527H454.653V40.1042L459.168 40.1025C464.234 39.9174 466.087 39.7228 469.081 39.062L469.54 38.9599L469.073 34.3716L468.517 34.4667C465.303 35.0168 462.669 35.2962 457.194 35.2962H435.454V40.1457H448.535L448.534 47.2527Z" fill="#54565B"/>
<path d="M460.919 47.328H470.459V51.1595H476.669V13.9095H470.459V42.4922H460.919V47.328ZM414.741 58.6894C413.371 59.563 411.208 60.0214 408.484 60.0214C405.757 60.0214 403.594 59.563 402.22 58.6894C400.921 57.8712 400.176 56.4969 400.176 54.9184C400.176 53.9938 400.44 52.2752 402.224 51.1508C403.596 50.279 405.759 49.8172 408.484 49.8172C411.202 49.8172 413.367 50.279 414.742 51.1508C416.521 52.2752 416.786 53.9938 416.786 54.9184C416.786 56.4969 416.042 57.8712 414.741 58.6894ZM419.71 47.7881C417.109 45.9181 413.328 44.9711 408.484 44.9711C403.632 44.9711 399.852 45.9181 397.244 47.7933C394.847 49.5637 393.631 51.9613 393.631 54.9184C393.631 57.8781 394.847 60.2765 397.249 62.0531C399.858 63.9213 403.638 64.8684 408.484 64.8684C413.325 64.8684 417.102 63.9213 419.717 62.0479C422.113 60.28 423.328 57.8816 423.328 54.9184C423.328 51.9578 422.112 49.5585 419.71 47.7881ZM385.028 42.5389H431.939V37.6902H385.028V42.5389ZM402.987 21.9739C404.197 21.1211 406.045 20.6852 408.484 20.6852C410.915 20.6852 412.765 21.1211 413.979 21.9774C415.609 23.1122 415.785 24.9406 415.785 25.674C415.785 26.4083 415.609 28.2394 413.977 29.3776C412.773 30.2226 410.872 30.668 408.484 30.668C406.088 30.668 404.187 30.2226 402.983 29.3776C401.353 28.2394 401.177 26.4101 401.177 25.674C401.177 24.9406 401.353 23.1104 402.987 21.9739ZM395.003 25.674C395.003 28.5689 396.102 30.9197 398.279 32.659C400.645 34.5048 404.078 35.4397 408.484 35.4397C412.89 35.4397 416.32 34.503 418.688 32.6547C420.857 30.9214 421.957 28.5741 421.957 25.6749C421.957 23.7055 421.439 21.9774 420.413 20.5243H426.888V15.7613H411.672V12.0525H405.29V15.7613H390.078V20.5243H396.552C395.522 21.9808 395.003 23.7089 395.003 25.674ZM446.439 19.0592C447.523 18.2314 449.244 17.7929 451.412 17.7929C453.587 17.7929 455.31 18.2315 456.394 19.0609C457.881 20.1775 458.042 21.9973 458.042 22.729C458.042 24.2694 457.44 25.6074 456.391 26.3997C455.309 27.2274 453.588 27.6625 451.412 27.6625C449.244 27.6625 447.525 27.2274 446.437 26.398C445.391 25.6074 444.789 24.2703 444.789 22.729C444.789 21.9973 444.951 20.1775 446.439 19.0592ZM441.686 29.7062C443.944 31.5546 447.218 32.493 451.414 32.493C455.614 32.493 458.89 31.5546 461.157 29.701C463.22 27.9626 464.266 25.6178 464.266 22.7299C464.266 19.8359 463.219 17.4885 461.15 15.7474C458.89 13.9 455.614 12.9624 451.414 12.9624C447.218 12.9624 443.944 13.9 441.684 15.7544C439.616 17.4894 438.566 19.8367 438.566 22.729C438.566 25.6178 439.616 27.9626 441.686 29.7062ZM276.387 58.1022C275.202 59.1383 273.066 59.8545 270.525 59.8545C267.983 59.8545 265.847 59.1383 264.662 58.1022C263.54 57.1136 262.952 55.6147 262.952 53.9584C262.952 52.3038 263.54 50.8049 264.662 49.8154C265.847 48.7793 267.983 48.064 270.525 48.064C273.066 48.064 275.202 48.7793 276.387 49.8163C277.509 50.8049 278.097 52.3038 278.097 53.9584C278.097 55.6147 277.509 57.1136 276.387 58.1022ZM280.845 46.316C278.333 44.267 275.193 43.0492 270.525 43.0492C265.856 43.0492 262.716 44.267 260.206 46.316C257.905 48.2309 256.454 50.8827 256.454 53.9584C256.454 57.0357 257.906 59.6875 260.206 61.6025C262.716 63.6514 265.856 64.8692 270.525 64.8692C275.193 64.8692 278.333 63.6514 280.845 61.6025C283.143 59.6875 284.595 57.0357 284.595 53.9584C284.595 50.8827 283.143 48.2309 280.845 46.316Z" fill="#54565B"/>
<path d="M268.398 25.4933H278.524V29.9787H267.803V35.067H278.524V43.441H284.578V13.9095H278.524V20.5045H269.264L269.288 20.1991C269.288 18.4044 269.54 15.3427 265.971 15.3824C261.537 15.4292 247.666 15.3824 247.666 15.3824V20.2623H262.776V21.7482C262.11 28.1131 256.255 37.0182 246.25 40.9977L248.682 45.7919C254.29 43.6183 265.127 36.7535 268.398 25.4933Z" fill="#54565B"/>
</svg>
