<svg width="361" height="92" viewBox="0 0 361 92" fill="none" xmlns="http://www.w3.org/2000/svg">
<path d="M51.109 12.2771C51.2848 12.5508 51.5191 12.7854 51.5387 13.0591C51.7925 13.8606 52.5347 14.3493 52.6323 15.1509C52.6714 15.4246 53.0229 15.5419 53.1987 15.6592C53.3939 15.9133 53.2572 16.2065 53.6478 16.578C53.8236 16.6953 53.6869 16.9885 53.7259 17.2622C53.9017 17.3795 54.097 17.4968 54.2728 17.6141C55.9328 20.2142 56.089 23.2248 54.1751 26.0204C53.8626 26.3332 53.5697 26.7633 53.4525 27.1934C53.2963 27.3498 52.9643 27.5062 52.8081 27.6626C52.8471 27.9362 53.0229 28.0535 53.2182 28.3077C52.3784 28.5227 52.2808 29.2265 51.6558 29.6957C51.4801 29.6957 51.1481 29.7348 50.9723 29.7544C50.5036 30.2235 50.0154 30.3995 49.5271 30.7123C49.3709 30.8687 49.41 31.2792 49.4295 31.4161C48.6288 32.0416 47.4766 32.4326 46.2657 32.3935C46.1095 32.3935 45.9728 32.8432 45.8166 32.8432C44.9573 32.9214 43.9417 32.8823 43.0824 32.9605C42.7309 32.8627 42.5356 32.6086 42.1646 32.4913C41.8326 32.5304 41.481 32.5499 41.1295 32.4522C40.5827 32.0807 39.8796 32.0221 39.3328 31.7875C38.9813 31.6898 38.3368 32.0221 37.9658 31.7875C36.8135 30.7905 35.6808 29.7935 35.0559 28.7573C34.6458 28.1122 33.9232 27.8972 33.6888 27.2325C33.6498 26.9588 33.7865 26.5287 33.4349 26.4309C32.7319 26.2159 33.0248 25.7858 32.9858 25.3753C32.771 24.9843 32.7319 24.7106 32.3608 24.3391C32.146 23.9481 32.4194 23.3617 32.2046 22.8338C32.2046 22.697 32.3413 22.5406 32.3218 22.4037C32.0679 21.6022 32.478 20.742 32.3999 20.0578C32.3608 19.6473 32.4585 19.0803 32.5952 18.6698C33.0248 17.8096 33.4154 16.793 34.1771 15.8938C34.1771 15.7569 34.138 15.4832 34.1185 15.3464C34.2747 15.19 34.4505 15.1704 34.5872 15.014C34.8606 14.3102 35.134 13.7238 35.5832 13.1373C36.1886 12.3944 37.1455 11.7493 37.9267 10.9868C38.3954 10.5372 39.0399 10.1853 39.4695 9.46196C39.6258 9.30557 40.1726 9.54016 40.3288 9.38376C40.7975 8.93413 41.481 8.99277 41.9693 8.67998C42.4575 8.36719 42.3599 9.05142 42.8481 8.87548C43.1801 8.83638 43.3363 8.69953 43.6683 8.52359C44.1566 8.34764 44.7229 8.69953 45.2502 8.77773C45.758 8.73863 46.2853 8.81683 46.8321 9.18827C47.5742 9.67701 49.2733 9.50106 49.5467 10.459C49.9568 11.1041 50.6989 11.5929 51.109 12.238V12.2771Z" fill="#C2002F"/>
<path d="M79.8562 23.0684C79.8562 22.6383 79.8562 22.3842 79.6804 21.9346C79.6414 21.5045 79.9734 21.0353 79.8172 20.4488C79.7195 20.2924 79.5047 20.1164 79.5242 19.9796C79.8171 19.0803 79.8367 18.2592 79.7586 17.3013C79.6804 17.0081 79.5828 16.8517 79.4851 16.6953C79.5047 16.5584 79.5633 16.3043 79.6023 16.0306C79.6219 15.2095 79.368 14.6035 79.1141 13.8606C79.036 13.5674 78.8211 13.3914 78.7821 12.9613C78.6844 12.8049 78.4696 12.6094 78.4892 12.4726C78.704 11.2801 78.1376 10.3417 77.9619 9.20782C77.6884 7.91755 76.4776 7.09647 76.087 5.78665C76.1066 5.64981 76.5167 5.70846 76.6339 5.72801C77.5908 6.62728 78.6649 7.68296 78.9188 8.97323C79.0946 9.42286 79.0164 9.81385 79.2117 10.1266C80.032 11.1237 80.1687 12.3944 80.3249 13.6651C80.3054 13.802 80.5593 13.7238 80.6569 13.8802C80.6374 14.017 80.5788 14.2711 80.6764 14.4275C81.3014 15.1118 80.9108 15.8547 81.0475 16.5584C81.1256 16.8517 81.2037 17.0081 81.3014 17.1645C81.2818 17.3013 80.9694 17.6532 80.9303 17.7705C81.4381 18.4352 81.6529 19.2954 81.5162 20.0969C82.1021 20.3706 81.8287 21.133 81.9654 21.7C82.063 21.8564 82.1802 21.8759 82.2974 21.915C82.4536 21.6804 82.6294 21.4458 82.688 21.1721C82.7661 20.0969 82.8051 19.139 82.6098 18.1419C82.4536 17.6923 82.395 17.2622 82.7075 16.9299C82.4731 16.8712 82.395 16.578 82.2974 16.4216C81.8677 14.6817 81.692 12.7267 81.1647 10.9477C81.1647 10.9477 81.3014 10.85 81.3404 10.7131C81.1647 9.14917 79.9734 7.68296 79.407 6.119C79.3094 5.8453 78.8602 5.49341 78.6454 5.20017C78.6454 5.20017 78.6454 5.06332 78.6844 4.92648C79.2899 5.00467 79.7586 5.59116 80.071 6.0408C80.7155 6.94008 81.4381 7.9371 81.6334 8.95368C81.9654 9.85295 82.4731 10.7913 82.6684 11.6711C82.8051 12.2575 83.2153 12.629 83.5082 13.1177C83.6644 13.5674 83.5863 13.9584 83.6254 14.3884C83.8011 15.405 84.0941 16.3629 84.2894 17.3795C84.5237 18.1224 84.6409 18.963 84.387 19.5886C84.055 20.742 84.8167 22.0127 85.1291 23.0489C85.3049 23.4985 85.0901 24.0068 84.8948 24.3782C84.8752 24.5151 85.0901 24.691 85.051 24.8279C84.8362 25.3362 85.012 25.7858 84.9143 26.3136C84.7776 26.4114 85.0901 26.7633 84.9143 26.9979C84.7776 27.1152 84.6604 27.0761 84.5042 27.1934C84.3089 27.5648 84.4847 28.0144 84.4065 28.4054C84.016 29.1483 84.2112 30.1453 83.4887 30.6732C83.2153 30.7514 83.1957 30.8882 83.059 30.986C83.1762 31.0055 83.2738 31.1619 83.3715 31.3379C83.2348 31.4356 83.0981 31.4161 82.9614 31.5138C82.9223 31.768 83.4301 32.1003 83.5277 32.2567C83.3324 33.3124 82.5513 34.2312 82.5708 35.4824C82.5122 35.7365 82.4536 36.147 82.395 36.4012C82.1607 37.0268 81.692 37.4764 81.4576 38.1215C81.4186 38.3757 80.9108 38.4148 80.8522 38.6689C80.5397 39.0013 80.5593 39.5682 80.3444 40.0765C80.1687 40.3111 79.8171 40.2329 79.5242 40.4479C79.1922 40.9171 79.2313 41.3472 79.0164 41.836C78.6454 42.442 78.2157 43.1067 77.8642 43.7127C77.4541 44.5924 76.7706 45.4135 76.0285 46.0782C75.9113 46.0586 75.6379 46.1368 75.5012 46.2346C75.1106 46.9775 74.6809 47.5249 73.8607 47.8963C73.7435 47.8768 73.5678 48.4437 73.4115 48.5414C72.8452 48.952 72.5327 49.4407 71.8492 49.8317C71.5953 49.9099 71.4586 50.0076 71.1656 49.5385C70.2673 51.122 69.076 52.3536 67.7871 53.4484C67.1035 53.8394 66.42 53.8003 65.9708 54.2499C64.4866 55.6966 62.1431 57.241 61.8892 57.456C61.772 57.4365 61.3229 58.1011 61.3229 58.1011C60.8542 58.1402 61.1276 58.1793 60.6784 58.1011C60.6784 58.1011 60.6589 58.844 60.0534 58.9613C58.784 59.2155 58.452 60.6817 58.3544 61.2877C58.2958 61.6005 58.1005 61.3855 57.9443 61.5028C57.8076 61.6201 57.9052 61.8156 57.749 61.9328C57.2022 62.2652 56.7139 62.9494 56.2648 63.4773C56.128 63.5946 56.0304 63.4186 55.8742 63.5359C55.7375 63.6532 55.0539 64.4938 54.8196 65.2367C54.2337 66.527 53.6088 67.6804 52.8081 68.5797C52.6128 68.7947 53.2572 69.6549 53.2182 69.9481C53.0424 70.3587 52.6714 70.4173 52.4956 70.8279C52.3394 71.8249 52.2808 72.9588 52.105 74.034C51.8121 75.0701 52.1831 75.813 52.3198 76.7514C52.4761 77.5334 52.2808 78.5499 52.3198 79.3124C52.3784 79.9184 52.7885 80.6026 52.7299 81.1891C52.7495 82.1079 52.5346 81.9907 52.7299 82.7531C52.7104 83.2027 52.5542 83.6524 52.6518 83.9456C52.6128 84.5516 52.5151 84.9231 52.4956 85.5096C52.3589 85.6464 52.105 85.9396 52.105 86.0765C52.0074 87.5818 51.0309 88.8916 50.0154 89.8886C49.3709 90.2992 48.8241 90.9248 48.1015 90.8661C47.7304 90.8466 46.5196 91.609 46.1095 91.7068C45.0354 92 44.1761 92.0195 43.141 91.8632C42.0083 91.5504 41.0905 91.2767 40.3093 90.1037C39.8406 89.5759 39.0399 89.7713 38.7469 88.9698C38.6493 88.657 38.0048 88.4811 37.8876 88.3247C37.2822 87.7969 36.9698 87.1322 36.5206 86.4675C36.2276 85.666 36.4425 85.1186 36.0714 84.3561C35.7003 83.887 35.5441 83.5546 35.1731 83.0659C34.6848 82.4403 35.2902 81.541 34.9192 80.9154C34.6653 80.7395 34.4114 80.4267 34.2942 80.1139C34.0599 79.5079 34.1185 78.6086 33.7474 77.9634C33.5521 77.1815 33.6693 74.3468 33.8255 73.5844C33.8451 73.428 33.4154 73.2129 33.4349 73.0565C33.4935 71.9617 33.8841 70.8865 33.7865 69.7527C33.9037 69.1466 33.8451 68.6579 34.3919 68.13C34.3919 68.13 34.138 67.915 34.1575 67.7586C34.47 66.8789 34.47 66.1946 34.6458 65.2758C34.6653 65.1194 34.9973 65.0217 35.0168 64.8848C34.8411 64.2201 34.8215 62.8517 34.9387 62.2456C34.9973 61.9328 35.7785 61.4832 35.9738 61.2095C35.9933 61.0531 35.8566 60.6621 36.1495 60.1343C36.2276 59.9974 36.4229 60.0365 36.5792 59.9193C36.5987 59.7629 36.5011 59.5869 36.5401 59.4305C36.6182 58.9809 37.3799 58.6485 37.4385 58.3357C37.7509 57.2996 38.2587 56.8695 38.8055 56.0289C39.0008 55.6575 39.0789 55.2665 39.3914 54.9146C39.5281 54.8168 39.6062 54.9146 39.6257 54.7777C39.6453 54.6409 39.5867 54.3476 39.6062 54.2303C39.9187 53.8785 40.3288 53.5657 40.4069 53.1747C40.6217 52.6664 40.7975 52.3145 41.11 51.9626C41.6763 51.5325 42.2427 51.122 42.5942 50.5159C42.9067 50.164 43.2582 50.2422 43.5511 49.9099C44.0003 49.4603 44.1175 48.7956 44.4495 48.3264C45.2307 47.4076 46.0704 46.7624 46.9102 46.1368C47.6133 45.609 48.5116 45.394 49.1951 45.003C49.8982 44.4751 50.3278 43.4781 51.0114 43.0871C51.4215 42.7743 51.9292 42.7352 52.3589 42.4224C52.7885 42.1096 53.1401 41.5036 53.765 41.3668C55.1711 40.9953 54.1556 41.3863 55.4836 40.8585C56.3038 40.3502 55.9718 40.2133 56.792 39.7246C58.1591 38.9231 58.8622 38.4343 58.9793 38.4539C59.116 38.3561 59.2527 38.2388 59.3113 37.9847C59.6433 37.5155 61.3814 36.2839 61.6353 36.2057C61.8892 36.1275 62.2017 36.4598 62.4946 36.1275C62.6508 35.8929 62.3384 35.6779 62.4946 35.4433C62.9438 34.9936 63.3734 34.3876 63.8031 34.0748C63.9398 33.9771 64.2913 34.1725 64.5452 34.0943C64.6819 33.9966 64.7405 33.7229 64.8772 33.6252C65.053 33.3906 64.7405 33.0387 64.8967 32.8041C65.092 32.4326 65.2873 32.0612 65.5412 31.983C65.9513 31.8071 66.4981 31.5138 66.4395 31.2206C66.5372 30.6927 66.752 30.1844 67.2988 29.8912C67.3184 29.7544 67.3574 29.6175 67.377 29.5002C67.6894 29.1483 67.9824 28.9528 68.2948 28.6009C68.6268 28.1317 68.4901 27.5453 68.6854 27.1738C69.3104 26.4896 69.9158 25.9422 70.072 25.0038C70.0329 24.5737 69.7595 23.9677 69.9548 23.5963C70.1111 23.3617 70.6384 23.2053 70.6969 22.9511C70.7946 22.4233 70.5212 21.8173 70.5017 21.2699C70.5798 20.8789 71.0094 20.5465 70.9508 20.136C70.9118 19.0217 70.9704 17.9465 70.8141 16.8126C71.1852 16.7539 71.2438 16.4998 71.2828 16.2261C71.1852 15.3855 70.6969 14.6035 70.4821 13.7238C70.4626 13.1764 70.9118 12.7267 70.8922 12.1793C70.8337 11.7493 70.4431 11.2605 69.9939 10.8891C69.5838 10.3808 69.8572 9.61836 69.701 9.05142C69.5838 8.34764 69.0565 7.80025 68.9588 6.95963C68.9198 6.52954 68.412 6.56864 68.2362 6.119C68.0995 5.53251 67.9433 4.96558 67.9433 4.26179C67.8652 3.96855 67.4941 4.0272 67.2793 3.85125C66.7911 3.04972 66.9668 1.44666 65.9123 1.07522C66.0099 0.547386 65.5217 0.430089 65.3654 0C65.9904 0 66.5763 0.254144 66.9278 1.03612C67.0254 1.19252 67.377 1.27072 67.4941 1.30982C67.8066 1.64216 67.7871 2.46324 68.1191 2.67828C68.5487 3.04972 69.1932 2.91288 69.3689 3.36252C69.6033 4.1054 70.1696 4.49639 70.4235 5.10242C70.404 5.23927 70.4626 5.53251 70.5602 5.68891C70.9899 6.06035 71.0485 6.47089 71.3414 6.82278C72.064 7.66341 72.7866 8.52359 72.4546 9.67701C72.2398 10.1853 72.8842 10.0484 73.0795 10.3612C73.5678 11.1628 73.3725 12.2184 73.9974 12.9027C73.8802 14.2516 74.5247 15.4832 74.9348 16.6757C74.2318 17.751 74.6223 19.6473 75.1692 20.742C75.1692 20.742 75.5597 20.6834 75.5793 20.5661C75.6965 19.921 76.8877 19.6864 76.6925 19.3736C76.4581 18.6307 76.087 17.0863 76.087 16.402C76.1652 15.3073 76.2042 14.3689 76.0285 13.235C75.9308 13.0786 75.8332 12.9222 75.7355 12.7658C75.5988 12.1793 75.4426 11.5929 75.5598 10.9477C75.4816 10.6545 75.2668 10.4785 75.1887 10.1853C75.2082 10.0484 75.2668 9.7943 75.2863 9.65746C75.5598 9.57926 75.8918 9.7943 76.1261 9.85295C76.3409 10.0289 76.1456 10.4003 76.2433 10.5567C76.6339 11.1823 77.2002 11.456 77.3174 12.1598C77.2979 12.2966 77.2393 12.5508 77.2197 12.6876C77.3174 13.5283 77.8252 14.1929 77.9423 14.8967C78.0009 15.3073 77.6299 15.9133 77.8056 16.3825C78.3524 17.4577 78.372 18.7089 78.2939 19.9209C78.1962 20.4488 78.8602 20.8789 78.6844 21.2308C78.4892 21.6022 78.743 21.6609 78.5477 22.0323C78.5282 22.1691 78.2548 22.2473 78.2353 22.3842C78.5868 23.1466 78.0595 24.3 77.9228 24.9647C77.9033 25.1016 78.3329 25.2384 78.4306 24.7497C78.4892 24.4564 78.9774 24.4564 79.2508 24.3782C79.5437 24.1632 79.7586 23.6549 79.739 23.1075L79.8562 23.0684ZM82.4341 25.7076C82.4536 25.0429 82.7661 24.5542 82.6489 23.8309C82.4146 23.088 81.8677 23.8309 81.4771 23.87C81.692 24.7497 81.3404 25.3362 81.067 26.1181C80.9108 26.3527 80.7741 27.0174 81.1647 26.9588C81.7701 27.0956 82.4146 26.5091 82.4341 25.7076ZM81.4186 29.3243C81.5748 29.1092 81.4967 28.6791 81.2819 28.5032C80.9499 28.2881 80.5202 28.6205 80.3249 28.9724C80.1296 29.3438 80.2859 29.9303 80.7936 29.8912C80.9108 29.9108 81.2623 29.5589 81.4381 29.3243H81.4186Z" fill="#0081C8"/>
<path d="M74.3489 6.80323C74.9934 7.29197 75.2473 8.0935 75.755 8.75818L75.6965 9.03187C74.8176 9.7943 74.0365 8.52359 73.8021 7.7807C73.4506 7.01827 73.0795 6.25584 72.4351 5.68891C72.4546 5.55206 72.4936 5.43476 72.5132 5.29792C72.2007 4.94603 71.7906 4.45729 72.2007 4.26179C72.3765 4.0272 72.6694 4.49639 73.0014 4.71143C73.5092 5.37612 73.6068 6.21674 74.3685 6.80323H74.3489Z" fill="#0081C8"/>
<path d="M77.9814 3.42116C77.9814 3.55801 77.7666 3.79261 77.747 3.9099C77.3369 3.51891 76.9073 3.12792 76.5557 2.48279C76.4386 2.44369 76.2042 2.38504 76.1066 2.22864C75.9894 2.18955 76.0089 2.07225 76.048 1.9354C76.4386 1.8963 76.7315 2.24819 77.0635 2.48279C77.1807 2.52189 77.3369 2.42414 77.4541 2.44369C77.7861 2.65873 77.9619 2.99108 78.0009 3.42116H77.9814Z" fill="#0081C8"/>
<path d="M23.7289 27.7017C23.846 27.7994 24.0218 27.9558 24.0999 28.0731C24.2952 28.2099 24.4905 28.2099 24.7053 28.1317C24.9006 28.1317 25.0764 28.6596 25.2912 28.6791C25.5842 28.816 25.7599 29.3243 26.0529 29.5784C26.2481 29.6957 26.4434 29.8912 26.6387 30.0085C26.9121 30.3604 27.0879 30.7123 27.3808 30.9469C27.5566 31.1815 27.8691 31.1033 28.0839 31.1033C28.4745 31.2401 28.6307 31.8071 28.9041 32.1589C29.0018 32.1589 29.1775 32.5108 29.1775 32.6281C29.3728 32.7454 29.5486 32.98 29.8415 33.1169C29.9197 33.2342 29.9197 33.4492 29.9978 33.5665C30.7204 34.7395 31.6773 35.4824 32.2827 36.7335C32.2827 36.7335 32.3608 36.9681 32.3608 37.0659C33.103 37.7892 33.4349 38.8253 34.0794 39.6464C34.2552 39.9983 34.4114 40.5652 34.5872 41.0149C34.7825 41.2495 34.9582 41.3863 35.1535 41.6209C35.4269 42.0901 35.6808 42.657 35.7394 43.224C35.7394 43.439 35.5832 44.1037 35.1926 43.7323C34.7239 43.2435 34.7629 42.5984 34.2942 42.2269C34.2942 42.1096 34.1771 41.836 34.0794 41.7187C33.8841 41.4841 33.5521 41.5036 33.474 41.1713C33.4935 40.8389 33.1225 40.5652 32.9467 40.3502C32.478 39.666 31.775 39.4118 31.2086 38.7276C31.111 38.7276 30.9938 38.7276 30.8961 38.8253C30.7985 39.0404 30.486 39.3532 30.7594 39.7051C31.15 39.9396 31.3453 40.3893 31.8335 40.6434C32.1265 40.878 32.2046 41.5427 32.3804 42.1096C32.5757 42.3442 32.771 42.5593 33.0639 42.6961C33.3568 42.9307 33.2397 43.2826 33.5131 43.6345C33.5131 43.7518 33.3959 43.8496 33.3959 43.9473C33.5717 44.2992 33.9818 44.221 34.2552 44.5729C34.47 44.3774 34.7629 44.5338 34.9387 44.8466C34.6067 45.1594 34.7044 45.3744 34.5676 45.7068C34.2357 46.2346 34.9973 46.7429 35.4855 46.997C35.798 47.0166 35.7394 47.564 36.0324 47.8181C36.2081 48.17 36.7159 48.2091 36.9698 48.6783C37.0479 48.9129 36.8526 48.9911 36.7354 49.2061C36.7159 49.5385 37.1065 49.6753 37.3018 49.8122C37.4971 49.949 37.5752 50.164 37.6533 50.3986C37.3408 50.4768 36.7549 50.0663 36.4425 50.0467C36.2472 49.9685 35.8956 49.5385 35.5051 49.4407C35.3684 49.4016 35.2707 49.734 35.134 49.6949C34.9582 49.6558 34.7629 49.6167 34.5676 49.5776C34.3528 49.5385 33.8451 48.9715 33.6302 48.952C33.3764 48.9129 33.0639 49.3625 32.8295 49.3234C31.9312 49.167 31.8921 49.1084 31.5992 48.9911C31.2672 48.8542 30.9352 48.6978 30.6423 48.5219C30.447 48.4241 30.5055 48.1504 30.3103 48.0331C30.1345 47.9158 29.7244 47.9159 29.5486 47.7986C28.826 47.3489 28.1425 46.3519 27.5176 46.0196C27.1074 45.8045 26.7754 45.5895 26.3067 45.3744C26.0919 45.2376 25.9161 44.9248 25.6427 44.827C24.7834 44.5338 24.0999 44.006 23.143 43.7323C21.3072 43.2044 19.7839 44.2601 18.2802 45.0421C18.2021 45.0421 18.0458 45.0421 17.9677 45.0812C17.6162 45.3744 17.2256 45.5308 16.8741 45.7654C16.4054 46.1368 15.7609 46.2346 15.2531 46.5278C15.0969 46.6256 15.0774 46.9188 14.9211 47.0166C14.6868 47.1534 14.2376 47.1925 14.0032 47.3294C13.7884 47.4662 13.7689 47.7204 13.5541 47.8963C13.1244 48.2482 12.7143 48.5219 12.1284 48.7956C11.7964 48.9715 9.04279 49.4407 8.59362 49.4407C7.89056 49.4407 7.3828 50.0272 6.32821 50.0272C4.72681 50.0272 3.10587 49.9881 1.77788 48.9911C1.50447 48.7565 1.44588 48.0722 1.25058 47.9549C0.664704 47.5835 0.723292 46.8015 0.567057 46.2346C0.371764 46.1173 -0.0188235 46.0782 0.000705871 45.7459C0.215529 44.1037 1.03576 42.6179 2.03176 41.4841C2.26611 41.054 2.77387 40.878 2.83246 40.3306C2.83246 40.3306 3.73081 39.0795 4.27763 38.5712C4.39481 38.3561 4.21905 38.0042 4.33622 37.8088C5.15645 36.2057 6.64068 35.1109 7.87103 33.6643C8.20303 33.3515 8.41785 32.9409 8.94515 32.8627C9.15997 32.8627 9.35526 32.9018 9.47244 32.6868C9.70679 32.1589 10.1364 31.8657 10.4489 31.6507C11.6207 30.8491 12.5971 29.6566 13.9251 29.4416C14.14 29.3438 14.2571 29.1288 14.4524 29.031C14.6672 28.8355 15.0578 29.0701 15.2727 28.9919C16.2687 28.5423 17.167 27.5844 18.1825 27.4475C18.3974 27.3498 18.5145 27.1347 18.6122 27.1543C19.5105 27.2325 20.5846 26.4309 21.4244 27.2716C22.186 27.1152 23.3383 27.2716 23.807 27.6821L23.7289 27.7017ZM30.6423 37.3787C30.6423 37.2614 30.6423 37.1636 30.6423 37.0463C30.2517 36.8117 30.0759 36.1275 29.5681 35.9906C29.4705 35.9906 29.2557 36.0884 29.2557 36.2057C29.2361 36.8704 29.5096 37.32 29.783 37.8869C29.9001 37.4569 30.1931 37.4764 30.3884 37.8088C30.486 37.711 30.6032 37.496 30.6032 37.3787H30.6423Z" fill="#00943B"/>
<path d="M126.981 51.7561L122.43 56.5066L109.775 44.1513C108.115 47.1033 106.123 49.6056 103.819 51.6779C101.514 53.7306 99.2098 55.4118 96.9249 56.7021L92.4917 51.6388C94.9914 50.3876 97.1202 48.9409 98.8778 47.2792C100.635 45.6175 102.081 43.8581 103.213 42.04C104.326 40.2023 105.147 38.3451 105.674 36.4292C106.182 34.5134 106.455 32.6366 106.455 30.8185V22.0799H113.447V29.5674C113.447 31.0336 113.349 32.4216 113.173 33.751C112.978 35.0803 112.744 36.3706 112.451 37.6218L126.981 51.7952V51.7561ZM141.452 73.2214H134.831V39.7527H121.044V33.3795H134.831V16.391H141.452V73.2214Z" fill="#231815"/>
<path d="M201.29 48.3936H177.659V51.5215H189.377V66.1836H166.742V68.9987H190.881V75.3719H159.887V60.1428H182.463V57.6405H159.575V51.5215H170.98V48.3936H147.838V42.1573H201.29V48.3936ZM188.81 28.2967C188.81 30.0952 188.42 31.7178 187.658 33.2036C186.897 34.6893 185.862 35.9601 184.573 37.0353C183.245 38.0714 181.663 38.8925 179.866 39.479C178.05 40.0655 176.097 40.3587 173.968 40.3587C171.976 40.3587 170.101 40.085 168.324 39.5376C166.547 38.9902 164.985 38.2083 163.618 37.1721C162.29 36.136 161.235 34.8653 160.473 33.3991C159.712 31.9133 159.321 30.2516 159.321 28.3748C159.321 26.4981 159.692 24.7973 160.434 23.292C161.176 21.7671 162.231 20.4768 163.559 19.3821C164.848 18.3068 166.391 17.4662 168.168 16.8797C169.945 16.2933 171.878 16 173.968 16C176.058 16 177.933 16.2933 179.729 16.8797C181.546 17.4662 183.108 18.2873 184.436 19.3821C185.764 20.4182 186.818 21.7085 187.619 23.2138C188.4 24.7386 188.81 26.4394 188.81 28.2967ZM181.956 28.2185C181.956 26.2635 181.174 24.7191 179.593 23.6048C178.011 22.4709 176.136 21.9235 173.988 21.9235C171.839 21.9235 169.867 22.4709 168.344 23.5852C166.82 24.68 166.078 26.244 166.078 28.238C166.078 30.2321 166.84 31.6592 168.344 32.7344C169.867 33.8096 171.742 34.357 173.988 34.357C176.234 34.357 178.011 33.8683 179.593 32.8712C181.174 31.8742 181.956 30.3298 181.956 28.2576V28.2185Z" fill="#231815"/>
<path d="M257.437 52.4794H204.063V46.1845H257.437V52.4794ZM245.836 75.3523H239.157V62.3323H215.273V55.9592H245.836V75.3523ZM245.719 42.9197H215.527V18.3264H245.328V24.6213H222.128V27.2996H244.586V33.6728H222.128V36.6052H245.699V42.9001L245.719 42.9197Z" fill="#231815"/>
<path d="M287.375 45.4416H261.987V19.4798H268.588V26.9673H280.696V19.4798H287.375V45.4416ZM280.696 39.1466V33.2818H268.588V39.1466H280.696ZM306.143 75.3523H275.521V59.6736H297.784V56.4284H275.208V50.1139H304.639V65.7926H282.512V69.0378H306.143V75.3523ZM306.651 48.3153H300.108V42.255H289.387V35.9992H300.108V31.5028H289.387V25.1883H300.108V16.391H306.651V48.3153Z" fill="#231815"/>
<path d="M347.33 51.9516L342.78 56.7021L330.183 44.2882C328.562 47.2792 326.59 49.8207 324.286 51.8734C321.981 53.9261 319.638 55.6073 317.275 56.8976L312.841 51.8343C315.38 50.4658 317.528 48.9409 319.306 47.2792C321.063 45.6175 322.508 43.8776 323.641 42.0986C324.715 40.261 325.516 38.4233 326.043 36.5465C326.57 34.6698 326.824 32.8126 326.824 30.9945V22.0604H333.816V29.7433C333.816 31.2095 333.718 32.578 333.542 33.8878C333.347 35.1976 333.113 36.4488 332.82 37.6609L347.35 51.9516H347.33ZM360.981 73.2214H354.302V16.4105H360.981V73.2214Z" fill="#231815"/>
</svg>
