<svg width="592" height="50" viewBox="0 0 592 50" fill="none" xmlns="http://www.w3.org/2000/svg">
<path d="M139.401 32.145H132.326V46.2806C132.326 47.0374 132.674 47.4351 133.486 47.4351H161.838V42.8814H139.981C139.633 42.8814 139.401 42.6505 139.401 42.3042V32.145ZM149.608 11.4291V6.86257H122.235V11.4291H149.608ZM160.691 1.89843H153.732V34.6207H160.691V1.89843ZM124.671 17.894C124.671 24.3589 129.658 28.5662 135.921 28.5662C142.185 28.5662 147.172 24.3461 147.172 17.894C147.172 11.4419 142.133 7.15759 135.921 7.15759C129.71 7.15759 124.671 11.4291 124.671 17.894ZM132.274 7.45262H139.581V0.577225H132.274V7.45262ZM158.951 18.7021H167.418V14.0202H158.951V18.7021ZM131.63 17.7785C131.63 13.9175 133.55 11.4291 135.921 11.4291C138.293 11.4291 140.161 13.9047 140.161 17.7785C140.161 21.6524 138.254 24.0767 135.921 24.0767C133.589 24.0767 131.63 21.5882 131.63 17.7785ZM197.561 48.0251H204.572V32.5555C204.572 31.7474 204.159 31.401 203.412 31.401H173.9V35.9547H196.981C197.329 35.9547 197.561 36.1856 197.561 36.5319V48.0251ZM197.509 20.1387H204.533V3.74555C204.533 2.93743 204.237 2.5911 203.373 2.5911H173.282V7.14476H196.942C197.29 7.14476 197.522 7.37565 197.522 7.72199V20.1259L197.509 20.1387ZM169.673 23.833H208.348V19.151H169.673V23.833ZM192.458 22.6272H185.563V32.5555H192.458V22.6272ZM338.831 41.1497H376.925V36.4806H338.831V41.1497ZM361.383 25.167H354.36V37.6351H361.383V25.167ZM371.873 27.4759C372.737 27.4759 373.033 27.1296 373.033 26.3215V3.00157H366.074V22.3322C366.074 22.6785 365.842 22.9094 365.494 22.9094H350.249C349.901 22.9094 349.669 22.6785 349.669 22.3322V3.00157H342.71V26.3215C342.71 27.1296 343.006 27.4759 343.87 27.4759H371.873ZM347.878 15.3542H367.994V10.7364H347.878V15.3542ZM327.284 1.89843H334.243V28.1044H327.284V1.89843ZM329.023 16.5599H319.281V12.0576H329.023V16.5599ZM463.45 1.89843H456.491V46.8578H463.45V1.89843ZM425.175 38.7895H458.347V34.1204H425.175V38.7895ZM499.457 34.6335H506.416V1.89843H499.457V34.6335ZM494.006 7.55524V3.00157H469.997V7.55524H494.006ZM484.959 31.5678H477.884V46.2806C477.884 47.0374 478.232 47.4351 479.044 47.4351H507.395V42.8814H485.539C485.191 42.8814 484.959 42.6505 484.959 42.3042V31.5678ZM546.534 9.12016V4.84869H515.334V9.12016H546.534ZM518.994 13.4429C518.994 18.3558 524.278 21.5882 530.876 21.5882C537.474 21.5882 542.758 18.3558 542.758 13.4429C542.758 8.5301 537.358 5.24634 530.876 5.24634C524.394 5.24634 518.994 8.4788 518.994 13.4429ZM527.229 5.13089H534.536V0H527.229V5.13089ZM525.901 13.1607C525.901 10.7364 528.105 9.12016 530.889 9.12016C533.672 9.12016 535.812 10.7364 535.812 13.1607C535.812 15.5851 533.608 17.1372 530.889 17.1372C528.17 17.1372 525.901 15.5851 525.901 13.1607ZM584.061 37.1092H591.021V1.89843H584.061V37.1092ZM585.801 28.5662H575.195V33.0686H585.801V28.5662ZM552.913 25.9751H581.265V21.306H552.913V25.9751ZM570.027 24.5898H563.068V32.5555H570.027V24.5898ZM556.29 9.92827C556.29 15.6364 561.096 19.3435 567.076 19.3435C573.056 19.3435 577.927 15.6492 577.927 9.92827C577.927 4.20733 573.056 0.46178 567.076 0.46178C561.096 0.46178 556.29 4.22016 556.29 9.92827ZM563.236 9.92827C563.236 6.87539 564.911 4.96414 567.063 4.96414C569.215 4.96414 570.891 6.87539 570.891 9.92827C570.891 12.9812 569.215 14.8283 567.063 14.8283C564.911 14.8283 563.236 12.9298 563.236 9.92827ZM568.983 34.749H561.908V46.2935C561.908 47.0503 562.256 47.4479 563.068 47.4479H592V42.8942H569.563C569.215 42.8942 568.983 42.6634 568.983 42.317V34.749ZM254.69 26.6678H293.365V21.9859H254.69V26.6678ZM237.64 7.55524V3.00157H213.399V7.55524H237.64ZM249.819 1.89843H242.86V46.8578H249.819V1.89843ZM258.75 2.36021V16.4958C258.75 17.3039 259.046 17.6503 259.909 17.6503H290.413V13.0838H266.353C266.005 13.0838 265.773 12.8529 265.773 12.5065V2.36021H258.75ZM416.064 1.89843H409.105V46.8578H416.064V1.89843ZM414.324 18.1249H422.791V13.4429H414.324V18.1249ZM511.687 28.1686H550.361V23.4995H511.687V28.1686ZM322.876 21.8191C316.562 20.2029 313.134 15.6492 313.134 9.2356V5.72094H306.342V8.02984C306.342 17.894 312.257 24.4743 322.863 26.4369V21.8191H322.876ZM296.548 27.0141C307.167 25.0516 313.018 18.4712 313.018 8.60707V6.87539H306.239V9.81283C306.239 16.2136 302.875 20.7801 296.548 22.3963V27.0141ZM321.549 7.55524V3.00157H298.12V7.55524H321.549ZM495.565 24.2948C489.07 22.9094 485.307 18.2403 485.307 11.5958V6.00314H478.528V10.3901C478.528 20.4851 484.791 27.1809 495.578 28.9126V24.2948H495.565ZM468.721 29.3743C479.327 27.4118 485.191 20.8314 485.191 10.9673V7.15759H478.399V12.173C478.399 18.5738 475.036 23.1403 468.721 24.7565V29.3743ZM239.264 28.3353C232.769 26.95 228.825 20.5364 228.825 13.9047V6.00314H222.047V12.699C222.047 22.794 228.477 31.2215 239.264 32.9531V28.3353ZM212.059 32.8377C222.665 30.8751 228.697 23.1403 228.697 13.2762V7.15759H221.918V14.4819C221.918 20.8827 218.387 26.6037 212.059 28.2199V32.8377ZM405.509 28.3353C399.014 26.95 395.07 19.972 395.07 13.3275V2.42435H388.292V12.1217C388.292 22.2168 394.723 31.2215 405.509 32.9531V28.3353ZM378.317 32.8377C388.923 30.8751 394.967 22.5631 394.967 12.699V2.42435H388.176V13.9047C388.176 20.3055 384.645 26.6037 378.317 28.2199V32.8377ZM443.204 25.6288H436.245V35.5571H443.204V25.6288ZM453.127 11.4291V6.86257H426.335V11.4291H453.127ZM428.539 17.3681C428.539 23.538 433.461 27.5272 439.725 27.5272C445.988 27.5272 450.924 23.5508 450.924 17.3681C450.924 11.1853 445.936 7.15759 439.725 7.15759C433.513 7.15759 428.539 11.1982 428.539 17.3681ZM436.078 7.45262H443.385V0.577225H436.078V7.45262ZM435.498 17.2526C435.498 13.6225 437.302 11.4291 439.738 11.4291C442.173 11.4291 443.913 13.6225 443.913 17.2526C443.913 20.8827 442.122 23.0249 439.738 23.0249C437.353 23.0249 435.498 20.8314 435.498 17.2526ZM517.551 39.5335C517.551 45.2544 523.466 49 530.889 49C538.312 49 544.227 45.2544 544.227 39.5335C544.227 33.8126 538.247 30.0157 530.889 30.0157C523.53 30.0157 517.551 33.7613 517.551 39.5335ZM524.51 39.5335C524.51 36.5319 527.461 34.5052 530.889 34.5052C534.317 34.5052 537.204 36.5319 537.204 39.5335C537.204 42.5351 534.252 44.4976 530.889 44.4976C527.525 44.4976 524.51 42.5351 524.51 39.5335ZM260.541 39.2513C260.541 45.139 266.392 49 273.879 49C281.367 49 287.217 45.139 287.217 39.2513C287.217 33.3636 281.302 29.4385 273.879 29.4385C266.456 29.4385 260.541 33.2995 260.541 39.2513ZM267.5 39.2513C267.5 36.0702 270.335 33.9408 273.879 33.9408C277.423 33.9408 280.194 36.0702 280.194 39.2513C280.194 42.4325 277.359 44.4976 273.879 44.4976C270.4 44.4976 267.5 42.4196 267.5 39.2513ZM305.891 38.5586C305.891 44.9081 311.742 49.0128 318.881 49.0128C326.021 49.0128 331.988 44.9081 331.988 38.5586C331.988 32.2092 326.072 28.0531 318.881 28.0531C311.69 28.0531 305.891 32.2092 305.891 38.5586ZM312.85 38.5586C312.85 34.8644 315.569 32.5555 318.881 32.5555C322.193 32.5555 324.964 34.8644 324.964 38.5586C324.964 42.2529 322.232 44.4976 318.881 44.4976C315.531 44.4976 312.85 42.1887 312.85 38.5586Z" fill="#0067AF"/>
<path d="M0 1.78298H10.2067L29.8081 32.6709V1.78298H39.3704V47.4479H29.1122L9.62675 16.6754V47.4479H0V1.78298Z" fill="#243C7D"/>
<path d="M58.6239 1.78298H48.4173V47.4351H58.6239V1.78298Z" fill="#243C7D"/>
<path d="M85.584 12.9298L73.1221 47.4479H62.7478L80.4291 1.78298H90.9322L108.381 47.4479H97.7109L85.584 12.9298Z" fill="#243C7D"/>
<path d="M94.9788 32.6709L97.7109 40.1107H73.2896L75.9701 32.6709H94.9788Z" fill="#243C7D"/>
</svg>
