<svg width="570" height="123" viewBox="0 0 570 123" fill="none" xmlns="http://www.w3.org/2000/svg">
<path d="M90.8155 20.9992C95.3215 15.687 104.575 10.7103 113.103 12.2201C124.405 14.2331 125.858 25.7522 121.501 32.2013C116.268 39.9739 102.955 41.7446 93.8133 41.7446H73.4249L55.2708 63.4033H84.0753C100.386 63.4033 126.937 65.2486 140.883 44.9505C148.853 33.357 150.212 14.084 136.378 4.80172C124.293 -3.32497 108.634 -0.324058 101.913 7.74671L90.7969 21.0178L90.8155 20.9992Z" fill="url(#paint0_linear_484_1051)"/>
<path d="M56.0529 62.49C51.547 67.8022 42.293 72.7788 33.7653 71.2691C22.4632 69.256 21.0295 57.737 25.3679 51.2879C30.6 43.5153 43.913 41.7446 53.0551 41.7446H73.4249L91.579 20.0859H62.7745C46.4638 20.0859 19.9124 18.2406 5.96633 38.5387C-2.00283 50.1322 -3.36206 69.4051 10.4723 78.6875C22.5563 86.8141 38.2154 83.8132 44.937 75.7425L56.0529 62.4714V62.49Z" fill="url(#paint1_linear_484_1051)"/>
<path d="M121.966 117.14V76.9913H109.714V122.285H116.399C118.615 122.285 121.966 121.036 121.966 117.14Z" fill="#231815"/>
<path d="M151.85 85.8076C160.602 82.844 168.813 86.9446 168.813 86.9446V77.9605C168.813 77.9605 161.588 75.7611 153.582 76.283C147.344 76.6931 130.196 79.8245 130.196 99.6006C130.196 119.377 147.344 122.508 153.582 122.918C161.588 123.44 168.813 121.241 168.813 121.241V112.257C168.813 112.257 160.602 116.357 151.85 113.394C142.205 110.132 142.783 99.6006 142.783 99.6006C142.783 99.6006 142.205 89.0695 151.85 85.8076Z" fill="#231815"/>
<path d="M212.941 76.9913H174.175V85.0993H187.432V122.303H194.117C196.332 122.303 199.684 121.054 199.684 117.159V85.118H212.941V76.9913Z" fill="#231815"/>
<path d="M103.7 122.303L83.9077 97.7181L101.689 77.0099H88.0412L72.047 96.0778V77.0099H59.7954V122.303H66.4984C68.7141 122.303 72.0657 121.054 72.0657 117.159V100.607L89.1025 122.322H103.682L103.7 122.303Z" fill="#231815"/>
<path d="M412.133 88.3053V122.303H415.522C416.881 122.303 417.998 121.185 417.998 119.824V88.3053H412.133ZM388.076 91.7349H399.77V91.8654C399.77 92.4991 399.621 107.448 386.959 108.752V112.014C388.542 111.958 405.56 110.971 405.821 91.8654V88.6967H388.095V91.7349H388.076Z" fill="#898885"/>
<path d="M457.807 104.055V101.036H423.677V104.055H437.735V107.187H425.893V110.206H449.447V113.151H425.893V119.489C425.893 121.036 427.14 122.285 428.686 122.285H455.274V119.265H431.721V116.152H455.274V107.168H443.563V104.037H457.788L457.807 104.055ZM440.546 94.829L440.621 94.9035C443.581 97.569 448.59 99.0042 455.461 99.1719V96.2456C454.288 96.2083 444.382 95.705 443.805 87.9511H437.269V87.9884C436.655 95.6864 426.787 96.2083 425.613 96.2456V99.1719C432.484 99.0042 437.474 97.569 440.453 94.9035L440.528 94.829H440.546Z" fill="#898885"/>
<path d="M529.473 105.099C530.59 104.745 531.224 103.664 531.224 102.62V88.7153H502.233V91.7535H525.396V105.099H499.905V108.137H513.74V122.322H517.11C518.469 122.322 519.568 121.203 519.568 119.843V108.137H534.016V105.099H529.473Z" fill="#898885"/>
<path d="M482.384 103.086L482.422 103.03H489.032V112.723H492.42C493.78 112.723 494.897 111.604 494.897 110.244V88.3053H489.032V92.6855H482.589L482.552 92.6296C480.69 89.6846 477.283 87.9325 473.428 87.9325C467.396 87.9325 462.834 92.145 462.834 97.7367C462.834 103.328 467.396 107.541 473.428 107.541C477.208 107.541 480.467 105.919 482.384 103.086ZM483.781 99.8429C483.93 99.1347 484.004 98.4264 484.004 97.7367C484.004 97.1216 483.948 96.5065 483.818 95.8728V95.7237H489.013V99.9921H483.744L483.781 99.8429ZM468.699 97.7367C468.699 93.953 470.729 91.1012 473.428 91.1012C476.128 91.1012 478.158 93.953 478.158 97.7367C478.158 101.52 476.128 104.372 473.428 104.372C470.729 104.372 468.699 101.52 468.699 97.7367ZM472.46 119.284V110.094H466.632V119.489C466.632 121.036 467.88 122.285 469.425 122.285H495.251V119.265H472.46V119.284Z" fill="#898885"/>
<path d="M549.564 114.847H555.168V107.392H563.826V109.927H558.017V112.946H563.826V115.742H567.196C568.556 115.742 569.673 114.642 569.673 113.263V88.2866H563.845V104.354H538.224V107.373H549.601V114.829L549.564 114.847ZM550.104 102.639C556.062 102.639 560.4 99.5634 560.4 95.3509C560.4 91.1384 556.081 88.063 550.104 88.063C544.127 88.063 539.826 91.1384 539.826 95.3509C539.826 99.5634 544.146 102.639 550.104 102.639ZM550.104 91.0825C552.673 91.0825 554.554 92.8719 554.554 95.3323C554.554 97.7926 552.692 99.582 550.104 99.582C547.516 99.582 545.654 97.7926 545.654 95.3323C545.654 92.8719 547.516 91.0825 550.104 91.0825ZM546.696 119.284V110.635H540.868V119.507C540.868 121.054 542.116 122.303 543.661 122.303H570.008V119.284H546.696Z" fill="#898885"/>
<path d="M374.819 88.2866V93.2074H367.576V96.2456H374.819V105.006H378.208C379.567 105.006 380.685 103.906 380.685 102.527V88.2866H374.819ZM359.142 98.8923L359.235 98.7805L359.328 98.8923C361.711 101.707 365.938 103.701 370.369 104.13C370.369 104.13 370.723 104.149 370.909 104.167V101.241C370.723 101.222 370.351 101.166 370.351 101.166C370.276 101.166 362.307 100.011 362.307 89.7032C362.307 89.5541 362.307 89.405 362.307 89.2372V88.2866H356.181V89.4423C356.181 99.9921 348.212 101.166 348.138 101.166C348.138 101.166 347.728 101.222 347.579 101.241V104.167C347.765 104.167 348.119 104.13 348.119 104.13C352.55 103.701 356.777 101.707 359.16 98.8923H359.142ZM351.824 106.944V109.964H374.838V113.039H351.824V119.526C351.824 121.073 353.072 122.322 354.617 122.322H380.685V119.302H357.671V116.059H380.685V106.963H351.824V106.944Z" fill="#898885"/>
<path d="M263.828 95.2018V88.3053H257.963V112.723H261.371C262.73 112.723 263.847 111.604 263.847 110.244V98.24H268.651V95.2018H263.828ZM241.41 110.113H235.582V119.507C235.582 121.054 236.83 122.303 238.375 122.303H264.201V119.284H241.429V110.094L241.41 110.113ZM254.034 89.2932H246.14V86.4973H239.921V89.2932H232.026V92.3314H254.034V89.2932ZM253.774 100.439C253.774 96.432 249.268 93.1701 242.844 93.1701C236.42 93.1701 231.914 96.4133 231.914 100.439C231.914 104.465 236.383 107.709 242.844 107.709C249.305 107.709 253.774 104.465 253.774 100.439ZM238.096 100.439C238.096 98.1095 240.033 96.2083 242.844 96.2083C245.656 96.2083 247.592 98.0909 247.592 100.439C247.592 102.788 245.618 104.67 242.844 104.67C240.07 104.67 238.096 102.788 238.096 100.439Z" fill="#898885"/>
<path d="M305.368 104.26V101.222H300.825C301.98 100.868 302.576 99.787 302.576 98.7432V88.3612H273.585V91.3994H296.748V101.222H271.257V104.26H285.092V109.759H273.585V112.797H296.748V122.322H300.118C301.477 122.322 302.594 121.203 302.594 119.843V109.759H290.938V104.26H305.406H305.368Z" fill="#898885"/>
<path d="M319.817 119.284V110.094H313.989V119.489C313.989 121.036 315.237 122.285 316.782 122.285H342.85V119.265H319.836L319.817 119.284ZM329.127 95.8542V98.2959H336.37V112.723H339.759C341.118 112.723 342.235 111.623 342.235 110.244V88.3053H336.37V95.2577H329.295C329.574 94.0834 329.741 92.7787 329.741 91.3435V88.3053H311.513V91.3435H323.69C323.69 91.3435 323.951 103.254 310.34 103.888V106.758C310.34 106.758 325.85 107.168 329.127 95.8542Z" fill="#898885"/>
<defs>
<linearGradient id="paint0_linear_484_1051" x1="86.384" y1="26.8332" x2="128.907" y2="59.3153" gradientUnits="userSpaceOnUse">
<stop stop-color="#B94100"/>
<stop offset="0.06" stop-color="#C85900"/>
<stop offset="0.16" stop-color="#E08000"/>
<stop offset="0.25" stop-color="#EF9900"/>
<stop offset="0.3" stop-color="#F5A200"/>
</linearGradient>
<linearGradient id="paint1_linear_484_1051" x1="60.489" y1="56.6608" x2="17.9661" y2="24.1787" gradientUnits="userSpaceOnUse">
<stop stop-color="#B94100"/>
<stop offset="0.06" stop-color="#C85900"/>
<stop offset="0.16" stop-color="#E08000"/>
<stop offset="0.25" stop-color="#EF9900"/>
<stop offset="0.3" stop-color="#F5A200"/>
</linearGradient>
</defs>
</svg>
