<svg width="536" height="79" viewBox="0 0 536 79" fill="none" xmlns="http://www.w3.org/2000/svg">
<path d="M78.3594 77.0702V37.0625H87.2832V54.7645L90.201 50.3622L99.3266 37.047H110.47L97.2314 54.0824L111.184 77.0547H100.568L90.7286 59.7867L87.2677 64.003V77.0547H78.3439L78.3594 77.0702Z" fill="#00479D"/>
<path d="M113.341 37.0625H122.451V77.0702H113.341V37.0625Z" fill="#00479D"/>
<path d="M149.611 66.8086H138.142L135.286 77.0702H125.896L138.126 37.0625H149.999L162.415 77.0702H152.668L149.58 66.8086H149.611ZM139.445 60.0192H148.276L145.793 51.5403C145.482 50.4397 145.11 49.0756 144.691 47.448C144.272 45.8359 143.977 44.6269 143.775 43.8363C143.465 44.8594 143.123 46.146 142.766 47.6961C142.285 49.6647 141.975 50.9512 141.82 51.5558L139.445 60.0347V60.0192Z" fill="#00479D"/>
<path d="M164.696 75.1636L166.574 67.7697C167.955 68.4672 169.507 69.0408 171.23 69.5058C172.952 69.9708 174.737 70.2033 176.6 70.2033C178.648 70.2033 180.216 69.8158 181.318 69.0408C182.404 68.2657 182.947 67.2117 182.947 65.8786C182.947 64.654 182.451 63.631 181.442 62.7939C180.433 61.9569 178.71 61.1198 176.258 60.2518C172.782 59.0272 170.128 57.5081 168.312 55.6945C166.294 53.6794 165.286 51.2768 165.286 48.4711C165.286 44.9989 166.651 42.1312 169.383 39.8836C172.114 37.636 175.793 36.5044 180.417 36.5044C182.637 36.5044 184.53 36.6749 186.113 37.0159C187.696 37.357 189.202 37.8375 190.629 38.473L188.612 45.7894C187.231 45.1074 185.818 44.6269 184.391 44.3324C182.963 44.0378 181.581 43.8828 180.231 43.8828C178.322 43.8828 176.879 44.2394 175.886 44.9524C174.892 45.6654 174.396 46.5955 174.396 47.7426C174.396 48.8896 174.97 49.9282 176.118 50.7652C177.065 51.4318 178.974 52.2998 181.83 53.3694C185.399 54.6714 188.022 56.2835 189.714 58.1901C191.405 60.1123 192.244 62.4684 192.244 65.2585C192.244 68.8082 190.94 71.7224 188.317 73.97C185.415 76.4502 181.333 77.7057 176.056 77.7057C173.915 77.7057 171.804 77.4577 169.724 76.9617C167.645 76.4657 165.969 75.8921 164.696 75.2101V75.1636Z" fill="#00479D"/>
<path d="M204.597 77.0702V44.6114H193.827V37.0625H224.664V44.6114H213.707V77.0702H204.597Z" fill="#00479D"/>
<path fill-rule="evenodd" clip-rule="evenodd" d="M125.912 22.9412C100.739 25.8708 73.0982 29.3895 55.5453 39.7286L60.791 52.8423C71.0961 42.5808 89.6112 27.2659 125.912 22.9567" fill="white"/>
<path fill-rule="evenodd" clip-rule="evenodd" d="M128.473 30.0561C103.3 32.9857 75.6589 36.5044 58.1061 46.8435L63.3517 59.9572C73.6569 49.6957 92.172 34.3808 128.457 30.0716" fill="white"/>
<path fill-rule="evenodd" clip-rule="evenodd" d="M125.462 25.8243C100.894 28.6765 73.9362 32.1177 56.8179 42.1932L67.8214 50.2227C77.8783 40.2091 96.2226 32.1642 125.462 25.8243Z" fill="#00479D"/>
<path fill-rule="evenodd" clip-rule="evenodd" d="M194.928 17.5779C129.28 13.8576 52.9845 21.5771 -2.26498e-06 -0.000131667L52.3017 38.1475C89.0059 21.7011 148.943 19.934 178.897 18.0894" fill="#45B035"/>
<path fill-rule="evenodd" clip-rule="evenodd" d="M171.106 7.93631C174.986 8.04482 174.303 8.37034 178.167 8.47884C179.673 9.82742 180.837 10.7575 182.342 12.106C200.236 11.9665 190.319 11.889 208.229 11.7495C217.727 11.672 219.527 11.207 224.556 17.9189L175.668 18.2134C174.411 14.8032 173.899 11.3465 171.09 7.93631" fill="#45B035"/>
<path d="M264.379 28.2735C264.752 28.816 265.031 29.3585 265.233 29.9166C265.45 30.5366 265.575 31.1721 265.575 31.8232C265.575 34.3653 264.535 36.4579 262.486 38.0855C260.593 39.6666 258.342 40.4571 255.75 40.4571C253.159 40.4571 250.893 39.6666 248.968 38.0855C246.935 36.4114 245.911 34.3343 245.911 31.8232C245.911 31.2031 246.004 30.5831 246.206 29.9631C246.408 29.4205 246.687 28.8625 247.059 28.2735H244.809V23.5767H252.615V20.275H258.979V23.5767H266.738V28.2735H264.379ZM252.848 29.374C252.088 30.1026 251.7 30.9861 251.7 31.9937C251.7 33.0012 252.088 33.8383 252.848 34.5823C253.64 35.3109 254.587 35.6829 255.688 35.6829C256.79 35.6829 257.737 35.3109 258.529 34.5823C259.351 33.8538 259.755 32.9857 259.755 31.9937C259.755 31.0016 259.336 30.1026 258.529 29.374C257.737 28.661 256.79 28.32 255.688 28.32C254.587 28.32 253.64 28.6765 252.848 29.374ZM275.74 41.9142C278.285 44.0843 279.558 46.7815 279.558 50.0057C279.558 53.2299 278.285 55.9425 275.74 58.0971C273.396 60.0968 270.634 61.1043 267.468 61.1043C264.302 61.1043 261.508 60.0968 259.165 58.0971C256.713 55.958 255.471 53.2609 255.471 50.0057C255.471 46.7505 256.697 44.0688 259.165 41.9142C261.508 39.9146 264.286 38.9071 267.468 38.9071C270.65 38.9071 273.365 39.9146 275.74 41.9142ZM263.371 45.929C262.16 47.0295 261.555 48.3781 261.555 49.9902C261.555 51.6023 262.16 52.9508 263.371 54.0514C264.566 55.121 265.963 55.6635 267.577 55.6635C269.191 55.6635 270.556 55.121 271.689 54.0514C272.9 52.9508 273.521 51.6023 273.521 49.9902C273.521 48.3781 272.915 47.0295 271.689 45.929C270.525 44.8904 269.16 44.3634 267.577 44.3634C265.994 44.3634 264.566 44.8904 263.371 45.929ZM279.558 39.2016H273.583V22.2126H279.558V27.8859H284.384V33.1717H279.558V39.2016Z" fill="#00479D"/>
<path d="M323.882 35.8999V41.1857H287.287V35.8999H300.091V30.9086H306.066V35.8999H323.882ZM316.122 39.1241V27.5294H288.528V22.2281H322.113V39.1241H316.122ZM314.431 39.8836C317.457 42.1467 318.963 44.9369 318.963 48.2696C318.963 51.8193 317.535 54.7955 314.679 57.1671C312.025 59.3682 308.937 60.4688 305.429 60.4688C301.922 60.4688 298.678 59.3682 296.009 57.1671C293.184 54.7955 291.772 51.8348 291.772 48.2696C291.772 44.9369 293.262 42.1467 296.273 39.8836C299.02 37.822 302.062 36.7989 305.429 36.7989C308.797 36.7989 311.699 37.8375 314.415 39.8836M300.354 43.3558C298.942 44.7044 298.228 46.3475 298.228 48.2696C298.228 50.1917 298.942 51.7883 300.354 53.1369C301.767 54.4699 303.443 55.121 305.352 55.121C307.261 55.121 308.906 54.4544 310.318 53.1369C311.761 51.7728 312.475 50.1607 312.475 48.2696C312.475 46.3785 311.746 44.7199 310.318 43.3558C308.906 42.0537 307.245 41.4027 305.352 41.4027C303.458 41.4027 301.767 42.0537 300.354 43.3558Z" fill="#00479D"/>
<path d="M348.838 23.5302C351.244 25.5608 352.439 28.134 352.439 31.2341C352.439 34.3343 351.244 36.8299 348.838 38.8606C346.603 40.7827 344.011 41.7437 341.032 41.7437C338.052 41.7437 335.382 40.7827 333.148 38.8606C330.773 36.8299 329.594 34.2878 329.594 31.2341C329.594 28.1805 330.773 25.5608 333.148 23.5302C335.382 21.6081 338.005 20.647 341.032 20.647C344.058 20.647 346.603 21.6081 348.838 23.5302ZM339.045 44.9989V52.9198H364.948V58.2056H335.941C334.948 58.2056 334.25 57.9886 333.815 57.5701C333.303 57.0586 333.055 56.2215 333.055 55.028V44.9989H339.045ZM337.307 27.6069C336.205 28.599 335.646 29.808 335.646 31.2496C335.646 32.6912 336.205 33.8538 337.307 34.7993C338.347 35.7294 339.604 36.1944 341.032 36.1944C342.382 36.1944 343.592 35.7294 344.632 34.7993C345.734 33.8073 346.293 32.6292 346.293 31.2496C346.293 29.87 345.75 28.599 344.632 27.6069C343.592 26.6769 342.382 26.2118 341.032 26.2118C339.588 26.2118 338.347 26.6769 337.307 27.6069ZM364.653 36.5819V46.9985H358.678V22.2281H364.653V31.2496H369.479V36.5819H364.653Z" fill="#00479D"/>
<path d="M394.947 22.2281V27.5294H387.312C387.56 29.901 388.243 31.7612 389.345 33.1252C390.648 34.7683 392.573 35.7759 395.118 36.1789V41.8522C392.821 41.6817 390.711 41.0152 388.755 39.8681C386.753 38.69 385.232 37.1245 384.223 35.2178C383.152 37.109 381.523 38.6745 379.35 39.9146C377.348 41.0462 375.33 41.6817 373.282 41.8212V36.1944C375.796 35.8069 377.689 34.7838 378.962 33.1407C379.986 31.7922 380.623 29.9165 380.918 27.5449H373.453V22.2436H394.947V22.2281Z" fill="#00479D"/>
<path d="M375.61 45.0919H381.585V52.9198H407.487V58.2056H378.527C377.534 58.2056 376.82 57.9886 376.37 57.5701C375.858 57.0586 375.61 56.2215 375.61 55.028V45.0764V45.0919Z" fill="#00479D"/>
<path d="M401.217 28.8315V22.2281H407.193V46.9985H401.217V34.1173H395.972V28.8315H401.217Z" fill="#00479D"/>
<path d="M436.944 22.2281V26.3358C436.944 35.3729 434.507 41.9917 429.65 46.1925C426.173 49.1841 421.672 50.8117 416.163 51.0597V45.2624C421.16 45.0919 424.916 43.3868 427.399 40.1471C429.712 37.1555 430.876 32.9547 430.876 27.5294H416.722V22.2281H436.944ZM443.773 22.2281H449.748V58.7792H443.773V22.2281Z" fill="#00479D"/>
<path d="M472.531 42.7978V39.9146H457.477V35.1248H493.514V39.9146H478.459V42.7978H472.531ZM478.77 21.4996C478.77 23.7937 480.042 25.4988 482.588 26.6304C484.854 27.6224 488.082 28.165 492.287 28.289V33.2802C488.811 33.2182 485.583 32.8152 482.619 32.0557C479.173 31.1566 476.799 29.9165 475.495 28.32C474.16 29.901 471.77 31.1411 468.325 32.0557C465.361 32.8152 462.148 33.2182 458.703 33.2337V28.2735C462.893 28.1339 466.106 27.5604 468.371 26.5839C470.917 25.4523 472.189 23.7627 472.189 21.4996H478.77ZM486.312 46.1925H458.718V41.5422H492.303V51.9123H464.709V53.4004H492.303V58.2211H461.605C460.612 58.2211 459.898 58.0041 459.448 57.5856C458.967 57.0741 458.718 56.237 458.718 55.0435V47.5875H486.312V46.1925Z" fill="#00479D"/>
<path d="M518.733 23.7162C521.061 25.6848 522.225 28.1805 522.225 31.1876C522.225 34.1948 521.061 36.6129 518.733 38.5815C516.56 40.4416 514.046 41.3717 511.175 41.3717C508.304 41.3717 505.681 40.4416 503.524 38.5815C501.227 36.6129 500.063 34.1483 500.063 31.1876C500.063 28.227 501.211 25.6848 503.524 23.7162C505.681 21.8561 508.242 20.926 511.175 20.926C514.108 20.926 516.576 21.8561 518.733 23.7162Z" fill="#00479D"/>
<path d="M503.198 44.9524H509.173V52.8733H535.076V58.1746H506.069C505.076 58.1746 504.377 57.9576 503.943 57.5391C503.431 57.0276 503.182 56.1905 503.182 54.997V44.9679L503.198 44.9524Z" fill="#00479D"/>
<path d="M507.621 27.7154C506.566 28.661 506.053 29.808 506.053 31.1721C506.053 32.5362 506.581 33.6368 507.621 34.5513C508.614 35.4349 509.794 35.8844 511.175 35.8844C512.463 35.8844 513.612 35.4349 514.605 34.5513C515.645 33.6058 516.172 32.4897 516.172 31.1721C516.172 29.8545 515.645 28.6455 514.605 27.7154C513.612 26.8319 512.463 26.3824 511.175 26.3824C509.809 26.3824 508.614 26.8319 507.621 27.7154Z" fill="white"/>
<path d="M523.436 41.9607V36.6749H528.697V22.2436H534.672V48.5796H528.697V41.9607H523.436Z" fill="#00479D"/>
<path d="M511.548 41.9607H499.954V36.6749H522.582V41.9607H517.538V46.9675H511.548V41.9607Z" fill="#00479D"/>
<path d="M254.23 76.2952H251.964L249.403 71.7534L248.115 73.3035V76.3107H246.175V66.3281H248.115V70.6528L251.622 66.3281H253.981L250.691 70.2963L254.23 76.3107V76.2952Z" fill="#00479D"/>
<path d="M261.322 72.6215C261.322 73.35 261.26 73.908 261.151 74.3265C261.043 74.7296 260.825 75.1171 260.5 75.4581C260.251 75.7216 259.941 75.9386 259.568 76.1092C259.196 76.2642 258.761 76.3572 258.249 76.3572C257.737 76.3572 257.302 76.2797 256.93 76.1092C256.558 75.9386 256.247 75.7371 255.999 75.4581C255.688 75.1326 255.471 74.7606 255.347 74.3265C255.223 73.8925 255.176 73.3345 255.176 72.637C255.176 71.9394 255.238 71.3659 255.347 70.9474C255.456 70.5443 255.673 70.1568 255.999 69.8158C256.247 69.5523 256.542 69.3353 256.883 69.1803C257.287 69.0098 257.737 68.9167 258.249 68.9167C258.761 68.9167 259.211 69.0098 259.615 69.1803C259.956 69.3353 260.251 69.5368 260.515 69.8158C260.825 70.1413 261.043 70.5133 261.167 70.9474C261.291 71.3814 261.338 71.9394 261.338 72.6215H261.322ZM259.491 72.6215C259.491 72.1409 259.46 71.7844 259.413 71.5209C259.367 71.2574 259.258 71.0404 259.072 70.8543C258.854 70.6373 258.575 70.5288 258.218 70.5288C257.861 70.5288 257.597 70.6373 257.38 70.8543C257.209 71.0249 257.101 71.2419 257.039 71.5364C256.977 71.8154 256.961 72.1874 256.961 72.6215C256.961 73.2105 256.992 73.6135 257.054 73.846C257.116 74.063 257.225 74.2645 257.38 74.4041C257.597 74.6211 257.877 74.7296 258.218 74.7296C258.56 74.7296 258.854 74.6211 259.072 74.4041C259.242 74.2335 259.351 74.0165 259.398 73.722C259.46 73.443 259.475 73.071 259.475 72.6215H259.491Z" fill="#00479D"/>
<path d="M268.523 69.5833L267.158 70.9629C267.002 70.8079 266.863 70.6993 266.723 70.6373C266.583 70.5598 266.413 70.5288 266.195 70.5288C265.885 70.5288 265.606 70.6373 265.373 70.8699C265.14 71.1024 265.016 71.4279 265.016 71.8774V76.2952H263.2V69.0098H264.969V69.7073C265.155 69.4903 265.404 69.3043 265.745 69.1493C266.087 68.9942 266.428 68.9167 266.801 68.9167C267.173 68.9167 267.483 68.9632 267.747 69.0718C268.011 69.1803 268.275 69.3508 268.523 69.5988V69.5833Z" fill="#00479D"/>
<path d="M275.662 73.195H271.115C271.115 73.6755 271.255 74.0785 271.534 74.373C271.813 74.6676 272.201 74.8226 272.714 74.8226C273.086 74.8226 273.396 74.7761 273.629 74.6676C273.862 74.5591 274.11 74.3886 274.359 74.125L275.461 75.2101C275.057 75.6131 274.654 75.8921 274.25 76.0781C273.847 76.2642 273.319 76.3417 272.698 76.3417C271.705 76.3417 270.929 76.0937 270.37 75.5821C269.672 74.9621 269.33 73.9855 269.33 72.6059C269.33 71.4434 269.625 70.5288 270.199 69.8778C270.774 69.2268 271.55 68.9012 272.496 68.9012C273.443 68.9012 274.266 69.2268 274.84 69.8933C275.383 70.5288 275.662 71.3504 275.662 72.3734V73.195ZM273.893 71.9549C273.893 71.7069 273.847 71.4434 273.738 71.1954C273.629 70.9474 273.474 70.7458 273.272 70.6063C273.071 70.4668 272.822 70.4048 272.512 70.4048C272.201 70.4048 271.969 70.4668 271.751 70.6063C271.55 70.7458 271.394 70.9319 271.286 71.1954C271.177 71.4434 271.131 71.7069 271.131 71.9549H273.893Z" fill="#00479D"/>
<path d="M282.972 76.2642H281.203V75.6286C280.955 75.8766 280.691 76.0626 280.427 76.1712C280.163 76.2797 279.822 76.3262 279.403 76.3262C278.596 76.3262 277.975 76.1092 277.571 75.6906C277.152 75.2721 276.951 74.7141 276.951 74.0475C276.951 73.4275 277.152 72.9315 277.556 72.5594C277.99 72.1564 278.627 71.9394 279.434 71.9394H281.141V71.5674C281.141 71.1644 281.032 70.8699 280.83 70.6838C280.629 70.4978 280.272 70.4048 279.791 70.4048C279.434 70.4048 279.17 70.4513 278.984 70.5288C278.797 70.6063 278.596 70.7768 278.394 71.0094L277.23 69.8778C277.587 69.4903 277.944 69.2423 278.332 69.0872C278.72 68.9477 279.216 68.8702 279.853 68.8702C281.917 68.8702 282.957 69.7228 282.957 71.4434V76.2332L282.972 76.2642ZM281.141 73.5825V73.195H279.713C279.03 73.195 278.704 73.474 278.704 74.0165C278.704 74.5591 279.046 74.8536 279.744 74.8536C280.023 74.8536 280.256 74.8381 280.411 74.7916C280.567 74.7451 280.737 74.6521 280.893 74.4971C281.063 74.342 281.141 74.032 281.141 73.5825Z" fill="#00479D"/>
<path d="M290.546 76.2952H288.606V66.3126H290.546V76.2952Z" fill="#00479D"/>
<path d="M298.896 76.2952H297.08V71.8619C297.08 71.3969 296.956 71.0559 296.707 70.8234C296.49 70.6218 296.226 70.5288 295.885 70.5288C295.543 70.5288 295.264 70.6218 295.062 70.8079C294.798 71.0404 294.674 71.3969 294.674 71.8619V76.2952H292.858V69.0098H294.628V69.6763C295.109 69.1648 295.714 68.9167 296.443 68.9167C296.8 68.9167 297.126 68.9787 297.406 69.0872C297.7 69.1958 297.949 69.3508 298.151 69.5678C298.414 69.8313 298.616 70.1413 298.725 70.4823C298.833 70.8233 298.896 71.2109 298.896 71.6449V76.3107V76.2952Z" fill="#00479D"/>
<path d="M306.469 73.97C306.469 74.7451 306.174 75.3341 305.569 75.7526C305.026 76.1401 304.296 76.3417 303.381 76.3417C302.682 76.3417 302.139 76.2797 301.751 76.1712C301.208 76.0161 300.711 75.7216 300.292 75.2876L301.487 74.1095C301.751 74.3731 302.077 74.5591 302.465 74.6676C302.76 74.7451 303.086 74.7916 303.427 74.7916C303.769 74.7916 304.079 74.7296 304.327 74.6056C304.576 74.4816 304.7 74.2956 304.7 74.032C304.7 73.846 304.638 73.691 304.529 73.5825C304.405 73.474 304.219 73.3965 303.939 73.3655L302.791 73.257C302.108 73.195 301.58 73.009 301.239 72.699C300.851 72.3579 300.665 71.8774 300.665 71.2264C300.665 70.4978 300.929 69.9398 301.487 69.5213C302.03 69.1183 302.698 68.9012 303.474 68.9012C304.11 68.9012 304.638 68.9632 305.072 69.0872C305.507 69.2113 305.895 69.4283 306.236 69.7538L305.119 70.8854C304.933 70.7148 304.684 70.5908 304.389 70.5133C304.079 70.4358 303.769 70.3893 303.443 70.3893C303.117 70.3893 302.853 70.4513 302.682 70.5908C302.512 70.7303 302.418 70.8854 302.418 71.0869C302.418 71.2574 302.465 71.3814 302.543 71.4744C302.667 71.5984 302.869 71.6759 303.163 71.7069L304.312 71.8154C305.01 71.8774 305.553 72.0944 305.926 72.4664C306.298 72.8385 306.469 73.3345 306.469 73.9545V73.97Z" fill="#00479D"/>
<path d="M311.42 76.2952H310.427C309.728 76.2952 309.185 76.0781 308.828 75.6596C308.487 75.2721 308.332 74.7916 308.332 74.218V70.6063H307.556V69.2268H308.332V67.0721H310.147V69.2268H311.435V70.6063H310.147V74.1095C310.147 74.5436 310.349 74.7761 310.768 74.7761H311.42V76.2952Z" fill="#00479D"/>
<path d="M314.99 67.7697H313.174V66.2971H314.99V67.7697ZM314.99 76.2952H313.174V69.0098H314.99V76.2952Z" fill="#00479D"/>
<path d="M320.452 76.2952H319.459C318.761 76.2952 318.233 76.0781 317.861 75.6596C317.519 75.2721 317.364 74.7916 317.364 74.218V70.6063H316.588V69.2268H317.364V67.0721H319.18V69.2268H320.468V70.6063H319.18V74.1095C319.18 74.5436 319.382 74.7761 319.801 74.7761H320.452V76.2952Z" fill="#00479D"/>
<path d="M328.181 76.2642H326.412V75.5821C325.931 76.0782 325.326 76.3262 324.596 76.3262C324.239 76.3262 323.913 76.2642 323.634 76.1557C323.339 76.0471 323.091 75.8921 322.889 75.6751C322.625 75.4116 322.423 75.1016 322.315 74.7606C322.206 74.4196 322.144 74.032 322.144 73.6135V68.9632H323.96V73.3655C323.96 73.8305 324.084 74.1715 324.332 74.4041C324.55 74.6056 324.814 74.6986 325.155 74.6986C325.496 74.6986 325.776 74.6056 325.978 74.4196C326.241 74.187 326.366 73.8305 326.366 73.3655V68.9632H328.181V76.2642Z" fill="#00479D"/>
<path d="M333.644 76.2952H332.651C331.953 76.2952 331.425 76.0781 331.052 75.6596C330.711 75.2721 330.556 74.7916 330.556 74.218V70.6063H329.78V69.2268H330.556V67.0721H332.372V69.2268H333.66V70.6063H332.372V74.1095C332.372 74.5436 332.573 74.7761 332.992 74.7761H333.644V76.2952Z" fill="#00479D"/>
<path d="M341.42 73.195H336.872C336.872 73.6755 337.012 74.0785 337.291 74.373C337.571 74.6676 337.959 74.8226 338.471 74.8226C338.843 74.8226 339.154 74.7761 339.387 74.6676C339.619 74.5591 339.868 74.3886 340.116 74.125L341.218 75.2101C340.814 75.6131 340.411 75.8921 340.007 76.0781C339.604 76.2642 339.076 76.3417 338.455 76.3417C337.462 76.3417 336.686 76.0937 336.112 75.5821C335.414 74.9621 335.072 73.9855 335.072 72.6059C335.072 71.4434 335.367 70.5288 335.941 69.8778C336.515 69.2268 337.291 68.9012 338.254 68.9012C339.216 68.9012 340.023 69.2268 340.597 69.8933C341.14 70.5288 341.42 71.3504 341.42 72.3734V73.195ZM339.635 71.9549C339.635 71.7069 339.573 71.4434 339.48 71.1954C339.371 70.9474 339.216 70.7458 339.014 70.6063C338.812 70.4668 338.564 70.4048 338.254 70.4048C337.943 70.4048 337.71 70.4668 337.493 70.6063C337.291 70.7458 337.136 70.9319 337.028 71.1954C336.919 71.4434 336.872 71.7069 336.872 71.9549H339.635Z" fill="#00479D"/>
<path d="M352.454 72.6215C352.454 73.35 352.392 73.908 352.284 74.3265C352.175 74.7296 351.958 75.1171 351.632 75.4581C351.383 75.7216 351.073 75.9386 350.701 76.1092C350.328 76.2642 349.878 76.3572 349.381 76.3572C348.885 76.3572 348.435 76.2797 348.062 76.1092C347.69 75.9386 347.379 75.7371 347.131 75.4581C346.821 75.1326 346.603 74.7606 346.479 74.3265C346.355 73.8925 346.308 73.3345 346.308 72.637C346.308 71.9394 346.37 71.3659 346.479 70.9474C346.588 70.5443 346.805 70.1568 347.131 69.8158C347.379 69.5523 347.674 69.3353 348.016 69.1803C348.419 69.0098 348.869 68.9167 349.381 68.9167C349.894 68.9167 350.344 69.0098 350.747 69.1803C351.089 69.3353 351.383 69.5368 351.647 69.8158C351.958 70.1413 352.175 70.5133 352.299 70.9474C352.423 71.3814 352.47 71.9394 352.47 72.6215H352.454ZM350.638 72.6215C350.638 72.1409 350.607 71.7844 350.576 71.5209C350.53 71.2574 350.421 71.0404 350.235 70.8543C350.018 70.6373 349.738 70.5288 349.381 70.5288C349.024 70.5288 348.761 70.6373 348.543 70.8543C348.373 71.0249 348.264 71.2419 348.202 71.5364C348.14 71.8309 348.124 72.1874 348.124 72.6215C348.124 73.2105 348.155 73.6135 348.217 73.846C348.279 74.063 348.388 74.2645 348.543 74.4041C348.761 74.6211 349.04 74.7296 349.381 74.7296C349.723 74.7296 350.018 74.6211 350.235 74.4041C350.406 74.2335 350.514 74.0165 350.576 73.722C350.638 73.443 350.654 73.071 350.654 72.6215H350.638Z" fill="#00479D"/>
<path d="M357.715 70.6063H356.365V76.2952H354.549V70.6063H353.804V69.2268H354.549V68.3122C354.549 67.7387 354.72 67.2582 355.062 66.8861C355.45 66.4521 355.977 66.2196 356.691 66.2196H357.731V67.7387H357.017C356.598 67.7387 356.381 67.9557 356.381 68.4052V69.2113H357.731V70.5908L357.715 70.6063Z" fill="#00479D"/>
<path d="M370.457 76.2952H368.424L367.834 74.4971H364.296L363.691 76.2952H361.673L365.289 66.3126H366.81L370.442 76.2952H370.457ZM367.338 72.885L366.127 69.2733L364.87 72.885H367.338Z" fill="#00479D"/>
<path d="M377.503 68.9787L374.834 76.2952H373.406L370.721 68.9787H372.63L374.104 73.505L375.579 68.9787H377.503Z" fill="#00479D"/>
<path d="M380.499 67.7697H378.683V66.2971H380.499V67.7697ZM380.499 76.2952H378.683V69.0098H380.499V76.2952Z" fill="#00479D"/>
<path d="M388.165 76.2642H386.396V75.6286C386.148 75.8766 385.884 76.0626 385.62 76.1712C385.356 76.2797 385.015 76.3262 384.596 76.3262C383.789 76.3262 383.168 76.1092 382.764 75.6906C382.345 75.2721 382.144 74.7141 382.144 74.0475C382.144 73.4275 382.345 72.9315 382.749 72.5594C383.183 72.1564 383.82 71.9394 384.627 71.9394H386.334V71.5674C386.334 71.1644 386.225 70.8699 386.024 70.6838C385.822 70.4978 385.465 70.4048 384.984 70.4048C384.627 70.4048 384.363 70.4513 384.177 70.5288C383.99 70.6063 383.789 70.7768 383.587 71.0094L382.423 69.8778C382.78 69.4903 383.137 69.2423 383.525 69.0872C383.913 68.9477 384.409 68.8702 385.046 68.8702C387.11 68.8702 388.15 69.7228 388.15 71.4434V76.2332L388.165 76.2642ZM386.349 73.5825V73.195H384.922C384.239 73.195 383.913 73.474 383.913 74.0165C383.913 74.5591 384.254 74.8536 384.953 74.8536C385.232 74.8536 385.465 74.8381 385.62 74.7916C385.775 74.7451 385.946 74.6521 386.101 74.4971C386.272 74.342 386.349 74.032 386.349 73.5825Z" fill="#00479D"/>
<path d="M393.551 76.2952H392.557C391.859 76.2952 391.331 76.0781 390.959 75.6596C390.617 75.2721 390.462 74.7916 390.462 74.218V70.6063H389.686V69.2268H390.462V67.0721H392.278V69.2268H393.566V70.6063H392.278V74.1095C392.278 74.5436 392.48 74.7761 392.899 74.7761H393.551V76.2952Z" fill="#00479D"/>
<path d="M397.136 67.7697H395.32V66.2971H397.136V67.7697ZM397.136 76.2952H395.32V69.0098H397.136V76.2952Z" fill="#00479D"/>
<path d="M405.175 72.6215C405.175 73.35 405.113 73.908 405.004 74.3265C404.896 74.7296 404.678 75.1171 404.352 75.4581C404.104 75.7216 403.794 75.9386 403.421 76.1092C403.049 76.2642 402.599 76.3572 402.087 76.3572C401.574 76.3572 401.14 76.2797 400.767 76.1092C400.395 75.9386 400.084 75.7371 399.836 75.4581C399.526 75.1326 399.308 74.7606 399.184 74.3265C399.06 73.8925 399.014 73.3345 399.014 72.637C399.014 71.9394 399.076 71.3659 399.184 70.9474C399.293 70.5443 399.51 70.1568 399.836 69.8158C400.084 69.5523 400.379 69.3353 400.721 69.1803C401.124 69.0098 401.574 68.9167 402.087 68.9167C402.599 68.9167 403.049 69.0098 403.452 69.1803C403.794 69.3353 404.089 69.5368 404.352 69.8158C404.663 70.1413 404.88 70.5133 405.004 70.9474C405.113 71.3814 405.175 71.9394 405.175 72.6215ZM403.344 72.6215C403.344 72.1409 403.328 71.7844 403.282 71.5209C403.235 71.2574 403.126 71.0404 402.94 70.8543C402.723 70.6373 402.443 70.5288 402.087 70.5288C401.73 70.5288 401.466 70.6373 401.248 70.8543C401.078 71.0249 400.969 71.2419 400.907 71.5364C400.845 71.8154 400.829 72.1874 400.829 72.6215C400.829 73.2105 400.86 73.6135 400.923 73.846C400.985 74.063 401.093 74.2645 401.248 74.4041C401.466 74.6211 401.745 74.7296 402.087 74.7296C402.428 74.7296 402.723 74.6211 402.94 74.4041C403.111 74.2335 403.219 74.0165 403.282 73.722C403.344 73.443 403.359 73.071 403.359 72.6215H403.344Z" fill="#00479D"/>
<path d="M413.09 76.2952H411.274V71.8619C411.274 71.3969 411.15 71.0559 410.902 70.8234C410.684 70.6218 410.421 70.5288 410.079 70.5288C409.738 70.5288 409.458 70.6218 409.257 70.8079C408.993 71.0404 408.869 71.3969 408.869 71.8619V76.2952H407.053V69.0098H408.822V69.6763C409.303 69.1648 409.893 68.9167 410.638 68.9167C410.995 68.9167 411.321 68.9787 411.6 69.0872C411.895 69.1958 412.143 69.3508 412.345 69.5678C412.609 69.8313 412.811 70.1413 412.919 70.4823C413.028 70.8233 413.09 71.2109 413.09 71.6449V76.3107V76.2952Z" fill="#00479D"/>
<path d="M425.149 73.3345C425.149 74.28 424.792 75.0241 424.094 75.5666C423.426 76.0936 422.542 76.3417 421.471 76.3417C420.679 76.3417 419.996 76.2487 419.422 76.0471C418.848 75.8456 418.32 75.5201 417.839 75.0396L419.096 73.7685C419.391 74.063 419.748 74.28 420.152 74.4196C420.555 74.5436 421.005 74.6211 421.502 74.6211C422.681 74.6211 423.271 74.218 423.271 73.3965C423.271 73.04 423.162 72.761 422.961 72.5594C422.868 72.4819 422.759 72.4044 422.619 72.3424C422.48 72.2804 422.293 72.2339 422.092 72.2029L420.881 72.0324C420.027 71.9084 419.391 71.6449 418.941 71.2109C418.46 70.7303 418.227 70.0793 418.227 69.2578C418.227 68.3587 418.537 67.6302 419.158 67.0721C419.779 66.5141 420.633 66.2351 421.704 66.2351C422.402 66.2351 423.007 66.3281 423.519 66.4986C424.031 66.6691 424.497 66.9791 424.932 67.3977L423.706 68.6067C423.426 68.3432 423.116 68.1727 422.759 68.0797C422.402 67.9867 422.045 67.9402 421.657 67.9402C421.145 67.9402 420.772 68.0642 420.508 68.2812C420.245 68.5137 420.12 68.8082 420.12 69.1803C420.12 69.3353 420.136 69.4593 420.183 69.5678C420.229 69.6763 420.307 69.7848 420.415 69.8933C420.633 70.0948 420.943 70.2343 421.347 70.2808L422.526 70.4513C423.364 70.5753 424 70.8234 424.435 71.2109C424.699 71.4589 424.901 71.7689 425.025 72.1099C425.149 72.4509 425.211 72.854 425.211 73.319L425.149 73.3345Z" fill="#00479D"/>
<path d="M432.443 76.2642H430.674V75.6286C430.426 75.8766 430.162 76.0626 429.898 76.1712C429.634 76.2797 429.293 76.3262 428.874 76.3262C428.067 76.3262 427.446 76.1092 427.042 75.6906C426.623 75.2721 426.422 74.7141 426.422 74.0475C426.422 73.4275 426.623 72.9315 427.027 72.5594C427.461 72.1564 428.098 71.9394 428.905 71.9394H430.612V71.5674C430.612 71.1644 430.503 70.8699 430.301 70.6838C430.1 70.4978 429.743 70.4048 429.262 70.4048C428.905 70.4048 428.641 70.4513 428.455 70.5288C428.268 70.6063 428.067 70.7768 427.865 71.0094L426.701 69.8778C427.058 69.4903 427.415 69.2423 427.803 69.0872C428.191 68.9477 428.687 68.8702 429.324 68.8702C431.388 68.8702 432.428 69.7228 432.428 71.4434V76.2332L432.443 76.2642ZM430.627 73.5825V73.195H429.2C428.517 73.195 428.191 73.474 428.191 74.0165C428.191 74.5591 428.532 74.8536 429.231 74.8536C429.51 74.8536 429.743 74.8381 429.898 74.7916C430.053 74.7451 430.224 74.6521 430.379 74.4971C430.55 74.342 430.627 74.032 430.627 73.5825Z" fill="#00479D"/>
<path d="M437.953 70.6063H436.602V76.2952H434.787V70.6063H434.042V69.2268H434.787V68.3122C434.787 67.7387 434.957 67.2582 435.299 66.8861C435.687 66.4521 436.215 66.2196 436.928 66.2196H437.968V67.7387H437.254C436.835 67.7387 436.618 67.9557 436.618 68.4052V69.2113H437.968V70.5908L437.953 70.6063Z" fill="#00479D"/>
<path d="M445.464 73.195H440.917C440.917 73.6755 441.057 74.0785 441.336 74.373C441.615 74.6676 442.003 74.8226 442.516 74.8226C442.888 74.8226 443.198 74.7761 443.431 74.6676C443.664 74.5591 443.912 74.3886 444.161 74.125L445.263 75.2101C444.859 75.6131 444.456 75.8921 444.052 76.0781C443.648 76.2642 443.121 76.3417 442.5 76.3417C441.507 76.3417 440.731 76.0937 440.172 75.5821C439.474 74.9621 439.132 73.9855 439.132 72.6059C439.132 71.4434 439.427 70.5288 440.001 69.8778C440.576 69.2268 441.352 68.9012 442.314 68.9012C443.276 68.9012 444.083 69.2268 444.657 69.8933C445.2 70.5288 445.48 71.3504 445.48 72.3734V73.1795L445.464 73.195ZM443.68 71.9549C443.68 71.7069 443.633 71.4434 443.524 71.1954C443.416 70.9474 443.26 70.7458 443.059 70.6063C442.857 70.4668 442.609 70.4048 442.298 70.4048C441.988 70.4048 441.755 70.4668 441.538 70.6063C441.336 70.7458 441.181 70.9319 441.072 71.1954C440.964 71.4434 440.917 71.7069 440.917 71.9549H443.68Z" fill="#00479D"/>
<path d="M450.539 76.2952H449.546C448.848 76.2952 448.32 76.0781 447.947 75.6596C447.606 75.2721 447.451 74.7916 447.451 74.218V70.6063H446.675V69.2268H447.451V67.0721H449.267V69.2268H450.555V70.6063H449.267V74.1095C449.267 74.5436 449.468 74.7761 449.887 74.7761H450.539V76.2952Z" fill="#00479D"/>
<path d="M458.159 68.9787L455.04 77.4422C454.962 77.6592 454.869 77.8452 454.792 77.9848C454.714 78.1243 454.605 78.2483 454.497 78.3723C454.295 78.5738 454.078 78.7133 453.798 78.7908C453.535 78.8838 453.24 78.9303 452.929 78.9303H452.215V77.3027H452.634C452.898 77.3027 453.085 77.2562 453.209 77.1632C453.333 77.0702 453.441 76.8997 453.535 76.6362L453.845 75.7371L451.362 68.9632H453.271L454.776 73.474L456.235 68.9632H458.144L458.159 68.9787Z" fill="#00479D"/>
<path d="M469.272 68.0332H466.68V76.2952H464.74V68.0332H462.148V66.3126H469.272V68.0332Z" fill="#00479D"/>
<path d="M476.845 73.195H472.298C472.298 73.6755 472.438 74.0785 472.717 74.373C472.996 74.6676 473.384 74.8226 473.897 74.8226C474.269 74.8226 474.579 74.7761 474.812 74.6676C475.045 74.5591 475.293 74.3886 475.542 74.125L476.644 75.2101C476.24 75.6131 475.837 75.8921 475.433 76.0781C475.029 76.2642 474.502 76.3417 473.881 76.3417C472.888 76.3417 472.112 76.0937 471.553 75.5821C470.855 74.9621 470.513 73.9855 470.513 72.6059C470.513 71.4434 470.808 70.5288 471.382 69.8778C471.957 69.2268 472.733 68.9012 473.695 68.9012C474.657 68.9012 475.464 69.2268 476.038 69.8933C476.581 70.5288 476.861 71.3504 476.861 72.3734V73.1795L476.845 73.195ZM475.061 71.9549C475.061 71.7069 475.014 71.4434 474.905 71.1954C474.797 70.9474 474.641 70.7458 474.44 70.6063C474.238 70.4668 473.99 70.4048 473.679 70.4048C473.369 70.4048 473.136 70.4668 472.919 70.6063C472.717 70.7458 472.562 70.9319 472.453 71.1954C472.345 71.4589 472.298 71.7069 472.298 71.9549H475.061Z" fill="#00479D"/>
<path d="M483.953 75.3651C483.317 76.0161 482.526 76.3572 481.548 76.3572C480.679 76.3572 479.949 76.1091 479.375 75.5976C478.646 74.9621 478.289 73.97 478.289 72.6215C478.289 71.2729 478.646 70.2963 479.36 69.6608C479.934 69.1648 480.648 68.9012 481.532 68.9012C482.51 68.9012 483.317 69.2268 483.938 69.8778L482.712 71.1179C482.526 70.9164 482.339 70.7613 482.153 70.6683C481.967 70.5753 481.765 70.5288 481.532 70.5288C481.098 70.5288 480.756 70.6993 480.492 71.0249C480.229 71.3504 480.089 71.8774 480.089 72.6215C480.089 73.3655 480.213 73.908 480.492 74.2335C480.756 74.5591 481.098 74.7296 481.532 74.7296C481.967 74.7296 482.355 74.5436 482.712 74.156L483.938 75.3806L483.953 75.3651Z" fill="#00479D"/>
<path d="M491.496 76.2952H489.68V71.8309C489.68 71.3814 489.556 71.0404 489.308 70.8234C489.09 70.6373 488.827 70.5443 488.501 70.5443C488.175 70.5443 487.911 70.6373 487.709 70.8234C487.461 71.0404 487.337 71.3814 487.337 71.8309V76.2952H485.521V66.3126H487.337V69.6608C487.833 69.1493 488.408 68.9012 489.075 68.9012C489.851 68.9012 490.456 69.1493 490.875 69.6298C491.294 70.1103 491.496 70.7614 491.496 71.5674V76.2952Z" fill="#00479D"/>
<path d="M499.628 76.2952H497.812V71.8619C497.812 71.3969 497.688 71.0559 497.44 70.8234C497.223 70.6218 496.959 70.5288 496.617 70.5288C496.276 70.5288 495.997 70.6218 495.795 70.8079C495.531 71.0404 495.407 71.3969 495.407 71.8619V76.2952H493.591V69.0098H495.36V69.6763C495.842 69.1648 496.431 68.9167 497.176 68.9167C497.533 68.9167 497.859 68.9787 498.138 69.0872C498.433 69.1958 498.682 69.3508 498.883 69.5678C499.147 69.8313 499.349 70.1413 499.458 70.4823C499.566 70.8233 499.628 71.2109 499.628 71.6449V76.3107V76.2952Z" fill="#00479D"/>
<path d="M507.574 72.6215C507.574 73.35 507.512 73.908 507.404 74.3265C507.295 74.7296 507.078 75.1171 506.752 75.4581C506.504 75.7216 506.193 75.9386 505.821 76.1092C505.448 76.2642 504.998 76.3572 504.502 76.3572C504.005 76.3572 503.555 76.2797 503.182 76.1092C502.81 75.9386 502.5 75.7371 502.251 75.4581C501.941 75.1326 501.723 74.7606 501.599 74.3265C501.475 73.8925 501.429 73.3345 501.429 72.637C501.429 71.9394 501.491 71.3659 501.599 70.9474C501.708 70.5443 501.925 70.1568 502.251 69.8158C502.5 69.5523 502.794 69.3353 503.136 69.1803C503.539 69.0098 503.989 68.9167 504.502 68.9167C505.014 68.9167 505.464 69.0098 505.867 69.1803C506.209 69.3353 506.504 69.5368 506.767 69.8158C507.078 70.1413 507.295 70.5133 507.419 70.9474C507.543 71.3814 507.59 71.9394 507.59 72.6215H507.574ZM505.759 72.6215C505.759 72.1409 505.728 71.7844 505.697 71.5209C505.65 71.2574 505.541 71.0404 505.355 70.8543C505.138 70.6373 504.858 70.5288 504.502 70.5288C504.145 70.5288 503.881 70.6373 503.664 70.8543C503.493 71.0249 503.384 71.2419 503.322 71.5364C503.26 71.8154 503.244 72.1874 503.244 72.6215C503.244 73.2105 503.275 73.6135 503.338 73.846C503.4 74.063 503.508 74.2645 503.664 74.4041C503.881 74.6211 504.16 74.7296 504.502 74.7296C504.843 74.7296 505.138 74.6211 505.355 74.4041C505.526 74.2335 505.635 74.0165 505.697 73.722C505.759 73.443 505.774 73.071 505.774 72.6215H505.759Z" fill="#00479D"/>
<path d="M512.541 76.2952H511.501C510.803 76.2952 510.259 76.0781 509.871 75.6441C509.53 75.2566 509.375 74.7761 509.375 74.2025V66.3126H511.191V74.1095C511.191 74.5436 511.408 74.7761 511.827 74.7761H512.525V76.2952H512.541Z" fill="#00479D"/>
<path d="M526.881 76.0006C526.881 76.8842 526.586 77.6127 526.012 78.1708C525.438 78.7288 524.662 79.0078 523.684 79.0078C523.094 79.0078 522.613 78.9458 522.21 78.8063C521.806 78.6668 521.418 78.4188 521.046 78.0623L522.179 76.9152C522.567 77.2872 523.032 77.4732 523.591 77.4732C524.088 77.4732 524.476 77.3182 524.739 76.9927C524.957 76.7292 525.065 76.3882 525.065 75.9541V75.2101C524.832 75.4736 524.584 75.6596 524.305 75.7681C524.025 75.8766 523.715 75.9386 523.343 75.9386C522.613 75.9386 522.039 75.7216 521.62 75.3031C521.309 74.9931 521.108 74.6211 521.015 74.187C520.921 73.7685 520.89 73.164 520.89 72.4044C520.89 71.6449 520.937 71.0714 521.015 70.6528C521.108 70.2188 521.309 69.8468 521.62 69.5368C522.054 69.1028 522.629 68.9012 523.358 68.9012C523.746 68.9012 524.072 68.9632 524.351 69.0718C524.615 69.1958 524.879 69.3818 525.127 69.6763V68.9942H526.897V75.9851L526.881 76.0006ZM525.065 72.4354C525.065 71.8464 525.003 71.4124 524.879 71.1334C524.693 70.7458 524.367 70.5443 523.886 70.5443C523.405 70.5443 523.079 70.7303 522.893 71.1179C522.768 71.3969 522.706 71.8309 522.706 72.4354C522.706 73.2105 522.815 73.722 523.032 73.9855C523.218 74.218 523.498 74.3265 523.901 74.3265C524.382 74.3265 524.708 74.125 524.895 73.7375C525.019 73.4585 525.081 73.0245 525.081 72.4199L525.065 72.4354Z" fill="#00479D"/>
<path d="M534.889 68.9787L531.77 77.4422C531.692 77.6592 531.599 77.8452 531.521 77.9848C531.444 78.1243 531.335 78.2483 531.227 78.3723C531.025 78.5738 530.808 78.7133 530.528 78.7908C530.264 78.8838 529.97 78.9303 529.659 78.9303H528.945V77.3027H529.364C529.628 77.3027 529.814 77.2562 529.938 77.1632C530.063 77.0702 530.171 76.8997 530.264 76.6362L530.575 75.7371L528.092 68.9632H530.001L531.506 73.474L532.965 68.9632H534.874L534.889 68.9787Z" fill="#00479D"/>
<path d="M519.478 72.6059C519.478 73.3345 519.416 73.8925 519.307 74.3111C519.199 74.7141 518.982 75.1016 518.656 75.4426C518.407 75.7061 518.097 75.9231 517.724 76.0937C517.352 76.2487 516.902 76.3417 516.405 76.3417C515.909 76.3417 515.459 76.2642 515.086 76.0937C514.714 75.9231 514.403 75.7216 514.155 75.4426C513.844 75.1171 513.627 74.7451 513.503 74.3111C513.379 73.877 513.332 73.319 513.332 72.6215C513.332 71.9239 513.394 71.3504 513.503 70.9319C513.612 70.5288 513.829 70.1413 514.155 69.8003C514.403 69.5368 514.698 69.3198 515.039 69.1648C515.443 68.9942 515.893 68.9012 516.405 68.9012C516.917 68.9012 517.367 68.9942 517.771 69.1648C518.112 69.3198 518.407 69.5213 518.671 69.8003C518.981 70.1258 519.199 70.4978 519.323 70.9319C519.447 71.3659 519.494 71.9239 519.494 72.6059H519.478ZM517.662 72.6059C517.662 72.1254 517.631 71.7689 517.6 71.5054C517.554 71.2419 517.445 71.0249 517.259 70.8389C517.042 70.6218 516.762 70.5133 516.405 70.5133C516.048 70.5133 515.784 70.6218 515.567 70.8389C515.396 71.0094 515.288 71.2264 515.226 71.5209C515.164 71.7999 515.148 72.1719 515.148 72.6059C515.148 73.195 515.179 73.598 515.241 73.8305C515.303 74.0475 515.412 74.249 515.567 74.3885C515.784 74.6056 516.064 74.7141 516.405 74.7141C516.747 74.7141 517.042 74.6056 517.259 74.3885C517.43 74.218 517.538 74.001 517.6 73.7065C517.662 73.4275 517.678 73.0555 517.678 72.6059H517.662Z" fill="#00479D"/>
</svg>
