<svg width="566" height="69" viewBox="0 0 566 69" fill="none" xmlns="http://www.w3.org/2000/svg">
<path d="M111.853 0.190061C111.853 0.190061 111.655 0.0408718 111.507 0.0160069C110.987 -0.0834526 110.492 0.28952 109.724 0.886277L109.13 1.33384C107.026 2.45276 105.416 7.74898 105.07 9.91222C104.995 9.93709 104.971 9.98682 104.847 10.0365C103.56 7.79871 101.183 5.71006 98.7319 5.38682C99.6974 9.14141 102.99 20.4798 107.372 19.4852C109.6 18.9879 114.23 9.58898 114.279 4.39222V4.1933C114.255 1.45817 112.992 0.463574 111.853 0.140331V0.190061Z" fill="#F08300"/>
<path d="M141.389 57.9263C135.892 58.1501 134.085 57.8517 128.688 59.642C127.945 59.8657 127.277 60.3879 126.683 61.0592C126.757 62.203 126.089 63.9933 127.153 64.416C127.203 64.416 127.203 64.5901 127.252 64.6895C127.574 65.0128 127.896 65.0376 128.193 65.4355C128.391 65.7338 128.564 65.4106 128.787 65.5349C128.886 65.6344 128.936 65.8084 129.035 65.8333C129.555 66.082 130.05 65.9825 130.57 66.256C130.842 66.4798 131.114 66.4301 131.362 66.4549C131.51 66.3803 131.733 66.7782 131.783 66.8776C132.773 67.3003 133.714 66.9274 134.704 66.9025C137.749 66.8528 137.18 66.5544 140.225 66.5047C142.8 66.4549 145.275 66.8528 147.85 66.8279C149.237 66.7782 150.747 66.8279 152.133 66.7284C154.584 66.5793 157.035 66.9522 159.511 67.002C160.749 66.9771 162.16 67.4495 163.398 67.549C164.735 67.549 165.997 67.2009 167.359 67.4744C167.78 67.4992 168.201 67.4495 168.646 67.6484C169.042 67.8474 169.488 68.0463 169.859 68.0711C171.048 68.1457 172.088 67.723 173.226 67.2755C173.895 67.0765 174.588 66.9522 175.207 66.5544C175.529 66.4052 175.801 65.9079 175.925 65.4106C176.247 64.4906 176.494 63.4711 176.173 62.4268C176.123 62.4268 175.95 62.5014 175.9 62.4268C175.776 62.2528 175.801 61.8301 175.653 61.8052C175.157 61.6063 174.687 61.5565 174.192 61.4571C173.548 61.3079 172.88 61.0095 172.236 60.8852C169.191 60.1393 151.811 57.5036 141.389 57.9511V57.9263Z" fill="#009F73"/>
<path d="M88.2348 59.9403C88.7795 60.0647 89.4231 60.0647 89.7202 60.4128C90.0173 60.7111 89.4231 61.1836 89.4727 61.5565C89.4727 62.4765 89.7945 63.2971 89.7945 64.1922C89.7945 64.3414 89.745 64.4906 89.5717 64.6646C89.4231 64.8884 89.1756 65.1371 88.9032 65.2863C88.1358 65.7836 87.1207 65.5846 86.2542 65.8333C85.1154 66.1814 83.8775 66.3057 82.7139 66.4301C80.5848 66.6538 78.5547 66.2063 76.4008 66.1317C75.5839 66.082 74.6926 66.2063 73.9994 66.4549C73.0339 66.7036 72.0436 66.6787 71.0533 66.6538C65.9038 66.4549 60.8781 66.3555 55.7533 66.4052C54.862 66.4301 53.8718 66.5544 52.9805 66.5792C48.8708 66.803 44.7611 66.7284 40.6514 66.8528C39.2155 66.9025 37.7795 66.9274 36.3436 66.9025C35.5266 66.9025 34.7344 66.9522 34.0164 66.9522C30.9713 67.1014 27.8519 67.2506 24.782 67.1263C23.6184 67.1263 22.3558 67.1263 21.1922 67.1511C17.8005 67.3252 14.3344 67.8971 10.8932 67.6982C8.36795 67.5738 6.01601 66.9771 3.68883 65.7836C2.10437 64.963 0.891261 63.8441 0 62.4765C0.594174 61.7057 1.46068 61.4074 2.45097 61.1587C4.75339 60.5371 6.88251 60.1393 9.18494 59.7414C11.1408 59.4182 12.9233 59.2441 14.8048 59.0701C39.4383 56.8571 67.0426 57.6776 77.812 58.3987C81.4266 58.6474 84.7935 59.1198 88.2843 59.8906L88.2348 59.9403Z" fill="#0073BD"/>
<path d="M132.699 36.816V37.0895C132.922 37.6614 133.343 37.8106 133.788 38.2084H135.224C135.224 37.9349 135.546 38.2084 135.546 37.9349C135.868 37.9349 136.363 37.8106 136.586 37.363H136.809C137.056 36.9403 137.403 36.642 137.873 36.642C138.467 35.9457 139.037 35.2247 139.631 34.5284C139.631 34.2301 139.755 33.9565 139.977 33.8074C140.324 32.5392 140.572 31.122 141.166 29.8538C141.166 29.4311 141.389 28.8593 141.29 28.4365C141.413 28.4365 141.512 28.4365 141.512 28.2874C141.389 27.7155 141.735 27.442 141.983 27.1436C142.23 27.1436 142.453 27.1436 142.577 26.8701V26.5965C143.171 26.5965 143.815 27.0193 144.285 27.5911H145.053C145.053 27.8895 145.201 27.8895 145.375 28.0138C145.993 28.0138 147.355 27.8647 147.974 28.1382C147.974 28.5609 148.593 28.4365 148.742 28.8593C148.89 29.282 148.89 29.7047 149.212 30.1274C149.212 30.2765 149.212 30.4009 149.063 30.5501C149.385 30.9728 149.682 31.669 149.212 32.0917C149.36 32.6636 149.212 33.3598 149.509 33.9317C149.212 34.2052 149.36 34.6528 149.36 34.9263C149.658 35.4982 149.658 36.1944 149.831 36.9155C150.45 37.6117 150.301 38.482 150.747 39.1782V40.0236C151.044 40.0236 150.747 40.4463 151.044 40.4463C151.192 41.2917 150.747 42.2863 150.747 43.1317C150.598 43.256 150.425 43.4052 150.276 43.5544V43.8279C150.128 43.8279 149.979 43.8279 149.979 43.6787C149.658 44.1014 149.212 44.3998 148.89 44.8225C148.593 44.6733 148.42 44.9717 148.271 44.9717C147.974 44.9717 148.271 45.3944 147.974 45.3944C147.677 45.3944 147.355 45.5436 147.207 45.6679C146.885 45.8171 145.845 45.5187 145.548 45.8171L145.399 45.6679C145.251 45.8171 145.077 45.9414 144.78 45.9414C144.78 45.7922 144.78 45.6679 144.632 45.6679C144.483 46.0906 143.79 46.389 143.394 46.2398C143.27 45.9663 143.32 45.7425 142.973 45.6182C142.849 44.723 142.849 43.9522 142.379 43.1814C142.503 43.1814 142.503 43.0571 142.503 42.9328C142.379 42.5349 142.156 42.162 142.156 41.789C141.809 41.2668 141.686 40.5209 141.215 40.123C141.339 39.9987 140.968 39.8744 141.092 39.7252C140.869 39.4765 140.745 39.3522 140.497 39.0787C140.275 39.0787 140.275 39.203 140.151 39.3274C140.027 39.9738 139.433 40.4711 139.334 41.1176L139.21 40.9933C139.086 41.3663 138.74 41.6398 138.74 42.0128C138.517 42.1371 138.393 42.5101 138.17 42.6344V42.883C137.353 43.6538 136.908 44.8971 135.917 45.4193C135.67 45.9414 135.051 46.0657 134.803 46.6625C134.432 46.6625 133.862 46.8117 133.392 46.9609C133.095 46.8117 132.625 46.5133 132.327 46.8117C132.327 46.6625 132.179 46.6625 132.03 46.6625L131.882 46.8117C131.585 46.5133 131.114 46.8117 130.644 46.6625C129.728 45.9165 128.639 45.6182 127.574 45.0214C127.252 45.0214 127.574 44.5738 127.252 44.5738C127.104 44.5738 126.955 44.5738 126.807 44.4247C126.807 43.9771 126.955 43.6787 126.509 43.3803L126.658 43.2311C126.658 43.082 126.509 43.082 126.361 43.082C126.212 42.1868 125.742 41.4409 125.593 40.5457C125.478 40.4463 125.379 40.3468 125.296 40.2474C125.296 39.7998 125.148 39.3522 124.975 39.0538C124.826 38.4571 125.346 37.9598 125.049 37.3879C125.049 37.2636 125.049 37.1144 125.197 36.9652C125.049 36.2441 125.197 35.8214 125.346 35.1252C125.197 35.1252 125.197 35.0009 125.197 34.8517C125.494 34.2798 125.494 33.7079 125.494 33.1609C125.643 32.7382 125.94 32.3155 126.064 31.8928L125.915 31.7436C126.212 31.4701 126.064 31.0225 126.509 30.749C126.509 30.5998 126.509 30.4755 126.361 30.4755C126.361 30.1771 126.658 30.0528 126.807 29.9036C126.955 29.6301 127.525 28.5111 127.871 28.2874L127.772 28.1133C128.02 27.7403 128.688 27.5911 129.208 27.5414C129.604 27.4917 130.347 27.8895 130.57 28.0138C130.743 28.3371 130.57 28.6106 130.792 29.0333H131.015V29.3068C131.015 29.456 131.114 29.456 131.238 29.456C131.337 29.8787 131.56 30.3014 131.461 30.7241C131.461 30.8733 131.585 30.8733 131.684 30.8733C131.585 31.1468 131.907 31.4452 131.907 31.7187C131.684 31.9922 131.907 32.4398 131.783 32.8625C132.105 33.5587 132.006 34.429 132.327 35.1252C132.327 35.6971 132.55 36.269 132.773 36.6917L132.699 36.816Z" fill="#231815"/>
<path d="M76.0047 42.0625C76.0047 42.0625 76.5741 42.4355 76.7227 42.709C76.8712 42.9825 77.1683 43.3306 77.3911 43.4052C77.6882 43.5295 77.9853 43.7036 77.9853 43.7036L78.1834 44.1014L78.6537 44.549C79.1489 44.6982 79.2727 44.3998 79.644 44.9468C79.8173 44.9468 79.9906 44.9468 79.9906 45.096L80.1639 44.9468C80.3372 45.2452 80.6591 45.3944 80.8324 45.5436C81.3275 45.5436 81.7732 45.7425 82.1198 46.016C82.2931 46.016 82.3178 46.3641 82.3178 46.2149C82.8377 46.3641 83.1843 46.7122 83.5309 46.389C83.7042 46.389 83.8775 46.389 83.8775 46.5382L84.0508 46.389C84.3974 46.2398 84.4717 46.6376 84.7935 46.4884C84.9668 46.4884 84.9668 46.6376 84.9668 46.7868H85.2887C85.6353 47.0852 87.0712 46.6874 87.3931 46.9857C89.2994 47.2344 92.4188 46.7868 92.4188 46.7868C92.4188 46.4884 92.9139 46.7868 92.9139 46.5133L93.0625 46.6625C93.7062 46.8365 94.3746 46.1155 95.0183 46.4138C95.1338 46.331 95.2493 46.2398 95.3649 46.1403C95.6867 46.016 96.1571 46.6128 96.5037 46.1901C96.5037 46.3392 96.6523 46.3392 96.8256 46.3392C96.8256 46.2398 96.8256 46.1403 96.8256 46.0409C97.3207 45.7674 97.9396 45.842 98.311 45.4441C98.4843 45.4441 98.7814 45.4938 98.9547 45.5187C99.0702 45.4358 99.1858 45.3529 99.3013 45.2701C100.143 45.0711 100.861 44.3998 101.827 44.2009C101.975 44.0517 102.297 44.0019 102.445 43.7036C102.594 43.7036 102.767 43.6787 102.941 43.6538C103.089 43.5047 103.238 43.3306 103.386 43.1814C103.881 43.2809 104.327 42.5847 104.797 42.5349C104.797 42.4106 104.748 42.2365 104.896 42.2365L105.07 42.3609C105.268 42.2283 105.4 42.0625 105.466 41.8636C105.961 41.9382 106.233 41.3165 106.506 40.9684C106.605 40.9684 106.712 40.9519 106.827 40.9187C106.943 40.8856 107.034 40.7778 107.1 40.5955C107.166 40.4131 107.273 40.3965 107.422 40.5457C107.843 40.1976 108.09 39.7003 108.709 39.4765C108.709 39.3274 108.66 39.203 108.808 39.1533C109.155 39.2528 109.08 38.8301 109.204 38.656C109.353 38.5565 109.774 38.2582 109.873 38.3825C109.873 38.6311 110.294 37.7609 110.269 38.0095C110.393 38.1587 110.937 36.6917 111.061 36.5922L109.724 33.0614C109.229 33.7576 107.471 36.0701 106.53 36.2938C106.53 37.0398 105.713 37.0647 105.169 37.4874C105.194 37.6117 105.243 37.7609 105.07 37.8106C104.599 37.9101 104.401 38.4571 104.079 38.5068C104.055 38.3576 103.881 38.4074 103.733 38.4322C103.609 38.6063 103.287 38.6809 103.213 39.0041C102.743 39.1036 102.594 39.576 102.322 39.8993L102.148 39.7998C101.579 40.322 100.762 40.2722 100.366 40.9187C99.4498 41.3414 98.6824 41.4906 97.7168 41.8636C97.5683 41.8636 97.395 41.8636 97.395 41.7393C97.2464 42.0376 96.6027 41.789 96.4542 42.0874C95.4887 42.162 94.6717 42.0625 93.7061 42.2614C93.7061 41.9879 93.211 42.2863 93.211 42.0128C92.4188 42.3609 91.6018 41.9133 90.8096 41.9133C90.6363 41.7641 90.3144 41.7641 90.1659 41.4906C89.3489 41.6398 88.8785 41.4906 88.3833 41.0679C87.8882 41.0679 87.5664 40.6203 87.096 40.496V40.2225C86.9969 40.123 86.8897 40.0236 86.7741 39.9241C86.7741 39.5014 87.2693 39.5014 87.5911 39.3522C87.913 38.9295 88.7795 39.029 89.1013 38.5814C89.1013 38.4322 89.5469 38.1587 89.5469 38.0095C89.6955 37.7111 89.8193 37.4376 89.9678 37.4376C90.463 37.1393 90.1411 36.816 90.7848 36.6668C90.7848 36.5176 91.3047 36.1695 91.1314 36.0203C91.7751 35.5976 91.7751 35.349 91.9236 34.4787C92.2455 34.056 92.7159 33.5836 92.7159 33.0117C92.8644 32.8625 92.6663 32.2409 93.0129 32.0917C93.1615 31.0971 92.7654 30.5501 92.7654 29.5306C92.6498 29.4311 92.5426 29.3317 92.4435 29.2322C92.4435 28.7847 92.1217 28.5111 92.295 28.0884C91.8246 27.6409 91.9236 27.5165 91.4532 27.0938L91.1809 26.7955H90.8591C90.6858 26.4971 90.2154 26.3728 90.2154 26.0744C89.5717 25.9252 88.928 25.5025 88.2843 25.2041L88.111 25.3533L87.9377 25.2041C87.8387 25.3036 87.7314 25.403 87.6159 25.5025C87.6159 25.0549 87.1455 25.5025 86.9722 25.2041C86.6503 25.2041 86.3285 25.0549 86.0066 25.3533C85.0411 25.0549 83.9765 25.5771 83.011 25.1295C83.011 25.4279 82.3673 24.9803 82.3673 25.4279C82.0455 25.5771 81.5751 25.5522 81.4266 25.7014H80.9314C80.4363 26.1241 80.0401 26.6463 79.0746 26.6463C78.7528 26.6463 79.0746 27.069 78.7528 27.069H78.4309C77.6139 27.7901 76.9703 28.6603 76.0047 29.2322C76.0047 29.3814 75.6829 29.5306 75.8314 29.8041C75.8314 29.9533 75.6581 29.9533 75.5096 29.9533C75.5096 30.2268 75.361 30.376 75.1877 30.5252C75.1877 30.6744 75.1877 30.8236 75.361 30.8236C75.361 30.9728 75.1135 31.3457 74.9649 31.3457C74.8164 31.9176 74.8164 32.5144 74.3212 32.7879C74.3212 33.9317 73.9746 34.5036 73.9004 35.7717C74.0241 36.443 74.0737 37.4625 74.0737 38.0592C74.5688 38.3576 73.9499 38.3576 74.2965 38.8052C74.4698 38.8052 74.3707 39.0538 74.3707 39.2279C74.544 39.5263 75.0887 39.7501 74.8906 40.0484C74.8906 40.1976 75.163 40.3468 75.3363 40.3468C75.5096 40.6452 75.0887 40.9684 75.4353 41.1176C75.4353 41.2668 75.98 41.1425 75.8067 41.4409L76.1038 42.0874L76.0047 42.0625ZM86.5513 32.6884C86.2295 32.8376 86.5513 33.136 86.2295 33.3101L86.4028 33.4592C86.279 34.7025 85.5115 36.3684 83.7785 37.5868C83.63 37.5868 83.4566 37.5868 83.4566 37.4376C83.4566 37.1393 83.1348 36.6668 83.3081 36.3684C83.3081 36.2192 83.1348 36.2192 82.9863 36.2192C83.3081 35.9209 82.7635 35.5976 82.9368 35.1501C82.7635 35.1501 82.7635 35.0009 82.7635 34.8517C83.2586 34.5533 82.8625 33.7576 83.3576 33.4592L83.1843 33.3101C83.3576 33.0117 83.6052 32.5393 83.927 32.216V31.9176C84.5955 31.3209 85.4372 31.0474 86.2542 30.749C86.4275 30.749 86.5761 30.749 86.5761 30.8982C87.0712 31.5198 86.7494 32.1165 86.5761 32.7382L86.5513 32.6884Z" fill="#231815"/>
<path d="M114.651 31.296C114.651 31.4949 114.7 31.6938 114.7 31.8928C115.814 32.962 115.592 34.802 116.334 36.1198C115.988 36.5674 116.235 37.1392 116.087 37.562C116.235 37.678 116.384 37.794 116.532 37.9101C116.235 38.9544 116.928 39.8744 116.829 40.8938C116.714 41.043 116.598 41.1922 116.483 41.3414C116.483 41.5403 116.532 41.7393 116.73 41.7144L116.557 41.9382L116.78 42.1122L116.607 42.336C116.805 42.3111 116.829 42.5101 116.854 42.709C116.508 43.1565 117.151 43.6787 116.607 44.1511C116.829 44.3252 116.829 44.5241 116.854 44.723C116.31 45.1955 116.631 46.0409 116.26 46.6625L116.458 46.8614L116.26 47.0852L116.062 46.8863C115.864 46.8863 115.864 47.1101 115.889 47.2841C116.087 47.682 116.508 48.0549 116.111 48.4776L116.31 48.6517C115.715 49.0744 115.542 49.5965 115.369 50.1684C115.253 50.3011 115.129 50.4337 114.997 50.5663C115.195 50.7403 115.195 50.9392 115.195 51.1382C114.849 51.536 114.651 51.9338 114.304 52.3317C114.304 52.5306 114.502 52.9036 114.131 53.1025L114.329 53.2765C114.156 53.6744 113.982 54.2463 113.809 54.6441C113.982 54.6441 114.007 54.8182 114.007 55.0171C113.462 55.4398 112.843 55.8625 113.042 56.6333C112.695 57.2301 112.225 57.429 111.878 58.0257C112.076 58.3987 111.234 58.5728 111.234 58.9457C111.234 59.3187 110.69 59.1695 110.888 59.5425L111.086 59.7165C110.97 59.7165 110.846 59.7165 110.714 59.7165C110.582 59.9818 110.401 60.1807 110.17 60.3133C110.17 60.5122 110.17 60.7111 109.996 60.7111C109.675 60.9598 109.501 61.2582 109.155 61.656C109.353 61.8301 108.56 62.2279 108.734 62.2528C108.536 62.4268 108.338 62.6257 108.288 62.9987C108.115 62.9987 107.917 62.9987 107.892 63.1728V63.4214C107.768 63.5457 107.744 63.5457 107.471 63.6203C106.035 65.2863 103.931 65.9328 102.47 67.5738C102.074 67.7479 101.703 67.922 101.307 68.096C100.911 68.2701 101.059 68.8419 100.712 68.6182C100.712 68.4192 100.217 68.7922 100.044 68.7674C99.6231 69.1403 99.029 68.8668 98.6576 68.8419C98.6576 68.643 98.4595 68.6928 98.2862 68.4938L98.0882 68.6679C97.9149 68.469 97.5188 68.0711 97.3207 68.0711C97.1474 67.8722 97.5188 67.6733 97.3207 67.6733L97.5188 67.4992C97.5188 67.3003 97.2217 67.2755 97.0484 67.2506C96.7265 66.8528 97.4197 67.1511 97.2712 66.7533L96.5532 66.7036C96.3799 66.3306 96.0333 66.3057 95.8848 65.9328C95.9095 65.5598 96.7265 65.5598 96.7513 65.1868C97.1226 65.1868 96.9989 65.162 97.395 64.963L97.2464 64.6895C97.6426 64.5155 97.5683 64.1922 97.7663 64.1922C97.7663 64.3911 97.9149 64.1674 98.0882 64.1922C98.2862 64.1922 98.4595 64.1922 98.4843 64.0182C98.4843 63.8192 98.5091 63.6452 98.7071 63.4463C98.8226 63.4463 98.9464 63.4463 99.0785 63.4463C99.8707 62.7252 99.3756 63.1976 100.193 62.2776C100.193 62.145 100.201 62.0207 100.217 61.9047C100.415 61.7306 100.44 61.3576 100.836 61.1836C100.836 61.3825 100.787 61.5565 100.985 61.5814C101.579 61.2333 101.208 61.0095 101.059 60.6365C101.191 60.5039 101.323 60.3879 101.455 60.2884C101.455 60.4874 101.752 60.3382 101.579 60.3133C101.579 60.5122 101.777 59.8657 101.95 59.8906C102.396 59.1944 102.074 60.0149 102.743 58.722C102.891 58.5728 103.238 58.4484 103.262 58.349C103.213 58.349 103.683 58.1501 103.535 57.9511C103.51 57.8019 103.584 57.7274 103.188 57.9014C103.411 57.5284 104.055 56.9565 104.079 56.5836C104.624 56.8074 104.178 55.9371 104.55 55.962C104.352 56.136 104.154 55.763 104.178 55.962H104.797C105.194 55.589 104.228 55.589 104.599 55.1911C104.599 54.9922 104.55 54.8928 104.352 54.9176C104.352 54.7187 104.302 54.5695 104.476 54.5695L104.674 54.7436C104.847 54.5447 104.5 53.8982 104.872 53.6992C104.872 53.5003 104.872 53.3263 104.872 53.1274C105.416 52.7295 105.169 52.7792 105.342 52.2074L105.144 52.0333C105.144 52.2322 105.54 51.8592 105.367 51.8592C105.367 51.7266 105.367 51.594 105.367 51.4614C105.738 51.2625 105.986 49.9695 105.986 49.5965C105.986 49.9944 105.565 48.7263 105.936 48.9003C106.481 48.1047 106.11 47.0355 106.184 46.0657C105.788 45.9165 106.481 45.643 106.258 45.2949C106.085 45.2949 105.887 45.3447 105.862 45.1457C105.977 44.9965 106.085 44.8556 106.184 44.723C106.184 44.549 106.159 44.3501 105.961 44.3749C105.961 44.176 105.936 43.9771 106.11 43.9771C106.085 43.7782 106.06 43.6041 105.887 43.629C106.002 43.4798 106.11 43.3389 106.209 43.2063C106.209 43.0074 106.01 43.0322 105.812 43.082C105.911 42.2863 105.144 41.7144 105.416 40.9187C105.243 40.9187 105.218 40.7447 105.194 40.5457C105.689 39.8992 105.02 39.1284 105.317 38.5068C104.946 38.3576 105.07 37.9598 105.045 37.562C105.218 37.363 104.748 37.1641 104.723 36.9652C104.253 36.0452 104.401 35.3241 104.104 34.3792C103.733 34.7025 103.485 31.7187 103.163 30.5501C102.693 29.8041 103.015 28.9587 102.718 28.1879C102.916 28.1879 103.114 28.1382 103.089 27.9392C102.842 27.3674 103.411 27.0938 103.535 26.4722C103.931 26.4225 104.302 26.1738 104.748 26.522C105.119 26.2733 104.896 25.9003 104.872 25.7014C105.664 25.602 106.258 25.5274 107.05 25.4279C107.05 25.6268 107.075 25.8257 107.298 25.8009C107.892 25.7263 108.14 26.0992 108.709 26.0247C108.709 26.2236 108.759 26.4225 108.957 26.3976C109.353 26.3479 109.576 26.522 109.774 26.696C109.972 26.696 110.17 26.6463 110.145 26.4474L110.368 26.6214L110.541 26.3976C110.764 26.5717 110.962 26.5468 111.16 26.522C111.383 26.696 111.432 27.2928 111.828 27.0441C112.769 28.536 113.908 29.8041 114.651 31.3209V31.296Z" fill="#231815"/>
<path d="M27.53 34.8517C27.4558 34.5284 27.0101 34.429 26.8121 34.429C26.614 34.429 26.2674 34.8268 26.0694 34.5036C26.0694 34.5036 25.7475 35.0257 25.3762 35.2744C25.1286 35.4484 24.7325 35.4236 24.7325 35.4236C24.6335 35.9209 24.5839 35.9706 25.0048 37.1144C25.2029 37.1393 25.4009 38.2333 25.599 38.283C25.5 37.8603 26.1684 39.1782 26.3665 39.3771C26.449 39.3937 26.5398 39.4185 26.6388 39.4517C26.7626 39.4765 26.7131 39.6009 26.6388 39.7252L27.233 40.1479C27.2825 40.2971 27.431 40.3468 27.2825 40.5955C27.7281 40.6203 28.0252 40.8938 28.3966 41.0679C28.5203 41.1176 28.4461 41.242 28.3966 41.3414C28.5203 41.3911 28.6441 41.4409 28.7184 41.3414C29.0402 41.3414 28.8174 41.6647 28.8669 41.8387L29.065 41.789C29.1145 41.963 29.3621 42.0625 29.3621 42.0625C29.7582 42.6592 31.6893 43.4052 32.1597 43.9522L32.3577 43.8528C32.5063 44.176 33.348 44.2257 33.348 44.6236L33.5213 44.5241C33.6203 44.6733 34.8829 44.922 35.2295 45.096C35.4029 44.9965 35.1553 44.7976 35.3533 44.6982C35.5514 44.8722 35.997 45.2701 36.1951 45.469C36.1951 45.469 36.7397 45.5187 37.1359 45.5933C37.631 46.1155 38.646 45.7922 39.2402 46.0657C39.3145 46.2149 39.4383 46.2647 39.5621 46.2895L39.7601 46.1901L39.8344 46.3392C40.2058 46.1403 40.4038 46.3393 40.6761 46.1155L40.7504 46.2647L40.9485 46.1652C40.998 46.2647 41.0475 46.3724 41.097 46.4884C41.6169 46.6128 42.0873 46.8614 42.6567 46.563C42.731 46.7122 42.8548 46.7371 43.0033 46.7868C43.1354 46.7205 43.2591 46.6542 43.3747 46.5879C43.7708 46.6625 43.8451 46.8365 44.2907 46.7868L44.365 46.936C44.9344 46.6376 45.3305 46.7371 45.8504 46.8614C45.9742 46.6128 46.2465 46.9609 46.3703 46.7122L46.4446 46.8614C46.8902 46.5382 47.5587 46.7122 48.0043 46.6874L48.0786 46.8365C48.2766 46.7371 48.2023 46.8365 48.2023 46.8365C48.5737 46.6625 49.5145 46.6376 49.7621 46.4387C50.282 46.563 50.2572 46.6625 50.9752 46.5879C51.1237 46.6128 51.4208 46.6874 51.5446 46.7371C52.1387 46.3393 52.6339 46.3641 53.129 46.6376C53.6985 46.5382 54.6392 46.0657 55.1344 45.8171C55.2829 45.8668 55.4315 45.8917 55.58 45.9414C55.8028 45.8668 55.9514 45.9165 56.0999 45.6679C56.7436 45.4441 57.214 45.2203 57.8082 44.8225C57.8824 44.9965 58.229 44.6733 58.3033 44.8225C58.3033 44.8225 58.3528 44.7396 58.4518 44.5738C58.7489 44.6733 58.947 44.3003 59.2441 44.3998C59.2441 44.3998 59.2936 44.3252 59.3926 44.176C59.8382 44.0268 59.6649 43.9025 60.0858 43.7533C60.4572 43.5047 60.9771 42.6344 61.8436 42.2365C61.8436 41.963 62.3882 41.8138 62.512 41.5652C62.5615 41.4409 62.7348 41.4657 62.8586 41.4906L62.7844 41.3414C62.9824 41.242 62.9329 40.8441 63.131 41.0182C63.1805 40.8938 63.428 40.5706 63.3043 40.5457C63.7251 40.2225 63.7251 39.1533 64.3193 39.029C64.3523 38.9461 64.3853 38.8632 64.4183 38.7803C64.6659 38.4571 64.5669 37.8355 64.7154 37.7609C64.7649 37.6365 64.7154 37.562 64.8145 37.5868C64.963 37.0895 65.0868 36.3436 65.2353 35.6971C65.1115 35.6722 65.1611 35.5479 65.2353 35.4236C65.3591 35.4484 65.4086 35.3241 65.4581 35.1998C65.3344 35.1749 65.3839 35.0506 65.4581 34.9263L65.6314 34.8268C65.3839 34.7771 65.6562 34.429 65.4086 34.3792L65.5819 34.2798C65.3591 33.683 65.681 33.0614 65.4581 32.4647L65.6314 32.3652C65.3344 32.0171 65.3839 31.669 65.6314 31.3209C65.5324 31.1717 65.5819 31.0474 65.6314 30.8982C65.2848 30.6993 65.7057 30.4755 65.4829 30.2765C65.6067 29.9036 65.1858 29.5306 65.4334 29.1825C65.2601 28.8592 65.2353 28.7349 65.062 28.4365C65.0868 28.3122 65.1363 28.163 65.1611 28.0387C65.0373 28.0138 64.9135 27.989 64.9382 27.8647C65.1363 27.6409 64.9382 27.442 64.9878 27.1933C64.7402 27.1436 64.864 26.9198 64.7897 26.7706C64.7154 26.0744 64.5174 25.5522 64.1212 24.9555C64.2945 24.7068 63.9479 23.6874 63.9479 23.3641L63.7004 23.2398C63.6013 22.9165 63.4776 22.7425 63.23 22.5684C63.23 22.469 63.23 22.3612 63.23 22.2452C63.1062 22.2452 62.9824 22.2452 62.9824 22.0711C62.9824 21.9717 62.9824 21.8639 62.9824 21.7479L62.8339 21.8971C62.5863 21.723 62.4873 21.3998 62.512 21.0765C62.0416 20.4052 61.8683 19.9328 61.1999 18.9879C60.9276 19.1371 61.1999 18.4906 60.8781 18.6398C60.5315 17.8192 60.2839 17.6203 59.764 17.123C59.764 17.0236 59.7722 16.9158 59.7887 16.7998C59.8052 16.6838 59.7062 16.6838 59.4916 16.7998C59.3431 16.7998 59.3679 16.6257 59.3679 16.4765C58.5261 15.9544 55.58 15.5565 55.1344 14.736C54.8868 14.736 54.6145 14.562 54.4659 14.8852C54.3834 14.7692 54.3091 14.6614 54.2431 14.562C53.5499 15.0344 52.9805 14.189 52.3368 14.0149L52.1883 14.1641C51.9654 13.6668 51.5446 14.1641 51.2722 14.1641C51.1732 13.9901 51.0247 13.9901 50.9009 13.9901C50.2324 14.2884 49.5887 13.9403 49.0193 14.736L48.8955 14.562L50.381 17.322C50.3562 17.4711 50.7523 19.1868 51.1485 20.0571C51.2722 20.0571 51.4455 20.4052 51.5446 20.5793C51.5281 20.6787 51.5033 20.7782 51.4703 20.8776C51.6684 21.2257 51.8664 21.5987 52.0645 21.9468C51.9407 21.922 51.8912 22.0711 51.8664 22.2203C52.015 22.7176 52.015 23.2647 52.1635 23.762C52.3616 23.936 52.1387 24.0603 52.3616 24.2841C52.3616 24.2841 52.213 24.6074 52.2625 24.6074C52.1635 24.856 52.3368 25.1544 52.3368 25.1544C52.4111 25.7014 52.3863 25.2787 52.7577 25.6517C52.4111 26.0744 53.0053 26.7706 52.6339 27.1933C52.8319 27.3922 52.8319 27.1187 52.8815 27.2679C52.8815 27.2679 52.8402 27.3425 52.7577 27.4917C52.7577 27.4917 52.8072 27.6409 52.931 27.6906C53.0548 27.989 52.8319 28.1879 53.0052 28.4863C53.129 28.5111 53.0052 28.909 53.129 28.9338C53.1786 29.2074 53.5252 29.3068 53.1786 29.4809C53.0548 29.456 53.129 30.003 53.0052 30.376C53.0795 30.5252 53.0052 31.1717 52.9557 31.296C53.0795 31.3209 53.1786 31.1717 53.129 31.296C53.096 31.3789 53.063 31.4618 53.03 31.5447C53.1538 31.5695 53.1538 31.7933 53.1043 31.9176C53.1043 32.3155 52.8567 32.5144 52.7082 32.8874C52.5596 33.683 52.9805 34.3544 52.4358 34.6279C52.6339 34.802 52.3863 35.0257 52.3368 35.1501C52.1635 35.2247 52.213 35.6225 52.0397 35.722C51.8417 36.2192 51.7426 36.1944 51.5446 36.6668C51.2227 36.8657 51.1485 37.0647 50.8266 37.2636C50.8266 37.2636 50.7936 37.3465 50.7276 37.5122C50.7276 37.5122 50.5543 37.6117 50.4553 37.5868C50.2324 37.8106 49.4897 38.1587 49.3907 38.3825L49.465 38.5317C49.0193 38.7057 48.8955 38.7555 48.4004 39.0538C47.9053 39.3522 47.5339 39.3522 47.0388 39.6009C46.5931 39.4765 46.2218 39.7998 45.7761 39.6755C45.6028 39.7749 45.4295 39.8495 45.2562 39.949C45.0334 39.8992 44.6868 40.0733 44.5383 39.8744C44.3155 39.8247 44.365 40.2225 44.1422 40.1728C44.1422 40.1728 44.0679 40.1479 43.9193 40.0982L43.8698 39.949C43.5232 40.123 43.2509 39.9241 42.9043 40.0733L42.8548 39.9241C42.5082 40.0982 42.2358 39.9241 42.013 40.123C41.7159 39.9241 41.097 39.9241 40.6019 39.949C40.6514 39.8247 40.5276 39.7998 40.4286 39.7749L40.2553 39.8744C40.3048 39.7501 39.2897 39.8247 39.1907 39.7998L38.9679 39.7501L38.8936 39.6009L38.7451 39.7003C38.5718 39.5263 37.3587 39.4268 37.0616 39.1036C36.8388 39.3274 36.616 39.2279 36.3436 39.1782C35.2543 39.1036 33.9422 38.6311 33.8184 38.6063L33.7441 38.4571C33.3728 38.656 32.7538 38.4571 32.5805 38.1338C32.4567 38.109 32.2587 38.0841 32.1349 38.0344C31.9864 37.7111 31.1446 37.7857 31.0456 37.4625C31.0456 37.4625 30.6247 37.1641 30.4266 36.9403C30.1543 37.1144 29.4364 36.269 29.3126 36.2192H28.8422L28.6689 35.6971L28.05 35.2247C27.8024 34.7522 27.53 35.1252 27.4558 34.7274L27.53 34.8517Z" fill="#231815"/>
<path d="M37.4329 16.4517C37.6062 16.4517 37.7795 16.4517 37.9528 16.4765C38.7946 17.322 40.4286 17.0733 41.5179 17.6452C41.9635 17.322 42.4339 17.5209 42.83 17.3717C42.9125 17.4877 43.0033 17.6038 43.1024 17.7198C44.0679 17.4463 44.563 17.9187 45.479 17.8441C45.6276 17.7447 45.7761 17.6452 45.9247 17.5457C46.098 17.5457 46.2713 17.5955 46.2218 17.7447L46.4446 17.5955L46.5684 17.7695L46.7912 17.6203C46.7417 17.7695 46.915 17.7944 47.0883 17.8193C47.5339 17.5457 47.8062 17.9187 48.3014 17.496C48.4252 17.6701 48.5737 17.7198 48.747 17.7447C49.2421 17.322 49.4402 17.7447 50.0591 17.5706L50.1582 17.7695L50.381 17.6452L50.282 17.4463C50.3315 17.2971 50.5048 17.322 50.6781 17.3717C50.9504 17.5955 51.1485 17.9436 51.6188 17.7447L51.7179 17.9436C52.015 17.7447 49.7373 17.6452 53.2776 17.5209L53.7232 17.322C53.8222 17.5209 53.9708 17.5457 54.1193 17.5955C54.565 17.3965 54.9363 17.322 55.4067 17.123C55.5552 17.1728 55.8028 17.3965 56.0999 17.1479L56.1989 17.322C56.595 17.2722 57.115 17.2474 57.5111 17.1976C57.4616 17.3468 57.2635 16.9987 57.412 17.0733C57.9567 16.7998 58.5509 16.4765 59.046 16.8744C59.6402 16.7998 59.9125 16.5014 60.5314 16.4517C60.7295 16.7501 61.2247 16.1782 61.497 16.3274C61.7941 16.4765 61.7941 16.0787 61.9921 16.3522L62.0416 16.5511C62.0416 16.5511 62.1407 16.4268 62.2149 16.3025C62.4625 16.3191 62.6936 16.2693 62.9081 16.1533C63.0567 16.2279 63.1805 16.3274 63.2795 16.1782C63.6013 16.0538 63.8984 16.0538 64.3688 15.9544C64.4183 16.1782 64.7402 15.8549 64.6659 15.9792C64.8887 15.9295 65.1115 15.8798 65.4086 16.0538C65.4829 15.9295 65.5819 15.8052 65.7305 15.8798L65.9038 16.0041C66.0523 16.0041 66.0771 15.9544 66.2504 15.8052C68.1319 15.6311 69.1965 14.7111 71.0533 14.7111C71.3751 14.562 71.7217 14.4128 72.0436 14.2636C72.3654 14.1144 72.6625 14.5122 72.7368 14.189C72.613 14.0895 73.1329 13.9652 73.2319 13.8409C73.7023 13.7911 73.9746 12.9955 74.1727 12.722C74.0241 12.6225 74.1727 12.523 74.1479 12.2993L74.3707 12.2495C74.3212 12.0257 74.2965 11.1306 74.3707 11.0063C74.3212 10.7825 73.9994 10.9317 74.0984 10.8074L74.0241 10.6582C73.9004 10.5587 74.0737 10.3349 74.1479 10.2106C74.0489 9.76303 73.6528 10.2603 73.4795 9.96195L73.8261 9.43979C73.6775 9.14141 72.9596 8.94249 72.712 8.76844C72.514 9.01709 72.5387 8.91763 72.2169 9.09168L72.1178 8.84303C71.796 9.01709 71.5979 8.7933 71.5237 8.94249C71.6475 9.01709 71.4246 9.01709 71.3504 9.14141C71.2513 9.26574 71.1523 9.39006 71.0285 9.31547C70.9047 9.21601 70.7562 9.14141 70.5334 9.16628C70.4674 9.24916 70.4096 9.33204 70.3601 9.41493C69.4441 9.56411 67.3892 9.61384 67.1911 9.34033C67.0426 9.37348 66.8941 9.40664 66.7455 9.43979C66.8941 9.51439 66.6217 9.68844 66.7208 9.53925C66.8693 9.61384 66.2999 9.46465 66.2256 9.61384C65.5077 9.61384 63.8984 9.76303 64.2203 9.58898C63.8489 9.58898 63.131 9.76303 62.8586 9.61384C62.7596 10.0863 62.2397 9.34033 62.0912 9.61384C62.314 9.56411 61.7941 9.51438 61.9426 9.61384V9.81276C61.497 9.96195 61.4722 9.51439 61.0266 9.68844C60.8781 9.61384 60.8038 9.53925 60.8781 9.41493C60.7295 9.3652 60.6305 9.26574 60.5562 9.41493L60.6305 9.61384C60.4077 9.68844 60.0115 9.24087 59.7145 9.43979C59.5659 9.39006 59.4174 9.31547 59.2688 9.26574C58.7489 9.56411 58.1795 9.53925 57.6348 9.58898L57.5358 9.41493C57.6844 9.43979 57.2635 9.7133 57.3378 9.56411C57.2387 9.53096 57.1315 9.5061 57.0159 9.48952C56.7436 9.76303 55.6048 9.73817 55.2829 9.66357C55.6048 9.73817 54.6392 9.11655 54.6887 9.43979C53.8718 9.76303 52.9557 9.2906 52.0892 9.26574C52.0397 8.94249 51.6684 9.48952 51.396 9.26574C51.4455 9.11655 51.4951 8.96736 51.3465 8.94249C51.1237 9.06682 50.9752 9.01709 50.7523 9.14141C50.6038 9.14141 50.4305 9.09168 50.48 8.94249C50.3067 8.94249 50.1582 8.89276 50.1087 9.04195C49.9354 9.04195 49.7868 8.99222 49.8363 8.84303C49.6383 8.96736 49.4154 9.14141 49.1926 9.26574C49.0193 9.26574 49.0688 9.09168 49.1184 8.94249C48.4004 9.04195 48.0043 8.39547 47.2616 8.64412C47.3111 8.49493 47.1378 8.49493 46.9645 8.47006C46.3456 8.89276 45.4543 8.4452 44.8849 8.71871C44.7858 8.42033 44.4145 8.56952 44.0926 8.56952C43.8946 8.71871 43.7708 8.34574 43.5975 8.34574C42.83 8.02249 42.1863 8.19655 41.3446 7.99763C41.6664 7.67439 39.0422 7.67439 38.0271 7.47547C37.4082 7.12736 36.6407 7.47547 35.9723 7.27655C35.9228 7.4506 35.898 7.59979 35.7247 7.59979C35.2296 7.42574 34.9572 7.92303 34.3878 8.07222C34.3135 8.39547 33.9669 8.54466 34.066 8.84303C33.8184 9.16628 33.7936 9.21601 33.6203 9.21601C33.4718 9.86249 33.3728 9.81276 33.1995 10.4592C33.3728 10.4592 33.5461 10.4592 33.4965 10.6333C33.3728 11.1057 33.6698 11.3047 33.5461 11.802C33.7194 11.802 33.8927 11.802 33.8431 11.976C33.7689 12.2992 33.8927 12.4733 34.0164 12.6474C33.9669 12.8214 33.9422 12.9706 33.7689 12.9706L33.8927 13.1447L33.6698 13.2938C33.7936 13.4679 33.7689 13.6171 33.7194 13.7911C33.8431 13.9652 34.363 13.9901 34.1155 14.3133C35.3286 15.0344 36.3436 15.9047 37.6062 16.4517H37.4329Z" fill="#231815"/>
<path d="M212.269 36.1198C212.64 35.6225 221.726 23.8614 221.726 23.8614L217.641 17.9187C217.641 17.9187 213.506 18.7393 211.848 18.7393C209.496 18.7393 197.513 18.3414 197.513 18.3414L198.504 23.563C198.504 23.563 210.461 22.8668 212.863 22.6928C208.852 30.4009 195.508 50.442 195.508 50.442L199.197 51.909C199.197 51.909 203.455 47.0852 209.867 39.203C211.872 41.6398 216.155 47.1101 218.037 51.1133L218.26 51.5857L222.642 44.9965L222.469 44.8225C222.196 44.549 215.982 38.5317 212.269 36.0949V36.1198Z" fill="#727171"/>
<path d="M225.167 32.2657C221.751 32.0917 217.666 31.7933 217.666 31.7933L218.062 37.6117C218.062 37.6117 224.672 36.4182 225.291 36.3187C225.687 45.1209 225.737 62.2776 225.737 62.2776L230.886 59.7165V59.5425C230.96 57.9263 232.52 15.3079 232.52 15.3079L224.35 13.7414C224.35 13.7414 224.796 20.082 225.192 32.2657H225.167Z" fill="#727171"/>
<path d="M236.036 65.0625L241.433 62.1284L243.314 12.7717L234.476 12.1003C234.476 12.1003 235.986 56.136 236.011 65.0625H236.036Z" fill="#727171"/>
<path d="M502.275 65.0625L507.994 62.1284L509.875 12.7717L500.715 12.1003C500.715 12.1003 502.225 56.136 502.25 65.0625H502.275Z" fill="#727171"/>
<path d="M454.79 12.7717L445.63 12.1003C445.63 12.1003 447.14 56.136 447.165 65.0625L452.884 62.1284L453.874 36.3436C456.746 36.8657 462.416 37.6863 462.416 37.6863C462.614 35.896 462.837 32.1414 462.837 32.1414C462.837 32.1414 456.821 32.589 453.998 32.8128L454.766 12.7717H454.79Z" fill="#727171"/>
<path d="M258.317 36.642C258.317 36.642 271.017 30.8733 276.736 27.6906C281.762 30.5998 290.402 35.5976 293.25 37.1144L293.522 37.2636L296.592 31.122C296.592 31.122 282.381 25.6765 281.242 25.229C282.183 24.7317 292.829 19.2365 292.829 19.2365L287.134 14.189C282.406 16.2279 257.475 14.8852 257.475 14.8852L257.921 19.1868C257.921 19.1868 275.796 19.2863 277.232 19.2863C269.705 26.1241 254.059 34.6528 254.059 34.6528L258.342 36.6171L258.317 36.642Z" fill="#727171"/>
<path d="M250.246 39.5511L251.88 44.1511C251.88 44.1511 259.654 43.8528 270.819 43.7533C271.934 55.6138 272.156 58.9706 272.206 65.0376L279.46 61.7057C279.46 61.7057 280.45 48.0052 280.475 43.7036C281.044 43.7036 300.429 43.6538 300.429 43.6538L300.924 39.3771C274.013 40.5209 250.246 39.5511 250.246 39.5511Z" fill="#727171"/>
<path d="M559.613 39.576L559.514 34.802C559.514 34.802 538.866 35.8711 532.256 35.5479C532.132 34.4538 531.711 21.1014 531.786 19.4852C545.154 18.963 558.647 19.6593 558.647 19.6593L559.093 14.7609L523.244 14.9598L523.962 39.7252L559.588 39.576H559.613Z" fill="#727171"/>
<path d="M545.476 54.9922L546.021 42.4603L536.786 41.7641C536.786 41.7641 537.43 51.9587 537.752 55.042C529.557 55.042 515.693 54.5447 515.693 54.5447L516.213 59.6171C516.213 59.6171 543.644 59.0203 565.678 59.3187L565.975 54.4949C565.975 54.4949 556.889 54.8679 545.501 54.9922H545.476Z" fill="#727171"/>
<path d="M386.064 37.9349L387.302 15.0841L379.677 14.363L379.9 22.8668C377.35 22.9663 372.002 22.9165 370.121 22.8668L369.923 15.7306L362.05 15.0344L364.229 37.8852C364.229 37.8852 377.548 37.4625 386.064 37.8852V37.9349ZM370.245 26.9695C373.438 26.9198 378.068 27.0193 380.024 27.0441L380.197 33.9317L370.443 34.0809L370.245 26.9695Z" fill="#727171"/>
<path d="M396.76 20.4798C394.482 20.0322 390.694 19.336 389.753 19.2863L389.951 24.682L396.859 24.0603C396.908 25.7263 396.958 27.4917 397.007 29.3814C394.63 29.2571 391.14 29.5057 389.506 29.282L389.407 33.9317L397.106 33.0863C397.18 35.6971 397.255 38.5317 397.354 41.7393L402.8 39.4765C403.048 37.2884 404.756 20.9771 405.276 12.7717L396.438 12.1003C396.561 14.9598 396.661 17.6701 396.735 20.5047L396.76 20.4798Z" fill="#727171"/>
<path d="M381.262 59.1198L380.643 55.0668C389.407 55.2906 401.364 54.8182 401.364 54.8182L402.627 43.5295C395.249 44.1263 370.987 43.629 370.987 43.629L372.002 48.0549C375.939 48.0052 391.338 47.8809 394.606 47.856L394.309 51.6852C389.605 51.6355 377.201 51.3371 371.755 51.0636L374.181 63.1728C384.232 62.9987 403.444 62.9987 403.444 62.9987L403.89 58.3738C398.542 59.2192 387.698 59.1695 381.237 59.1447L381.262 59.1198Z" fill="#727171"/>
<path d="M441.644 23.8614L436.693 18.0928C434.935 18.3911 432.534 18.9382 430.083 18.8636C424.389 18.7144 418.175 18.5155 414.535 18.3414L415.699 23.8863C424.76 23.4884 431.667 22.8668 431.667 22.8668C429.167 27.2928 418.571 41.5652 411.936 50.2182L415.426 51.8344C418.1 49.3728 422.656 44.5241 427.335 39.4765C429.637 41.7641 434.118 46.4138 438.055 51.5111L441.644 44.3252C438.451 41.8387 433.301 38.5317 430.083 36.4928C434.811 31.3209 439.268 26.3479 441.62 23.8614H441.644Z" fill="#727171"/>
<path d="M490.441 18.5155L490.614 14.6863C485.44 14.6863 474.25 13.9155 471.403 13.8409L472.145 18.8884C472.145 18.8884 484.871 18.789 490.441 18.5155Z" fill="#727171"/>
<path d="M494.848 27.5663L489.896 22.4193C488.361 22.842 485.316 23.1652 482.816 23.1155C476.948 22.9663 471.972 22.6928 467.937 22.6679L469.15 28.2874C474.646 27.8895 484.351 26.9198 484.351 26.9198C481.206 31.9922 472.368 43.0322 465.832 50.7155L469.521 52.3565C472.64 49.6463 476.874 45.5933 480.984 41.5403C486.901 46.9857 491.505 52.3814 491.505 52.3814L495.269 45.4938C491.728 42.9825 486.975 39.9987 484.227 38.3079C490.02 32.5393 494.848 27.5414 494.848 27.5414V27.5663Z" fill="#727171"/>
<path d="M349.052 33.4592L348.854 28.9338C344.646 29.4809 327.86 29.5555 322.042 29.2322L322.092 25.4528C330.212 25.4776 339.026 25.602 348.607 26.0247V21.6484C340.66 21.9965 333.802 22.2701 322.116 21.8722V18.6149C329.123 18.8138 340.709 18.963 348.829 18.6647L348.953 14.3879C333.208 14.736 318.329 14.8106 313.649 14.0895L314.59 33.2106C319.245 33.3598 334.941 33.1111 349.052 33.4841V33.4592Z" fill="#727171"/>
<path d="M313.229 47.3338L313.971 51.536C327.959 51.1133 341.18 51.4365 341.18 51.4365C341.18 51.4365 341.798 62.0787 341.724 65.0874L348.31 61.9047L349.993 47.2592C349.993 47.2592 320.631 47.483 313.253 47.3338H313.229Z" fill="#727171"/>
<path d="M306.693 38.1587L308.327 42.7587C333.133 41.789 356.232 42.2614 356.232 42.2614L356.727 37.9847C329.816 39.1284 306.693 38.1587 306.693 38.1587Z" fill="#727171"/>
</svg>
