<svg preserveAspectRatio="none" width="100%" height="100%" overflow="visible" style="display: block;" viewBox="0 0 179 36.0018" fill="none" xmlns="http://www.w3.org/2000/svg">
<g id="Group">
<g id="Vector">
<path d="M82.3001 10.1061C80.1523 10.1061 78.3367 10.8621 76.8534 12.3683C75.37 13.8744 74.6284 15.6995 74.6284 17.8377C74.6284 19.9758 75.37 21.8009 76.8534 23.3071C78.3367 24.8132 80.1523 25.5692 82.3001 25.5692C84.4479 25.5692 86.2694 24.8132 87.7646 23.3071C89.2538 21.8009 90.0014 19.9758 90.0014 17.8377C90.0014 15.6995 89.2538 13.8744 87.7646 12.3683C86.2694 10.8621 84.4539 10.1061 82.3001 10.1061ZM85.0412 20.9976C84.2877 21.8659 83.374 22.297 82.3001 22.297C81.2262 22.297 80.3124 21.8659 79.5649 20.9976C78.8113 20.1353 78.4375 19.078 78.4375 17.8377C78.4375 16.5973 78.8113 15.5459 79.5649 14.6777C80.3184 13.8094 81.2321 13.3783 82.3001 13.3783C83.3681 13.3783 84.2877 13.8094 85.0412 14.6777C85.7948 15.5459 86.1686 16.5973 86.1686 17.8377C86.1686 19.078 85.7948 20.1294 85.0412 20.9976Z" fill="var(--fill-0, #005EAE)"/>
<path d="M95.549 9.22601C93.9292 9.22601 93.8462 10.9212 93.8462 10.9212V26.4493H97.5485V12.2738H101.642V9.22601H95.549Z" fill="var(--fill-0, #005EAE)"/>
<path d="M121.922 25.4806H118.155V33.0587C118.155 34.6711 119.858 34.7538 119.858 34.7538H138.974V31.647H121.922V25.4806Z" fill="var(--fill-0, #005EAE)"/>
<path d="M136.678 9.22601C135.058 9.22601 134.975 10.9212 134.975 10.9212V26.4493H138.713V12.3683H142.801V9.22601H136.678Z" fill="var(--fill-0, #005EAE)"/>
<path d="M122.308 10.3896C121.899 9.98204 121.477 9.86391 121.103 9.88753C120.73 9.86981 120.308 9.98204 119.899 10.3896L111.592 23.8445H116.179L121.103 16.0244L126.028 23.5197H130.614L122.308 10.3896Z" fill="var(--fill-0, #005EAE)"/>
<path d="M175.227 9.1315H179V26.3548H175.227V9.1315Z" fill="var(--fill-0, #005EAE)"/>
<path d="M163.562 10.2951C163.152 9.88753 162.731 9.77531 162.357 9.79303C161.984 9.77531 161.562 9.88753 161.153 10.2951L152.84 23.75H157.433L162.351 15.9299L167.276 23.4252H171.862L163.556 10.2951H163.562Z" fill="var(--fill-0, #005EAE)"/>
<path fill-rule="evenodd" clip-rule="evenodd" d="M32.7041 5.91838C32.7041 9.19057 30.046 11.8367 26.759 11.8426C23.4779 11.8426 20.8139 9.19647 20.808 5.92428C20.808 2.65209 23.472 0.0059904 26.7531 8.39233e-05C30.0341 8.39233e-05 32.6982 2.64619 32.6982 5.91838H32.7041Z" fill="var(--fill-0, #005EAE)"/>
<path d="M16.5538 20.3007C13.9907 17.5719 11.6411 20.3184 11.6411 20.3184L13.2787 18.3692C14.0441 17.5482 15.6698 15.1148 19.0814 15.1148C22.493 15.1148 24.3264 17.566 25.0265 18.3515C25.0265 18.3515 37.9076 32.3203 38.0915 32.533C37.1066 33.5489 35.4809 34.8601 32.9592 34.8601C29.5476 34.8601 27.7143 32.3676 27.0141 31.5761L16.5479 20.3007H16.5538Z" fill="#F29100"/>
<path d="M41.0166 24.3348C38.4593 21.606 35.9555 24.1812 35.9555 24.1812L37.599 22.362C38.3585 21.541 40.1266 19.143 43.5441 19.143C46.9617 19.143 48.6942 21.5706 49.4002 22.362C49.4002 22.362 58.7748 32.4267 58.9587 32.6393C57.9738 33.6552 56.3481 34.9664 53.8264 34.9664C50.4148 34.9664 48.6764 32.5389 47.9703 31.7474L41.0166 24.3348Z" fill="#F29100"/>
<path fill-rule="evenodd" clip-rule="evenodd" d="M56.3659 11.6004C56.3659 14.3115 54.1528 16.5028 51.4294 16.5028C48.7061 16.5028 46.5048 14.2997 46.5048 11.5886C46.5048 8.87752 48.7179 6.68622 51.4413 6.68622C54.1646 6.68622 56.3659 8.88934 56.3659 11.6004Z" fill="#008236"/>
<path d="M45.9234 24.1989C48.4865 21.4701 51.0438 24.0631 51.0438 24.0631L49.4003 22.2439C48.6408 21.4229 46.8727 19.0249 43.4551 19.0249C40.0376 19.0249 38.2932 21.3461 37.5931 22.1376L30.5622 29.7983C27.999 32.5271 25.5012 29.9518 25.5012 29.9518L27.1506 31.771C27.91 32.592 29.6782 34.9901 33.0957 34.9901C36.5133 34.9901 38.2458 32.5625 38.9518 31.771L45.9352 24.1989H45.9234Z" fill="#008236"/>
<path d="M21.6267 20.2534C24.1899 17.5246 26.6878 20.0998 26.6878 20.0998L25.0443 18.2806C24.2789 17.4596 22.5167 15.0616 19.0992 15.0616C15.6816 15.0616 13.8898 17.5069 13.1897 18.2984C13.1897 18.2984 0.184004 32.4326 7.38676e-05 32.6393C0.984992 33.6552 2.6107 34.9664 5.13233 34.9664C8.54394 34.9664 10.2824 32.5389 10.9825 31.7474L21.6267 20.2475V20.2534Z" fill="var(--fill-0, #005EAE)"/>
</g>
</g>
</svg>
