<svg preserveAspectRatio="none" width="100%" height="100%" overflow="visible" style="display: block;" viewBox="0 0 102.857 40.0001" fill="none" xmlns="http://www.w3.org/2000/svg">
<g id="Group">
<g id="Vector">
<path d="M65.2482 0.110244C65.2482 0.110244 65.1327 0.0237089 65.046 0.00928646C64.7428 -0.0484034 64.4539 0.167934 64.0062 0.514073L63.6596 0.773678C62.432 1.42269 61.4933 4.49468 61.2911 5.74943C61.2478 5.76385 61.2333 5.7927 61.1611 5.82155C60.4101 4.52352 59.0237 3.31203 57.5939 3.12454C58.1571 5.30234 60.0779 11.879 62.6342 11.3021C63.934 11.0136 66.6347 5.56194 66.6636 2.54764V2.43226C66.6491 0.84579 65.9126 0.268891 65.2482 0.0813989V0.110244Z" fill="#F08300"/>
<path d="M82.4779 33.5989C79.2718 33.7287 78.2175 33.5556 75.0691 34.594C74.6359 34.7238 74.2459 35.0267 73.8993 35.4161C73.9426 36.0795 73.5527 37.118 74.1737 37.3631C74.2026 37.3631 74.2026 37.4641 74.2315 37.5218C74.4192 37.7093 74.607 37.7237 74.7803 37.9545C74.8958 38.1275 74.9969 37.94 75.1269 38.0121C75.1847 38.0698 75.2135 38.1708 75.2713 38.1852C75.5746 38.3294 75.8634 38.2717 76.1667 38.4304C76.3256 38.5602 76.4845 38.5314 76.6289 38.5458C76.7155 38.5025 76.8455 38.7333 76.8744 38.791C77.4521 39.0361 78.0009 38.8198 78.5786 38.8054C80.3549 38.7765 80.0228 38.6035 81.7992 38.5746C83.3011 38.5458 84.7454 38.7765 86.2473 38.7621C87.0561 38.7333 87.9371 38.7621 88.7458 38.7044C90.1756 38.6179 91.6054 38.8342 93.0496 38.8631C93.7717 38.8487 94.5949 39.1227 95.317 39.1804C96.0969 39.1804 96.8334 38.9785 97.6277 39.1371C97.8732 39.1515 98.1188 39.1227 98.3787 39.2381C98.6098 39.3534 98.8697 39.4688 99.0864 39.4832C99.7796 39.5265 100.386 39.2813 101.051 39.0217C101.44 38.9063 101.845 38.8342 102.206 38.6035C102.394 38.5169 102.552 38.2285 102.625 37.94C102.812 37.4064 102.957 36.8151 102.769 36.2093C102.74 36.2093 102.639 36.2526 102.61 36.2093C102.538 36.1084 102.552 35.8632 102.466 35.8488C102.177 35.7334 101.903 35.7046 101.614 35.6469C101.238 35.5603 100.848 35.3873 100.473 35.3151C98.6964 34.8825 88.5581 33.3537 82.4779 33.6133V33.5989Z" fill="#009F73"/>
<path d="M51.4717 34.767C51.7895 34.8391 52.1649 34.8391 52.3382 35.041C52.5116 35.2141 52.1649 35.4881 52.1938 35.7045C52.1938 36.2381 52.3816 36.714 52.3816 37.2332C52.3816 37.3198 52.3527 37.4063 52.2516 37.5073C52.1649 37.6371 52.0205 37.7813 51.8617 37.8678C51.414 38.1563 50.8218 38.0409 50.3164 38.1851C49.652 38.387 48.9299 38.4592 48.2511 38.5313C47.0091 38.6611 45.8249 38.4015 44.5684 38.3582C44.0918 38.3294 43.5719 38.4015 43.1675 38.5457C42.6043 38.6899 42.0266 38.6755 41.4489 38.6611C38.4449 38.5457 35.5132 38.488 32.5237 38.5168C32.0037 38.5313 31.4261 38.6034 30.9061 38.6178C28.5087 38.7476 26.1114 38.7043 23.714 38.7764C22.8763 38.8053 22.0387 38.8197 21.201 38.8053C20.7244 38.8053 20.2623 38.8341 19.8435 38.8341C18.0671 38.9207 16.2474 39.0072 14.4566 38.9351C13.7778 38.9351 13.0412 38.9351 12.3625 38.9495C10.3839 39.0505 8.36199 39.3822 6.35453 39.2668C4.88144 39.1947 3.50944 38.8486 2.15188 38.1563C1.22758 37.6803 0.519916 37.0313 0 36.2381C0.346611 35.791 0.852085 35.6179 1.42977 35.4737C2.77289 35.1131 4.01491 34.8824 5.35803 34.6516C6.49895 34.4641 7.53879 34.3632 8.63639 34.2622C23.0063 32.9786 39.1093 33.4546 45.3916 33.8728C47.5001 34.017 49.4643 34.2911 51.5006 34.7382L51.4717 34.767Z" fill="#0073BD"/>
<path d="M77.4105 21.3544V21.513C77.5405 21.8447 77.786 21.9313 78.0459 22.162H78.8836C78.8836 22.0034 79.0713 22.162 79.0713 22.0034C79.2591 22.0034 79.5479 21.9313 79.6779 21.6717H79.8079C79.9523 21.4265 80.1545 21.2534 80.4289 21.2534C80.7755 20.8496 81.1077 20.4313 81.4543 20.0275C81.4543 19.8544 81.5265 19.6958 81.6565 19.6093C81.8587 18.8737 82.0031 18.0516 82.3497 17.3161C82.3497 17.0709 82.4797 16.7392 82.4219 16.494C82.4941 16.494 82.5519 16.494 82.5519 16.4075C82.4797 16.0757 82.6819 15.9171 82.8263 15.744C82.9707 15.744 83.1007 15.744 83.1729 15.5854V15.4267C83.5195 15.4267 83.895 15.6719 84.1694 16.0036H84.6171C84.6171 16.1767 84.7038 16.1767 84.8049 16.2488C85.1659 16.2488 85.9602 16.1623 86.3213 16.3209C86.3213 16.5661 86.6823 16.494 86.769 16.7392C86.8556 16.9844 86.8556 17.2295 87.0434 17.4747C87.0434 17.5613 87.0434 17.6334 86.9567 17.7199C87.1445 17.9651 87.3178 18.3689 87.0434 18.6141C87.13 18.9458 87.0434 19.3496 87.2167 19.6814C87.0434 19.84 87.13 20.0996 87.13 20.2583C87.3033 20.59 87.3033 20.9938 87.4044 21.4121C87.7655 21.8159 87.6788 22.3207 87.9388 22.7245V23.2149C88.1121 23.2149 87.9388 23.4601 88.1121 23.4601C88.1988 23.9504 87.9388 24.5273 87.9388 25.0177C87.8521 25.0898 87.7511 25.1763 87.6644 25.2629V25.4215C87.5777 25.4215 87.4911 25.4215 87.4911 25.335C87.3033 25.5802 87.0434 25.7532 86.8556 25.9984C86.6823 25.9119 86.5812 26.0849 86.4946 26.0849C86.3213 26.0849 86.4946 26.3301 86.3213 26.3301C86.148 26.3301 85.9602 26.4167 85.8736 26.4888C85.6858 26.5753 85.0793 26.4022 84.906 26.5753L84.8193 26.4888C84.7326 26.5753 84.6315 26.6474 84.4582 26.6474C84.4582 26.5609 84.4582 26.4888 84.3716 26.4888C84.2849 26.734 83.8806 26.907 83.6495 26.8205C83.5773 26.6618 83.6062 26.532 83.404 26.4599C83.3318 25.9407 83.3318 25.4936 83.0574 25.0465C83.1296 25.0465 83.1296 24.9744 83.1296 24.9023C83.0574 24.6715 82.9274 24.4552 82.9274 24.2389C82.7252 23.936 82.653 23.5033 82.3786 23.2726C82.4508 23.2004 82.2342 23.1283 82.3064 23.0418C82.1764 22.8976 82.1042 22.8255 81.9598 22.6668C81.8298 22.6668 81.8298 22.7389 81.7576 22.811C81.6854 23.186 81.3388 23.4745 81.281 23.8495L81.2088 23.7773C81.1366 23.9937 80.9344 24.1523 80.9344 24.3687C80.8044 24.4408 80.7322 24.6571 80.6022 24.7292V24.8735C80.1256 25.3206 79.8656 26.0417 79.288 26.3446C79.1435 26.6474 78.7825 26.7195 78.6381 27.0657C78.4214 27.0657 78.0893 27.1522 77.8149 27.2387C77.6416 27.1522 77.3672 26.9791 77.1939 27.1522C77.1939 27.0657 77.1072 27.0657 77.0206 27.0657L76.9339 27.1522C76.7606 26.9791 76.4862 27.1522 76.2118 27.0657C75.6774 26.633 75.042 26.4599 74.421 26.1138C74.2332 26.1138 74.421 25.8542 74.2332 25.8542C74.1466 25.8542 74.0599 25.8542 73.9733 25.7677C73.9733 25.508 74.0599 25.335 73.8 25.1619L73.8866 25.0754C73.8866 24.9888 73.8 24.9888 73.7133 24.9888C73.6267 24.4696 73.3523 24.037 73.2656 23.5177C73.1982 23.4601 73.1404 23.4024 73.0923 23.3447C73.0923 23.0851 73.0056 22.8255 72.9045 22.6524C72.8179 22.3063 73.1212 22.0178 72.9479 21.6861C72.9479 21.614 72.9479 21.5274 73.0345 21.4409C72.9479 21.0227 73.0345 20.7775 73.1212 20.3736C73.0345 20.3736 73.0345 20.3015 73.0345 20.215C73.2078 19.8833 73.2078 19.5516 73.2078 19.2343C73.2945 18.9891 73.4678 18.7439 73.54 18.4987L73.4534 18.4122C73.6267 18.2535 73.54 17.9939 73.8 17.8353C73.8 17.7488 73.8 17.6766 73.7133 17.6766C73.7133 17.5036 73.8866 17.4315 73.9733 17.3449C74.0599 17.1863 74.3921 16.5373 74.5943 16.4075L74.5365 16.3065C74.6809 16.0902 75.0709 16.0036 75.3742 15.9748C75.6052 15.9459 76.0385 16.1767 76.1685 16.2488C76.2696 16.4363 76.1685 16.595 76.2984 16.8401H76.4284V16.9988C76.4284 17.0853 76.4862 17.0853 76.5584 17.0853C76.6162 17.3305 76.7462 17.5757 76.6884 17.8209C76.6884 17.9074 76.7606 17.9074 76.8184 17.9074C76.7606 18.066 76.9483 18.2391 76.9483 18.3978C76.8184 18.5564 76.9483 18.816 76.8761 19.0612C77.0639 19.465 77.0061 19.9698 77.1939 20.3736C77.1939 20.7054 77.3238 21.0371 77.4538 21.2823L77.4105 21.3544Z" fill="var(--fill-0, #231815)"/>
<path d="M44.3375 24.3978C44.3375 24.3978 44.6696 24.6142 44.7563 24.7728C44.8429 24.9314 45.0162 25.1334 45.1462 25.1766C45.3195 25.2487 45.4928 25.3497 45.4928 25.3497L45.6084 25.5805L45.8828 25.8401C46.1716 25.9266 46.2438 25.7535 46.4605 26.0708C46.5616 26.0708 46.6627 26.0708 46.6627 26.1574L46.7637 26.0708C46.8648 26.2439 47.0526 26.3304 47.1537 26.417C47.4425 26.417 47.7025 26.5323 47.9047 26.691C48.0058 26.691 48.0202 26.8929 48.0202 26.8064C48.3235 26.8929 48.5257 27.0948 48.7279 26.9073C48.829 26.9073 48.9301 26.9073 48.9301 26.9939L49.0312 26.9073C49.2333 26.8208 49.2767 27.0516 49.4644 26.965C49.5655 26.965 49.5655 27.0516 49.5655 27.1381H49.7533C49.9555 27.3112 50.7931 27.0804 50.9808 27.2535C52.0929 27.3977 53.9126 27.1381 53.9126 27.1381C53.9126 26.965 54.2014 27.1381 54.2014 26.9794L54.2881 27.066C54.6636 27.1669 55.0535 26.7487 55.429 26.9218C55.4964 26.8737 55.5638 26.8208 55.6312 26.7631C55.819 26.691 56.0934 27.0371 56.2955 26.7919C56.2955 26.8785 56.3822 26.8785 56.4833 26.8785C56.4833 26.8208 56.4833 26.7631 56.4833 26.7054C56.7721 26.5468 57.1332 26.59 57.3498 26.3593C57.4509 26.3593 57.6242 26.3881 57.7253 26.4025C57.7927 26.3545 57.8601 26.3064 57.9275 26.2583C58.4185 26.1429 58.8374 25.7535 59.4006 25.6382C59.4873 25.5516 59.675 25.5228 59.7617 25.3497C59.8483 25.3497 59.9494 25.3353 60.0505 25.3209C60.1371 25.2343 60.2238 25.1334 60.3105 25.0468C60.5993 25.1045 60.8593 24.7007 61.1337 24.6718C61.1337 24.5997 61.1048 24.4988 61.1914 24.4988L61.2925 24.5709C61.4081 24.494 61.4851 24.3978 61.5236 24.2824C61.8124 24.3257 61.9713 23.9651 62.1302 23.7632C62.1879 23.7632 62.2505 23.7536 62.3179 23.7344C62.3853 23.7152 62.4383 23.6527 62.4768 23.5469C62.5153 23.4411 62.5779 23.4315 62.6645 23.518C62.91 23.3161 63.0545 23.0277 63.4155 22.8979C63.4155 22.8113 63.3866 22.7392 63.4733 22.7104C63.6755 22.7681 63.6321 22.5229 63.7044 22.4219C63.791 22.3642 64.0365 22.1912 64.0943 22.2633C64.0943 22.4075 64.3398 21.9027 64.3254 22.047C64.3976 22.1335 64.7153 21.2826 64.7875 21.2249L64.0076 19.1769C63.7188 19.5807 62.6934 20.922 62.1446 21.0518C62.1446 21.4845 61.668 21.4989 61.3503 21.7441C61.3647 21.8162 61.3936 21.9027 61.2925 21.9316C61.0181 21.9893 60.9026 22.3066 60.7148 22.3354C60.7004 22.2489 60.5993 22.2777 60.5126 22.2921C60.4404 22.3931 60.2527 22.4364 60.2094 22.6239C59.935 22.6815 59.8483 22.9556 59.6894 23.1431L59.5883 23.0854C59.2562 23.3882 58.7796 23.3594 58.5485 23.7344C58.0142 23.9796 57.5665 24.0661 57.0032 24.2824C56.9166 24.2824 56.8155 24.2824 56.8155 24.2103C56.7288 24.3834 56.3533 24.2392 56.2667 24.4122C55.7034 24.4555 55.2268 24.3978 54.6636 24.5132C54.6636 24.3545 54.3747 24.5276 54.3747 24.369C53.9126 24.5709 53.436 24.3113 52.9739 24.3113C52.8728 24.2247 52.685 24.2247 52.5984 24.0661C52.1218 24.1526 51.8474 24.0661 51.5585 23.8209C51.2697 23.8209 51.0819 23.5613 50.8075 23.4892V23.3306C50.7498 23.2729 50.6872 23.2152 50.6198 23.1575C50.6198 22.9123 50.9086 22.9123 51.0964 22.8258C51.2841 22.5806 51.7896 22.6383 51.9773 22.3787C51.9773 22.2921 52.2373 22.1335 52.2373 22.047C52.324 21.8739 52.3962 21.7152 52.4828 21.7152C52.7717 21.5422 52.5839 21.3547 52.9594 21.2681C52.9594 21.1816 53.2627 20.9797 53.1616 20.8932C53.5371 20.648 53.5371 20.5037 53.6238 19.999C53.8115 19.7538 54.0859 19.4798 54.0859 19.148C54.1726 19.0615 54.057 18.7009 54.2592 18.6144C54.3459 18.0375 54.1148 17.7202 54.1148 17.1289C54.0474 17.0712 53.9848 17.0135 53.927 16.9558C53.927 16.6962 53.7393 16.5376 53.8404 16.2924C53.566 16.0328 53.6238 15.9607 53.3494 15.7155L53.1905 15.5424H53.0027C52.9016 15.3693 52.6272 15.2972 52.6272 15.1242C52.2518 15.0376 51.8763 14.7924 51.5008 14.6194L51.3997 14.7059L51.2986 14.6194C51.2408 14.6771 51.1782 14.7348 51.1108 14.7924C51.1108 14.5328 50.8364 14.7924 50.7353 14.6194C50.5476 14.6194 50.3598 14.5328 50.1721 14.7059C49.6088 14.5328 48.9878 14.8357 48.4246 14.5761C48.4246 14.7492 48.0491 14.4896 48.0491 14.7492C47.8613 14.8357 47.5869 14.8213 47.5003 14.9078H47.2114C46.9226 15.153 46.6915 15.4559 46.1283 15.4559C45.9405 15.4559 46.1283 15.7011 45.9405 15.7011H45.7528C45.2762 16.1193 44.9007 16.6241 44.3375 16.9558C44.3375 17.0424 44.1497 17.1289 44.2364 17.2875C44.2364 17.3741 44.1353 17.3741 44.0486 17.3741C44.0486 17.5327 43.962 17.6193 43.8609 17.7058C43.8609 17.7923 43.8609 17.8789 43.962 17.8789C43.962 17.9654 43.8176 18.1817 43.7309 18.1817C43.6442 18.5134 43.6442 18.8596 43.3554 19.0182C43.3554 19.6817 43.1532 20.0134 43.1099 20.7489C43.1821 21.1383 43.211 21.7297 43.211 22.0758C43.4998 22.2489 43.1388 22.2489 43.341 22.5085C43.4421 22.5085 43.3843 22.6527 43.3843 22.7537C43.4854 22.9267 43.8031 23.0565 43.6876 23.2296C43.6876 23.3161 43.8464 23.4027 43.9475 23.4027C44.0486 23.5757 43.8031 23.7632 44.0053 23.8498C44.0053 23.9363 44.323 23.8642 44.2219 24.0373L44.3952 24.4122L44.3375 24.3978ZM50.4898 18.9461C50.3021 19.0327 50.4898 19.2057 50.3021 19.3067L50.4032 19.3932C50.3309 20.1143 49.8832 21.0806 48.8723 21.7873C48.7856 21.7873 48.6845 21.7873 48.6845 21.7008C48.6845 21.5277 48.4968 21.2537 48.5979 21.0806C48.5979 20.9941 48.4968 20.9941 48.4101 20.9941C48.5979 20.821 48.2802 20.6335 48.3813 20.3739C48.2802 20.3739 48.2802 20.2874 48.2802 20.2009C48.569 20.0278 48.3379 19.5663 48.6268 19.3932L48.5257 19.3067C48.6268 19.1336 48.7712 18.8596 48.9589 18.6721V18.499C49.3489 18.1529 49.8399 17.9942 50.3165 17.8212C50.4176 17.8212 50.5043 17.8212 50.5043 17.9077C50.7931 18.2683 50.6054 18.6144 50.5043 18.975L50.4898 18.9461Z" fill="var(--fill-0, #231815)"/>
<path d="M66.8799 18.1526C66.8799 18.2679 66.9087 18.3833 66.9087 18.4987C67.5586 19.1189 67.4287 20.1861 67.8619 20.9505C67.6597 21.2101 67.8041 21.5418 67.7175 21.787C67.8041 21.8543 67.8908 21.9216 67.9775 21.9889C67.8041 22.5947 68.2085 23.1283 68.1508 23.7196C68.0834 23.8062 68.016 23.8927 67.9486 23.9792C67.9486 24.0946 67.9775 24.21 68.093 24.1956L67.9919 24.3254L68.1219 24.4263L68.0208 24.5561C68.1363 24.5417 68.1508 24.6571 68.1652 24.7725C67.963 25.0321 68.3385 25.335 68.0208 25.609C68.1508 25.7099 68.1508 25.8253 68.1652 25.9407C67.8475 26.2147 68.0352 26.7051 67.8186 27.0657L67.9341 27.181L67.8186 27.3108L67.7031 27.1955C67.5875 27.1955 67.5875 27.3253 67.602 27.4262C67.7175 27.657 67.963 27.8733 67.7319 28.1185L67.8475 28.2195C67.5009 28.4646 67.3998 28.7675 67.2987 29.0992C67.2313 29.1761 67.1591 29.2531 67.082 29.33C67.1976 29.4309 67.1976 29.5463 67.1976 29.6617C66.9954 29.8925 66.8798 30.1232 66.6777 30.354C66.6777 30.4694 66.7932 30.6857 66.5766 30.8011L66.6921 30.902C66.591 31.1328 66.4899 31.4645 66.3888 31.6953C66.4899 31.6953 66.5044 31.7962 66.5044 31.9116C66.1866 32.1568 65.8256 32.402 65.9411 32.8491C65.7389 33.1952 65.4645 33.3106 65.2623 33.6567C65.3779 33.8731 64.8868 33.974 64.8868 34.1904C64.8868 34.4067 64.5691 34.3202 64.6847 34.5365L64.8002 34.6375C64.7328 34.6375 64.6606 34.6375 64.5836 34.6375C64.5065 34.7913 64.4006 34.9067 64.2658 34.9836C64.2658 35.099 64.2658 35.2144 64.1647 35.2144C63.977 35.3586 63.8759 35.5317 63.6737 35.7624C63.7892 35.8634 63.3271 36.0941 63.4282 36.1086C63.3126 36.2095 63.1971 36.3249 63.1682 36.5412C63.0671 36.5412 62.9516 36.5412 62.9371 36.6422V36.7864C62.8649 36.8585 62.8505 36.8585 62.6916 36.9018C61.854 37.8681 60.6264 38.2431 59.7743 39.195C59.5433 39.2959 59.3266 39.3969 59.0955 39.4978C58.8645 39.5988 58.9511 39.9305 58.7489 39.8007C58.7489 39.6853 58.4601 39.9017 58.359 39.8872C58.1135 40.1036 57.7669 39.9449 57.5502 39.9305C57.5502 39.8151 57.4347 39.844 57.3336 39.7286L57.2181 39.8296C57.117 39.7142 56.8859 39.4834 56.7704 39.4834C56.6693 39.368 56.8859 39.2526 56.7704 39.2526L56.8859 39.1517C56.8859 39.0363 56.7126 39.0219 56.6115 39.0075C56.4238 38.7767 56.8281 38.9498 56.7415 38.719L56.3227 38.6902C56.2216 38.4738 56.0194 38.4594 55.9327 38.2431C55.9472 38.0267 56.4238 38.0267 56.4382 37.8104C56.6548 37.8104 56.5826 37.796 56.8137 37.6806L56.727 37.522C56.9581 37.421 56.9148 37.2335 57.0303 37.2335C57.0303 37.3489 57.117 37.2191 57.2181 37.2335C57.3336 37.2335 57.4347 37.2335 57.4491 37.1325C57.4491 37.0172 57.4636 36.9162 57.5791 36.8008C57.6465 36.8008 57.7187 36.8008 57.7958 36.8008C58.2579 36.3826 57.9691 36.6566 58.4457 36.123C58.4457 36.0461 58.4505 35.9739 58.4601 35.9066C58.5756 35.8057 58.5901 35.5893 58.8211 35.4884C58.8211 35.6038 58.7923 35.7047 58.9078 35.7191C59.2544 35.5172 59.0378 35.3874 58.9511 35.1711C59.0282 35.0942 59.1052 35.0269 59.1822 34.9692C59.1822 35.0846 59.3555 34.998 59.2544 34.9836C59.2544 35.099 59.3699 34.724 59.471 34.7384C59.731 34.3346 59.5433 34.8105 59.9332 34.0606C60.0198 33.974 60.222 33.9019 60.2365 33.8442C60.2076 33.8442 60.482 33.7288 60.3953 33.6135C60.3809 33.5269 60.4242 33.4837 60.1931 33.5846C60.3231 33.3683 60.6986 33.0366 60.7131 32.8202C61.0308 32.95 60.7708 32.4452 60.9875 32.4597C60.8719 32.5606 60.7564 32.3443 60.7708 32.4597H61.1319C61.363 32.2433 60.7997 32.2433 61.0163 32.0126C61.0163 31.8972 60.9875 31.8395 60.8719 31.8539C60.8719 31.7385 60.843 31.652 60.9441 31.652L61.0597 31.753C61.1608 31.6376 60.9586 31.2626 61.1752 31.1472C61.1752 31.0318 61.1752 30.9309 61.1752 30.8155C61.4929 30.5847 61.3485 30.6136 61.4496 30.2819L61.3341 30.1809C61.3341 30.2963 61.5652 30.08 61.4641 30.08C61.4641 30.003 61.4641 29.9261 61.4641 29.8492C61.6807 29.7338 61.8251 28.9838 61.8251 28.7675C61.8251 28.9983 61.5796 28.2627 61.7962 28.3637C62.114 27.9022 61.8973 27.282 61.9406 26.7195C61.7096 26.633 62.1139 26.4743 61.984 26.2724C61.8829 26.2724 61.7673 26.3013 61.7529 26.1859C61.8203 26.0994 61.8829 26.0176 61.9406 25.9407C61.9406 25.8397 61.9262 25.7244 61.8107 25.7388C61.8107 25.6234 61.7962 25.508 61.8973 25.508C61.8829 25.3927 61.8684 25.2917 61.7673 25.3061C61.8347 25.2196 61.8973 25.1379 61.9551 25.0609C61.9551 24.9456 61.8395 24.96 61.724 24.9888C61.7818 24.5273 61.3341 24.1956 61.4929 23.7341C61.3918 23.7341 61.3774 23.6331 61.363 23.5177C61.6518 23.1427 61.2619 22.6956 61.4352 22.3351C61.2185 22.2485 61.2908 22.0178 61.2763 21.787C61.3774 21.6717 61.103 21.5563 61.0886 21.4409C60.8142 20.9073 60.9008 20.489 60.7275 19.941C60.5109 20.1284 60.3665 18.3977 60.1787 17.7199C59.9043 17.2872 60.0921 16.7969 59.9187 16.3498C60.0343 16.3498 60.1498 16.3209 60.1354 16.2055C59.991 15.8738 60.3231 15.7152 60.3953 15.3546C60.6264 15.3258 60.843 15.1815 61.103 15.3834C61.3196 15.2392 61.1897 15.0229 61.1752 14.9075C61.6374 14.8498 61.984 14.8066 62.4461 14.7489C62.4461 14.8642 62.4606 14.9796 62.5905 14.9652C62.9372 14.9219 63.0816 15.1383 63.4137 15.095C63.4137 15.2104 63.4426 15.3258 63.5582 15.3113C63.7892 15.2825 63.9192 15.3834 64.0348 15.4844C64.1503 15.4844 64.2658 15.4556 64.2514 15.3402L64.3814 15.4411L64.4825 15.3113C64.6124 15.4123 64.728 15.3979 64.8435 15.3834C64.9735 15.4844 65.0024 15.8305 65.2334 15.6863C65.7822 16.5517 66.4466 17.2872 66.8799 18.167V18.1526Z" fill="var(--fill-0, #231815)"/>
<path d="M16.0551 20.2154C16.0118 20.0279 15.7518 19.9702 15.6363 19.9702C15.5207 19.9702 15.3185 20.2009 15.203 20.0135C15.203 20.0135 15.0153 20.3163 14.7986 20.4606C14.6542 20.5615 14.4231 20.5471 14.4231 20.5471C14.3654 20.8355 14.3365 20.8644 14.582 21.5278C14.6975 21.5422 14.8131 22.1768 14.9286 22.2057C14.8708 21.9605 15.2608 22.7249 15.3763 22.8403C15.4245 22.8499 15.4774 22.8643 15.5352 22.8835C15.6074 22.8979 15.5785 22.9701 15.5352 23.0422L15.8818 23.2874C15.9107 23.3739 15.9973 23.4027 15.9107 23.547C16.1706 23.5614 16.3439 23.72 16.5606 23.821C16.6328 23.8498 16.5895 23.9219 16.5606 23.9796C16.6328 24.0085 16.705 24.0373 16.7483 23.9796C16.9361 23.9796 16.8061 24.1671 16.835 24.2681L16.9505 24.2392C16.9794 24.3402 17.1238 24.3979 17.1238 24.3979C17.3549 24.744 18.4814 25.1767 18.7558 25.494L18.8713 25.4363C18.958 25.6238 19.449 25.6526 19.449 25.8834L19.5501 25.8257C19.6079 25.9122 20.3444 26.0565 20.5466 26.1574C20.6477 26.0997 20.5033 25.9844 20.6188 25.9267C20.7343 26.0276 20.9943 26.2584 21.1098 26.3738C21.1098 26.3738 21.4276 26.4026 21.6586 26.4459C21.9475 26.7487 22.5396 26.5613 22.8862 26.7199C22.9295 26.8064 23.0018 26.8353 23.074 26.8497L23.1895 26.792L23.2328 26.8785C23.4495 26.7632 23.565 26.8786 23.7239 26.7488L23.7672 26.8353L23.8827 26.7776C23.9116 26.8353 23.9405 26.8978 23.9694 26.9651C24.2727 27.0372 24.5471 27.1814 24.8792 27.0084C24.9226 27.0949 24.9948 27.1093 25.0814 27.1382C25.1584 27.0997 25.2307 27.0612 25.298 27.0228C25.5291 27.066 25.5724 27.167 25.8324 27.1382L25.8757 27.2247C26.2079 27.0516 26.439 27.1093 26.7423 27.1814C26.8145 27.0372 26.9733 27.2391 27.0455 27.0949L27.0889 27.1814C27.3488 26.9939 27.7388 27.0949 27.9987 27.0805L28.0421 27.167C28.1576 27.1093 28.1143 27.167 28.1143 27.167C28.3309 27.066 28.8797 27.0516 29.0241 26.9362C29.3274 27.0084 29.313 27.066 29.7318 27.0228C29.8184 27.0372 29.9917 27.0805 30.0639 27.1093C30.4106 26.8786 30.6994 26.893 30.9882 27.0516C31.3204 26.9939 31.8692 26.7199 32.1581 26.5757C32.2447 26.6045 32.3314 26.6189 32.418 26.6478C32.548 26.6045 32.6346 26.6334 32.7213 26.4891C33.0968 26.3593 33.3712 26.2295 33.7178 25.9988C33.7611 26.0997 33.9633 25.9122 34.0066 25.9988C34.0066 25.9988 34.0355 25.9507 34.0933 25.8546C34.2666 25.9122 34.3821 25.6959 34.5555 25.7536C34.5555 25.7536 34.5843 25.7103 34.6421 25.6238C34.9021 25.5373 34.801 25.4651 35.0465 25.3786C35.2631 25.2344 35.5664 24.7296 36.0719 24.4988C36.0719 24.3402 36.3896 24.2537 36.4618 24.1094C36.4907 24.0373 36.5918 24.0517 36.664 24.0662L36.6207 23.9796C36.7362 23.9219 36.7073 23.6912 36.8229 23.7921C36.8517 23.72 36.9962 23.5325 36.924 23.5181C37.1695 23.3306 37.1695 22.7105 37.5161 22.6383C37.5353 22.5903 37.5546 22.5422 37.5739 22.4941C37.7183 22.3066 37.6605 21.9461 37.7472 21.9028C37.776 21.8307 37.7472 21.7874 37.8049 21.8018C37.8916 21.5134 37.9638 21.0807 38.0504 20.7057C37.9782 20.6913 38.0071 20.6192 38.0504 20.5471C38.1227 20.5615 38.1515 20.4894 38.1804 20.4173C38.1082 20.4029 38.1371 20.3307 38.1804 20.2586L38.2815 20.2009C38.1371 20.1721 38.296 19.9702 38.1515 19.9413L38.2526 19.8836C38.1227 19.5375 38.3104 19.1769 38.1804 18.8308L38.2815 18.7731C38.1082 18.5712 38.1371 18.3693 38.2815 18.1674C38.2237 18.0808 38.2526 18.0087 38.2815 17.9222C38.0793 17.8068 38.3248 17.677 38.1949 17.5616C38.2671 17.3453 38.0216 17.129 38.166 16.927C38.0649 16.7396 38.0504 16.6674 37.9493 16.4944C37.9638 16.4223 37.9927 16.3357 38.0071 16.2636C37.9349 16.2492 37.8627 16.2348 37.8771 16.1627C37.9927 16.0329 37.8771 15.9175 37.906 15.7732C37.7616 15.7444 37.8338 15.6146 37.7905 15.5281C37.7472 15.1242 37.6316 14.8214 37.4005 14.4752C37.5016 14.331 37.2995 13.7397 37.2995 13.5522L37.155 13.4801C37.0973 13.2926 37.0251 13.1916 36.8806 13.0907C36.8806 13.033 36.8806 12.9705 36.8806 12.9032C36.8084 12.9032 36.7362 12.9032 36.7362 12.8022C36.7362 12.7445 36.7362 12.682 36.7362 12.6147L36.6496 12.7013C36.5051 12.6003 36.4474 12.4128 36.4618 12.2253C36.1874 11.8359 36.0863 11.5619 35.6964 11.0138C35.5375 11.1004 35.6964 10.7254 35.5086 10.8119C35.3064 10.336 35.162 10.2206 34.8587 9.93214C34.8587 9.87445 34.8635 9.81196 34.8732 9.74465C34.8828 9.67735 34.825 9.67735 34.6999 9.74465C34.6132 9.74465 34.6277 9.64369 34.6277 9.55716C34.1366 9.25429 32.418 9.02353 32.1581 8.54759C32.0136 8.54759 31.8548 8.44663 31.7681 8.63412C31.72 8.56682 31.6767 8.50432 31.6381 8.44663C31.2338 8.72065 30.9016 8.23029 30.5261 8.12933L30.4394 8.21587C30.3095 7.92742 30.0639 8.21587 29.9051 8.21587C29.8473 8.11491 29.7607 8.11491 29.6885 8.11491C29.2985 8.28798 28.923 8.08607 28.5909 8.54759L28.5186 8.44663L29.3852 10.0475C29.3707 10.1341 29.6018 11.1292 29.8329 11.634C29.9051 11.634 30.0062 11.8359 30.0639 11.9369C30.0543 11.9946 30.0399 12.0522 30.0206 12.1099C30.1362 12.3119 30.2517 12.5282 30.3672 12.7301C30.295 12.7157 30.2661 12.8022 30.2517 12.8888C30.3383 13.1772 30.3384 13.4945 30.425 13.7829C30.5405 13.8839 30.4106 13.956 30.5405 14.0858C30.5405 14.0858 30.4539 14.2733 30.4828 14.2733C30.425 14.4175 30.5261 14.5906 30.5261 14.5906C30.5694 14.9079 30.555 14.6627 30.7716 14.8791C30.5694 15.1242 30.916 15.5281 30.6994 15.7732C30.8149 15.8886 30.8149 15.73 30.8438 15.8165C30.8438 15.8165 30.8198 15.8598 30.7716 15.9463C30.7716 15.9463 30.8005 16.0329 30.8727 16.0617C30.9449 16.2348 30.8149 16.3501 30.916 16.5232C30.9882 16.5376 30.916 16.7684 30.9882 16.7828C31.0171 16.9415 31.2193 16.9992 31.0171 17.1001C30.9449 17.0857 30.9882 17.403 30.916 17.6193C30.9594 17.7059 30.916 18.0808 30.8872 18.153C30.9594 18.1674 31.0171 18.0808 30.9882 18.153C30.969 18.201 30.9497 18.2491 30.9305 18.2972C31.0027 18.3116 31.0027 18.4414 30.9738 18.5135C30.9738 18.7443 30.8294 18.8597 30.7427 19.076C30.6561 19.5375 30.9016 19.9269 30.5839 20.0856C30.6994 20.1865 30.555 20.3163 30.5261 20.3884C30.425 20.4317 30.4539 20.6625 30.3528 20.7202C30.2373 21.0086 30.1795 20.9942 30.0639 21.2682C29.8762 21.3836 29.8329 21.499 29.6451 21.6143C29.6451 21.6143 29.6259 21.6624 29.5874 21.7586C29.5874 21.7586 29.4863 21.8163 29.4285 21.8018C29.2985 21.9316 28.8653 22.1336 28.8075 22.2634L28.8508 22.3499C28.5909 22.4509 28.5186 22.4797 28.2298 22.6528C27.941 22.8258 27.7243 22.8258 27.4355 22.9701C27.1755 22.8979 26.9589 23.0854 26.6989 23.0133C26.5978 23.071 26.4967 23.1143 26.3957 23.172C26.2657 23.1431 26.0635 23.2441 25.9768 23.1287C25.8469 23.0999 25.8757 23.3306 25.7458 23.3018C25.7458 23.3018 25.7024 23.2874 25.6158 23.2585L25.5869 23.172C25.3847 23.2729 25.2258 23.1576 25.0236 23.2441L24.9948 23.1576C24.7926 23.2585 24.6337 23.1576 24.5037 23.2729C24.3304 23.1576 23.9694 23.1576 23.6805 23.172C23.7094 23.0999 23.6372 23.0854 23.5794 23.071L23.4783 23.1287C23.5072 23.0566 22.9151 23.0999 22.8573 23.0854L22.7274 23.0566L22.684 22.9701L22.5974 23.0278C22.4963 22.9268 21.7886 22.8691 21.6153 22.6816C21.4853 22.8114 21.3554 22.7537 21.1965 22.7249C20.561 22.6816 19.7956 22.4076 19.7234 22.3932L19.6801 22.3066C19.4634 22.422 19.1024 22.3066 19.0013 22.1191C18.9291 22.1047 18.8135 22.0903 18.7413 22.0614C18.6547 21.874 18.1636 21.9172 18.1059 21.7297C18.1059 21.7297 17.8604 21.5567 17.7448 21.4269C17.586 21.5278 17.1671 21.0374 17.0949 21.0086H16.8205L16.7194 20.7057L16.3584 20.4317C16.214 20.1577 16.0551 20.374 16.0118 20.1433L16.0551 20.2154Z" fill="var(--fill-0, #231815)"/>
<path d="M21.8342 9.54269C21.9353 9.54269 22.0364 9.54269 22.1375 9.55711C22.6285 10.0475 23.5817 9.90325 24.2171 10.235C24.4771 10.0475 24.7515 10.1629 24.9826 10.0763C25.0307 10.1436 25.0837 10.2109 25.1414 10.2782C25.7047 10.1196 25.9935 10.3936 26.5279 10.3504C26.6145 10.2927 26.7012 10.235 26.7878 10.1773C26.8889 10.1773 26.99 10.2061 26.9612 10.2927L27.0911 10.2061L27.1633 10.3071L27.2933 10.2205C27.2644 10.3071 27.3655 10.3215 27.4666 10.3359C27.7266 10.1773 27.8854 10.3936 28.1743 10.1484C28.2465 10.2494 28.3331 10.2782 28.4342 10.2927C28.7231 10.0475 28.8386 10.2927 29.1997 10.1917L29.2574 10.3071L29.3874 10.235L29.3297 10.1196C29.3585 10.0331 29.4596 10.0475 29.5607 10.0763C29.7196 10.2061 29.8351 10.408 30.1095 10.2927L30.1673 10.408C30.3406 10.2927 29.0119 10.235 31.0772 10.1629L31.3371 10.0475C31.3949 10.1629 31.4815 10.1773 31.5682 10.2061C31.8281 10.0907 32.0448 10.0475 32.3192 9.9321C32.4058 9.96094 32.5503 10.0907 32.7236 9.94652L32.7813 10.0475C33.0124 10.0186 33.3157 10.0042 33.5468 9.97537C33.5179 10.0619 33.4023 9.85999 33.489 9.90325C33.8067 9.74461 34.1533 9.55711 34.4422 9.78787C34.7888 9.74461 34.9476 9.57154 35.3087 9.54269C35.4242 9.71576 35.7131 9.38404 35.8719 9.47058C36.0452 9.55711 36.0452 9.32636 36.1608 9.485L36.1897 9.60038C36.1897 9.60038 36.2474 9.52827 36.2908 9.45616C36.4352 9.46577 36.57 9.43693 36.6951 9.36962C36.7818 9.41289 36.854 9.47058 36.9118 9.38404C37.0995 9.31193 37.2728 9.31193 37.5472 9.25424C37.5761 9.38404 37.7639 9.19655 37.7205 9.26867C37.8505 9.23982 37.9805 9.21097 38.1538 9.31193C38.1971 9.23982 38.2549 9.16771 38.3415 9.21097L38.4426 9.28309C38.5293 9.28309 38.5437 9.25424 38.6448 9.16771C39.7424 9.06675 40.3634 8.53312 41.4466 8.53312C41.6343 8.44658 41.8365 8.36005 42.0243 8.27351C42.212 8.18698 42.3853 8.41774 42.4287 8.23025C42.3565 8.17256 42.6597 8.10044 42.7175 8.02833C42.9919 7.99949 43.1508 7.53797 43.2663 7.37932C43.1797 7.32163 43.2663 7.26394 43.2519 7.13414L43.3818 7.10529C43.353 6.97549 43.3385 6.45628 43.3818 6.38417C43.353 6.25437 43.1652 6.3409 43.223 6.26879L43.1797 6.18226C43.1074 6.12457 43.2085 5.99476 43.2519 5.92265C43.1941 5.66305 42.963 5.9515 42.8619 5.77843L43.0641 5.47555C42.9775 5.30248 42.5586 5.1871 42.4142 5.08615C42.2987 5.23037 42.3131 5.17268 42.1254 5.27364L42.0676 5.12941C41.8799 5.23037 41.7643 5.10057 41.721 5.1871C41.7932 5.23037 41.6632 5.23037 41.6199 5.30248C41.5621 5.3746 41.5044 5.44671 41.4322 5.40344C41.3599 5.34575 41.2733 5.30248 41.1433 5.31691C41.1048 5.36498 41.0711 5.41306 41.0422 5.46113C40.5079 5.54767 39.3092 5.57651 39.1936 5.41786C39.107 5.43709 39.0203 5.45632 38.9337 5.47555C39.0203 5.51882 38.8615 5.61978 38.9192 5.53324C39.0059 5.57651 38.6737 5.48998 38.6304 5.57651C38.2116 5.57651 37.2728 5.66305 37.4606 5.56209C37.2439 5.56209 36.8251 5.66305 36.6663 5.57651C36.6085 5.85054 36.3052 5.41786 36.2185 5.57651C36.3485 5.54767 36.0452 5.51882 36.1319 5.57651V5.69189C35.8719 5.77843 35.8575 5.51882 35.5975 5.61978C35.5109 5.57651 35.4676 5.53324 35.5109 5.46113C35.4242 5.43229 35.3665 5.3746 35.3231 5.46113L35.3665 5.57651C35.2365 5.61978 35.0054 5.36017 34.8321 5.47555C34.7455 5.44671 34.6588 5.40344 34.5721 5.3746C34.2689 5.54767 33.9367 5.53324 33.619 5.56209L33.5612 5.46113C33.6479 5.47555 33.4023 5.6342 33.4457 5.54767C33.3879 5.52844 33.3253 5.51401 33.2579 5.5044C33.0991 5.66305 32.4347 5.64862 32.247 5.60536C32.4347 5.64862 31.8715 5.28806 31.9004 5.47555C31.4238 5.66305 30.8894 5.38902 30.3839 5.3746C30.355 5.1871 30.1384 5.5044 29.9796 5.3746C30.0084 5.28806 30.0373 5.20153 29.9507 5.1871C29.8207 5.25922 29.734 5.23037 29.6041 5.30248C29.5174 5.30248 29.4163 5.27364 29.4452 5.1871C29.3441 5.1871 29.2574 5.15826 29.2286 5.24479C29.1275 5.24479 29.0408 5.21595 29.0697 5.12941C28.9542 5.20153 28.8242 5.30248 28.6942 5.3746C28.5931 5.3746 28.622 5.27364 28.6509 5.1871C28.2321 5.24479 28.001 4.86981 27.5677 5.01403C27.5966 4.9275 27.4955 4.9275 27.3944 4.91308C27.0334 5.15826 26.5134 4.89865 26.1813 5.0573C26.1235 4.88423 25.9069 4.97077 25.7191 4.97077C25.6036 5.0573 25.5314 4.84096 25.4303 4.84096C24.9826 4.65347 24.6071 4.75443 24.1161 4.63905C24.3038 4.45156 22.7729 4.45156 22.1808 4.33618C21.8198 4.13426 21.3721 4.33618 20.9821 4.2208C20.9532 4.32176 20.9388 4.40829 20.8377 4.40829C20.5488 4.30733 20.39 4.59578 20.0578 4.68232C20.0145 4.86981 19.8123 4.95634 19.8701 5.12941C19.7256 5.31691 19.7112 5.34575 19.6101 5.34575C19.5235 5.72074 19.4657 5.69189 19.3646 6.06687C19.4657 6.06687 19.5668 6.06688 19.5379 6.16783C19.4657 6.44186 19.639 6.55724 19.5668 6.84569C19.6679 6.84569 19.769 6.84569 19.7401 6.94665C19.6968 7.13414 19.769 7.2351 19.8412 7.33605C19.8123 7.43701 19.7979 7.52355 19.6968 7.52355L19.769 7.6245L19.639 7.71104C19.7112 7.812 19.6968 7.89853 19.6679 7.99949C19.7401 8.10044 20.0434 8.11487 19.899 8.30236C20.6066 8.72061 21.1987 9.2254 21.9353 9.54269H21.8342Z" fill="var(--fill-0, #231815)"/>
</g>
</g>
</svg>
