<svg preserveAspectRatio="none" width="100%" height="100%" overflow="visible" style="display: block;" viewBox="0 0 136.638 38.4079" fill="none" xmlns="http://www.w3.org/2000/svg">
<g id="GeoX">
<path d="M97.9024 29.7524C97.9024 32.4572 97.1271 34.5849 95.5763 36.1357C94.0617 37.6504 91.9519 38.4077 89.2471 38.4077H76.8052C74.1004 38.4077 71.9726 37.6504 70.4219 36.1357C68.9072 34.5849 68.1499 32.4572 68.1499 29.7524V17.3104C68.1499 14.6056 68.9072 12.4959 70.4219 10.9812C71.9726 9.43049 74.1004 8.65512 76.8052 8.65512H89.2471C91.9519 8.65512 94.0617 9.43049 95.5763 10.9812C97.1271 12.4959 97.9024 14.6056 97.9024 17.3104V29.7524ZM88.4357 18.1218C88.4357 16.6793 87.7144 15.958 86.2719 15.958H79.7804C78.3379 15.958 77.6166 16.6793 77.6166 18.1218V28.941C77.6166 30.3835 78.3379 31.1048 79.7804 31.1048H86.2719C87.7144 31.1048 88.4357 30.3835 88.4357 28.941V18.1218Z" fill="var(--fill-0, white)"/>
<path d="M48.4261 15.4171C46.9836 15.4171 46.2623 16.1383 46.2623 17.5809V20.5561H55.4585V17.5809C55.4585 16.1383 54.7373 15.4171 53.2947 15.4171H48.4261ZM63.8433 37.3258C56.8831 38.0471 50.5719 38.4077 44.9099 38.4077C42.4576 38.4077 40.4921 37.6684 39.0135 36.1898C37.5349 34.7112 36.7956 32.7457 36.7956 30.2934V17.3104C36.7956 14.6056 37.5529 12.4959 39.0676 10.9812C40.6183 9.43049 42.7461 8.65512 45.4509 8.65512H56.27C58.9747 8.65512 61.0845 9.43049 62.5992 10.9812C64.1499 12.4959 64.9253 14.6056 64.9253 17.3104V27.3181H46.2623V29.4819C46.2623 30.0229 46.4426 30.4737 46.8032 30.8343C47.1639 31.195 47.6147 31.3753 48.1556 31.3753C51.7259 31.3753 56.9552 31.1048 63.8433 30.5638V37.3258Z" fill="var(--fill-0, white)"/>
<path d="M33.5393 37.0555C25.1003 37.9571 17.3466 38.4079 10.2782 38.4079C6.74391 38.4079 4.14733 37.5784 2.4884 35.9195C0.829465 34.2605 0 31.6639 0 28.1297V10.8191C0 7.03243 0.847497 4.29158 2.54249 2.59659C4.27355 0.865529 7.03242 0 10.8191 0H30.2935V7.57338H12.9829C10.8191 7.57338 9.7372 8.65529 9.7372 10.8191V28.1297C9.7372 28.9592 9.97162 29.6263 10.4404 30.1312C10.9453 30.6001 11.6125 30.8345 12.442 30.8345C16.5893 30.8345 20.376 30.7443 23.8021 30.564V22.7201H16.7696V16.2287H33.5393V37.0555Z" fill="var(--fill-0, white)"/>
<path d="M100.718 0.649705H112.998L136.638 37.8675H124.304L100.718 0.649705ZM120.517 8.22309L124.628 0.649705H136.475L126.197 17.203L120.517 8.22309ZM110.888 20.9896L116.514 29.9154L112.349 37.8675H100.502L110.888 20.9896Z" fill="var(--fill-0, white)"/>
</g>
</svg>
