<svg preserveAspectRatio="none" width="100%" height="100%" overflow="visible" style="display: block;" viewBox="0 0 59.9929 41.2459" fill="none" xmlns="http://www.w3.org/2000/svg">
<path id="Vector" d="M59.5996 14.0396L53.6184 2.07243C53.398 1.63196 53.0931 1.23921 52.7209 0.916606C52.3488 0.594002 51.9167 0.347865 51.4495 0.192251C50.9822 0.0366366 50.4888 -0.0254068 49.9976 0.00966396C49.5063 0.0447347 49.0268 0.176233 48.5863 0.396649L42.7574 3.30993L30.4785 0.0614923C30.1635 -0.0204974 29.8327 -0.0204974 29.5176 0.0614923L17.2387 3.30993L11.4098 0.396649C10.9694 0.176233 10.4898 0.0447347 9.99855 0.00966396C9.5073 -0.0254068 9.01394 0.0366366 8.54666 0.192251C8.07939 0.347865 7.64734 0.594002 7.27519 0.916606C6.90305 1.23921 6.5981 1.63196 6.37775 2.07243L0.396504 14.0373C0.176088 14.4777 0.0445905 14.9572 0.00951977 15.4485C-0.025551 15.9398 0.0364923 16.4331 0.192107 16.9004C0.347721 17.3677 0.593858 17.7997 0.916461 18.1719C1.23906 18.544 1.63182 18.849 2.07229 19.0693L8.40041 22.2357L21.4059 31.524C21.5975 31.6603 21.8129 31.7597 22.041 31.817L37.041 35.567C37.3552 35.6457 37.6843 35.6418 37.9965 35.5556C38.3087 35.4693 38.5932 35.3037 38.8223 35.0748L51.7293 22.1654L57.9215 19.0693C58.8105 18.6243 59.4863 17.8445 59.8006 16.9014C60.1148 15.9582 60.0417 14.9289 59.5973 14.0396H59.5996ZM46.7348 21.8607L38.6699 15.4013C38.3086 15.112 37.8531 14.9665 37.391 14.9929C36.9288 15.0193 36.4928 15.2157 36.1668 15.5443C31.9926 19.749 27.3403 19.217 24.3731 17.342L34.5074 7.49821H41.9629L48.3403 20.2506L46.7348 21.8607ZM9.73166 3.74821L14.5293 6.14352L8.53635 18.1084L3.74807 15.7154L9.73166 3.74821ZM36.9192 31.6693L23.2996 28.2662L11.7684 20.0302L18.3309 6.90524L29.9981 3.81384L32.2949 4.42087L21.7481 14.6584L21.7293 14.6795C21.3323 15.0765 21.0295 15.5576 20.8433 16.0873C20.657 16.6169 20.5921 17.1817 20.6533 17.7398C20.7145 18.2979 20.9002 18.8352 21.1968 19.3119C21.4934 19.7887 21.8932 20.1927 22.3668 20.4943C27.1856 23.5716 33.0004 23.0724 37.5801 19.3224L44.0606 24.5279L36.9192 31.6693ZM51.4504 18.106L45.4692 6.1529L50.2645 3.74821L56.2481 15.7154L51.4504 18.106ZM30.884 39.8256C30.7827 40.2308 30.549 40.5906 30.2199 40.8479C29.8909 41.1052 29.4853 41.2453 29.0676 41.2459C28.9135 41.2457 28.7601 41.2268 28.6106 41.1896L18.8442 38.7474C18.6157 38.6911 18.4002 38.5916 18.209 38.4545L12.0332 34.0435C11.6535 33.7454 11.4034 33.3122 11.335 32.8343C11.2667 32.3564 11.3853 31.8705 11.6662 31.4778C11.9471 31.0852 12.3686 30.816 12.843 30.7264C13.3174 30.6367 13.8081 30.7336 14.2129 30.9966L20.0981 35.2013L29.5293 37.5545C30.0116 37.6751 30.4263 37.9824 30.6821 38.4087C30.9379 38.8351 31.0139 39.3455 30.8934 39.8279L30.884 39.8256Z" fill="var(--fill-0, #5871ED)"/>
</svg>
