<svg preserveAspectRatio="none" width="100%" height="100%" overflow="visible" style="display: block;" viewBox="0 0 48.7484 48.7571" fill="none" xmlns="http://www.w3.org/2000/svg">
<path id="Vector" d="M0.75 24.0071C0.946983 24.1548 1.17114 24.2623 1.40966 24.3234C1.64819 24.3845 1.89641 24.398 2.14017 24.3632C2.38392 24.3284 2.61843 24.2459 2.8303 24.1205C3.04217 23.995 3.22726 23.829 3.375 23.6321C4.51023 22.1184 5.98228 20.8899 7.67458 20.0437C9.36689 19.1976 11.233 18.7571 13.125 18.7571C15.0171 18.7571 16.8831 19.1976 18.5754 20.0437C20.2677 20.8899 21.7398 22.1184 22.875 23.6321C23.1737 24.0295 23.6181 24.2921 24.1103 24.3619C24.6026 24.4318 25.1025 24.3033 25.5 24.0047C25.6417 23.8993 25.7673 23.7738 25.8727 23.6321C27.0079 22.1184 28.4799 20.8899 30.1722 20.0437C31.8645 19.1976 33.7306 18.7571 35.6227 18.7571C37.5147 18.7571 39.3808 19.1976 41.0731 20.0437C42.7654 20.8899 44.2374 22.1184 45.3727 23.6321C45.6713 24.0299 46.1158 24.2928 46.6083 24.3629C47.1008 24.433 47.601 24.3046 47.9988 24.0059C48.3967 23.7072 48.6595 23.2627 48.7296 22.7702C48.7997 22.2777 48.6713 21.7775 48.3727 21.3797C46.713 19.1547 44.4998 17.4029 41.9531 16.2985C43.3493 15.0238 44.3274 13.3568 44.7592 11.5163C45.191 9.67574 45.0563 7.74767 44.3727 5.98508C43.6891 4.22249 42.4886 2.70776 40.9287 1.63966C39.3689 0.571555 37.5225 0 35.632 0C33.7415 0 31.8952 0.571555 30.3353 1.63966C28.7755 2.70776 27.575 4.22249 26.8914 5.98508C26.2078 7.74767 26.073 9.67574 26.5048 11.5163C26.9366 13.3568 27.9148 15.0238 29.3109 16.2985C27.4721 17.0936 25.8017 18.2319 24.3891 19.6524C22.9764 18.2319 21.306 17.0936 19.4672 16.2985C20.8633 15.0238 21.8415 13.3568 22.2733 11.5163C22.7051 9.67574 22.5703 7.74767 21.8868 5.98508C21.2032 4.22249 20.0027 2.70776 18.4428 1.63966C16.8829 0.571555 15.0366 0 13.1461 0C11.2556 0 9.40925 0.571555 7.84939 1.63966C6.28953 2.70776 5.08903 4.22249 4.40544 5.98508C3.72185 7.74767 3.58711 9.67574 4.01891 11.5163C4.4507 13.3568 5.42886 15.0238 6.825 16.2985C4.26715 17.3993 2.04305 19.1522 0.375 21.3821C0.227263 21.579 0.119771 21.8032 0.0586618 22.0417C-0.00244747 22.2802 -0.0159772 22.5285 0.0188448 22.7722C0.0536668 23.016 0.136159 23.2505 0.261611 23.4624C0.387063 23.6742 0.553017 23.8593 0.75 24.0071ZM35.625 3.75706C36.7375 3.75706 37.8251 4.08696 38.7501 4.70505C39.6751 5.32313 40.3961 6.20163 40.8218 7.22947C41.2476 8.2573 41.359 9.3883 41.1419 10.4794C40.9249 11.5706 40.3891 12.5729 39.6025 13.3595C38.8158 14.1462 37.8135 14.6819 36.7224 14.899C35.6312 15.116 34.5002 15.0046 33.4724 14.5789C32.4446 14.1531 31.5661 13.4322 30.948 12.5071C30.3299 11.5821 30 10.4946 30 9.38206C30 7.89022 30.5926 6.45948 31.6475 5.40459C32.7024 4.34969 34.1332 3.75706 35.625 3.75706ZM13.125 3.75706C14.2375 3.75706 15.3251 4.08696 16.2501 4.70505C17.1751 5.32313 17.8961 6.20163 18.3218 7.22947C18.7476 8.2573 18.859 9.3883 18.6419 10.4794C18.4249 11.5706 17.8891 12.5729 17.1025 13.3595C16.3158 14.1462 15.3135 14.6819 14.2224 14.899C13.1312 15.116 12.0002 15.0046 10.9724 14.5789C9.94457 14.1531 9.06607 13.4322 8.44798 12.5071C7.8299 11.5821 7.5 10.4946 7.5 9.38206C7.5 7.89022 8.09263 6.45948 9.14753 5.40459C10.2024 4.34969 11.6332 3.75706 13.125 3.75706ZM41.9531 40.6735C43.3493 39.3988 44.3274 37.7318 44.7592 35.8913C45.191 34.0507 45.0563 32.1227 44.3727 30.3601C43.6891 28.5975 42.4886 27.0828 40.9287 26.0147C39.3689 24.9466 37.5225 24.375 35.632 24.375C33.7415 24.375 31.8952 24.9466 30.3353 26.0147C28.7755 27.0828 27.575 28.5975 26.8914 30.3601C26.2078 32.1227 26.073 34.0507 26.5048 35.8913C26.9366 37.7318 27.9148 39.3988 29.3109 40.6735C27.4721 41.4686 25.8017 42.6069 24.3891 44.0274C22.9764 42.6069 21.306 41.4686 19.4672 40.6735C20.8633 39.3988 21.8415 37.7318 22.2733 35.8913C22.7051 34.0507 22.5703 32.1227 21.8868 30.3601C21.2032 28.5975 20.0027 27.0828 18.4428 26.0147C16.8829 24.9466 15.0366 24.375 13.1461 24.375C11.2556 24.375 9.40925 24.9466 7.84939 26.0147C6.28953 27.0828 5.08903 28.5975 4.40544 30.3601C3.72185 32.1227 3.58711 34.0507 4.01891 35.8913C4.4507 37.7318 5.42886 39.3988 6.825 40.6735C4.26715 41.7743 2.04305 43.5272 0.375 45.7571C0.227263 45.954 0.119771 46.1782 0.0586618 46.4167C-0.00244747 46.6552 -0.0159772 46.9035 0.0188448 47.1472C0.0536668 47.391 0.136159 47.6255 0.261611 47.8374C0.387063 48.0492 0.553017 48.2343 0.75 48.3821C0.946983 48.5298 1.17114 48.6373 1.40966 48.6984C1.64819 48.7595 1.89641 48.773 2.14017 48.7382C2.38392 48.7034 2.61843 48.6209 2.8303 48.4955C3.04217 48.37 3.22726 48.204 3.375 48.0071C4.51023 46.4934 5.98228 45.2649 7.67458 44.4187C9.36689 43.5726 11.233 43.1321 13.125 43.1321C15.0171 43.1321 16.8831 43.5726 18.5754 44.4187C20.2677 45.2649 21.7398 46.4934 22.875 48.0071C23.1737 48.4045 23.6181 48.6671 24.1103 48.7369C24.6026 48.8068 25.1025 48.6783 25.5 48.3797C25.6417 48.2743 25.7673 48.1488 25.8727 48.0071C27.0079 46.4934 28.4799 45.2649 30.1722 44.4187C31.8645 43.5726 33.7306 43.1321 35.6227 43.1321C37.5147 43.1321 39.3808 43.5726 41.0731 44.4187C42.7654 45.2649 44.2374 46.4934 45.3727 48.0071C45.6713 48.4049 46.1158 48.6678 46.6083 48.7379C47.1008 48.808 47.601 48.6796 47.9988 48.3809C48.3967 48.0822 48.6595 47.6377 48.7296 47.1452C48.7997 46.6527 48.6713 46.1525 48.3727 45.7547C46.713 43.5297 44.4998 41.7779 41.9531 40.6735ZM13.125 28.1321C14.2375 28.1321 15.3251 28.462 16.2501 29.08C17.1751 29.6981 17.8961 30.5766 18.3218 31.6045C18.7476 32.6323 18.859 33.7633 18.6419 34.8544C18.4249 35.9456 17.8891 36.9479 17.1025 37.7345C16.3158 38.5212 15.3135 39.0569 14.2224 39.274C13.1312 39.491 12.0002 39.3796 10.9724 38.9539C9.94457 38.5281 9.06607 37.8072 8.44798 36.8821C7.8299 35.9571 7.5 34.8696 7.5 33.7571C7.5 32.2652 8.09263 30.8345 9.14753 29.7796C10.2024 28.7247 11.6332 28.1321 13.125 28.1321ZM35.625 28.1321C36.7375 28.1321 37.8251 28.462 38.7501 29.08C39.6751 29.6981 40.3961 30.5766 40.8218 31.6045C41.2476 32.6323 41.359 33.7633 41.1419 34.8544C40.9249 35.9456 40.3891 36.9479 39.6025 37.7345C38.8158 38.5212 37.8135 39.0569 36.7224 39.274C35.6312 39.491 34.5002 39.3796 33.4724 38.9539C32.4446 38.5281 31.5661 37.8072 30.948 36.8821C30.3299 35.9571 30 34.8696 30 33.7571C30 32.2652 30.5926 30.8345 31.6475 29.7796C32.7024 28.7247 34.1332 28.1321 35.625 28.1321Z" fill="var(--fill-0, #5871ED)"/>
</svg>
