<svg preserveAspectRatio="none" width="100%" height="100%" overflow="visible" style="display: block;" viewBox="0 0 128.003 43.9984" fill="none" xmlns="http://www.w3.org/2000/svg">
<g id="Vector">
<path d="M81.47 17.116L76.8656 21.817V2.61602L81.47 7.317V17.116Z" fill="var(--fill-0, white)"/>
<path d="M81.47 17.116L76.8656 21.817H67.5561V17.116L81.47 17.116Z" fill="#6EBEC5"/>
<path d="M44.3375 33.9837H39.7332V2.61602L44.3375 2.66014V33.9837Z" fill="var(--fill-0, white)"/>
<path d="M7.1138 11.8513H2.50944V33.9788H7.1138V11.8513Z" fill="var(--fill-0, white)"/>
<path d="M25.728 33.9837H21.1237V2.61602L25.728 7.317V33.9837Z" fill="var(--fill-0, white)"/>
<path d="M25.728 2.61602V7.317L11.8142 7.317L16.4185 2.61602H25.728Z" fill="#6EBEC5"/>
<path d="M44.3375 2.61602V7.317H30.4284L35.0328 2.61602H44.3375Z" fill="#6EBEC5"/>
<path d="M58.3474 2.61602L62.9518 7.317H49.0427L53.647 2.61602H58.3474Z" fill="#6EBEC5"/>
<path d="M62.9518 29.2827L58.3474 33.9837H53.647L49.0427 29.2827H62.9518Z" fill="#6EBEC5"/>
<path d="M35.0328 33.9837H30.4284V7.317L35.0328 2.61602V33.9837Z" fill="var(--fill-0, white)"/>
<path d="M53.647 33.9837H49.0427V7.317L53.647 2.61602V33.9837Z" fill="var(--fill-0, white)"/>
<path d="M62.9518 29.2827L58.3474 33.9837V2.61602H62.9518V29.2827Z" fill="var(--fill-0, white)"/>
<path d="M72.1605 2.61602H67.5561V33.9837H72.1605V2.61602Z" fill="var(--fill-0, white)"/>
<path d="M90.7747 33.9837H86.1704V7.317L90.7747 2.61602V33.9837Z" fill="var(--fill-0, white)"/>
<path d="M81.4652 2.61602H67.5561V7.317H81.4652V2.61602Z" fill="#6EBEC5"/>
<path d="M95.4751 2.61602L100.079 7.317L86.1704 7.317L90.7747 2.61602H95.4751Z" fill="#6EBEC5"/>
<path d="M86.1704 17.116V21.817H100.079V17.116H86.1704Z" fill="#6EBEC5"/>
<path d="M127.946 2.61602V7.317H104.785L109.389 2.61602H127.946Z" fill="#6EBEC5"/>
<path d="M100.079 2.61602H95.4751L95.4751 33.9837H100.079V2.61602Z" fill="var(--fill-0, white)"/>
<path d="M109.389 33.9837H104.785V7.317L109.389 2.61602V33.9837Z" fill="var(--fill-0, white)"/>
<path d="M118.694 2.61602H114.089V33.9837H118.694V2.61602Z" fill="var(--fill-0, white)"/>
<path d="M128.003 2.61602H123.399V33.9837H128.003V2.61602Z" fill="var(--fill-0, white)"/>
<path d="M8.21306 1.44425C6.34059 -0.477323 3.29663 -0.482225 1.41456 1.43444C-0.467512 3.34621 -0.472313 6.45405 1.40496 8.37562C1.40976 8.38052 1.41456 8.38542 1.41936 8.39032L4.79941 11.8511L8.18905 8.40013C8.18905 8.40013 8.19866 8.39032 8.20346 8.38542C10.0855 6.47366 10.0903 3.36581 8.21306 1.44425ZM6.12454 6.25797C5.39475 6.99817 4.21366 6.99817 3.48868 6.25797C2.7637 5.51287 2.7637 4.30699 3.48868 3.56679C4.21846 2.8266 5.39956 2.8266 6.12454 3.56679C6.84952 4.31189 6.84952 5.51778 6.12454 6.25797Z" fill="#6EBEC5"/>
<path d="M16.4185 33.9837H11.8142V7.317L16.4185 2.61602V33.9837Z" fill="var(--fill-0, white)"/>
<path d="M3.58491 43.9347H2.52865V38.5327H3.58491V43.9347Z" fill="var(--fill-0, white)"/>
<path d="M6.77771 42.8513H6.84493L6.79692 38.5278H7.85318V43.9297H6.09594L5.46218 39.6062H5.40457L5.45258 43.9297H4.39632V38.5278H6.16316L6.78251 42.8513H6.77771Z" fill="var(--fill-0, white)"/>
<path d="M11.0268 42.8513H11.094L11.046 38.5278H12.1022V43.9297H10.345L9.71124 39.6062H9.65363L9.70164 43.9297H8.64538V38.5278H10.4122L11.0316 42.8513H11.0268Z" fill="var(--fill-0, white)"/>
<path d="M13.7635 38.4886H14.9253C15.4535 38.4886 15.876 38.9199 15.876 39.4592V43.0229C15.876 43.5621 15.4535 43.9935 14.9253 43.9935H13.7635C13.2353 43.9935 12.8128 43.5621 12.8128 43.0229V39.4592C12.8128 38.9199 13.2353 38.4886 13.7635 38.4886ZM13.9603 42.9935H14.7189C14.7861 42.9935 14.8197 42.9641 14.8197 42.9003V39.5915C14.8197 39.5229 14.7861 39.4984 14.7189 39.4984H13.9603C13.8931 39.4984 13.8691 39.5278 13.8691 39.5915V42.9003C13.8691 42.969 13.8931 42.9935 13.9603 42.9935Z" fill="var(--fill-0, white)"/>
<path d="M17.9453 42.8513C17.9597 42.9543 17.9933 43.0082 18.0461 43.0082H18.3822C18.435 43.0082 18.4686 42.9543 18.483 42.8513L19.0256 38.5278H20.0818L19.2464 43.768C19.232 43.8611 19.1024 43.9984 18.9632 43.9984H17.4508C17.3115 43.9984 17.1867 43.8856 17.1675 43.768L16.3273 38.5278H17.4124L17.9501 42.8513H17.9453Z" fill="var(--fill-0, white)"/>
<path d="M21.3734 42.8611L21.2341 43.9347H20.1779L20.9797 38.7631C20.9989 38.6552 21.1237 38.5327 21.2629 38.5327H22.8281C22.9674 38.5327 23.0922 38.6454 23.1114 38.7631L23.918 43.9347H22.8617L22.7225 42.8611H21.3734ZM22.3192 39.7435C22.3144 39.6503 22.2712 39.616 22.2328 39.616H21.8631C21.8151 39.616 21.7815 39.6503 21.7767 39.7435L21.5126 41.7827H22.5833L22.3192 39.7435Z" fill="var(--fill-0, white)"/>
<path d="M23.8268 38.5327H27.0292V39.6111H25.9633V43.9347H24.907V39.6111H23.8268V38.5327Z" fill="var(--fill-0, white)"/>
<path d="M28.5608 43.9347H27.5045V38.5327H28.5608V43.9347Z" fill="var(--fill-0, white)"/>
<path d="M30.7261 42.8513C30.7405 42.9543 30.7741 43.0082 30.8269 43.0082H31.163C31.2158 43.0082 31.2494 42.9543 31.2638 42.8513L31.8064 38.5278H32.8626L32.0272 43.768C32.0128 43.8611 31.8832 43.9984 31.744 43.9984H30.2316C30.0923 43.9984 29.9675 43.8856 29.9483 43.768L29.1081 38.5278H30.1932L30.7309 42.8513H30.7261Z" fill="var(--fill-0, white)"/>
<path d="M36.0506 39.6111H34.4374V40.616H35.873V41.6945H34.4374V42.8513H36.0506V43.9297H33.3764V38.5278H36.0506V39.6111Z" fill="var(--fill-0, white)"/>
<path d="M41.1495 39.4641V40.768C41.1495 41.3072 40.727 41.7386 40.1989 41.7386H39.1666V43.9347H38.1103V38.5327H40.1989C40.727 38.5327 41.1495 38.9248 41.1495 39.4641ZM40.0932 39.6503C40.0932 39.5768 40.0644 39.5425 39.9924 39.5425H39.1666V40.7386H40.002C40.0692 40.7386 40.0932 40.7092 40.0932 40.6454V39.6503Z" fill="var(--fill-0, white)"/>
<path d="M42.7339 42.8513H44.3471V43.9297H41.6872V38.5278H42.7339V42.8513Z" fill="var(--fill-0, white)"/>
<path d="M45.6866 42.8611L45.5474 43.9347H44.4911L45.2929 38.7631C45.3121 38.6552 45.437 38.5327 45.5762 38.5327H47.1414C47.2806 38.5327 47.4055 38.6454 47.4247 38.7631L48.2313 43.9347H47.175L47.0358 42.8611H45.6866ZM46.6325 39.7435C46.6277 39.6503 46.5845 39.616 46.546 39.616H46.1764C46.1283 39.616 46.0947 39.6503 46.0899 39.7435L45.8259 41.7827H46.8965L46.6325 39.7435Z" fill="var(--fill-0, white)"/>
<path d="M48.1448 38.5327H51.3473V39.6111H50.2814V43.9347H49.2251V39.6111H48.1448V38.5327Z" fill="var(--fill-0, white)"/>
<path d="M54.4728 39.7386H52.85V40.415H54.2856V41.4935H52.85V43.9297H51.7938V38.5278H54.4728V39.7386Z" fill="var(--fill-0, white)"/>
<path d="M55.8028 38.4886H56.9647C57.4928 38.4886 57.9153 38.9199 57.9153 39.4592V43.0229C57.9153 43.5621 57.4928 43.9935 56.9647 43.9935H55.8028C55.2746 43.9935 54.8521 43.5621 54.8521 43.0229V39.4592C54.8521 38.9199 55.2746 38.4886 55.8028 38.4886ZM55.9996 42.9935H56.7582C56.8254 42.9935 56.859 42.9641 56.859 42.9003V39.5915C56.859 39.5229 56.8254 39.4984 56.7582 39.4984H55.9996C55.9324 39.4984 55.9084 39.5278 55.9084 39.5915V42.9003C55.9084 42.969 55.9324 42.9935 55.9996 42.9935Z" fill="var(--fill-0, white)"/>
<path d="M61.6842 39.3415V40.3121C61.6842 40.665 61.473 40.9739 61.1753 41.1111C61.497 41.2337 61.7323 41.5523 61.7323 41.9199V43.9347H60.676V41.9641C60.676 41.7974 60.628 41.6945 60.5848 41.6552H59.6917V43.9395H58.6355V38.5376H60.8968C61.3337 38.5376 61.689 38.9003 61.689 39.3464L61.6842 39.3415ZM60.6184 40.3268V39.616C60.6184 39.5474 60.5992 39.5131 60.5512 39.5131H59.6869V40.567H60.5127C60.5848 40.5278 60.6184 40.4641 60.6184 40.3219V40.3268Z" fill="var(--fill-0, white)"/>
<path d="M64.7714 42.0621L65.1411 38.5278H66.9752L67.172 43.9297H66.1157L65.9813 39.6062H65.9237L65.2419 43.8611H64.2961L63.6143 39.6062H63.5567L63.4175 43.9297H62.3612L62.5677 38.5278H64.3249L64.7762 42.0621H64.7714Z" fill="var(--fill-0, white)"/>
<path d="M72.05 39.7386H70.4272V40.415H71.8628V41.4935H70.4272V43.9297H69.371V38.5278H72.05V39.7386Z" fill="var(--fill-0, white)"/>
<path d="M73.38 38.4886H74.5419C75.07 38.4886 75.4925 38.9199 75.4925 39.4592V43.0229C75.4925 43.5621 75.07 43.9935 74.5419 43.9935H73.38C72.8518 43.9935 72.4293 43.5621 72.4293 43.0229V39.4592C72.4293 38.9199 72.8518 38.4886 73.38 38.4886ZM73.5768 42.9935H74.3354C74.4026 42.9935 74.4362 42.9641 74.4362 42.9003V39.5915C74.4362 39.5229 74.4026 39.4984 74.3354 39.4984H73.5768C73.5096 39.4984 73.4856 39.5278 73.4856 39.5915V42.9003C73.4856 42.969 73.5096 42.9935 73.5768 42.9935Z" fill="var(--fill-0, white)"/>
<path d="M79.2614 39.3415V40.3121C79.2614 40.665 79.0502 40.9739 78.7525 41.1111C79.0742 41.2337 79.3094 41.5523 79.3094 41.9199V43.9347H78.2532V41.9641C78.2532 41.7974 78.2052 41.6945 78.162 41.6552H77.2689V43.9395H76.2127V38.5376H78.474C78.9109 38.5376 79.2662 38.9003 79.2662 39.3464L79.2614 39.3415ZM78.1956 40.3268V39.616C78.1956 39.5474 78.1764 39.5131 78.1283 39.5131H77.2641V40.567H78.0899C78.162 40.5278 78.1956 40.4641 78.1956 40.3219V40.3268Z" fill="var(--fill-0, white)"/>
<path d="M82.363 42.8611L82.2238 43.9347H81.1675L81.9693 38.7631C81.9885 38.6552 82.1133 38.5327 82.2526 38.5327H83.8178C83.957 38.5327 84.0818 38.6454 84.101 38.7631L84.9076 43.9347H83.8514L83.7122 42.8611H82.363ZM83.3088 39.7435C83.304 39.6503 83.2608 39.616 83.2224 39.616H82.8527C82.8047 39.616 82.7711 39.6503 82.7663 39.7435L82.5022 41.7827H83.5729L83.3088 39.7435Z" fill="var(--fill-0, white)"/>
<path d="M86.5016 43.9347H85.4454V38.5327H86.5016V43.9347Z" fill="var(--fill-0, white)"/>
<path d="M89.6848 42.8611L89.5456 43.9347H88.4893L89.2911 38.7631C89.3104 38.6552 89.4352 38.5327 89.5744 38.5327H91.1396C91.2788 38.5327 91.4037 38.6454 91.4229 38.7631L92.2295 43.9347H91.1732L91.034 42.8611H89.6848ZM90.6307 39.7435C90.6259 39.6503 90.5827 39.616 90.5443 39.616H90.1746C90.1265 39.616 90.0929 39.6503 90.0881 39.7435L89.8241 41.7827H90.8947L90.6307 39.7435Z" fill="var(--fill-0, white)"/>
<path d="M95.1294 42.8513H95.1966L95.1486 38.5278H96.2049V43.9297H94.4476L93.8139 39.6062H93.7563L93.8043 43.9297H92.748V38.5278H94.5148L95.1342 42.8513H95.1294Z" fill="var(--fill-0, white)"/>
<path d="M100.055 39.4641V42.9641C100.055 43.5033 99.6329 43.9347 99.1048 43.9347H96.9875V38.5327H99.1048C99.6329 38.5327 100.055 38.9248 100.055 39.4641ZM98.9992 42.8268V39.6405C98.9992 39.5719 98.9704 39.5376 98.9079 39.5376H98.0485V42.9297H98.9079C98.9752 42.9297 98.9992 42.8954 98.9992 42.8268Z" fill="var(--fill-0, white)"/>
<path d="M104.597 42.0621L104.967 38.5278H106.801L106.998 43.9297H105.942L105.807 39.6062H105.75L105.068 43.8611H104.122L103.44 39.6062H103.383L103.243 43.9297H102.187L102.394 38.5278H104.151L104.602 42.0621H104.597Z" fill="var(--fill-0, white)"/>
<path d="M108.63 42.8611L108.491 43.9347H107.435L108.237 38.7631C108.256 38.6552 108.381 38.5327 108.52 38.5327H110.085C110.224 38.5327 110.349 38.6454 110.368 38.7631L111.175 43.9347H110.119L109.98 42.8611H108.63ZM109.576 39.7435C109.571 39.6503 109.528 39.616 109.49 39.616H109.12C109.072 39.616 109.038 39.6503 109.034 39.7435L108.77 41.7827H109.84L109.576 39.7435Z" fill="var(--fill-0, white)"/>
<path d="M114.728 39.4641V40.768C114.728 41.3072 114.305 41.7386 113.777 41.7386H112.745V43.9347H111.689V38.5327H113.777C114.305 38.5327 114.728 38.9248 114.728 39.4641ZM113.672 39.6503C113.672 39.5768 113.643 39.5425 113.571 39.5425H112.745V40.7386H113.58C113.648 40.7386 113.672 40.7092 113.672 40.6454V39.6503Z" fill="var(--fill-0, white)"/>
<path d="M118.31 39.4641V40.768C118.31 41.3072 117.887 41.7386 117.359 41.7386H116.327V43.9347H115.27V38.5327H117.359C117.887 38.5327 118.31 38.9248 118.31 39.4641ZM117.253 39.6503C117.253 39.5768 117.225 39.5425 117.153 39.5425H116.327V40.7386H117.162C117.229 40.7386 117.253 40.7092 117.253 40.6454V39.6503Z" fill="var(--fill-0, white)"/>
<path d="M119.928 43.9347H118.871V38.5327H119.928V43.9347Z" fill="var(--fill-0, white)"/>
<path d="M123.125 42.8513H123.192L123.144 38.5278H124.201V43.9297H122.443L121.81 39.6062H121.752L121.8 43.9297H120.744V38.5278H122.511L123.13 42.8513H123.125Z" fill="var(--fill-0, white)"/>
<path d="M125.862 38.4886H126.995C127.523 38.4886 127.946 38.9199 127.946 39.4592V40.3121H126.889V39.5915C126.889 39.5229 126.856 39.4984 126.789 39.4984H126.064C125.996 39.4984 125.972 39.5278 125.972 39.5915V42.9003C125.972 42.969 125.996 42.9935 126.064 42.9935H126.789C126.856 42.9935 126.889 42.9641 126.889 42.9003V41.9935H126.28V40.915H127.946V43.0278C127.946 43.567 127.523 43.9984 126.995 43.9984H125.862C125.334 43.9984 124.911 43.567 124.911 43.0278V39.4641C124.911 38.9248 125.334 38.4935 125.862 38.4935V38.4886Z" fill="var(--fill-0, white)"/>
</g>
</svg>
