<svg width="131" height="44" viewBox="0 0 131 44" fill="none" xmlns="http://www.w3.org/2000/svg">
<path d="M83.3773 17.1165L78.6651 21.8177V2.61592L83.3773 7.3171V17.1165Z" fill="#45469A"/>
<path d="M83.3773 17.1165L78.6651 21.8177H69.1376V17.1165H83.3773Z" fill="#6EBEC5"/>
<path d="M45.3754 33.9849H40.6632V2.61592L45.3754 2.66004V33.9849Z" fill="#45469A"/>
<path d="M7.28014 11.8516H2.56798V33.98H7.28014V11.8516Z" fill="#45469A"/>
<path d="M26.3302 33.9849H21.6181V2.61592L26.3302 7.3171V33.9849Z" fill="#45469A"/>
<path d="M26.3302 2.61592V7.3171H12.0906L16.8027 2.61592H26.3302Z" fill="#6EBEC5"/>
<path d="M45.3754 2.61592V7.3171H31.1406L35.8528 2.61592H45.3754Z" fill="#6EBEC5"/>
<path d="M59.7133 2.61592L64.4255 7.3171H50.1907L54.9029 2.61592H59.7133Z" fill="#6EBEC5"/>
<path d="M64.4255 29.2837L59.7133 33.9849H54.9029L50.1907 29.2837H64.4255Z" fill="#6EBEC5"/>
<path d="M35.8528 33.9849H31.1406V7.3171L35.8528 2.61592V33.9849Z" fill="#45469A"/>
<path d="M54.9029 33.9849H50.1907V7.3171L54.9029 2.61592V33.9849Z" fill="#45469A"/>
<path d="M64.4255 29.2837L59.7133 33.9849V2.61592H64.4255V29.2837Z" fill="#45469A"/>
<path d="M73.8498 2.61592H69.1376V33.9849H73.8498V2.61592Z" fill="#45469A"/>
<path d="M92.8998 33.9849H88.1877V7.3171L92.8998 2.61592V33.9849Z" fill="#45469A"/>
<path d="M83.3723 2.61592H69.1376V7.3171H83.3723V2.61592Z" fill="#6EBEC5"/>
<path d="M97.7103 2.61592L102.422 7.3171H88.1877L92.8998 2.61592H97.7103Z" fill="#6EBEC5"/>
<path d="M88.1877 17.1165V21.8177H102.422V17.1165H88.1877Z" fill="#6EBEC5"/>
<path d="M130.941 2.61592V7.3171H107.238L111.95 2.61592H130.941Z" fill="#6EBEC5"/>
<path d="M102.422 2.61592H97.7103V33.9849H102.422V2.61592Z" fill="#45469A"/>
<path d="M111.95 33.9849H107.238V7.3171L111.95 2.61592V33.9849Z" fill="#45469A"/>
<path d="M121.473 2.61592H116.76V33.9849H121.473V2.61592Z" fill="#45469A"/>
<path d="M131 2.61592H126.288V33.9849H131V2.61592Z" fill="#45469A"/>
<path d="M8.40536 1.44431C6.48905 -0.477343 3.37382 -0.482245 1.44768 1.4345C-0.478458 3.34635 -0.483371 6.45432 1.43785 8.37597C1.44277 8.38087 1.44768 8.38577 1.45259 8.39067L4.91178 11.8516L8.38079 8.40048C8.38079 8.40048 8.39061 8.39067 8.39553 8.38577C10.3217 6.47393 10.3266 3.36595 8.40536 1.44431ZM6.26793 6.25823C5.52106 6.99846 4.31232 6.99846 3.57036 6.25823C2.8284 5.5131 2.8284 4.30717 3.57036 3.56694C4.31723 2.82672 5.52598 2.82672 6.26793 3.56694C7.00989 4.31207 7.00989 5.518 6.26793 6.25823Z" fill="#6EBEC5"/>
<path d="M16.8027 33.9849H12.0906V7.3171L16.8027 2.61592V33.9849Z" fill="#45469A"/>
<path d="M3.66863 43.9363H2.58764V38.5341H3.66863V43.9363Z" fill="#45469A"/>
<path d="M6.93618 42.8529H7.00497L6.95584 38.5292H8.03683V43.9314H6.23845L5.58985 39.6077H5.53089L5.58003 43.9314H4.49903V38.5292H6.30724L6.9411 42.8529H6.93618Z" fill="#45469A"/>
<path d="M11.2847 42.8529H11.3535L11.3044 38.5292H12.3854V43.9314H10.587L9.9384 39.6077H9.87944L9.92857 43.9314H8.84758V38.5292H10.6558L11.2896 42.8529H11.2847Z" fill="#45469A"/>
<path d="M14.0855 38.49H15.2746C15.8151 38.49 16.2475 38.9214 16.2475 39.4606V43.0245C16.2475 43.5637 15.8151 43.9951 15.2746 43.9951H14.0855C13.545 43.9951 13.1126 43.5637 13.1126 43.0245V39.4606C13.1126 38.9214 13.545 38.49 14.0855 38.49ZM14.2869 42.9951H15.0633C15.1321 42.9951 15.1665 42.9656 15.1665 42.9019V39.593C15.1665 39.5243 15.1321 39.4998 15.0633 39.4998H14.2869C14.2182 39.4998 14.1936 39.5292 14.1936 39.593V42.9019C14.1936 42.9705 14.2182 42.9951 14.2869 42.9951Z" fill="#45469A"/>
<path d="M18.3652 42.8529C18.38 42.9558 18.4144 43.0098 18.4684 43.0098H18.8124C18.8664 43.0098 18.9008 42.9558 18.9156 42.8529L19.4708 38.5292H20.5518L19.6968 43.7696C19.6821 43.8627 19.5494 44 19.4069 44H17.8591C17.7167 44 17.5889 43.8872 17.5692 43.7696L16.7094 38.5292H17.8198L18.3702 42.8529H18.3652Z" fill="#45469A"/>
<path d="M21.8736 42.8627L21.7311 43.9363H20.6501L21.4707 38.7645C21.4903 38.6566 21.6181 38.5341 21.7606 38.5341H23.3624C23.5049 38.5341 23.6326 38.6468 23.6523 38.7645L24.4778 43.9363H23.3968L23.2543 42.8627H21.8736ZM22.8416 39.7449C22.8366 39.6518 22.7924 39.6175 22.7531 39.6175H22.3748C22.3256 39.6175 22.2912 39.6518 22.2863 39.7449L22.0161 41.7842H23.1118L22.8416 39.7449Z" fill="#45469A"/>
<path d="M24.3844 38.5341H27.6618V39.6126H26.571V43.9363H25.49V39.6126H24.3844V38.5341Z" fill="#45469A"/>
<path d="M29.2292 43.9363H28.1483V38.5341H29.2292V43.9363Z" fill="#45469A"/>
<path d="M31.4453 42.8529C31.46 42.9558 31.4944 43.0098 31.5485 43.0098H31.8924C31.9465 43.0098 31.9809 42.9558 31.9956 42.8529L32.5508 38.5292H33.6318L32.7769 43.7696C32.7621 43.8627 32.6295 44 32.487 44H30.9392C30.7967 44 30.6689 43.8872 30.6493 43.7696L29.7894 38.5292H30.8999L31.4502 42.8529H31.4453Z" fill="#45469A"/>
<path d="M36.8945 39.6126H35.2435V40.6175H36.7127V41.696H35.2435V42.8529H36.8945V43.9314H34.1576V38.5292H36.8945V39.6126Z" fill="#45469A"/>
<path d="M42.1127 39.4655V40.7695C42.1127 41.3087 41.6803 41.7401 41.1398 41.7401H40.0834V43.9363H39.0024V38.5341H41.1398C41.6803 38.5341 42.1127 38.9263 42.1127 39.4655ZM41.0317 39.6518C41.0317 39.5782 41.0023 39.5439 40.9286 39.5439H40.0834V40.7401H40.9384C41.0072 40.7401 41.0317 40.7107 41.0317 40.6469V39.6518Z" fill="#45469A"/>
<path d="M43.7342 42.8529H45.3852V43.9314H42.6631V38.5292H43.7342V42.8529Z" fill="#45469A"/>
<path d="M46.7561 42.8627L46.6136 43.9363H45.5326L46.3532 38.7645C46.3728 38.6566 46.5006 38.5341 46.6431 38.5341H48.2449C48.3874 38.5341 48.5152 38.6468 48.5348 38.7645L49.3603 43.9363H48.2793L48.1368 42.8627H46.7561ZM47.7241 39.7449C47.7192 39.6518 47.6749 39.6175 47.6356 39.6175H47.2573C47.2082 39.6175 47.1738 39.6518 47.1688 39.7449L46.8986 41.7842H47.9943L47.7241 39.7449Z" fill="#45469A"/>
<path d="M49.2719 38.5341H52.5493V39.6126H51.4584V43.9363H50.3774V39.6126H49.2719V38.5341Z" fill="#45469A"/>
<path d="M55.748 39.74H54.0872V40.4165H55.5564V41.495H54.0872V43.9314H53.0062V38.5292H55.748V39.74Z" fill="#45469A"/>
<path d="M57.1091 38.49H58.2982C58.8387 38.49 59.2711 38.9214 59.2711 39.4606V43.0245C59.2711 43.5637 58.8387 43.9951 58.2982 43.9951H57.1091C56.5686 43.9951 56.1362 43.5637 56.1362 43.0245V39.4606C56.1362 38.9214 56.5686 38.49 57.1091 38.49ZM57.3105 42.9951H58.0869C58.1557 42.9951 58.1901 42.9656 58.1901 42.9019V39.593C58.1901 39.5243 58.1557 39.4998 58.0869 39.4998H57.3105C57.2417 39.4998 57.2172 39.5292 57.2172 39.593V42.9019C57.2172 42.9705 57.2417 42.9951 57.3105 42.9951Z" fill="#45469A"/>
<path d="M63.1283 39.3429V40.3136C63.1283 40.6665 62.9121 40.9754 62.6074 41.1126C62.9366 41.2352 63.1774 41.5538 63.1774 41.9215V43.9363H62.0964V41.9656C62.0964 41.7989 62.0473 41.696 62.003 41.6568H61.0891V43.9412H60.0081V38.539H62.3224C62.7696 38.539 63.1332 38.9017 63.1332 39.3478L63.1283 39.3429ZM62.0374 40.3283V39.6175C62.0374 39.5488 62.0178 39.5145 61.9686 39.5145H61.0842V40.5685H61.9293C62.003 40.5293 62.0374 40.4655 62.0374 40.3234V40.3283Z" fill="#45469A"/>
<path d="M66.2877 42.0636L66.6661 38.5292H68.5431L68.7445 43.9314H67.6635L67.5259 39.6077H67.467L66.7692 43.8627H65.8013L65.1035 39.6077H65.0446L64.9021 43.9314H63.8211L64.0324 38.5292H65.8307L66.2926 42.0636H66.2877Z" fill="#45469A"/>
<path d="M73.7368 39.74H72.076V40.4165H73.5451V41.495H72.076V43.9314H70.995V38.5292H73.7368V39.74Z" fill="#45469A"/>
<path d="M75.0978 38.49H76.2869C76.8274 38.49 77.2598 38.9214 77.2598 39.4606V43.0245C77.2598 43.5637 76.8274 43.9951 76.2869 43.9951H75.0978C74.5573 43.9951 74.1249 43.5637 74.1249 43.0245V39.4606C74.1249 38.9214 74.5573 38.49 75.0978 38.49ZM75.2993 42.9951H76.0756C76.1444 42.9951 76.1788 42.9656 76.1788 42.9019V39.593C76.1788 39.5243 76.1444 39.4998 76.0756 39.4998H75.2993C75.2305 39.4998 75.2059 39.5292 75.2059 39.593V42.9019C75.2059 42.9705 75.2305 42.9951 75.2993 42.9951Z" fill="#45469A"/>
<path d="M81.117 39.3429V40.3136C81.117 40.6665 80.9008 40.9754 80.5962 41.1126C80.9254 41.2352 81.1661 41.5538 81.1661 41.9215V43.9363H80.0851V41.9656C80.0851 41.7989 80.036 41.696 79.9918 41.6568H79.0779V43.9412H77.9969V38.539H80.3112C80.7583 38.539 81.1219 38.9017 81.1219 39.3478L81.117 39.3429ZM80.0262 40.3283V39.6175C80.0262 39.5488 80.0065 39.5145 79.9574 39.5145H79.0729V40.5685H79.9181C79.9918 40.5293 80.0262 40.4655 80.0262 40.3234V40.3283Z" fill="#45469A"/>
<path d="M84.2912 42.8627L84.1487 43.9363H83.0677L83.8883 38.7645C83.9079 38.6566 84.0357 38.5341 84.1782 38.5341H85.78C85.9225 38.5341 86.0503 38.6468 86.0699 38.7645L86.8954 43.9363H85.8144L85.6719 42.8627H84.2912ZM85.2592 39.7449C85.2543 39.6518 85.21 39.6175 85.1707 39.6175H84.7924C84.7432 39.6175 84.7089 39.6518 84.7039 39.7449L84.4337 41.7842H85.5294L85.2592 39.7449Z" fill="#45469A"/>
<path d="M88.5267 43.9363H87.4457V38.5341H88.5267V43.9363Z" fill="#45469A"/>
<path d="M91.7845 42.8627L91.642 43.9363H90.561L91.3815 38.7645C91.4012 38.6566 91.5289 38.5341 91.6714 38.5341H93.2733C93.4158 38.5341 93.5435 38.6468 93.5632 38.7645L94.3887 43.9363H93.3077L93.1652 42.8627H91.7845ZM92.7524 39.7449C92.7475 39.6518 92.7033 39.6175 92.664 39.6175H92.2856C92.2365 39.6175 92.2021 39.6518 92.1972 39.7449L91.927 41.7842H93.0227L92.7524 39.7449Z" fill="#45469A"/>
<path d="M97.3565 42.8529H97.4253L97.3761 38.5292H98.4571V43.9314H96.6588L96.0102 39.6077H95.9512L96.0003 43.9314H94.9193V38.5292H96.7276L97.3614 42.8529H97.3565Z" fill="#45469A"/>
<path d="M102.398 39.4655V42.9656C102.398 43.5049 101.965 43.9363 101.425 43.9363H99.2581V38.5341H101.425C101.965 38.5341 102.398 38.9263 102.398 39.4655ZM101.317 42.8284V39.642C101.317 39.5733 101.287 39.539 101.224 39.539H100.344V42.9313H101.224C101.292 42.9313 101.317 42.897 101.317 42.8284Z" fill="#45469A"/>
<path d="M107.046 42.0636L107.424 38.5292H109.301L109.503 43.9314H108.422L108.284 39.6077H108.225L107.528 43.8627H106.56L105.862 39.6077H105.803L105.66 43.9314H104.58L104.791 38.5292H106.589L107.051 42.0636H107.046Z" fill="#45469A"/>
<path d="M111.174 42.8627L111.031 43.9363H109.95L110.771 38.7645C110.79 38.6566 110.918 38.5341 111.061 38.5341H112.662C112.805 38.5341 112.933 38.6468 112.952 38.7645L113.778 43.9363H112.697L112.554 42.8627H111.174ZM112.142 39.7449C112.137 39.6518 112.092 39.6175 112.053 39.6175H111.675C111.626 39.6175 111.591 39.6518 111.586 39.7449L111.316 41.7842H112.412L112.142 39.7449Z" fill="#45469A"/>
<path d="M117.414 39.4655V40.7695C117.414 41.3087 116.981 41.7401 116.441 41.7401H115.385V43.9363H114.304V38.5341H116.441C116.981 38.5341 117.414 38.9263 117.414 39.4655ZM116.333 39.6518C116.333 39.5782 116.303 39.5439 116.23 39.5439H115.385V40.7401H116.24C116.308 40.7401 116.333 40.7107 116.333 40.6469V39.6518Z" fill="#45469A"/>
<path d="M121.079 39.4655V40.7695C121.079 41.3087 120.647 41.7401 120.107 41.7401H119.05V43.9363H117.969V38.5341H120.107C120.647 38.5341 121.079 38.9263 121.079 39.4655ZM119.998 39.6518C119.998 39.5782 119.969 39.5439 119.895 39.5439H119.05V40.7401H119.905C119.974 40.7401 119.998 40.7107 119.998 40.6469V39.6518Z" fill="#45469A"/>
<path d="M122.735 43.9363H121.654V38.5341H122.735V43.9363Z" fill="#45469A"/>
<path d="M126.008 42.8529H126.077L126.027 38.5292H127.108V43.9314H125.31L124.661 39.6077H124.602L124.652 43.9314H123.571V38.5292H125.379L126.013 42.8529H126.008Z" fill="#45469A"/>
<path d="M128.809 38.49H129.968C130.509 38.49 130.941 38.9214 130.941 39.4606V40.3136H129.86V39.593C129.86 39.5243 129.826 39.4998 129.757 39.4998H129.015C128.946 39.4998 128.922 39.5292 128.922 39.593V42.9019C128.922 42.9705 128.946 42.9951 129.015 42.9951H129.757C129.826 42.9951 129.86 42.9656 129.86 42.9019V41.995H129.236V40.9165H130.941V43.0294C130.941 43.5686 130.509 44 129.968 44H128.809C128.268 44 127.836 43.5686 127.836 43.0294V39.4655C127.836 38.9263 128.268 38.4949 128.809 38.4949V38.49Z" fill="#45469A"/>
</svg>
