<svg preserveAspectRatio="none" width="100%" height="100%" overflow="visible" style="display: block;" viewBox="0 0 46.8812 52.4977" fill="none" xmlns="http://www.w3.org/2000/svg">
<path id="Vector" d="M39.4936 36.4383C41.8647 34.4466 43.7588 31.9484 45.0365 29.1278C46.3142 26.3071 46.9429 23.2357 46.8764 20.1399C46.6421 9.42658 38.0616 0.592985 27.3671 0.0304852C24.6077 -0.119706 21.8463 0.28615 19.2468 1.22395C16.6474 2.16175 14.2629 3.61237 12.235 5.48965C10.2071 7.36694 8.57708 9.6326 7.44184 12.1521C6.30659 14.6716 5.68924 17.3935 5.62643 20.1563L0.364716 30.2766C0.343622 30.3188 0.322528 30.361 0.303778 30.4031C-0.0734485 31.2824 -0.100334 32.2726 0.228626 33.171C0.557586 34.0695 1.21751 34.8082 2.07331 35.236L2.1319 35.2617L7.50143 37.7203V45C7.50143 45.9946 7.89652 46.9484 8.59978 47.6517C9.30304 48.3549 10.2569 48.75 11.2514 48.75H22.5014C22.9987 48.75 23.4756 48.5525 23.8273 48.2008C24.1789 47.8492 24.3764 47.3723 24.3764 46.875C24.3764 46.3777 24.1789 45.9008 23.8273 45.5492C23.4756 45.1976 22.9987 45 22.5014 45H11.2514V36.518C11.2517 36.1586 11.1487 35.8067 10.9546 35.5042C10.7606 35.2017 10.4837 34.9613 10.1569 34.8117L3.75143 31.875L9.15846 21.4828C9.2994 21.2187 9.37419 20.9244 9.37643 20.625C9.37589 16.8008 10.6743 13.0898 13.0589 10.1001C15.4435 7.11045 18.7728 5.01937 22.5014 4.16955V7.82345C21.2504 8.26576 20.196 9.13608 19.5246 10.2806C18.8532 11.4251 18.6081 12.7702 18.8324 14.078C19.0568 15.3858 19.7363 16.5721 20.7508 17.4274C21.7653 18.2827 23.0495 18.7518 24.3764 18.7518C25.7033 18.7518 26.9875 18.2827 28.002 17.4274C29.0165 16.5721 29.696 15.3858 29.9204 14.078C30.1448 12.7702 29.8996 11.4251 29.2282 10.2806C28.5568 9.13608 27.5025 8.26576 26.2514 7.82345V3.75002C26.5561 3.75002 26.8608 3.75002 27.1655 3.77345C30.4905 3.96391 33.6856 5.13051 36.3511 7.12733C39.0166 9.12415 41.0341 11.8625 42.1514 15H37.5014C37.2264 14.9999 36.9547 15.0603 36.7056 15.177C36.4565 15.2936 36.2361 15.4637 36.06 15.675L30.0811 22.8516C28.8342 22.3869 27.4631 22.3783 26.2103 22.827C24.9576 23.2758 23.9039 24.1532 23.2357 25.3039C22.5674 26.4547 22.3277 27.8047 22.5588 29.1152C22.7899 30.4256 23.4771 31.6122 24.4987 32.4649C25.5202 33.3176 26.8105 33.7816 28.1412 33.7747C29.4719 33.7679 30.7573 33.2907 31.77 32.4275C32.7828 31.5643 33.4577 30.3708 33.6753 29.058C33.8929 27.7452 33.6393 26.3977 32.9592 25.2539L38.3803 18.75H43.0186C43.0749 19.2375 43.1092 19.7297 43.1217 20.2266C43.1802 22.9121 42.599 25.5731 41.4261 27.9897C40.2533 30.4063 38.5224 32.5093 36.3764 34.125C36.112 34.3233 35.9047 34.5879 35.7754 34.892C35.6462 35.1962 35.5996 35.5291 35.6405 35.8571L37.5155 50.8571C37.5725 51.3099 37.7928 51.7263 38.135 52.0284C38.4771 52.3304 38.9177 52.4973 39.3741 52.4977C39.4524 52.4977 39.5307 52.493 39.6085 52.4836C39.8529 52.4532 40.0889 52.3749 40.303 52.2532C40.5172 52.1316 40.7052 51.9689 40.8565 51.7746C41.0078 51.5802 41.1193 51.358 41.1846 51.1205C41.25 50.883 41.2679 50.635 41.2374 50.3906L39.4936 36.4383ZM24.3764 15C24.0056 15 23.6431 14.8901 23.3347 14.684C23.0264 14.478 22.7861 14.1852 22.6442 13.8425C22.5022 13.4999 22.4651 13.1229 22.5375 12.7592C22.6098 12.3955 22.7884 12.0614 23.0506 11.7992C23.3128 11.537 23.6469 11.3584 24.0106 11.286C24.3744 11.2137 24.7514 11.2508 25.094 11.3927C25.4366 11.5347 25.7294 11.775 25.9354 12.0833C26.1415 12.3917 26.2514 12.7542 26.2514 13.125C26.2514 13.6223 26.0539 14.0992 25.7023 14.4508C25.3506 14.8025 24.8737 15 24.3764 15ZM28.1264 30C27.7556 30 27.3931 29.8901 27.0847 29.684C26.7764 29.478 26.5361 29.1852 26.3942 28.8425C26.2522 28.4999 26.2151 28.1229 26.2875 27.7592C26.3598 27.3955 26.5384 27.0614 26.8006 26.7992C27.0628 26.537 27.3969 26.3584 27.7606 26.286C28.1244 26.2137 28.5014 26.2508 28.844 26.3927C29.1866 26.5347 29.4794 26.775 29.6854 27.0833C29.8915 27.3917 30.0014 27.7542 30.0014 28.125C30.0014 28.6223 29.8039 29.0992 29.4523 29.4508C29.1006 29.8025 28.6237 30 28.1264 30Z" fill="var(--fill-0, #5871ED)"/>
</svg>
