<svg preserveAspectRatio="none" width="100%" height="100%" overflow="visible" style="display: block;" viewBox="0 0 24 24" fill="none" xmlns="http://www.w3.org/2000/svg">
<g id="Essentials/offer-check/3">
<g id="Icon">
<path d="M10.8802 2.09712C11.273 1.71234 11.4693 1.51995 11.6949 1.44768C11.8933 1.38409 12.1067 1.38409 12.3051 1.44768C12.5307 1.51995 12.727 1.71234 13.1198 2.09712L13.6902 2.65601C13.9252 2.88628 14.0427 3.00141 14.1813 3.07133C14.304 3.1332 14.4381 3.16913 14.5753 3.17688C14.7303 3.18564 14.8896 3.14469 15.2083 3.06278L15.9817 2.86398C16.5142 2.7271 16.7804 2.65867 17.0119 2.70886C17.2156 2.75302 17.4003 2.8597 17.5404 3.01399C17.6996 3.18935 17.7735 3.45414 17.9212 3.98373L18.1357 4.75296C18.2241 5.06989 18.2683 5.22835 18.3534 5.3582C18.4287 5.47312 18.5269 5.57129 18.6418 5.64658C18.7716 5.73167 18.9301 5.77587 19.247 5.86426L20.0163 6.07882C20.5459 6.22654 20.8107 6.30039 20.986 6.45959C21.1403 6.59966 21.247 6.78443 21.2911 6.98809C21.3413 7.21955 21.2729 7.4858 21.136 8.0183L20.9372 8.79175C20.8553 9.11041 20.8144 9.26975 20.8231 9.42474C20.8309 9.56191 20.8668 9.69601 20.9287 9.81868C20.9986 9.95729 21.1137 10.0748 21.344 10.3098L21.9029 10.8802C22.2877 11.273 22.4801 11.4693 22.5523 11.6949C22.6159 11.8933 22.6159 12.1067 22.5523 12.3051C22.4801 12.5307 22.2877 12.727 21.9029 13.1198L21.344 13.6902C21.1137 13.9252 20.9986 14.0427 20.9287 14.1813C20.8668 14.304 20.8309 14.4381 20.8231 14.5753C20.8144 14.7303 20.8553 14.8896 20.9372 15.2083L21.136 15.9817C21.2729 16.5142 21.3413 16.7804 21.2911 17.0119C21.247 17.2156 21.1403 17.4003 20.986 17.5404C20.8107 17.6996 20.5459 17.7735 20.0163 17.9212L19.247 18.1357C18.9301 18.2241 18.7716 18.2683 18.6418 18.3534C18.5269 18.4287 18.4287 18.5269 18.3534 18.6418C18.2683 18.7716 18.2241 18.9301 18.1357 19.247L17.9212 20.0163C17.7735 20.5459 17.6996 20.8107 17.5404 20.986C17.4003 21.1403 17.2156 21.247 17.0119 21.2911C16.7804 21.3413 16.5142 21.2729 15.9817 21.136L15.2083 20.9372C14.8896 20.8553 14.7303 20.8144 14.5753 20.8231C14.4381 20.8309 14.304 20.8668 14.1813 20.9287C14.0427 20.9986 13.9252 21.1137 13.6902 21.344L13.1198 21.9029C12.727 22.2877 12.5307 22.4801 12.3051 22.5523C12.1067 22.6159 11.8933 22.6159 11.6949 22.5523C11.4693 22.4801 11.273 22.2877 10.8802 21.9029L10.3098 21.344C10.0748 21.1137 9.95729 20.9986 9.81868 20.9287C9.69601 20.8668 9.56191 20.8309 9.42474 20.8231C9.26975 20.8144 9.11041 20.8553 8.79175 20.9372L8.0183 21.136C7.4858 21.2729 7.21955 21.3413 6.98809 21.2911C6.78443 21.247 6.59966 21.1403 6.45959 20.986C6.30039 20.8107 6.22654 20.5459 6.07882 20.0163L5.86426 19.247C5.77587 18.9301 5.73167 18.7716 5.64658 18.6418C5.57129 18.5269 5.47312 18.4287 5.3582 18.3534C5.22835 18.2683 5.06989 18.2241 4.75296 18.1357L3.98373 17.9212C3.45414 17.7735 3.18935 17.6996 3.01399 17.5404C2.8597 17.4003 2.75302 17.2156 2.70886 17.0119C2.65867 16.7804 2.7271 16.5142 2.86397 15.9817L3.06278 15.2083C3.14469 14.8896 3.18564 14.7303 3.17688 14.5753C3.16913 14.4381 3.1332 14.304 3.07133 14.1813C3.00141 14.0427 2.88628 13.9252 2.65601 13.6902L2.09712 13.1198C1.71234 12.727 1.51995 12.5307 1.44768 12.3051C1.38409 12.1067 1.38409 11.8933 1.44768 11.6949C1.51995 11.4693 1.71234 11.273 2.09712 10.8802L2.65601 10.3098C2.88628 10.0748 3.00141 9.95729 3.07133 9.81868C3.1332 9.69601 3.16913 9.56191 3.17688 9.42474C3.18564 9.26975 3.14469 9.11041 3.06278 8.79175L2.86398 8.0183C2.7271 7.4858 2.65867 7.21955 2.70886 6.98809C2.75302 6.78443 2.8597 6.59966 3.01399 6.45959C3.18935 6.30039 3.45414 6.22654 3.98373 6.07882L4.75296 5.86426C5.06989 5.77587 5.22835 5.73167 5.3582 5.64658C5.47312 5.57129 5.57129 5.47312 5.64658 5.3582C5.73167 5.22835 5.77587 5.06989 5.86426 4.75296L6.07882 3.98373C6.22654 3.45414 6.30039 3.18935 6.45959 3.01399C6.59966 2.8597 6.78443 2.75302 6.98809 2.70886C7.21955 2.65867 7.4858 2.7271 8.0183 2.86397L8.79175 3.06278C9.11041 3.14469 9.26975 3.18564 9.42474 3.17688C9.56191 3.16913 9.69601 3.1332 9.81868 3.07133C9.95729 3.00141 10.0748 2.88628 10.3098 2.65601L10.8802 2.09712Z" fill="var(--fill-0, #5871ED)" fill-opacity="0.1"/>
<path d="M11.0707 13.9293L10.3636 13.2222V13.2222L11.0707 13.9293ZM15.7071 10.7071C16.0976 10.3166 16.0976 9.68342 15.7071 9.29289C15.3166 8.90237 14.6834 8.90237 14.2929 9.29289L15 10L15.7071 10.7071ZM10.9293 13.9293L11.6364 13.2222L11.6364 13.2222L10.9293 13.9293ZM9.70711 11.2929C9.31658 10.9024 8.68342 10.9024 8.29289 11.2929C7.90237 11.6834 7.90237 12.3166 8.29289 12.7071L9 12L9.70711 11.2929ZM8.79175 3.06278L9.04069 2.09426V2.09426L8.79175 3.06278ZM9.42474 3.17688L9.48116 4.17529V4.17529L9.42474 3.17688ZM10.3098 2.65601L11.0097 3.3703V3.3703L10.3098 2.65601ZM9.81868 3.07133L10.269 3.96418V3.96418L9.81868 3.07133ZM6.07882 3.98373L5.11559 3.71506L5.11559 3.71506L6.07882 3.98373ZM6.45959 3.01399L7.2 3.68615L6.45959 3.01399ZM8.0183 2.86397L7.76936 3.83249V3.83249L8.0183 2.86397ZM6.98809 2.70886L6.77618 1.73157V1.73157L6.98809 2.70886ZM4.75296 5.86426L4.48429 4.90103H4.48429L4.75296 5.86426ZM5.3582 5.64658L5.90626 6.48302V6.48302L5.3582 5.64658ZM5.86426 4.75296L6.8275 5.02163V5.02163L5.86426 4.75296ZM5.64658 5.3582L6.48302 5.90626L6.48302 5.90626L5.64658 5.3582ZM2.86398 8.0183L3.83249 7.76936V7.76936L2.86398 8.0183ZM2.70886 6.98809L1.73157 6.77618V6.77618L2.70886 6.98809ZM3.98373 6.07882L4.2524 7.04205H4.2524L3.98373 6.07882ZM3.01399 6.45959L3.68615 7.2L3.01399 6.45959ZM2.65601 10.3098L3.3703 11.0097L3.3703 11.0097L2.65601 10.3098ZM3.07133 9.81868L3.96418 10.269V10.269L3.07133 9.81868ZM3.06278 8.79175L2.09426 9.04069H2.09426L3.06278 8.79175ZM3.17688 9.42474L4.17529 9.48116V9.48116L3.17688 9.42474ZM2.09712 13.1198L1.38283 13.8196L2.09712 13.1198ZM1.44768 12.3051L0.495369 12.6103L1.44768 12.3051ZM2.09712 10.8802L1.38283 10.1804L1.38283 10.1804L2.09712 10.8802ZM1.44768 11.6949L0.495369 11.3897L1.44768 11.6949ZM3.06278 15.2083L4.0313 15.4572V15.4572L3.06278 15.2083ZM3.17688 14.5753L4.17529 14.5188V14.5188L3.17688 14.5753ZM2.65601 13.6902L3.3703 12.9903V12.9903L2.65601 13.6902ZM3.07133 14.1813L3.96418 13.731V13.731L3.07133 14.1813ZM3.98373 17.9212L4.2524 16.9579L4.2524 16.9579L3.98373 17.9212ZM3.01399 17.5404L3.68615 16.8L3.01399 17.5404ZM2.86397 15.9817L1.89546 15.7328H1.89546L2.86397 15.9817ZM2.70886 17.0119L1.73157 17.2238V17.2238L2.70886 17.0119ZM5.86426 19.247L6.8275 18.9784V18.9784L5.86426 19.247ZM5.64658 18.6418L6.48302 18.0937H6.48302L5.64658 18.6418ZM4.75296 18.1357L4.48429 19.099H4.48429L4.75296 18.1357ZM5.3582 18.3534L5.90626 17.517H5.90626L5.3582 18.3534ZM8.0183 21.136L7.76936 20.1675H7.76936L8.0183 21.136ZM6.98809 21.2911L7.19999 20.3139L6.98809 21.2911ZM6.07882 20.0163L5.11559 20.2849H5.11559L6.07882 20.0163ZM6.45959 20.986L5.71918 21.6582L6.45959 20.986ZM10.3098 21.344L11.0097 20.6297L11.0097 20.6297L10.3098 21.344ZM9.81868 20.9287L9.36833 21.8215L9.81868 20.9287ZM8.79175 20.9372L9.04069 21.9057H9.04069L8.79175 20.9372ZM9.42474 20.8231L9.48116 19.8247L9.42474 20.8231ZM13.1198 21.9029L12.4199 21.1886V21.1886L13.1198 21.9029ZM12.3051 22.5523L12 21.6L12.3051 22.5523ZM10.8802 21.9029L10.1804 22.6172L10.1804 22.6172L10.8802 21.9029ZM11.6949 22.5523L12 21.6L11.6949 22.5523ZM15.2083 20.9372L14.9593 21.9057V21.9057L15.2083 20.9372ZM14.5753 20.8231L14.5188 19.8247L14.5753 20.8231ZM13.6902 21.344L14.39 22.0583V22.0583L13.6902 21.344ZM14.1813 20.9287L14.6317 21.8215L14.1813 20.9287ZM17.9212 20.0163L16.9579 19.7476L16.9579 19.7476L17.9212 20.0163ZM17.5404 20.986L18.2808 21.6582L17.5404 20.986ZM15.9817 21.136L16.2306 20.1675V20.1675L15.9817 21.136ZM17.0119 21.2911L16.8 20.3139L17.0119 21.2911ZM19.247 18.1357L19.5157 19.099V19.099L19.247 18.1357ZM18.6418 18.3534L18.0937 17.517V17.517L18.6418 18.3534ZM18.1357 19.247L19.099 19.5157V19.5157L18.1357 19.247ZM18.3534 18.6418L17.517 18.0937V18.0937L18.3534 18.6418ZM21.136 15.9817L20.1675 16.2306V16.2306L21.136 15.9817ZM21.2911 17.0119L20.3139 16.8L21.2911 17.0119ZM20.0163 17.9212L19.7476 16.9579V16.9579L20.0163 17.9212ZM20.986 17.5404L21.6582 18.2808L20.986 17.5404ZM21.344 13.6902L20.6297 12.9903L20.6297 12.9903L21.344 13.6902ZM20.9287 14.1813L21.8215 14.6317L20.9287 14.1813ZM20.9372 15.2083L21.9057 14.9593V14.9593L20.9372 15.2083ZM20.8231 14.5753L19.8247 14.5188L20.8231 14.5753ZM21.9029 10.8802L21.1886 11.5801V11.5801L21.9029 10.8802ZM22.5523 11.6949L21.6 12L22.5523 11.6949ZM21.9029 13.1198L22.6172 13.8196L22.6172 13.8196L21.9029 13.1198ZM22.5523 12.3051L21.6 12L22.5523 12.3051ZM20.9372 8.79175L21.9057 9.04069V9.04069L20.9372 8.79175ZM20.8231 9.42474L19.8247 9.48116L20.8231 9.42474ZM21.344 10.3098L22.0583 9.60997V9.60997L21.344 10.3098ZM20.9287 9.81868L21.8215 9.36833L20.9287 9.81868ZM20.0163 6.07882L19.7476 7.04205V7.04205L20.0163 6.07882ZM20.986 6.45959L21.6582 5.71918L20.986 6.45959ZM21.136 8.0183L20.1675 7.76936V7.76936L21.136 8.0183ZM21.2911 6.98809L20.3139 7.19999L21.2911 6.98809ZM18.1357 4.75296L19.099 4.48429V4.48429L18.1357 4.75296ZM18.3534 5.3582L17.517 5.90626V5.90626L18.3534 5.3582ZM19.247 5.86426L19.5157 4.90103V4.90103L19.247 5.86426ZM18.6418 5.64658L18.0937 6.48302V6.48302L18.6418 5.64658ZM15.9817 2.86398L16.2306 3.83249V3.83249L15.9817 2.86398ZM17.0119 2.70886L17.2238 1.73157V1.73157L17.0119 2.70886ZM17.9212 3.98373L16.9579 4.2524L16.9579 4.2524L17.9212 3.98373ZM17.5404 3.01399L16.8 3.68615L17.5404 3.01399ZM13.6902 2.65601L12.9903 3.3703L12.9903 3.3703L13.6902 2.65601ZM14.1813 3.07133L13.731 3.96418V3.96418L14.1813 3.07133ZM15.2083 3.06278L14.9593 2.09426V2.09426L15.2083 3.06278ZM14.5753 3.17688L14.5188 4.17529V4.17529L14.5753 3.17688ZM13.1198 2.09712L13.8196 1.38283L13.8196 1.38283L13.1198 2.09712ZM12.3051 1.44768L12.6103 0.495369L12.3051 1.44768ZM10.8802 2.09712L10.1804 1.38283L10.8802 2.09712ZM11.6949 1.44768L11.3897 0.495369L11.6949 1.44768ZM11.0707 13.9293L11.7778 14.6364L15.7071 10.7071L15 10L14.2929 9.29289L10.3636 13.2222L11.0707 13.9293ZM10.9293 13.9293L11.6364 13.2222L9.70711 11.2929L9 12L8.29289 12.7071L10.2222 14.6364L10.9293 13.9293ZM11.0707 13.9293L10.3636 13.2222C10.7151 12.8707 11.2849 12.8707 11.6364 13.2222L10.9293 13.9293L10.2222 14.6364C10.6518 15.066 11.3482 15.066 11.7778 14.6364L11.0707 13.9293ZM13.1198 2.09712L12.4199 2.81141L12.9903 3.3703L13.6902 2.65601L14.39 1.94172L13.8196 1.38283L13.1198 2.09712ZM15.2083 3.06278L15.4572 4.0313L16.2306 3.83249L15.9817 2.86398L15.7328 1.89546L14.9593 2.09426L15.2083 3.06278ZM17.9212 3.98373L16.9579 4.2524L17.1725 5.02163L18.1357 4.75296L19.099 4.48429L18.8844 3.71506L17.9212 3.98373ZM19.247 5.86426L18.9784 6.8275L19.7476 7.04205L20.0163 6.07882L20.2849 5.11559L19.5157 4.90103L19.247 5.86426ZM21.136 8.0183L20.1675 7.76936L19.9687 8.54281L20.9372 8.79175L21.9057 9.04069L22.1045 8.26724L21.136 8.0183ZM21.344 10.3098L20.6297 11.0097L21.1886 11.5801L21.9029 10.8802L22.6172 10.1804L22.0583 9.60997L21.344 10.3098ZM21.9029 13.1198L21.1886 12.4199L20.6297 12.9903L21.344 13.6902L22.0583 14.39L22.6172 13.8196L21.9029 13.1198ZM20.9372 15.2083L19.9687 15.4572L20.1675 16.2306L21.136 15.9817L22.1045 15.7328L21.9057 14.9593L20.9372 15.2083ZM20.0163 17.9212L19.7476 16.9579L18.9784 17.1725L19.247 18.1357L19.5157 19.099L20.2849 18.8844L20.0163 17.9212ZM18.1357 19.247L17.1725 18.9784L16.9579 19.7476L17.9212 20.0163L18.8844 20.2849L19.099 19.5157L18.1357 19.247ZM15.9817 21.136L16.2306 20.1675L15.4572 19.9687L15.2083 20.9372L14.9593 21.9057L15.7328 22.1045L15.9817 21.136ZM13.6902 21.344L12.9903 20.6297L12.4199 21.1886L13.1198 21.9029L13.8196 22.6172L14.39 22.0583L13.6902 21.344ZM10.8802 21.9029L11.5801 21.1886L11.0097 20.6297L10.3098 21.344L9.60996 22.0583L10.1804 22.6172L10.8802 21.9029ZM8.79175 20.9372L8.54281 19.9687L7.76936 20.1675L8.0183 21.136L8.26724 22.1045L9.04069 21.9057L8.79175 20.9372ZM6.07882 20.0163L7.04205 19.7476L6.8275 18.9784L5.86426 19.247L4.90103 19.5157L5.11559 20.2849L6.07882 20.0163ZM4.75296 18.1357L5.02163 17.1725L4.2524 16.9579L3.98373 17.9212L3.71506 18.8844L4.48429 19.099L4.75296 18.1357ZM2.86397 15.9817L3.83249 16.2306L4.0313 15.4572L3.06278 15.2083L2.09426 14.9593L1.89546 15.7328L2.86397 15.9817ZM2.65601 13.6902L3.3703 12.9903L2.81141 12.4199L2.09712 13.1198L1.38283 13.8196L1.94172 14.39L2.65601 13.6902ZM2.09712 10.8802L2.81141 11.5801L3.3703 11.0097L2.65601 10.3098L1.94172 9.60996L1.38283 10.1804L2.09712 10.8802ZM3.06278 8.79175L4.0313 8.54281L3.83249 7.76936L2.86398 8.0183L1.89546 8.26724L2.09426 9.04069L3.06278 8.79175ZM3.98373 6.07882L4.2524 7.04205L5.02163 6.8275L4.75296 5.86426L4.48429 4.90103L3.71506 5.11559L3.98373 6.07882ZM5.86426 4.75296L6.8275 5.02163L7.04205 4.2524L6.07882 3.98373L5.11559 3.71506L4.90103 4.48429L5.86426 4.75296ZM8.0183 2.86397L7.76936 3.83249L8.54281 4.0313L8.79175 3.06278L9.04069 2.09426L8.26724 1.89546L8.0183 2.86397ZM10.3098 2.65601L11.0097 3.3703L11.5801 2.81141L10.8802 2.09712L10.1804 1.38283L9.60997 1.94172L10.3098 2.65601ZM8.79175 3.06278L8.54281 4.0313C8.79776 4.09683 9.13443 4.19488 9.48116 4.17529L9.42474 3.17688L9.36833 2.17847C9.40373 2.17647 9.41443 2.18277 9.36168 2.17244C9.29785 2.15995 9.21094 2.13802 9.04069 2.09426L8.79175 3.06278ZM10.3098 2.65601L9.60997 1.94172C9.4844 2.06475 9.42011 2.12719 9.37108 2.16993C9.33055 2.20524 9.33668 2.19444 9.36833 2.17847L9.81868 3.07133L10.269 3.96418C10.5791 3.80778 10.8216 3.55453 11.0097 3.3703L10.3098 2.65601ZM9.42474 3.17688L9.48116 4.17529C9.75549 4.15979 10.0237 4.08792 10.269 3.96418L9.81868 3.07133L9.36833 2.17847L9.36833 2.17847L9.42474 3.17688ZM6.07882 3.98373L7.04205 4.2524C7.1203 3.97188 7.16371 3.81908 7.20329 3.71159C7.23877 3.61526 7.24246 3.63937 7.2 3.68615L6.45959 3.01399L5.71918 2.34183C5.51752 2.56396 5.40469 2.80815 5.32651 3.02045C5.25243 3.2216 5.18506 3.46599 5.11559 3.71506L6.07882 3.98373ZM8.0183 2.86397L8.26724 1.89546C8.01681 1.83109 7.77146 1.76724 7.56023 1.73081C7.33728 1.69237 7.06939 1.66799 6.77618 1.73157L6.98809 2.70886L7.2 3.68615C7.13825 3.69954 7.11921 3.68428 7.22038 3.70173C7.33326 3.72119 7.48729 3.75999 7.76936 3.83249L8.0183 2.86397ZM6.45959 3.01399L7.2 3.68615V3.68615L6.98809 2.70886L6.77618 1.73157C6.36887 1.81988 5.99933 2.03324 5.71918 2.34183L6.45959 3.01399ZM4.75296 5.86426L5.02163 6.8275C5.27519 6.75677 5.61579 6.67335 5.90626 6.48302L5.3582 5.64658L4.81014 4.81014C4.8398 4.79071 4.85221 4.79081 4.80137 4.80825C4.73984 4.82935 4.65362 4.8538 4.48429 4.90103L4.75296 5.86426ZM5.86426 4.75296L4.90103 4.48429C4.8538 4.65361 4.82935 4.73984 4.80825 4.80137C4.79081 4.85221 4.79071 4.8398 4.81014 4.81014L5.64658 5.3582L6.48302 5.90626C6.67335 5.61579 6.75677 5.27519 6.8275 5.02163L5.86426 4.75296ZM5.3582 5.64658L5.90626 6.48302C6.13609 6.33243 6.33243 6.13609 6.48302 5.90626L5.64658 5.3582L4.81014 4.81014V4.81014L5.3582 5.64658ZM2.86398 8.0183L3.83249 7.76936C3.75999 7.4873 3.72119 7.33326 3.70173 7.22038C3.68428 7.11921 3.69954 7.13825 3.68615 7.2L2.70886 6.98809L1.73157 6.77618C1.66799 7.06939 1.69237 7.33728 1.73081 7.56023C1.76724 7.77146 1.83109 8.01681 1.89546 8.26724L2.86398 8.0183ZM3.98373 6.07882L3.71506 5.11559C3.466 5.18506 3.2216 5.25243 3.02045 5.32651C2.80815 5.40469 2.56396 5.51752 2.34183 5.71918L3.01399 6.45959L3.68615 7.2C3.63937 7.24246 3.61526 7.23877 3.71159 7.20329C3.81908 7.16371 3.97188 7.1203 4.2524 7.04205L3.98373 6.07882ZM2.70886 6.98809L3.68615 7.2H3.68615L3.01399 6.45959L2.34183 5.71918C2.03324 5.99933 1.81988 6.36887 1.73157 6.77618L2.70886 6.98809ZM2.65601 10.3098L3.3703 11.0097C3.55453 10.8216 3.80778 10.5791 3.96418 10.269L3.07133 9.81868L2.17847 9.36833C2.19444 9.33668 2.20524 9.33056 2.16993 9.37108C2.12719 9.42011 2.06475 9.4844 1.94172 9.60997L2.65601 10.3098ZM3.06278 8.79175L2.09426 9.04069C2.13802 9.21094 2.15995 9.29785 2.17244 9.36168C2.18277 9.41443 2.17647 9.40373 2.17847 9.36833L3.17688 9.42474L4.17529 9.48116C4.19488 9.13443 4.09683 8.79776 4.0313 8.54281L3.06278 8.79175ZM3.07133 9.81868L3.96418 10.269C4.08792 10.0237 4.15979 9.75549 4.17529 9.48116L3.17688 9.42474L2.17847 9.36833L2.17847 9.36833L3.07133 9.81868ZM2.09712 13.1198L2.81141 12.4199C2.60759 12.2119 2.49697 12.0979 2.42367 12.0099C2.35798 11.931 2.38071 11.9398 2.39999 12L1.44768 12.3051L0.495369 12.6103C0.586914 12.896 0.741971 13.1158 0.886738 13.2896C1.0239 13.4544 1.20186 13.6349 1.38283 13.8196L2.09712 13.1198ZM2.09712 10.8802L1.38283 10.1804C1.20186 10.3651 1.0239 10.5456 0.886738 10.7104C0.741972 10.8842 0.586914 11.104 0.495369 11.3897L1.44768 11.6949L2.39999 12C2.38071 12.0602 2.35798 12.069 2.42368 11.9901C2.49697 11.9021 2.60759 11.7881 2.81141 11.5801L2.09712 10.8802ZM1.44768 12.3051L2.39999 12V12L1.44768 11.6949L0.495369 11.3897C0.368198 11.7866 0.368198 12.2134 0.495369 12.6103L1.44768 12.3051ZM3.06278 15.2083L4.0313 15.4572C4.09683 15.2022 4.19488 14.8656 4.17529 14.5188L3.17688 14.5753L2.17847 14.6317C2.17647 14.5963 2.18277 14.5856 2.17244 14.6383C2.15995 14.7022 2.13802 14.7891 2.09426 14.9593L3.06278 15.2083ZM2.65601 13.6902L1.94172 14.39C2.06475 14.5156 2.12719 14.5799 2.16993 14.6289C2.20524 14.6694 2.19444 14.6633 2.17847 14.6317L3.07133 14.1813L3.96418 13.731C3.80778 13.4209 3.55453 13.1784 3.3703 12.9903L2.65601 13.6902ZM3.17688 14.5753L4.17529 14.5188C4.15979 14.2445 4.08792 13.9763 3.96418 13.731L3.07133 14.1813L2.17847 14.6317H2.17847L3.17688 14.5753ZM3.98373 17.9212L4.2524 16.9579C3.97188 16.8797 3.81908 16.8363 3.71159 16.7967C3.61526 16.7612 3.63937 16.7575 3.68615 16.8L3.01399 17.5404L2.34183 18.2808C2.56396 18.4825 2.80815 18.5953 3.02045 18.6735C3.2216 18.7476 3.46599 18.8149 3.71506 18.8844L3.98373 17.9212ZM2.86397 15.9817L1.89546 15.7328C1.83109 15.9832 1.76724 16.2285 1.73081 16.4398C1.69237 16.6627 1.66799 16.9306 1.73157 17.2238L2.70886 17.0119L3.68615 16.8C3.69954 16.8618 3.68428 16.8808 3.70173 16.7796C3.72119 16.6667 3.75999 16.5127 3.83249 16.2306L2.86397 15.9817ZM3.01399 17.5404L3.68615 16.8H3.68615L2.70886 17.0119L1.73157 17.2238C1.81989 17.6311 2.03324 18.0007 2.34183 18.2808L3.01399 17.5404ZM5.86426 19.247L6.8275 18.9784C6.75677 18.7248 6.67335 18.3842 6.48302 18.0937L5.64658 18.6418L4.81014 19.1899C4.79071 19.1602 4.79081 19.1478 4.80825 19.1986C4.82935 19.2602 4.8538 19.3464 4.90103 19.5157L5.86426 19.247ZM4.75296 18.1357L4.48429 19.099C4.65362 19.1462 4.73985 19.1707 4.80137 19.1918C4.85222 19.2092 4.8398 19.2093 4.81014 19.1899L5.3582 18.3534L5.90626 17.517C5.61578 17.3266 5.27518 17.2432 5.02163 17.1725L4.75296 18.1357ZM5.64658 18.6418L6.48302 18.0937C6.33243 17.8639 6.1361 17.6676 5.90626 17.517L5.3582 18.3534L4.81014 19.1899V19.1899L5.64658 18.6418ZM8.0183 21.136L7.76936 20.1675C7.48729 20.24 7.33326 20.2788 7.22038 20.2983C7.11921 20.3157 7.13825 20.3005 7.19999 20.3139L6.98809 21.2911L6.77618 22.2684C7.06939 22.332 7.33728 22.3076 7.56023 22.2692C7.77146 22.2328 8.01681 22.1689 8.26724 22.1045L8.0183 21.136ZM6.07882 20.0163L5.11559 20.2849C5.18506 20.534 5.25243 20.7784 5.32651 20.9795C5.40469 21.1918 5.51752 21.436 5.71918 21.6582L6.45959 20.986L7.2 20.3139C7.24246 20.3606 7.23877 20.3847 7.20329 20.2884C7.16371 20.1809 7.1203 20.0281 7.04205 19.7476L6.07882 20.0163ZM6.98809 21.2911L7.19999 20.3139H7.2L6.45959 20.986L5.71918 21.6582C5.99933 21.9668 6.36887 22.1801 6.77618 22.2684L6.98809 21.2911ZM10.3098 21.344L11.0097 20.6297C10.8216 20.4455 10.5791 20.1922 10.269 20.0358L9.81868 20.9287L9.36833 21.8215C9.33668 21.8056 9.33056 21.7948 9.37108 21.8301C9.42011 21.8728 9.4844 21.9353 9.60997 22.0583L10.3098 21.344ZM8.79175 20.9372L9.04069 21.9057C9.21094 21.862 9.29785 21.84 9.36168 21.8276C9.41443 21.8172 9.40373 21.8235 9.36833 21.8215L9.42474 20.8231L9.48116 19.8247C9.13443 19.8051 8.79776 19.9032 8.54281 19.9687L8.79175 20.9372ZM9.81868 20.9287L10.269 20.0358C10.0237 19.9121 9.7555 19.8402 9.48116 19.8247L9.42474 20.8231L9.36833 21.8215H9.36833L9.81868 20.9287ZM13.1198 21.9029L12.4199 21.1886C12.2119 21.3924 12.0979 21.503 12.0099 21.5763C11.931 21.642 11.9398 21.6193 12 21.6L12.3051 22.5523L12.6103 23.5046C12.896 23.4131 13.1158 23.258 13.2896 23.1133C13.4544 22.9761 13.6349 22.7981 13.8196 22.6172L13.1198 21.9029ZM10.8802 21.9029L10.1804 22.6172C10.3651 22.7981 10.5456 22.9761 10.7104 23.1133C10.8842 23.258 11.104 23.4131 11.3897 23.5046L11.6949 22.5523L12 21.6C12.0602 21.6193 12.069 21.642 11.9901 21.5763C11.9021 21.503 11.7881 21.3924 11.5801 21.1886L10.8802 21.9029ZM12.3051 22.5523L12 21.6H12L11.6949 22.5523L11.3897 23.5046C11.7866 23.6318 12.2134 23.6318 12.6103 23.5046L12.3051 22.5523ZM15.2083 20.9372L15.4572 19.9687C15.2022 19.9032 14.8656 19.8051 14.5188 19.8247L14.5753 20.8231L14.6317 21.8215C14.5963 21.8235 14.5856 21.8172 14.6383 21.8276C14.7022 21.84 14.7891 21.862 14.9593 21.9057L15.2083 20.9372ZM13.6902 21.344L14.39 22.0583C14.5156 21.9353 14.5799 21.8728 14.6289 21.8301C14.6694 21.7948 14.6633 21.8056 14.6317 21.8215L14.1813 20.9287L13.731 20.0358C13.4209 20.1922 13.1784 20.4455 12.9903 20.6297L13.6902 21.344ZM14.5753 20.8231L14.5188 19.8247C14.2445 19.8402 13.9763 19.9121 13.731 20.0358L14.1813 20.9287L14.6317 21.8215V21.8215L14.5753 20.8231ZM17.9212 20.0163L16.9579 19.7476C16.8797 20.0281 16.8363 20.1809 16.7967 20.2884C16.7612 20.3847 16.7575 20.3606 16.8 20.3139L17.5404 20.986L18.2808 21.6582C18.4825 21.436 18.5953 21.1918 18.6735 20.9795C18.7476 20.7784 18.8149 20.534 18.8844 20.2849L17.9212 20.0163ZM15.9817 21.136L15.7328 22.1045C15.9832 22.1689 16.2285 22.2328 16.4398 22.2692C16.6627 22.3076 16.9306 22.332 17.2238 22.2684L17.0119 21.2911L16.8 20.3139C16.8617 20.3005 16.8808 20.3157 16.7796 20.2983C16.6667 20.2788 16.5127 20.24 16.2306 20.1675L15.9817 21.136ZM17.5404 20.986L16.8 20.3139V20.3139L17.0119 21.2911L17.2238 22.2684C17.6311 22.1801 18.0007 21.9668 18.2808 21.6582L17.5404 20.986ZM19.247 18.1357L18.9784 17.1725C18.7248 17.2432 18.3842 17.3266 18.0937 17.517L18.6418 18.3534L19.1899 19.1899C19.1602 19.2093 19.1478 19.2092 19.1986 19.1918C19.2602 19.1707 19.3464 19.1462 19.5157 19.099L19.247 18.1357ZM18.1357 19.247L19.099 19.5157C19.1462 19.3464 19.1707 19.2602 19.1918 19.1986C19.2092 19.1478 19.2093 19.1602 19.1899 19.1899L18.3534 18.6418L17.517 18.0937C17.3266 18.3842 17.2432 18.7248 17.1725 18.9784L18.1357 19.247ZM18.6418 18.3534L18.0937 17.517C17.8639 17.6676 17.6676 17.8639 17.517 18.0937L18.3534 18.6418L19.1899 19.1899V19.1899L18.6418 18.3534ZM21.136 15.9817L20.1675 16.2306C20.24 16.5127 20.2788 16.6667 20.2983 16.7796C20.3157 16.8808 20.3005 16.8617 20.3139 16.8L21.2911 17.0119L22.2684 17.2238C22.332 16.9306 22.3076 16.6627 22.2692 16.4398C22.2328 16.2285 22.1689 15.9832 22.1045 15.7328L21.136 15.9817ZM20.0163 17.9212L20.2849 18.8844C20.534 18.8149 20.7784 18.7476 20.9795 18.6735C21.1918 18.5953 21.436 18.4825 21.6582 18.2808L20.986 17.5404L20.3139 16.8C20.3606 16.7575 20.3847 16.7612 20.2884 16.7967C20.1809 16.8363 20.0281 16.8797 19.7476 16.9579L20.0163 17.9212ZM21.2911 17.0119L20.3139 16.8V16.8L20.986 17.5404L21.6582 18.2808C21.9668 18.0007 22.1801 17.6311 22.2684 17.2238L21.2911 17.0119ZM21.344 13.6902L20.6297 12.9903C20.4455 13.1784 20.1922 13.4209 20.0358 13.731L20.9287 14.1813L21.8215 14.6317C21.8056 14.6633 21.7948 14.6694 21.8301 14.6289C21.8728 14.5799 21.9353 14.5156 22.0583 14.39L21.344 13.6902ZM20.9372 15.2083L21.9057 14.9593C21.862 14.7891 21.84 14.7022 21.8276 14.6383C21.8172 14.5856 21.8235 14.5963 21.8215 14.6317L20.8231 14.5753L19.8247 14.5188C19.8051 14.8656 19.9032 15.2022 19.9687 15.4572L20.9372 15.2083ZM20.9287 14.1813L20.0358 13.731C19.9121 13.9763 19.8402 14.2445 19.8247 14.5188L20.8231 14.5753L21.8215 14.6317V14.6317L20.9287 14.1813ZM21.9029 10.8802L21.1886 11.5801C21.3924 11.7881 21.503 11.9021 21.5763 11.9901C21.642 12.069 21.6193 12.0602 21.6 12L22.5523 11.6949L23.5046 11.3897C23.4131 11.104 23.258 10.8842 23.1133 10.7104C22.9761 10.5456 22.7981 10.3651 22.6172 10.1804L21.9029 10.8802ZM21.9029 13.1198L22.6172 13.8196C22.7981 13.6349 22.9761 13.4544 23.1133 13.2896C23.258 13.1158 23.4131 12.896 23.5046 12.6103L22.5523 12.3051L21.6 12C21.6193 11.9398 21.642 11.931 21.5763 12.0099C21.503 12.0979 21.3924 12.2119 21.1886 12.4199L21.9029 13.1198ZM22.5523 11.6949L21.6 12V12L22.5523 12.3051L23.5046 12.6103C23.6318 12.2134 23.6318 11.7866 23.5046 11.3897L22.5523 11.6949ZM20.9372 8.79175L19.9687 8.54281C19.9032 8.79776 19.8051 9.13443 19.8247 9.48116L20.8231 9.42474L21.8215 9.36833C21.8235 9.40373 21.8172 9.41443 21.8276 9.36168C21.84 9.29785 21.862 9.21094 21.9057 9.04069L20.9372 8.79175ZM21.344 10.3098L22.0583 9.60997C21.9353 9.4844 21.8728 9.42011 21.8301 9.37108C21.7948 9.33056 21.8056 9.33668 21.8215 9.36833L20.9287 9.81868L20.0358 10.269C20.1922 10.5791 20.4455 10.8216 20.6297 11.0097L21.344 10.3098ZM20.8231 9.42474L19.8247 9.48116C19.8402 9.7555 19.9121 10.0237 20.0358 10.269L20.9287 9.81868L21.8215 9.36833V9.36833L20.8231 9.42474ZM20.0163 6.07882L19.7476 7.04205C20.0281 7.1203 20.1809 7.16371 20.2884 7.20329C20.3847 7.23877 20.3606 7.24246 20.3139 7.2L20.986 6.45959L21.6582 5.71918C21.436 5.51752 21.1918 5.40469 20.9795 5.32651C20.7784 5.25243 20.534 5.18506 20.2849 5.11559L20.0163 6.07882ZM21.136 8.0183L22.1045 8.26724C22.1689 8.01681 22.2328 7.77146 22.2692 7.56023C22.3076 7.33728 22.332 7.06939 22.2684 6.77618L21.2911 6.98809L20.3139 7.19999C20.3005 7.13825 20.3157 7.11921 20.2983 7.22038C20.2788 7.33326 20.24 7.4873 20.1675 7.76936L21.136 8.0183ZM20.986 6.45959L20.3139 7.2V7.19999L21.2911 6.98809L22.2684 6.77618C22.1801 6.36887 21.9668 5.99933 21.6582 5.71918L20.986 6.45959ZM18.1357 4.75296L17.1725 5.02163C17.2432 5.27518 17.3266 5.61578 17.517 5.90626L18.3534 5.3582L19.1899 4.81014C19.2093 4.8398 19.2092 4.85221 19.1918 4.80137C19.1707 4.73985 19.1462 4.65362 19.099 4.48429L18.1357 4.75296ZM19.247 5.86426L19.5157 4.90103C19.3464 4.8538 19.2602 4.82935 19.1986 4.80825C19.1478 4.79081 19.1602 4.79071 19.1899 4.81014L18.6418 5.64658L18.0937 6.48302C18.3842 6.67335 18.7248 6.75677 18.9784 6.8275L19.247 5.86426ZM18.3534 5.3582L17.517 5.90626C17.6676 6.1361 17.8639 6.33243 18.0937 6.48302L18.6418 5.64658L19.1899 4.81014V4.81014L18.3534 5.3582ZM15.9817 2.86398L16.2306 3.83249C16.5127 3.75999 16.6667 3.72119 16.7796 3.70173C16.8808 3.68428 16.8618 3.69954 16.8 3.68615L17.0119 2.70886L17.2238 1.73157C16.9306 1.66799 16.6627 1.69237 16.4398 1.73081C16.2285 1.76724 15.9832 1.83109 15.7328 1.89546L15.9817 2.86398ZM17.9212 3.98373L18.8844 3.71506C18.8149 3.466 18.7476 3.2216 18.6735 3.02045C18.5953 2.80815 18.4825 2.56396 18.2808 2.34183L17.5404 3.01399L16.8 3.68615C16.7575 3.63937 16.7612 3.61526 16.7967 3.71159C16.8363 3.81908 16.8797 3.97188 16.9579 4.2524L17.9212 3.98373ZM17.0119 2.70886L16.8 3.68615V3.68615L17.5404 3.01399L18.2808 2.34183C18.0007 2.03324 17.6311 1.81989 17.2238 1.73157L17.0119 2.70886ZM13.6902 2.65601L12.9903 3.3703C13.1784 3.55453 13.4209 3.80778 13.731 3.96418L14.1813 3.07133L14.6317 2.17847C14.6633 2.19444 14.6694 2.20524 14.6289 2.16992C14.5799 2.12719 14.5156 2.06475 14.39 1.94172L13.6902 2.65601ZM15.2083 3.06278L14.9593 2.09426C14.7891 2.13802 14.7022 2.15995 14.6383 2.17244C14.5856 2.18277 14.5963 2.17647 14.6317 2.17847L14.5753 3.17688L14.5188 4.17529C14.8656 4.19488 15.2022 4.09683 15.4572 4.0313L15.2083 3.06278ZM14.1813 3.07133L13.731 3.96418C13.9763 4.08792 14.2445 4.15979 14.5188 4.17529L14.5753 3.17688L14.6317 2.17847V2.17847L14.1813 3.07133ZM13.1198 2.09712L13.8196 1.38283C13.6349 1.20186 13.4544 1.0239 13.2896 0.886738C13.1158 0.741972 12.896 0.586914 12.6103 0.495369L12.3051 1.44768L12 2.39999C11.9398 2.38071 11.931 2.35798 12.0099 2.42368C12.0979 2.49697 12.2119 2.60759 12.4199 2.81141L13.1198 2.09712ZM10.8802 2.09712L11.5801 2.81141C11.7881 2.60759 11.9021 2.49697 11.9901 2.42367C12.069 2.35798 12.0602 2.38071 12 2.39999L11.6949 1.44768L11.3897 0.495369C11.104 0.586914 10.8842 0.741971 10.7104 0.886738C10.5456 1.0239 10.3651 1.20186 10.1804 1.38283L10.8802 2.09712ZM12.3051 1.44768L12.6103 0.495369C12.2134 0.368198 11.7866 0.368198 11.3897 0.495369L11.6949 1.44768L12 2.39999H12L12.3051 1.44768Z" fill="var(--stroke-0, #5871ED)"/>
</g>
</g>
</svg>
