<svg preserveAspectRatio="none" width="100%" height="100%" overflow="visible" style="display: block;" viewBox="0 0 109.003 36.9989" fill="none" xmlns="http://www.w3.org/2000/svg">
<g id="Vector">
<path d="M69.3769 14.3932L65.4561 18.3463V2.20006L69.3769 6.15316V14.3932Z" fill="var(--fill-0, white)"/>
<path d="M69.3769 14.3932L65.4561 18.3463L57.5284 18.3463V14.3932L69.3769 14.3932Z" fill="#6EBEC5"/>
<path d="M37.7563 28.5774H33.8354V2.20006L37.7563 2.23716V28.5774Z" fill="var(--fill-0, white)"/>
<path d="M6.05802 9.9661H2.13712V28.5733H6.05802V9.9661Z" fill="var(--fill-0, white)"/>
<path d="M21.9092 28.5774H17.9883V2.20006L21.9092 6.15316V28.5774Z" fill="var(--fill-0, white)"/>
<path d="M21.9092 2.20006L21.9092 6.15316L10.0607 6.15316L13.9816 2.20006H21.9092Z" fill="#6EBEC5"/>
<path d="M37.7563 2.20006V6.15316H25.9119L29.8328 2.20006H37.7563Z" fill="#6EBEC5"/>
<path d="M49.6866 2.20006L53.6075 6.15316H41.7631L45.684 2.20006H49.6866Z" fill="#6EBEC5"/>
<path d="M53.6075 24.6243L49.6866 28.5774H45.684L41.7631 24.6243H53.6075Z" fill="#6EBEC5"/>
<path d="M29.8328 28.5774H25.9119V6.15316L29.8328 2.20006V28.5774Z" fill="var(--fill-0, white)"/>
<path d="M45.684 28.5774H41.7631V6.15316L45.684 2.20006V28.5774Z" fill="var(--fill-0, white)"/>
<path d="M53.6075 24.6243L49.6866 28.5774V2.20006H53.6075V24.6243Z" fill="var(--fill-0, white)"/>
<path d="M61.4493 2.20006H57.5284V28.5774H61.4493V2.20006Z" fill="var(--fill-0, white)"/>
<path d="M77.3005 28.5774H73.3796V6.15316L77.3005 2.20006V28.5774Z" fill="var(--fill-0, white)"/>
<path d="M69.3729 2.20006H57.5284V6.15316H69.3729V2.20006Z" fill="#6EBEC5"/>
<path d="M81.3032 2.20006L85.2241 6.15316L73.3796 6.15316L77.3005 2.20006H81.3032Z" fill="#6EBEC5"/>
<path d="M73.3796 14.3932V18.3463H85.2241V14.3932H73.3796Z" fill="#6EBEC5"/>
<path d="M108.954 2.20006V6.15316H89.2308L93.1517 2.20006H108.954Z" fill="#6EBEC5"/>
<path d="M85.2241 2.20006H81.3032L81.3032 28.5774H85.2241V2.20006Z" fill="var(--fill-0, white)"/>
<path d="M93.1517 28.5774H89.2308V6.15316L93.1517 2.20006V28.5774Z" fill="var(--fill-0, white)"/>
<path d="M101.075 2.20006H97.1544V28.5774H101.075V2.20006Z" fill="var(--fill-0, white)"/>
<path d="M109.003 2.20006H105.082V28.5774H109.003V2.20006Z" fill="var(--fill-0, white)"/>
<path d="M6.99393 1.21448C5.39941 -0.401385 2.80729 -0.405507 1.20459 1.20623C-0.398115 2.81386 -0.402204 5.42727 1.19641 7.04313C1.2005 7.04725 1.20459 7.05138 1.20867 7.0555L4.08699 9.9657L6.97349 7.06374C6.97349 7.06374 6.98167 7.0555 6.98576 7.05138C8.58846 5.44376 8.59254 2.83034 6.99393 1.21448ZM5.21543 5.26238C4.59397 5.88482 3.58819 5.88482 2.97083 5.26238C2.35346 4.63582 2.35346 3.62179 2.97083 2.99935C3.59228 2.37691 4.59806 2.37691 5.21543 2.99935C5.83279 3.62591 5.83279 4.63995 5.21543 5.26238Z" fill="#6EBEC5"/>
<path d="M13.9816 28.5774H10.0607V6.15316L13.9816 2.20006V28.5774Z" fill="var(--fill-0, white)"/>
<path d="M3.05295 36.9453H2.15348V32.4027H3.05295V36.9453Z" fill="var(--fill-0, white)"/>
<path d="M5.77182 36.0343H5.82906L5.78817 32.3986H6.68765V36.9411H5.19125L4.65157 33.3055H4.6025L4.64339 36.9411H3.74391V32.3986H5.24849L5.77591 36.0343H5.77182Z" fill="var(--fill-0, white)"/>
<path d="M9.39016 36.0343H9.4474L9.40652 32.3986H10.306V36.9411H8.80959L8.26991 33.3055H8.22085L8.26173 36.9411H7.36226V32.3986H8.86683L9.39425 36.0343H9.39016Z" fill="var(--fill-0, white)"/>
<path d="M11.7206 32.3656H12.71C13.1598 32.3656 13.5196 32.7284 13.5196 33.1818V36.1786C13.5196 36.632 13.1598 36.9947 12.71 36.9947H11.7206C11.2709 36.9947 10.9111 36.632 10.9111 36.1786V33.1818C10.9111 32.7284 11.2709 32.3656 11.7206 32.3656ZM11.8882 36.1538H12.5342C12.5915 36.1538 12.6201 36.1291 12.6201 36.0755V33.2931C12.6201 33.2354 12.5915 33.2148 12.5342 33.2148H11.8882C11.831 33.2148 11.8106 33.2395 11.8106 33.2931V36.0755C11.8106 36.1332 11.831 36.1538 11.8882 36.1538Z" fill="var(--fill-0, white)"/>
<path d="M15.2817 36.0343C15.294 36.1209 15.3226 36.1662 15.3676 36.1662H15.6538C15.6988 36.1662 15.7274 36.1209 15.7396 36.0343L16.2016 32.3986H17.1011L16.3897 36.8051C16.3774 36.8834 16.2671 36.9989 16.1485 36.9989H14.8606C14.742 36.9989 14.6357 36.904 14.6194 36.8051L13.9039 32.3986H14.8279L15.2858 36.0343H15.2817Z" fill="var(--fill-0, white)"/>
<path d="M18.2009 36.0425L18.0824 36.9453H17.1829L17.8657 32.5965C17.882 32.5058 17.9883 32.4027 18.1069 32.4027H19.4397C19.5583 32.4027 19.6646 32.4975 19.681 32.5965L20.3678 36.9453H19.4684L19.3498 36.0425H18.2009ZM19.0064 33.4209C19.0023 33.3426 18.9655 33.3137 18.9328 33.3137H18.618C18.5771 33.3137 18.5484 33.3426 18.5444 33.4209L18.3195 35.1357H19.2312L19.0064 33.4209Z" fill="var(--fill-0, white)"/>
<path d="M20.2902 32.4027H23.0172V33.3096H22.1096V36.9453H21.2101V33.3096H20.2902V32.4027Z" fill="var(--fill-0, white)"/>
<path d="M24.3214 36.9453H23.422V32.4027H24.3214V36.9453Z" fill="var(--fill-0, white)"/>
<path d="M26.1654 36.0343C26.1776 36.1209 26.2063 36.1662 26.2512 36.1662H26.5374C26.5824 36.1662 26.611 36.1209 26.6233 36.0343L27.0853 32.3986H27.9848L27.2734 36.8051C27.2611 36.8834 27.1507 36.9989 27.0321 36.9989H25.7443C25.6257 36.9989 25.5194 36.904 25.503 36.8051L24.7875 32.3986H25.7115L26.1695 36.0343H26.1654Z" fill="var(--fill-0, white)"/>
<path d="M30.6995 33.3096H29.3258V34.1546H30.5483V35.0615H29.3258V36.0343H30.6995V36.9411H28.4222V32.3986H30.6995V33.3096Z" fill="var(--fill-0, white)"/>
<path d="M35.0415 33.1859V34.2824C35.0415 34.7358 34.6818 35.0986 34.232 35.0986H33.353V36.9453H32.4535V32.4027H34.232C34.6818 32.4027 35.0415 32.7325 35.0415 33.1859ZM34.1421 33.3426C34.1421 33.2807 34.1175 33.2519 34.0562 33.2519H33.353V34.2577H34.0644C34.1216 34.2577 34.1421 34.2329 34.1421 34.1793V33.3426Z" fill="var(--fill-0, white)"/>
<path d="M36.3908 36.0343H37.7645V36.9411H35.4995V32.3986H36.3908V36.0343Z" fill="var(--fill-0, white)"/>
<path d="M38.9052 36.0425L38.7866 36.9453H37.8872L38.5699 32.5965C38.5863 32.5058 38.6926 32.4027 38.8112 32.4027H40.144C40.2626 32.4027 40.3689 32.4975 40.3852 32.5965L41.0721 36.9453H40.1726L40.0541 36.0425H38.9052ZM39.7106 33.4209C39.7066 33.3426 39.6698 33.3137 39.637 33.3137H39.3222C39.2813 33.3137 39.2527 33.3426 39.2486 33.4209L39.0238 35.1357H39.9355L39.7106 33.4209Z" fill="var(--fill-0, white)"/>
<path d="M40.9985 32.4027H43.7256V33.3096H42.8179V36.9453H41.9184V33.3096H40.9985V32.4027Z" fill="var(--fill-0, white)"/>
<path d="M46.3872 33.4167H45.0053V33.9856H46.2277V34.8925H45.0053V36.9411H44.1058V32.3986H46.3872V33.4167Z" fill="var(--fill-0, white)"/>
<path d="M47.5197 32.3656H48.5091C48.9589 32.3656 49.3187 32.7284 49.3187 33.1818V36.1786C49.3187 36.632 48.9589 36.9947 48.5091 36.9947H47.5197C47.07 36.9947 46.7102 36.632 46.7102 36.1786V33.1818C46.7102 32.7284 47.07 32.3656 47.5197 32.3656ZM47.6873 36.1538H48.3333C48.3906 36.1538 48.4192 36.1291 48.4192 36.0755V33.2931C48.4192 33.2354 48.3906 33.2148 48.3333 33.2148H47.6873C47.6301 33.2148 47.6097 33.2395 47.6097 33.2931V36.0755C47.6097 36.1332 47.6301 36.1538 47.6873 36.1538Z" fill="var(--fill-0, white)"/>
<path d="M52.5282 33.0829V33.899C52.5282 34.1958 52.3483 34.4555 52.0948 34.5709C52.3687 34.674 52.569 34.9419 52.569 35.2511V36.9453H51.6696V35.2882C51.6696 35.148 51.6287 35.0615 51.5919 35.0285H50.8314V36.9494H49.9319V32.4068H51.8576C52.2297 32.4068 52.5322 32.7119 52.5322 33.087L52.5282 33.0829ZM51.6205 33.9114V33.3137C51.6205 33.256 51.6042 33.2271 51.5633 33.2271H50.8273V34.1134H51.5306C51.5919 34.0804 51.6205 34.0268 51.6205 33.9073V33.9114Z" fill="var(--fill-0, white)"/>
<path d="M55.1571 35.3706L55.4719 32.3986H57.0337L57.2013 36.9411H56.3019L56.1874 33.3055H56.1383L55.5578 36.8834H54.7523L54.1717 33.3055H54.1227L54.0041 36.9411H53.1046L53.2804 32.3986H54.7768L55.1612 35.3706H55.1571Z" fill="var(--fill-0, white)"/>
<path d="M61.3553 33.4167H59.9734V33.9856H61.1958V34.8925H59.9734V36.9411H59.0739V32.3986H61.3553V33.4167Z" fill="var(--fill-0, white)"/>
<path d="M62.4878 32.3656H63.4772C63.927 32.3656 64.2868 32.7284 64.2868 33.1818V36.1786C64.2868 36.632 63.927 36.9947 63.4772 36.9947H62.4878C62.0381 36.9947 61.6783 36.632 61.6783 36.1786V33.1818C61.6783 32.7284 62.0381 32.3656 62.4878 32.3656ZM62.6554 36.1538H63.3014C63.3587 36.1538 63.3873 36.1291 63.3873 36.0755V33.2931C63.3873 33.2354 63.3587 33.2148 63.3014 33.2148H62.6554C62.5982 33.2148 62.5778 33.2395 62.5778 33.2931V36.0755C62.5778 36.1332 62.5982 36.1538 62.6554 36.1538Z" fill="var(--fill-0, white)"/>
<path d="M67.4962 33.0829V33.899C67.4962 34.1958 67.3163 34.4555 67.0629 34.5709C67.3368 34.674 67.5371 34.9419 67.5371 35.2511V36.9453H66.6376V35.2882C66.6376 35.148 66.5968 35.0615 66.56 35.0285H65.7995V36.9494H64.9V32.4068H66.8257C67.1978 32.4068 67.5003 32.7119 67.5003 33.087L67.4962 33.0829ZM66.5886 33.9114V33.3137C66.5886 33.256 66.5722 33.2271 66.5313 33.2271H65.7954V34.1134H66.4986C66.56 34.0804 66.5886 34.0268 66.5886 33.9073V33.9114Z" fill="var(--fill-0, white)"/>
<path d="M70.1374 36.0425L70.0189 36.9453H69.1194L69.8022 32.5965C69.8185 32.5058 69.9248 32.4027 70.0434 32.4027H71.3763C71.4948 32.4027 71.6011 32.4975 71.6175 32.5965L72.3043 36.9453H71.4049L71.2863 36.0425H70.1374ZM70.9429 33.4209C70.9388 33.3426 70.902 33.3137 70.8693 33.3137H70.5545C70.5136 33.3137 70.4849 33.3426 70.4809 33.4209L70.256 35.1357H71.1677L70.9429 33.4209Z" fill="var(--fill-0, white)"/>
<path d="M73.6617 36.9453H72.7623V32.4027H73.6617V36.9453Z" fill="var(--fill-0, white)"/>
<path d="M76.3724 36.0425L76.2539 36.9453H75.3544L76.0372 32.5965C76.0535 32.5058 76.1598 32.4027 76.2784 32.4027H77.6113C77.7298 32.4027 77.8361 32.4975 77.8525 32.5965L78.5393 36.9453H77.6399L77.5213 36.0425H76.3724ZM77.1779 33.4209C77.1738 33.3426 77.137 33.3137 77.1043 33.3137H76.7895C76.7486 33.3137 76.7199 33.3426 76.7159 33.4209L76.491 35.1357H77.4027L77.1779 33.4209Z" fill="var(--fill-0, white)"/>
<path d="M81.0088 36.0343H81.066L81.0252 32.3986H81.9246V36.9411H80.4282L79.8885 33.3055H79.8395L79.8804 36.9411H78.9809V32.3986H80.4855L81.0129 36.0343H81.0088Z" fill="var(--fill-0, white)"/>
<path d="M85.2036 33.1859V36.1291C85.2036 36.5825 84.8438 36.9453 84.3941 36.9453H82.5911V32.4027H84.3941C84.8438 32.4027 85.2036 32.7325 85.2036 33.1859ZM84.3042 36.0137V33.3343C84.3042 33.2766 84.2796 33.2477 84.2265 33.2477H83.4946V36.1002H84.2265C84.2837 36.1002 84.3042 36.0714 84.3042 36.0137Z" fill="var(--fill-0, white)"/>
<path d="M89.0714 35.3706L89.3862 32.3986H90.948L91.1156 36.9411H90.2162L90.1017 33.3055H90.0526L89.472 36.8834H88.6666L88.086 33.3055H88.037L87.9184 36.9411H87.0189L87.1947 32.3986H88.6911L89.0755 35.3706H89.0714Z" fill="var(--fill-0, white)"/>
<path d="M92.5057 36.0425L92.3872 36.9453H91.4877L92.1705 32.5965C92.1868 32.5058 92.2931 32.4027 92.4117 32.4027H93.7446C93.8631 32.4027 93.9694 32.4975 93.9858 32.5965L94.6726 36.9453H93.7732L93.6546 36.0425H92.5057ZM93.3112 33.4209C93.3071 33.3426 93.2703 33.3137 93.2376 33.3137H92.9228C92.8819 33.3137 92.8532 33.3426 92.8492 33.4209L92.6243 35.1357H93.536L93.3112 33.4209Z" fill="var(--fill-0, white)"/>
<path d="M97.6982 33.1859V34.2824C97.6982 34.7358 97.3384 35.0986 96.8886 35.0986H96.0096V36.9453H95.1101V32.4027H96.8886C97.3384 32.4027 97.6982 32.7325 97.6982 33.1859ZM96.7987 33.3426C96.7987 33.2807 96.7741 33.2519 96.7128 33.2519H96.0096V34.2577H96.721C96.7782 34.2577 96.7987 34.2329 96.7987 34.1793V33.3426Z" fill="var(--fill-0, white)"/>
<path d="M100.748 33.1859V34.2824C100.748 34.7358 100.388 35.0986 99.9387 35.0986H99.0596V36.9453H98.1602V32.4027H99.9387C100.388 32.4027 100.748 32.7325 100.748 33.1859ZM99.8487 33.3426C99.8487 33.2807 99.8242 33.2519 99.7629 33.2519H99.0596V34.2577H99.771C99.8283 34.2577 99.8487 34.2329 99.8487 34.1793V33.3426Z" fill="var(--fill-0, white)"/>
<path d="M102.126 36.9453H101.227V32.4027H102.126V36.9453Z" fill="var(--fill-0, white)"/>
<path d="M104.849 36.0343H104.906L104.865 32.3986H105.765V36.9411H104.268L103.729 33.3055H103.68L103.721 36.9411H102.821V32.3986H104.326L104.853 36.0343H104.849Z" fill="var(--fill-0, white)"/>
<path d="M107.179 32.3656H108.144C108.594 32.3656 108.954 32.7284 108.954 33.1818V33.899H108.054V33.2931C108.054 33.2354 108.026 33.2148 107.969 33.2148H107.351C107.294 33.2148 107.273 33.2395 107.273 33.2931V36.0755C107.273 36.1332 107.294 36.1538 107.351 36.1538H107.969C108.026 36.1538 108.054 36.1291 108.054 36.0755V35.3129H107.535V34.4061H108.954V36.1827C108.954 36.6361 108.594 36.9989 108.144 36.9989H107.179C106.73 36.9989 106.37 36.6361 106.37 36.1827V33.1859C106.37 32.7325 106.73 32.3697 107.179 32.3697V32.3656Z" fill="var(--fill-0, white)"/>
</g>
</svg>
