<svg preserveAspectRatio="none" width="100%" height="100%" overflow="visible" style="display: block;" viewBox="0 0 360.941 54.0004" fill="none" xmlns="http://www.w3.org/2000/svg">
<g id="Group 33521">
<g id="Vector">
<path d="M114.302 34.7364C114.302 37.8943 113.397 40.3785 111.587 42.189C109.818 43.9574 107.355 44.8416 104.197 44.8416H89.6709C86.5131 44.8416 84.0289 43.9574 82.2184 42.189C80.45 40.3785 79.5658 37.8943 79.5658 34.7364V20.2102C79.5658 17.0523 80.45 14.5892 82.2184 12.8208C84.0289 11.0103 86.5131 10.105 89.6709 10.105H104.197C107.355 10.105 109.818 11.0103 111.587 12.8208C113.397 14.5892 114.302 17.0523 114.302 20.2102V34.7364ZM103.25 21.1576C103.25 19.4734 102.408 18.6313 100.723 18.6313H93.1446C91.4604 18.6313 90.6183 19.4734 90.6183 21.1576V33.789C90.6183 35.4732 91.4604 36.3153 93.1446 36.3153H100.723C102.408 36.3153 103.25 35.4732 103.25 33.789V21.1576Z" fill="var(--fill-0, #3A343B)"/>
<path d="M56.5383 17.9997C54.8541 17.9997 54.012 18.8418 54.012 20.526V23.9997H64.7488V20.526C64.7488 18.8418 63.9067 17.9997 62.2225 17.9997H56.5383ZM74.5382 43.5784C66.4119 44.4205 59.0436 44.8416 52.4331 44.8416C49.57 44.8416 47.2753 43.9784 45.549 42.2521C43.8227 40.5258 42.9595 38.2311 42.9595 35.368V20.2102C42.9595 17.0523 43.8437 14.5892 45.6121 12.8208C47.4226 11.0103 49.9068 10.105 53.0647 10.105H65.6962C68.854 10.105 71.3172 11.0103 73.0856 12.8208C74.8961 14.5892 75.8013 17.0523 75.8013 20.2102V31.8943H54.012V34.4206C54.012 35.0522 54.2226 35.5785 54.6436 35.9996C55.0647 36.4206 55.591 36.6311 56.2225 36.6311C60.3909 36.6311 66.4961 36.3153 74.5382 35.6838V43.5784Z" fill="var(--fill-0, #3A343B)"/>
<path d="M39.1575 43.2628C29.305 44.3154 20.2524 44.8417 11.9999 44.8417C7.87361 44.8417 4.84206 43.8733 2.90524 41.9365C0.968412 39.9997 0 36.9681 0 32.8418V12.6315C0 8.21046 0.989465 5.01049 2.96839 3.03156C4.98943 1.01052 8.21045 0 12.6315 0H35.3681V8.84203H15.1578C12.6315 8.84203 11.3683 10.1052 11.3683 12.6315V32.8418C11.3683 33.8102 11.642 34.5892 12.1894 35.1787C12.7788 35.726 13.5578 35.9997 14.5262 35.9997C19.3682 35.9997 23.7893 35.8944 27.7892 35.6839V26.5261H19.5788V18.9472H39.1575V43.2628Z" fill="var(--fill-0, #3A343B)"/>
<path d="M117.59 0.758248H131.926L159.526 44.2105H145.126L117.59 0.758248ZM140.705 9.60028L145.505 0.758248H159.337L147.337 20.0844L140.705 9.60028ZM129.463 24.5054L136.031 34.9264L131.168 44.2105H117.337L129.463 24.5054Z" fill="var(--fill-0, #3A343B)"/>
</g>
<g id="Vector_2">
<path d="M336.581 54.0004V20.933H342.265L342.761 23.2338L344.836 22.1511C345.768 21.6398 346.761 21.2488 347.814 20.9781C348.896 20.6774 349.874 20.527 350.746 20.527C352.821 20.527 354.61 21.0533 356.114 22.106C357.648 23.1285 358.836 24.542 359.678 26.3465C360.52 28.151 360.941 30.2262 360.941 32.572C360.941 34.166 360.716 35.6848 360.265 37.1284C359.843 38.572 359.197 39.8652 358.325 41.0081C357.453 42.1208 356.37 42.993 355.077 43.6246C353.813 44.2561 352.325 44.5719 350.61 44.5719C349.768 44.5719 348.896 44.4667 347.994 44.2561C347.092 44.0456 346.235 43.7449 345.423 43.3539L344.25 42.7674V53.0079L336.581 54.0004ZM348.4 38.0306C349.423 38.0306 350.295 37.8351 351.016 37.4442C351.738 37.0532 352.28 36.4667 352.641 35.6848C353.001 34.8728 353.182 33.8352 353.182 32.572C353.182 31.3089 353.016 30.2863 352.686 29.5044C352.355 28.6924 351.829 28.0909 351.107 27.6999C350.385 27.3089 349.483 27.1134 348.4 27.1134C347.919 27.1134 347.438 27.1886 346.956 27.339C346.475 27.4593 345.964 27.6397 345.423 27.8803L344.25 28.3766V36.993L345.377 37.3991C345.919 37.6096 346.445 37.775 346.956 37.8953C347.468 37.9855 347.949 38.0306 348.4 38.0306Z" fill="var(--fill-0, #8759F2)"/>
<path d="M316.816 44.5719C315.553 44.5719 314.35 44.3464 313.207 43.8952C312.064 43.4441 311.132 42.7374 310.41 41.775C309.689 40.7825 309.328 39.5494 309.328 38.0757C309.328 36.0908 309.929 34.572 311.132 33.5194C312.365 32.4367 314.245 31.6247 316.771 31.0833L323.403 29.5946V29.5044C323.433 28.542 323.102 27.8352 322.41 27.3841C321.719 26.9029 320.576 26.6623 318.982 26.6623C318.049 26.6623 317.087 26.7225 316.095 26.8428C315.102 26.933 314.125 27.0683 313.162 27.2488L311.989 27.4743L310.861 22.7375L312.305 22.1962C313.779 21.6849 315.222 21.2789 316.636 20.9781C318.049 20.6774 319.448 20.527 320.831 20.527C323.899 20.527 326.365 21.309 328.23 22.8729C330.094 24.4067 331.027 26.6773 331.027 29.6848V37.0833C331.027 37.8351 331.222 38.3615 331.613 38.6622C332.034 38.963 332.816 39.1885 333.959 39.3389L333.463 44.211C333.042 44.3013 332.606 44.3764 332.155 44.4366C331.733 44.5268 331.373 44.5719 331.072 44.5719C329.327 44.5719 327.929 44.2411 326.876 43.5795C325.854 42.8877 325.072 42.0306 324.531 41.0081L323.538 41.8652C322.546 42.7674 321.448 43.4441 320.245 43.8952C319.042 44.3464 317.899 44.5719 316.816 44.5719ZM319.162 39.0231C319.643 39.0231 320.17 38.9479 320.741 38.7975C321.343 38.6171 321.929 38.3464 322.5 37.9855L323.403 37.4893V33.4743L318.711 34.7825C317.899 34.9931 317.343 35.2938 317.042 35.6848C316.741 36.0457 316.591 36.4818 316.591 36.993C316.591 37.6547 316.816 38.166 317.267 38.5269C317.749 38.8577 318.38 39.0231 319.162 39.0231Z" fill="var(--fill-0, #8759F2)"/>
<path d="M270.179 44.2109V12.6323H277.803L287.818 28.3765H287.908L298.104 12.6323H305.637V44.2109H297.833V25.8502L290.615 36.7674H285.066L277.984 25.8502V44.2109H270.179Z" fill="var(--fill-0, #8759F2)"/>
<path d="M262.816 44.5718C260.109 44.5718 258.169 43.9703 256.996 42.7673C255.824 41.5643 255.237 39.9102 255.237 37.805V10.918L262.906 9.47439V36.5418C262.906 37.1433 263.102 37.6095 263.493 37.9403C263.884 38.2411 264.5 38.3914 265.342 38.3914C265.523 38.3914 265.733 38.3914 265.974 38.3914C266.214 38.3614 266.47 38.3313 266.741 38.3012L266.515 43.8952C265.974 44.1057 265.372 44.2711 264.711 44.3914C264.049 44.5117 263.417 44.5718 262.816 44.5718Z" fill="var(--fill-0, #8759F2)"/>
<path d="M236.051 44.5719C234.788 44.5719 233.585 44.3464 232.442 43.8952C231.299 43.4441 230.367 42.7374 229.645 41.775C228.923 40.7825 228.562 39.5494 228.562 38.0757C228.562 36.0908 229.164 34.572 230.367 33.5194C231.6 32.4367 233.48 31.6247 236.006 31.0833L242.637 29.5946V29.5044C242.668 28.542 242.337 27.8352 241.645 27.3841C240.953 26.9029 239.81 26.6623 238.216 26.6623C237.284 26.6623 236.322 26.7225 235.329 26.8428C234.337 26.933 233.359 27.0683 232.397 27.2488L231.224 27.4743L230.096 22.7375L231.54 22.1962C233.014 21.6849 234.457 21.2789 235.871 20.9781C237.284 20.6774 238.683 20.527 240.066 20.527C243.134 20.527 245.6 21.309 247.465 22.8729C249.329 24.4067 250.261 26.6773 250.261 29.6848V37.0833C250.261 37.8351 250.457 38.3615 250.848 38.6622C251.269 38.963 252.051 39.1885 253.194 39.3389L252.698 44.211C252.277 44.3013 251.84 44.3764 251.389 44.4366C250.968 44.5268 250.607 44.5719 250.307 44.5719C248.562 44.5719 247.164 44.2411 246.111 43.5795C245.089 42.8877 244.307 42.0306 243.765 41.0081L242.773 41.8652C241.78 42.7674 240.683 43.4441 239.48 43.8952C238.277 44.3464 237.134 44.5719 236.051 44.5719ZM238.397 39.0231C238.878 39.0231 239.404 38.9479 239.976 38.7975C240.577 38.6171 241.164 38.3464 241.735 37.9855L242.637 37.4893V33.4743L237.946 34.7825C237.134 34.9931 236.577 35.2938 236.277 35.6848C235.976 36.0457 235.826 36.4818 235.826 36.993C235.826 37.6547 236.051 38.166 236.502 38.5269C236.983 38.8577 237.615 39.0231 238.397 39.0231Z" fill="var(--fill-0, #8759F2)"/>
<path d="M216.16 44.5719C213.784 44.5719 211.604 44.1208 209.619 43.2186C207.664 42.2862 206.085 40.9329 204.882 39.1584C203.709 37.3539 203.123 35.1735 203.123 32.6171C203.123 30.6923 203.453 28.9781 204.115 27.4743C204.807 25.9706 205.724 24.7074 206.867 23.6849C208.04 22.6323 209.378 21.8503 210.882 21.339C212.386 20.7977 213.965 20.527 215.619 20.527C218.025 20.527 220.055 21.0383 221.709 22.0608C223.393 23.0533 224.671 24.4518 225.543 26.2563C226.446 28.0608 226.897 30.166 226.897 32.572V34.5119H211.017C211.228 35.4743 211.619 36.2562 212.19 36.8577C212.762 37.4291 213.468 37.8502 214.31 38.1209C215.183 38.3915 216.16 38.5269 217.243 38.5269C217.995 38.5269 218.792 38.4667 219.634 38.3464C220.506 38.2261 221.393 38.0457 222.295 37.8051L224.506 37.2637L226.446 42.0005L224.28 42.9028C222.927 43.4742 221.558 43.8952 220.175 44.1659C218.792 44.4366 217.453 44.5719 216.16 44.5719ZM211.017 29.9555H220.04C219.859 28.6924 219.423 27.745 218.731 27.1134C218.04 26.4518 217.047 26.121 215.754 26.121C214.942 26.121 214.205 26.2563 213.544 26.527C212.912 26.7976 212.386 27.2187 211.965 27.7901C211.544 28.3615 211.228 29.0833 211.017 29.9555Z" fill="var(--fill-0, #8759F2)"/>
<path d="M174.269 44.2109V12.6323H189.652C191.998 12.6323 194.013 13.0383 195.697 13.8503C197.411 14.6623 198.735 15.8202 199.667 17.324C200.629 18.8277 201.111 20.6172 201.111 22.6923C201.111 24.5871 200.735 26.1961 199.983 27.5194C199.261 28.8427 198.253 29.9103 196.96 30.7223C195.697 31.5043 194.238 32.0907 192.584 32.4817C190.93 32.8426 189.186 33.0231 187.351 33.0231H182.209V44.2109H174.269ZM193.983 44.2109L187.126 32.2562L194.614 30.8126L202.78 44.2109H193.983ZM182.209 27.1133H188.299C189.923 27.1133 191.141 26.7825 191.953 26.1209C192.795 25.4292 193.216 24.4216 193.216 23.0983C193.216 21.8051 192.795 20.8578 191.953 20.2563C191.141 19.6548 189.908 19.354 188.254 19.354H182.209V27.1133Z" fill="var(--fill-0, #8759F2)"/>
</g>
</g>
</svg>
