<svg preserveAspectRatio="none" width="100%" height="100%" overflow="visible" style="display: block;" viewBox="0 0 67.1885 87.5" fill="none" xmlns="http://www.w3.org/2000/svg">
<g id="Group">
<path id="Vector" d="M40.626 85.9375H17.1885V68.875C17.1885 68.6844 17.1182 68.5 16.9932 68.3578C13.0885 63.9359 10.9385 58.2484 10.9385 52.3437C10.9385 52.1453 10.9369 51.9469 10.9525 51.7609L9.39316 51.6453C9.37753 51.8672 9.37597 52.1047 9.37597 52.3437C9.37597 58.5297 11.5932 64.4938 15.626 69.1688V86.7188C15.626 87.15 15.976 87.5 16.4072 87.5H41.4072C41.8385 87.5 42.1885 87.15 42.1885 86.7188V83.5938H40.626V85.9375Z" fill="var(--fill-0, #5871ED)"/>
<path id="Vector_2" d="M63.7572 57.9641L60.9385 55.1453V52.3437C60.9385 52.1047 60.9369 51.8672 60.9213 51.6453L59.3619 51.7609C59.3775 51.9469 59.376 52.1453 59.376 52.3437V55.4687C59.376 55.6766 59.4588 55.875 59.6041 56.0219L62.651 59.0687C64.5416 60.9578 65.6244 63.5766 65.6244 66.25V66.4062C65.6244 66.8375 65.2728 67.1875 64.8432 67.1875H60.1557C59.7244 67.1875 59.3744 67.5375 59.3744 67.9687V77.3437C59.3744 78.6359 58.3228 79.6875 57.0307 79.6875H37.7463C36.2838 79.6875 34.9119 79.1187 33.8775 78.0859L29.4588 73.6656L28.3541 74.7703L32.7728 79.1906C34.101 80.5187 35.8666 81.25 37.7463 81.25H57.0322C59.1869 81.25 60.9385 79.4969 60.9385 77.3437V68.75H64.8447C66.1369 68.75 67.1885 67.6984 67.1885 66.4062V66.25C67.1885 63.1641 65.9369 60.1437 63.7572 57.9641Z" fill="var(--fill-0, #5871ED)"/>
<path id="Vector_3" d="M13.8088 37.8891C12.7353 39.4641 11.8463 41.1578 11.165 42.9219L12.6213 43.4859C13.2619 41.8328 14.0963 40.2453 15.101 38.7672L13.8088 37.8891Z" fill="var(--fill-0, #5871ED)"/>
<path id="Vector_4" d="M57.6947 43.4859L59.151 42.9219C58.4682 41.1578 57.5791 39.4656 56.5072 37.8891L55.2166 38.7688C56.2182 40.2438 57.0541 41.8313 57.6947 43.4859Z" fill="var(--fill-0, #5871ED)"/>
<path id="Vector_5" d="M10.9713 34.6938L16.5963 36.5687C16.9103 37.5172 17.2869 38.4281 17.7197 39.2875L15.0635 44.5813C14.6307 45.4734 14.8072 46.5578 15.5119 47.2875L18.3478 50.125C19.0697 50.8203 20.1557 50.9953 21.0525 50.5578L26.34 47.9078C27.1994 48.3391 28.1103 48.7156 29.0557 49.0281L30.9338 54.6641C31.2666 55.6125 32.1588 56.25 33.1557 56.25H37.1572C38.1541 56.25 39.0463 55.6125 39.3838 54.6531L41.2572 49.0281C42.2025 48.7141 43.1135 48.3391 43.9728 47.9078L49.2682 50.5609C50.1557 50.9969 51.2432 50.8219 51.9744 50.1141L54.8103 47.2766C55.5057 46.5562 55.6838 45.4719 55.2447 44.5703L52.5932 39.2859C53.0244 38.4281 53.4025 37.5156 53.7166 36.5672L59.3525 34.6891C60.2994 34.3563 60.9369 33.4641 60.9369 32.4672V28.4672C60.9369 27.4703 60.301 26.5781 59.3416 26.2422L53.7166 24.3672C53.4025 23.4187 53.026 22.5078 52.5932 21.6484L55.2494 16.3547C55.6822 15.4625 55.5057 14.3781 54.801 13.6484L51.965 10.8109C51.2416 10.1125 50.1541 9.9375 49.2603 10.3781L43.9728 13.0281C43.1135 12.5969 42.2025 12.2203 41.2572 11.9078L39.3791 6.27187C39.0463 5.325 38.1541 4.6875 37.1572 4.6875H33.1572C32.1603 4.6875 31.2682 5.325 30.9307 6.28438L29.0572 11.9094C28.1119 12.2234 27.201 12.5984 26.3416 13.0297L21.0463 10.3766C20.1588 9.94062 19.0697 10.1156 18.34 10.8234L15.5041 13.6609C14.8088 14.3813 14.6307 15.4656 15.0697 16.3672L17.7213 21.6516C17.29 22.5094 16.9119 23.4203 16.5978 24.3688L12.3666 25.775L12.8572 27.2578L17.465 25.7266C17.7041 25.6469 17.89 25.4578 17.965 25.2172C18.3166 24.0875 18.7619 23.0125 19.2853 22.0219C19.4041 21.7984 19.4072 21.5328 19.2947 21.3062L16.4697 15.675C16.3182 15.3641 16.3791 15 16.6166 14.7563L19.4353 11.9375C19.6885 11.6922 20.051 11.6312 20.3557 11.7766L25.9963 14.6047C26.2197 14.7172 26.4869 14.7141 26.7119 14.5969C27.7025 14.0719 28.776 13.6281 29.9057 13.2781C30.1447 13.2031 30.3353 13.0172 30.415 12.7797L32.4088 6.79062C32.5213 6.46719 32.8228 6.25 33.1572 6.25H37.1588C37.4932 6.25 37.7932 6.46719 37.9025 6.77813L39.901 12.7781C39.9807 13.0172 40.1713 13.2016 40.4103 13.2766C41.54 13.6266 42.6135 14.0703 43.6041 14.5953C43.8291 14.7125 44.0947 14.7156 44.3197 14.6031L49.9525 11.7781C50.2666 11.6266 50.626 11.6891 50.8713 11.925L53.69 14.7437C53.9353 14.9984 53.9963 15.3625 53.851 15.6625L51.0213 21.3031C50.9088 21.5297 50.9119 21.7953 51.0307 22.0187C51.5541 23.0094 51.9994 24.0844 52.351 25.2141C52.426 25.4547 52.6119 25.6437 52.8494 25.7234L58.8369 27.7187C59.1557 27.8297 59.3775 28.1375 59.3775 28.4672V32.4672C59.3775 32.7953 59.1557 33.1031 58.8494 33.2109L52.8494 35.2109C52.6119 35.2906 52.426 35.4797 52.351 35.7203C51.9994 36.85 51.5541 37.925 51.0307 38.9156C50.9119 39.1391 50.9088 39.4047 51.0213 39.6313L53.8463 45.2625C53.9978 45.5734 53.9369 45.9375 53.6994 46.1812L50.8807 49C50.6291 49.2469 50.2682 49.3094 49.9603 49.1609L44.3197 46.3328C44.0947 46.2187 43.8291 46.2203 43.6041 46.3406C42.6135 46.8656 41.54 47.3094 40.4103 47.6594C40.1713 47.7344 39.9807 47.9203 39.901 48.1578L37.9072 54.1469C37.7947 54.4703 37.4932 54.6875 37.1588 54.6875H33.1572C32.8228 54.6875 32.5228 54.4703 32.4135 54.1594L30.415 48.1594C30.3353 47.9203 30.1447 47.7359 29.9057 47.6609C28.776 47.3109 27.7025 46.8672 26.7119 46.3422C26.4869 46.2219 26.2197 46.2203 25.9963 46.3344L20.3635 49.1594C20.051 49.3094 19.6885 49.2469 19.4447 49.0125L16.626 46.1937C16.3807 45.9391 16.3197 45.575 16.465 45.275L19.2947 39.6344C19.4072 39.4078 19.4041 39.1422 19.2853 38.9188C18.7619 37.9281 18.3166 36.8531 17.965 35.7234C17.89 35.4828 17.7041 35.2938 17.4666 35.2141L11.4775 33.2172C11.2994 33.1547 11.1494 33.0297 11.0541 32.8641L9.69628 33.6391C9.9791 34.1297 10.4275 34.5047 10.9713 34.6938Z" fill="var(--fill-0, #5871ED)"/>
<path id="Vector_6" d="M35.1572 46.875C44.2041 46.875 51.5635 39.5156 51.5635 30.4688C51.5635 21.4219 44.2041 14.0625 35.1572 14.0625C26.1103 14.0625 18.751 21.4219 18.751 30.4688C18.751 39.5156 26.1103 46.875 35.1572 46.875ZM35.1572 15.625C43.3416 15.625 50.001 22.2844 50.001 30.4688C50.001 38.6531 43.3416 45.3125 35.1572 45.3125C26.9728 45.3125 20.3135 38.6531 20.3135 30.4688C20.3135 22.2844 26.9728 15.625 35.1572 15.625Z" fill="var(--fill-0, #5871ED)"/>
<path id="Vector_7" d="M34.6369 37.5H35.6775C38.8697 37.5 42.0338 36.4453 44.5838 34.5313L47.4994 32.3453C48.0869 31.9063 48.4385 31.2047 48.4385 30.4703C48.4385 29.7359 48.0869 29.0344 47.4994 28.5953L44.5838 26.4062C42.0338 24.4906 38.8697 23.4375 35.6775 23.4375H34.6369C31.4447 23.4375 28.2807 24.4922 25.7307 26.4062L22.815 28.5937C22.2275 29.0328 21.876 29.7344 21.876 30.4688C21.876 31.2031 22.2275 31.9047 22.815 32.3438L25.7307 34.5313C28.2807 36.4453 31.4447 37.5 34.6369 37.5ZM35.1572 25C38.1728 25 40.626 27.4531 40.626 30.4688C40.626 33.4844 38.1728 35.9375 35.1572 35.9375C32.1416 35.9375 29.6885 33.4844 29.6885 30.4688C29.6885 27.4531 32.1416 25 35.1572 25ZM46.5635 29.8438C46.7588 29.9906 46.876 30.225 46.876 30.4688C46.876 30.7125 46.7588 30.9469 46.5635 31.0937L43.6478 33.2812C42.6869 34.0016 41.615 34.5531 40.4994 34.9891C41.5369 33.7625 42.1885 32.1984 42.1885 30.4688C42.1885 28.7391 41.5369 27.175 40.4978 25.95C41.6135 26.3859 42.6853 26.9359 43.6463 27.6578L46.5635 29.8438ZM23.4385 30.4688C23.4385 30.225 23.5557 29.9906 23.751 29.8438L26.6666 27.6563C27.6275 26.9359 28.6994 26.3844 29.815 25.9484C28.7775 27.175 28.126 28.7391 28.126 30.4688C28.126 32.1984 28.7775 33.7625 29.8166 34.9875C28.701 34.5516 27.6291 34.0016 26.6682 33.2797L23.7525 31.0922C23.5557 30.9469 23.4385 30.7125 23.4385 30.4688Z" fill="var(--fill-0, #5871ED)"/>
<path id="Vector_8" d="M35.1572 34.375C37.3119 34.375 39.0635 32.6219 39.0635 30.4688C39.0635 28.3156 37.3119 26.5625 35.1572 26.5625C34.7978 26.5625 34.4228 26.6234 34.0166 26.7484C33.7072 26.8437 33.4885 27.1187 33.465 27.4422C33.4432 27.7656 33.6228 28.0688 33.9166 28.2047C34.201 28.3344 34.376 28.6047 34.376 28.9062C34.376 29.3375 34.0244 29.6875 33.5947 29.6875C33.2932 29.6875 33.0228 29.5125 32.8932 29.2297C32.7588 28.9359 32.4838 28.7656 32.1307 28.7766C31.8072 28.7984 31.5307 29.0187 31.4369 29.3297C31.3103 29.7437 31.251 30.1063 31.251 30.4688C31.251 32.6219 33.0025 34.375 35.1572 34.375ZM33.5947 31.25C34.8869 31.25 35.9385 30.1984 35.9385 28.9062C35.9385 28.6719 35.9025 28.4437 35.8353 28.225C36.7978 28.5156 37.501 29.4125 37.501 30.4688C37.501 31.7609 36.4494 32.8125 35.1572 32.8125C34.0994 32.8125 33.2041 32.1094 32.9119 31.1469C33.1307 31.2141 33.3619 31.25 33.5947 31.25Z" fill="var(--fill-0, #5871ED)"/>
<path id="Vector_9" d="M35.1572 60.9375C51.9572 60.9375 65.626 47.2687 65.626 30.4688C65.626 13.6688 51.9572 0 35.1572 0C27.0182 0 19.3666 3.16875 13.6135 8.92344L14.7182 10.0281C20.176 4.56875 27.4353 1.5625 35.1572 1.5625C51.0963 1.5625 64.0635 14.5297 64.0635 30.4688C64.0635 46.4078 51.0963 59.375 35.1572 59.375C19.4822 59.375 6.71035 46.8266 6.29003 31.25H8.59472C9.46191 31.25 10.2541 30.775 10.6619 30.0125C11.0697 29.25 11.0244 28.3281 10.5447 27.6062L7.41972 22.9187C6.58378 21.6656 4.35566 21.6656 3.51972 22.9187L0.394722 27.6062C-0.0865281 28.3266 -0.130278 29.2484 0.277535 30.0109C0.685347 30.775 1.47753 31.25 2.34472 31.25H4.72753C5.14785 47.6875 18.6213 60.9375 35.1572 60.9375ZM1.65722 29.275C1.51972 29.0203 1.53535 28.7141 1.69472 28.4734L4.81972 23.7859C4.94628 23.5953 5.19003 23.4812 5.46972 23.4812C5.74941 23.4812 5.99316 23.5953 6.11972 23.7859L9.24472 28.4734C9.40566 28.7141 9.41972 29.0219 9.28222 29.2766C9.14785 29.5297 8.88378 29.6875 8.59472 29.6875H2.34472C2.05566 29.6875 1.7916 29.5297 1.65722 29.275Z" fill="var(--fill-0, #5871ED)"/>
</g>
</svg>
